<svg width="20" height="23" viewBox="0 0 20 23" fill="none" xmlns="http://www.w3.org/2000/svg">
<path d="M16.1547 12.1547C16.1436 10.2694 16.9978 8.84857 18.7227 7.8009C17.758 6.41874 16.2984 5.65855 14.3744 5.51204C12.5528 5.3683 10.5597 6.57354 9.82991 6.57354C9.05866 6.57354 7.29503 5.5618 5.90734 5.5618C3.04351 5.60603 0 7.84513 0 12.4007C0 13.7469 0.246024 15.1374 0.738072 16.5693C1.39598 18.4546 3.76776 23.0737 6.24182 22.9991C7.53552 22.9687 8.45051 22.0814 10.134 22.0814C11.7677 22.0814 12.6136 22.9991 14.0565 22.9991C16.5527 22.9632 18.6978 18.7642 19.3226 16.8734C15.975 15.295 16.1547 12.2514 16.1547 12.1547ZM13.2494 3.72353C14.6509 2.05941 14.5237 0.54457 14.4823 0C13.2438 0.0718722 11.8119 0.843116 10.9964 1.79128C10.098 2.80854 9.57006 4.06631 9.6834 5.4844C11.0213 5.58668 12.2432 4.89837 13.2494 3.72353Z" fill="#FAF8FF"/>
</svg>
