<svg width="22" height="22" viewBox="0 0 22 22" fill="none" xmlns="http://www.w3.org/2000/svg">
<path fill-rule="evenodd" clip-rule="evenodd" d="M8 1H2C1.44772 1 1 1.44772 1 2V8C1 8.55229 1.44772 9 2 9H8C8.55229 9 9 8.55229 9 8V2C9 1.44772 8.55229 1 8 1ZM2 0C0.895431 0 0 0.89543 0 2V8C0 9.10457 0.89543 10 2 10H8C9.10457 10 10 9.10457 10 8V2C10 0.895431 9.10457 0 8 0H2Z" fill="#170D42"/>
<path fill-rule="evenodd" clip-rule="evenodd" d="M20 1H14C13.4477 1 13 1.44772 13 2V8C13 8.55229 13.4477 9 14 9H20C20.5523 9 21 8.55229 21 8V2C21 1.44772 20.5523 1 20 1ZM14 0C12.8954 0 12 0.89543 12 2V8C12 9.10457 12.8954 10 14 10H20C21.1046 10 22 9.10457 22 8V2C22 0.895431 21.1046 0 20 0H14Z" fill="#170D42"/>
<path fill-rule="evenodd" clip-rule="evenodd" d="M20 13H14C13.4477 13 13 13.4477 13 14V20C13 20.5523 13.4477 21 14 21H20C20.5523 21 21 20.5523 21 20V14C21 13.4477 20.5523 13 20 13ZM14 12C12.8954 12 12 12.8954 12 14V20C12 21.1046 12.8954 22 14 22H20C21.1046 22 22 21.1046 22 20V14C22 12.8954 21.1046 12 20 12H14Z" fill="#170D42"/>
<path fill-rule="evenodd" clip-rule="evenodd" d="M8 13H2C1.44772 13 1 13.4477 1 14V20C1 20.5523 1.44772 21 2 21H8C8.55229 21 9 20.5523 9 20V14C9 13.4477 8.55229 13 8 13ZM2 12C0.895431 12 0 12.8954 0 14V20C0 21.1046 0.89543 22 2 22H8C9.10457 22 10 21.1046 10 20V14C10 12.8954 9.10457 12 8 12H2Z" fill="#170D42"/>
</svg>
