<svg width="22" height="22" viewBox="0 0 22 22" fill="none" xmlns="http://www.w3.org/2000/svg">
<path fill-rule="evenodd" clip-rule="evenodd" d="M20 1H2C1.44771 1 1 1.44772 1 2V20C1 20.5523 1.44772 21 2 21H20C20.5523 21 21 20.5523 21 20V2C21 1.44771 20.5523 1 20 1ZM2 0C0.895431 0 0 0.89543 0 2V20C0 21.1046 0.89543 22 2 22H20C21.1046 22 22 21.1046 22 20V2C22 0.895431 21.1046 0 20 0H2Z" fill="#170D42"/>
<path fill-rule="evenodd" clip-rule="evenodd" d="M4.64645 4.64645C4.84171 4.45118 5.15829 4.45118 5.35355 4.64645L11 10.2929L16.6464 4.64645C16.8417 4.45118 17.1583 4.45118 17.3536 4.64645C17.5488 4.84171 17.5488 5.15829 17.3536 5.35355L11.7071 11L17.3536 16.6464C17.5488 16.8417 17.5488 17.1583 17.3536 17.3536C17.1583 17.5488 16.8417 17.5488 16.6464 17.3536L11 11.7071L5.35355 17.3536C5.15829 17.5488 4.84171 17.5488 4.64645 17.3536C4.45118 17.1583 4.45118 16.8417 4.64645 16.6464L10.2929 11L4.64645 5.35355C4.45118 5.15829 4.45118 4.84171 4.64645 4.64645Z" fill="#170D42"/>
</svg>
