<svg width="189" height="48" viewBox="0 0 189 48" fill="none" xmlns="http://www.w3.org/2000/svg">
<path d="M7.31228 41.9828C6.42385 42.542 5.3839 41.5293 5.91941 40.6264L21.0457 15.1209C21.3759 14.5642 22.1398 14.463 22.6035 14.9146L32.5722 24.6221C33.0359 25.0736 32.955 25.84 32.4073 26.1848L7.31228 41.9828Z" fill="#6970FF"/>
<rect x="5" width="184" height="36" rx="15" fill="#6970FF"/>
<path d="M22.305 22H26.43C28.56 22 30 20.83 30 19.045C30 17.65 28.98 16.75 28.065 16.525C28.8 16.18 29.475 15.355 29.475 14.215C29.475 12.475 28.125 11.365 26.13 11.365H22.305V22ZM24.27 15.805V13.09H25.965C26.895 13.09 27.45 13.69 27.45 14.395C27.45 15.16 26.955 15.805 26.01 15.805H24.27ZM24.27 20.26V17.395H26.265C27.225 17.395 27.945 17.995 27.945 18.805C27.945 19.63 27.3 20.26 26.385 20.26H24.27ZM35.0487 14.17C32.7537 14.17 31.2087 15.925 31.2087 18.19C31.2087 20.605 32.8887 22.18 35.3487 22.18C36.2637 22.18 37.2237 22.06 38.0637 21.535V19.69C37.5087 20.155 36.5487 20.5 35.6037 20.5C34.4337 20.5 33.3687 19.975 33.2187 18.64H38.5137C38.5437 18.415 38.5737 18.07 38.5737 17.785C38.5737 15.79 37.3137 14.17 35.0487 14.17ZM35.0187 15.805C35.9937 15.805 36.6387 16.435 36.7137 17.365H33.2337C33.3987 16.42 34.0587 15.805 35.0187 15.805ZM42.8394 14.17C41.0094 14.17 39.8394 15.19 39.8394 16.555C39.8394 17.935 41.0394 18.415 42.2244 18.775C43.2444 19.09 43.8294 19.27 43.8294 19.78C43.8294 20.245 43.3644 20.575 42.4644 20.575C41.4144 20.575 40.6044 20.155 39.8844 19.465V21.4C40.5744 21.895 41.5344 22.18 42.5844 22.18C44.4894 22.18 45.6444 21.25 45.6444 19.765C45.6444 18.22 44.3394 17.785 43.0944 17.455C42.1494 17.2 41.6844 16.975 41.6844 16.51C41.6844 16.09 42.0894 15.79 42.9144 15.79C43.7694 15.79 44.5644 16.105 45.2094 16.63V14.83C44.6394 14.425 43.7244 14.17 42.8394 14.17ZM50.7857 14.17C48.4307 14.17 46.7357 15.91 46.7357 18.175C46.7357 20.44 48.4307 22.18 50.7857 22.18C53.1257 22.18 54.8207 20.44 54.8207 18.175C54.8207 15.91 53.1257 14.17 50.7857 14.17ZM50.7857 15.955C51.9857 15.955 52.8557 16.915 52.8557 18.175C52.8557 19.435 51.9857 20.395 50.7857 20.395C49.5707 20.395 48.7007 19.435 48.7007 18.175C48.7007 16.915 49.5707 15.955 50.7857 15.955ZM57.5095 11.02C56.8795 11.02 56.3695 11.5 56.3695 12.13C56.3695 12.76 56.8795 13.24 57.5095 13.24C58.1245 13.24 58.6195 12.76 58.6195 12.13C58.6195 11.5 58.1245 11.02 57.5095 11.02ZM56.5195 22H58.4695V14.35H56.5195V22ZM62.584 15.385V14.35H60.709V22H62.659V18.055C62.659 17.065 63.139 15.91 64.429 15.91C65.299 15.91 65.959 16.48 65.959 17.59V22H67.909V17.35C67.909 15.355 66.709 14.17 64.939 14.17C63.784 14.17 63.019 14.65 62.584 15.385ZM79.1186 20.965V22H80.9336V11.35H78.9986V15.295C78.5786 14.665 77.6486 14.17 76.6586 14.17C74.7086 14.17 73.0886 15.805 73.0886 18.175C73.0886 20.545 74.6936 22.18 76.6886 22.18C77.7086 22.18 78.7136 21.67 79.1186 20.965ZM77.0636 20.455C75.9686 20.455 75.0386 19.54 75.0386 18.19C75.0386 16.84 75.9686 15.925 77.0636 15.925C78.1736 15.925 79.1036 16.825 79.1036 18.19C79.1036 19.54 78.1736 20.455 77.0636 20.455ZM82.9097 14.335H83.8247L84.8897 11.935C84.9797 11.755 85.0097 11.59 85.0097 11.425C85.0097 10.78 84.5297 10.33 83.8847 10.33C83.2397 10.33 82.7597 10.78 82.7597 11.425C82.7597 11.935 83.1347 12.34 83.5697 12.475L82.9097 14.335ZM87.5535 11.02C86.9235 11.02 86.4135 11.5 86.4135 12.13C86.4135 12.76 86.9235 13.24 87.5535 13.24C88.1685 13.24 88.6635 12.76 88.6635 12.13C88.6635 11.5 88.1685 11.02 87.5535 11.02ZM86.5635 22H88.5135V14.35H86.5635V22ZM92.6279 15.385V14.35H90.7529V22H92.7029V18.055C92.7029 17.065 93.1829 15.91 94.4729 15.91C95.3429 15.91 96.0029 16.48 96.0029 17.59V22H97.9529V17.35C97.9529 15.355 96.7529 14.17 94.9829 14.17C93.8279 14.17 93.0629 14.65 92.6279 15.385ZM102.649 14.17C100.819 14.17 99.649 15.19 99.649 16.555C99.649 17.935 100.849 18.415 102.034 18.775C103.054 19.09 103.639 19.27 103.639 19.78C103.639 20.245 103.174 20.575 102.274 20.575C101.224 20.575 100.414 20.155 99.694 19.465V21.4C100.384 21.895 101.344 22.18 102.394 22.18C104.299 22.18 105.454 21.25 105.454 19.765C105.454 18.22 104.149 17.785 102.904 17.455C101.959 17.2 101.494 16.975 101.494 16.51C101.494 16.09 101.899 15.79 102.724 15.79C103.579 15.79 104.374 16.105 105.019 16.63V14.83C104.449 14.425 103.534 14.17 102.649 14.17ZM107.115 25H109.05V21.145C109.5 21.76 110.385 22.18 111.3 22.18C113.355 22.18 114.945 20.545 114.945 18.175C114.945 15.805 113.325 14.17 111.36 14.17C110.295 14.17 109.35 14.74 108.93 15.415V14.35H107.115V25ZM108.945 18.19C108.945 16.825 109.86 15.925 110.97 15.925C112.065 15.925 112.995 16.84 112.995 18.19C112.995 19.54 112.065 20.455 110.97 20.455C109.86 20.455 108.945 19.54 108.945 18.19ZM117.627 11.02C116.997 11.02 116.487 11.5 116.487 12.13C116.487 12.76 116.997 13.24 117.627 13.24C118.242 13.24 118.737 12.76 118.737 12.13C118.737 11.5 118.242 11.02 117.627 11.02ZM116.637 22H118.587V14.35H116.637V22ZM122.761 14.35H120.826V22H122.776V18.595C122.776 17.05 123.586 16.075 124.981 16.075C125.146 16.075 125.341 16.105 125.401 16.12V14.23C125.311 14.2 125.101 14.17 124.921 14.17C123.901 14.17 123.151 14.74 122.761 15.67V14.35ZM126.7 14.905V16.735C127.27 16.315 128.2 15.88 129.22 15.88C130.195 15.88 130.825 16.345 130.825 17.14V17.35L128.89 17.635C127.105 17.905 126.115 18.67 126.115 20.005C126.115 21.265 127.165 22.18 128.605 22.18C129.61 22.18 130.435 21.715 130.915 20.935V22H132.73V17.17C132.73 15.235 131.32 14.17 129.37 14.17C128.335 14.17 127.345 14.485 126.7 14.905ZM129.04 20.665C128.41 20.665 127.975 20.335 127.975 19.81C127.975 19.255 128.455 18.91 129.295 18.805L130.84 18.61V18.895C130.84 19.855 130.03 20.665 129.04 20.665ZM139.121 20.2C138.806 20.38 138.431 20.44 138.221 20.44C137.501 20.44 137.096 20.11 137.096 19.33V15.91H138.941V14.35H137.096V12.115L135.206 12.61V14.35H134.066V15.91H135.146V19.6C135.146 21.25 136.121 22.18 137.696 22.18C138.326 22.18 138.806 22.06 139.121 21.88V20.2ZM141.65 11.02C141.02 11.02 140.51 11.5 140.51 12.13C140.51 12.76 141.02 13.24 141.65 13.24C142.265 13.24 142.76 12.76 142.76 12.13C142.76 11.5 142.265 11.02 141.65 11.02ZM140.66 22H142.61V14.35H140.66V22ZM148.33 14.17C145.975 14.17 144.28 15.91 144.28 18.175C144.28 20.44 145.975 22.18 148.33 22.18C150.67 22.18 152.365 20.44 152.365 18.175C152.365 15.91 150.67 14.17 148.33 14.17ZM148.33 15.955C149.53 15.955 150.4 16.915 150.4 18.175C150.4 19.435 149.53 20.395 148.33 20.395C147.115 20.395 146.245 19.435 146.245 18.175C146.245 16.915 147.115 15.955 148.33 15.955ZM155.938 15.385V14.35H154.063V22H156.013V18.055C156.013 17.065 156.493 15.91 157.783 15.91C158.653 15.91 159.313 16.48 159.313 17.59V22H161.263V17.35C161.263 15.355 160.063 14.17 158.293 14.17C157.138 14.17 156.373 14.65 155.938 15.385ZM166.473 11.92V14.05C167.058 13.315 168.018 13 168.783 13C169.683 13 170.328 13.42 170.328 14.23C170.328 14.92 169.833 15.31 169.263 15.76C168.543 16.315 167.718 16.99 167.718 18.37V19.09H169.593V18.535C169.593 17.74 170.133 17.305 170.733 16.81C171.468 16.21 172.293 15.52 172.293 14.14C172.293 12.4 170.928 11.17 168.903 11.17C168.108 11.17 167.178 11.395 166.473 11.92ZM168.678 19.96C168.048 19.96 167.553 20.44 167.553 21.07C167.553 21.7 168.048 22.18 168.678 22.18C169.293 22.18 169.788 21.7 169.788 21.07C169.788 20.44 169.293 19.96 168.678 19.96Z" fill="#FAF8FF"/>
</svg>
