<svg width="24" height="22" viewBox="0 0 24 22" fill="none" xmlns="http://www.w3.org/2000/svg">
<path d="M9.5 22C10.3284 22 11 21.3284 11 20.5C11 19.6716 10.3284 19 9.5 19C8.67157 19 8 19.6716 8 20.5C8 21.3284 8.67157 22 9.5 22Z" fill="#170D42"/>
<path d="M19.5 22C20.3284 22 21 21.3284 21 20.5C21 19.6716 20.3284 19 19.5 19C18.6716 19 18 19.6716 18 20.5C18 21.3284 18.6716 22 19.5 22Z" fill="#170D42"/>
<path fill-rule="evenodd" clip-rule="evenodd" d="M0 1C0 0.447715 0.447715 0 1 0H5C5.47663 0 5.88701 0.336386 5.98055 0.803744L6.82043 5.00002H23C23.298 5.00002 23.5805 5.13295 23.7705 5.36257C23.9605 5.5922 24.0381 5.89459 23.9823 6.18734L22.3809 14.5849C22.2437 15.2755 21.868 15.8958 21.3195 16.3373C20.7738 16.7766 20.0916 17.011 19.3914 17.0001H9.68864C8.98837 17.011 8.3062 16.7766 7.76048 16.3373C7.21229 15.896 6.83669 15.2761 6.69936 14.5859L6.69916 14.5849L5.02879 6.23922C5.02201 6.21161 5.01638 6.18355 5.01195 6.15509L4.18032 2H1C0.447715 2 0 1.55228 0 1ZM7.22073 7.00002L8.66084 14.1952C8.70656 14.4254 8.83179 14.6322 9.01461 14.7794C9.19743 14.9266 9.42619 15.0047 9.66084 15.0002L9.68 15.0001H19.4L19.4192 15.0002C19.6538 15.0047 19.8826 14.9266 20.0654 14.7794C20.2474 14.6329 20.3723 14.4273 20.4186 14.1983L20.4192 14.1952L21.7913 7.00002H7.22073Z" fill="#170D42"/>
</svg>
