<svg width="32" height="29" viewBox="0 0 32 29" fill="none" xmlns="http://www.w3.org/2000/svg">
<path d="M27.8879 3.35425C27.1798 2.61299 26.3391 2.02497 25.4137 1.62379C24.4884 1.2226 23.4965 1.01611 22.4949 1.01611C21.4932 1.01611 20.5014 1.2226 19.576 1.62379C18.6506 2.02497 17.8099 2.61299 17.1018 3.35425L15.6322 4.8919L14.1626 3.35425C12.7323 1.85766 10.7923 1.01689 8.76955 1.01689C6.74675 1.01689 4.8068 1.85766 3.37647 3.35425C1.94613 4.85084 1.14258 6.88064 1.14258 8.99714C1.14258 11.1136 1.94613 13.1434 3.37647 14.64L4.84604 16.1777L15.6322 27.4635L26.4184 16.1777L27.8879 14.64C28.5964 13.8991 29.1584 13.0194 29.5418 12.0512C29.9252 11.083 30.1226 10.0452 30.1226 8.99714C30.1226 7.94909 29.9252 6.91131 29.5418 5.94308C29.1584 4.97485 28.5964 4.09516 27.8879 3.35425Z" stroke="#170D42" stroke-width="2" stroke-linecap="round" stroke-linejoin="round"/>
</svg>
