<svg width="24" height="22" viewBox="0 0 24 22" fill="none" xmlns="http://www.w3.org/2000/svg">
<path fill-rule="evenodd" clip-rule="evenodd" d="M14.7812 3.45442L13.5641 4.7335C13.1555 5.163 12.5904 5.40586 11.9997 5.40586C11.409 5.40586 10.8439 5.163 10.4352 4.7335L9.2182 3.45442C8.43214 2.6283 7.38628 2.18246 6.31633 2.18246C5.24638 2.18246 4.20051 2.6283 3.41446 3.45442C2.62539 4.28372 2.16667 5.42764 2.16667 6.63895C2.16667 7.85026 2.62539 8.99418 3.41446 9.82348L11.9997 18.8463L20.5849 9.82348C20.975 9.41373 21.2894 8.92184 21.5053 8.37436C21.7212 7.82676 21.8333 7.2368 21.8333 6.63895C21.8333 6.0411 21.7212 5.45114 21.5053 4.90354C21.2894 4.35606 20.9753 3.86454 20.5853 3.45479C20.1956 3.04503 19.7372 2.72446 19.2403 2.50808C18.7437 2.29179 18.2148 2.18182 17.6831 2.18182C17.1513 2.18182 16.6224 2.2918 16.1258 2.50808C15.6289 2.72446 15.1709 3.04466 14.7812 3.45442ZM11.9997 22L1.85001 11.3329C0.665469 10.088 0 8.39954 0 6.63895C0 4.87836 0.665469 3.18988 1.85001 1.94496C3.03455 0.700036 4.64114 0.000645313 6.31633 0.0006453C7.85747 0.000645288 9.34055 0.592582 10.4904 1.65666C10.5904 1.74921 10.6879 1.84534 10.7826 1.94496L11.9997 3.22404L13.2167 1.94496C13.3113 1.84548 13.4088 1.74932 13.509 1.6566C14.0296 1.17457 14.6231 0.785373 15.2658 0.50549C16.0321 0.171768 16.8535 0 17.6831 0C18.5126 0 19.334 0.171768 20.1003 0.50549C20.8667 0.839213 21.5629 1.32835 22.1494 1.94496C22.7361 2.56128 23.2015 3.29305 23.519 4.09846C23.8366 4.90387 24 5.76714 24 6.63895C24 7.51076 23.8366 8.37403 23.519 9.17944C23.2015 9.98485 22.7361 10.7166 22.1494 11.3329L11.9997 22Z" fill="#170D42"/>
</svg>
