<svg width="27" height="21" viewBox="0 0 27 21" fill="none" xmlns="http://www.w3.org/2000/svg">
<path fill-rule="evenodd" clip-rule="evenodd" d="M0.908442 6.20538L3.03024 8.32719L8.25465 3.10278L6.13285 0.980977L0.908442 6.20538ZM0.394075 6.59946C0.176433 6.38182 0.176433 6.02895 0.394075 5.81131L5.73877 0.46661C5.95641 0.248969 6.30928 0.248969 6.52692 0.466611L8.76902 2.70871C8.98666 2.92635 8.98666 3.27921 8.76902 3.49685L3.42432 8.84155C3.20668 9.05919 2.85381 9.05919 2.63617 8.84155L0.394075 6.59946Z" fill="#170D42"/>
<path fill-rule="evenodd" clip-rule="evenodd" d="M20.0419 0.908442L17.9201 3.03024L23.1445 8.25465L25.2663 6.13285L20.0419 0.908442ZM19.6478 0.394075C19.8654 0.176432 20.2183 0.176435 20.4359 0.394076L25.7806 5.73877C25.9983 5.95642 25.9983 6.30928 25.7806 6.52692L23.5385 8.76902C23.3209 8.98666 22.968 8.98666 22.7504 8.76902L17.4057 3.42432C17.1881 3.20668 17.1881 2.85381 17.4057 2.63617L19.6478 0.394075Z" fill="#170D42"/>
<path fill-rule="evenodd" clip-rule="evenodd" d="M8.23689 3.12007C8.36232 2.99464 8.56569 2.99464 8.69112 3.12007L10.4867 4.91565C10.6121 5.04108 10.6121 5.24444 10.4867 5.36987C10.3613 5.4953 10.1579 5.4953 10.0325 5.36987L8.23689 3.57429C8.11146 3.44886 8.11146 3.2455 8.23689 3.12007Z" fill="#170D42"/>
<path fill-rule="evenodd" clip-rule="evenodd" d="M11.6906 14.783C11.8382 14.7789 11.9851 14.8055 12.1219 14.8611C12.2498 14.9131 12.3662 14.9893 12.4649 15.0856L12.4947 15.1076C12.5011 15.1122 12.5072 15.1171 12.5132 15.1223L12.5314 15.1378C12.5378 15.1433 12.5439 15.1491 12.5499 15.155L13.2466 15.8543L13.3828 15.988C13.3852 15.9904 13.3877 15.9928 13.39 15.9953C13.4009 16.0067 13.4111 16.0186 13.4206 16.031L15.0538 17.6693L15.0567 17.6723C15.256 17.8775 15.3675 18.1523 15.3675 18.4383C15.3675 18.7244 15.256 18.9992 15.0567 19.2044L15.0538 19.2073L14.348 19.9157L14.3453 19.9184C14.1398 20.1199 13.8634 20.2327 13.5756 20.2327C13.2878 20.2327 13.0114 20.1199 12.8059 19.9184L12.8031 19.9156L11.6225 18.7298C11.4973 18.6041 11.4978 18.4008 11.6235 18.2756C11.7492 18.1504 11.9526 18.1509 12.0777 18.2766L13.2567 19.4608C13.3421 19.5439 13.4565 19.5904 13.5756 19.5904C13.6948 19.5904 13.8092 19.5439 13.8945 19.4608L14.5971 18.7556C14.6792 18.6704 14.7251 18.5567 14.7251 18.4383C14.7251 18.32 14.6792 18.2063 14.5971 18.1211L12.946 16.4647C12.935 16.4537 12.9248 16.4419 12.9155 16.4294L12.7954 16.3116L12.7928 16.309L12.1039 15.6175L12.0644 15.5884C12.0501 15.5779 12.0367 15.5662 12.0244 15.5535C11.9835 15.5114 11.9344 15.4782 11.88 15.4561C11.8256 15.434 11.7673 15.4235 11.7086 15.4251C11.5313 15.4301 11.3835 15.2904 11.3785 15.1131C11.3736 14.9358 11.5133 14.788 11.6906 14.783Z" fill="#170D42"/>
<path fill-rule="evenodd" clip-rule="evenodd" d="M15.0793 14.5682C15.2047 14.4428 15.4081 14.4428 15.5335 14.5682L17.0842 16.1189C17.1042 16.1374 17.122 16.158 17.1375 16.1803C17.3148 16.3842 17.4111 16.6468 17.4072 16.9178C17.4031 17.2004 17.2904 17.4705 17.0925 17.6721L17.0899 17.6747L16.3901 18.3719C16.1845 18.5734 15.9082 18.6862 15.6204 18.6862C15.3325 18.6862 15.0562 18.5734 14.8506 18.3719L14.8483 18.3697L12.9462 16.4649C12.9351 16.4538 12.9249 16.442 12.9156 16.4294L12.7955 16.3116C12.6688 16.1873 12.6669 15.984 12.7911 15.8574C12.9154 15.7308 13.1187 15.7288 13.2453 15.853L13.3829 15.988C13.3853 15.9904 13.3877 15.9928 13.3901 15.9953C13.4009 16.0066 13.4111 16.0185 13.4206 16.0309L15.3013 17.9142C15.3867 17.9973 15.5011 18.0439 15.6204 18.0439C15.7397 18.0439 15.8542 17.9973 15.9396 17.914L16.6351 17.221C16.7168 17.1373 16.7632 17.0255 16.7649 16.9085C16.7666 16.791 16.723 16.6774 16.6432 16.5912C16.6349 16.5823 16.6272 16.5729 16.6201 16.5632L15.0793 15.0224C14.9538 14.897 14.9538 14.6936 15.0793 14.5682Z" fill="#170D42"/>
<path fill-rule="evenodd" clip-rule="evenodd" d="M16.8126 12.8427C16.938 12.7172 17.1414 12.7172 17.2668 12.8427L19.3167 14.8925L19.3189 14.8948C19.5204 15.1004 19.6332 15.3767 19.6332 15.6645C19.6332 15.9524 19.5204 16.2287 19.3189 16.4343L19.3171 16.4361L19.3171 16.4361L18.6814 17.0744L18.6787 17.0771C18.4731 17.2786 18.1968 17.3915 17.9089 17.3915C17.6211 17.3915 17.3447 17.2786 17.1392 17.0771L17.1357 17.0736L16.6623 16.5951L15.0836 15.0397C14.9572 14.9152 14.9557 14.7118 15.0802 14.5855C15.2047 14.4591 15.408 14.4576 15.5344 14.5821L17.1146 16.1389L17.1175 16.1418L17.5904 16.6199C17.6757 16.7027 17.79 16.7491 17.9089 16.7491C18.028 16.7491 18.1424 16.7026 18.2278 16.6196L18.861 15.9838C18.9442 15.8984 18.9909 15.7839 18.9909 15.6645C18.9909 15.5453 18.9443 15.4308 18.8612 15.3455L16.8126 13.2969C16.6871 13.1715 16.6871 12.9681 16.8126 12.8427Z" fill="#170D42"/>
<path fill-rule="evenodd" clip-rule="evenodd" d="M14.9565 8.1259C14.8892 8.08621 14.811 8.06863 14.7331 8.07563C14.5565 8.09151 14.4004 7.96116 14.3845 7.78449C14.3686 7.60782 14.499 7.45173 14.6756 7.43585C14.884 7.41712 15.093 7.46314 15.2742 7.56752C15.3665 7.61574 15.451 7.6776 15.5249 7.75102L15.5258 7.75184L21.3769 13.6056L21.3791 13.6078C21.5806 13.8134 21.6935 14.0897 21.6935 14.3776C21.6935 14.6654 21.5806 14.9418 21.3791 15.1473L21.3774 15.1491L20.7936 15.7355L20.7908 15.7383C20.5852 15.9397 20.3089 16.0526 20.0211 16.0526C19.7332 16.0526 19.4569 15.9397 19.2513 15.7383L19.249 15.736L16.8124 13.2968C16.6871 13.1713 16.6872 12.9679 16.8127 12.8426C16.9382 12.7172 17.1416 12.7173 17.2669 12.8428L19.314 14.8926L19.702 15.2805C19.7874 15.3637 19.9018 15.4102 20.0211 15.4102C20.1402 15.4102 20.2546 15.3637 20.3399 15.2807L20.9204 14.6976C20.9207 14.6974 20.9209 14.6971 20.9212 14.6969C21.0045 14.6115 21.0511 14.4969 21.0511 14.3776C21.0511 14.2584 21.0045 14.1439 20.9214 14.0585L15.0722 8.20675C15.0721 8.20664 15.072 8.20652 15.0719 8.2064C15.0429 8.17774 15.0098 8.15372 14.9735 8.1352C14.9677 8.13227 14.9621 8.12917 14.9565 8.1259Z" fill="#170D42"/>
<path fill-rule="evenodd" clip-rule="evenodd" d="M3.024 8.33284C3.14943 8.20741 3.3528 8.20741 3.47822 8.33284L5.87579 10.7304C6.00122 10.8558 6.00122 11.0592 5.87579 11.1846C5.75036 11.3101 5.54699 11.3101 5.42157 11.1846L3.024 8.78706C2.89857 8.66163 2.89857 8.45827 3.024 8.33284Z" fill="#170D42"/>
<path fill-rule="evenodd" clip-rule="evenodd" d="M17.8351 2.88912C17.9606 3.01455 17.9606 3.21791 17.8351 3.34334L16.4599 4.71856L16.4594 4.7191C16.3765 4.80164 16.2772 4.86595 16.168 4.9079C16.0587 4.94986 15.9419 4.96853 15.8251 4.96273L15.8239 4.96267L10.9665 4.70332C10.9662 4.70331 10.9658 4.7033 10.9655 4.70328C10.926 4.70169 10.8869 4.71197 10.8534 4.73279C10.8195 4.75379 10.7927 4.78454 10.7766 4.821L10.7742 4.82642C10.2727 5.90731 9.6222 6.91259 8.84171 7.81295L8.83876 7.81631C8.81828 7.83928 8.80345 7.8667 8.79543 7.8964C8.78742 7.92611 8.78645 7.95727 8.79259 7.98742C8.79873 8.01757 8.81183 8.04586 8.83083 8.07006C8.84977 8.09418 8.87407 8.11357 8.90179 8.12669C9.3602 8.3413 9.71022 8.3115 9.93743 8.24309C10.0544 8.20787 10.144 8.1607 10.2026 8.12388C10.2318 8.10554 10.2528 8.09004 10.2652 8.08038C10.2713 8.07556 10.2753 8.07224 10.277 8.0708C10.2772 8.07058 10.2774 8.07041 10.2776 8.07028C10.2817 8.06657 10.2859 8.06296 10.2902 8.05947L11.5438 7.03686C11.6424 6.95667 11.7578 6.89988 11.8815 6.87078C12.0052 6.84168 12.1339 6.84101 12.2579 6.86883L12.2586 6.86898L15.6829 7.64489C15.7086 7.64835 15.7346 7.64798 15.7601 7.64376L15.7657 7.64289L17.1591 7.4379C17.3346 7.41208 17.4978 7.53342 17.5236 7.70892C17.5494 7.88441 17.4281 8.04761 17.2526 8.07342L15.8617 8.27804C15.7653 8.29362 15.667 8.29345 15.5707 8.27754C15.5645 8.27651 15.5582 8.27529 15.5521 8.27389L12.1173 7.49561C12.1171 7.49558 12.117 7.49556 12.1169 7.49554C12.0878 7.48906 12.0577 7.48924 12.0287 7.49607C11.9996 7.5029 11.9725 7.51621 11.9493 7.53501C11.9493 7.53506 11.9492 7.53511 11.9492 7.53516L10.7016 8.55285C10.6994 8.55478 10.6969 8.55695 10.6941 8.55935C10.6856 8.56659 10.6743 8.57588 10.6604 8.58676C10.6326 8.60849 10.5938 8.63672 10.5444 8.66772C10.446 8.72958 10.3041 8.80355 10.1226 8.85818C9.75312 8.96943 9.23924 8.99412 8.62884 8.70818L8.62813 8.70784C8.50991 8.65211 8.40632 8.56957 8.3256 8.46677C8.24489 8.36398 8.18927 8.24377 8.16317 8.11571C8.13706 7.98765 8.1412 7.85526 8.17524 7.72907C8.20907 7.6037 8.27149 7.48789 8.3576 7.39073C9.09765 6.53674 9.71455 5.58339 10.1904 4.55842C10.2589 4.40488 10.372 4.2754 10.5149 4.18679C10.6589 4.09759 10.8264 4.05396 10.9955 4.06162L10.9981 4.06173L15.8569 4.32116C15.8571 4.32117 15.8572 4.32117 15.8574 4.32118C15.8847 4.32248 15.9121 4.31807 15.9376 4.30825C15.9633 4.29839 15.9866 4.28329 16.0061 4.2639C16.0062 4.26387 16.0061 4.26393 16.0061 4.2639L17.3809 2.88912C17.5064 2.76369 17.7097 2.76369 17.8351 2.88912Z" fill="#170D42"/>
<path fill-rule="evenodd" clip-rule="evenodd" d="M23.123 8.21601C23.2485 8.34137 23.2486 8.54473 23.1232 8.67023L20.9244 10.8716L20.0046 12.5592C19.9197 12.7149 19.7247 12.7724 19.5689 12.6875C19.4131 12.6026 19.3557 12.4075 19.4406 12.2517L20.3825 10.5236C20.3972 10.4967 20.4156 10.472 20.4373 10.4504L22.6688 8.21627C22.7941 8.09077 22.9975 8.09065 23.123 8.21601Z" fill="#170D42"/>
<path fill-rule="evenodd" clip-rule="evenodd" d="M5.7566 11.1776C5.6966 11.1175 5.5993 11.1175 5.5393 11.1776L4.39073 12.3261C4.33072 12.3861 4.33072 12.4834 4.39073 12.5434L5.5393 13.692C5.5993 13.752 5.69659 13.752 5.7566 13.692L6.90517 12.5434C6.96518 12.4834 6.96518 12.3861 6.90517 12.3261L5.7566 11.1776ZM5.08507 10.7233C5.39594 10.4125 5.89996 10.4125 6.21082 10.7233L7.35939 11.8719C7.67026 12.1828 7.67026 12.6868 7.35939 12.9977L6.21082 14.1462C5.89996 14.4571 5.39594 14.4571 5.08507 14.1462L3.93651 12.9977C3.62564 12.6868 3.62564 12.1828 3.93651 11.8719L5.08507 10.7233Z" fill="#170D42"/>
<path fill-rule="evenodd" clip-rule="evenodd" d="M8.10939 12.4423C8.04938 12.3823 7.95209 12.3823 7.89208 12.4423L6.11235 14.222C6.05234 14.282 6.05234 14.3793 6.11235 14.4393L7.26092 15.5879C7.32092 15.6479 7.41822 15.6479 7.47822 15.5879L9.25795 13.8081C9.31796 13.7481 9.31796 13.6508 9.25795 13.5908L8.10939 12.4423ZM7.43786 11.988C7.74872 11.6772 8.25274 11.6772 8.56361 11.988L9.71218 13.1366C10.023 13.4475 10.023 13.9515 9.71218 14.2624L7.93244 16.0421C7.62158 16.353 7.11756 16.353 6.8067 16.0421L5.65813 14.8935C5.34726 14.5827 5.34726 14.0786 5.65813 13.7678L7.43786 11.988Z" fill="#170D42"/>
<path fill-rule="evenodd" clip-rule="evenodd" d="M10.2792 13.8186C10.2192 13.7586 10.1219 13.7586 10.0619 13.8186L7.96106 15.9194C7.90105 15.9794 7.90105 16.0767 7.96106 16.1367L9.10963 17.2853C9.16964 17.3453 9.26693 17.3453 9.32694 17.2853L11.4278 15.1845C11.4878 15.1245 11.4878 15.0272 11.4278 14.9672L10.2792 13.8186ZM9.60766 13.3644C9.91853 13.0535 10.4225 13.0535 10.7334 13.3644L11.882 14.513C12.1928 14.8238 12.1928 15.3278 11.882 15.6387L9.78116 17.7395C9.47029 18.0504 8.96628 18.0504 8.65541 17.7395L7.50684 16.591C7.19597 16.2801 7.19597 15.7761 7.50684 15.4652L9.60766 13.3644Z" fill="#170D42"/>
<path fill-rule="evenodd" clip-rule="evenodd" d="M12.1109 15.6246C12.0508 15.5646 11.9536 15.5646 11.8935 15.6246L9.77988 17.7383C9.71988 17.7983 9.71988 17.8956 9.77988 17.9556L10.756 18.9317C10.816 18.9917 10.9133 18.9917 10.9733 18.9317L13.087 16.818C13.147 16.758 13.147 16.6607 13.087 16.6007L12.1109 15.6246ZM11.4393 15.1704C11.7502 14.8596 12.2542 14.8596 12.5651 15.1704L13.5412 16.1465C13.852 16.4574 13.852 16.9614 13.5412 17.2723L11.4275 19.3859C11.1166 19.6968 10.6126 19.6968 10.3018 19.3859L9.32566 18.4098C9.01479 18.099 9.0148 17.5949 9.32566 17.2841L11.4393 15.1704Z" fill="#170D42"/>
</svg>
