<svg width="20" height="22" viewBox="0 0 20 22" fill="none" xmlns="http://www.w3.org/2000/svg">
<path fill-rule="evenodd" clip-rule="evenodd" d="M10 12C12.7614 12 15 9.76142 15 7C15 4.23858 12.7614 2 10 2C7.23858 2 5 4.23858 5 7C5 9.76142 7.23858 12 10 12ZM10 14C13.866 14 17 10.866 17 7C17 3.13401 13.866 0 10 0C6.13401 0 3 3.13401 3 7C3 10.866 6.13401 14 10 14Z" fill="#170D42"/>
<path fill-rule="evenodd" clip-rule="evenodd" d="M18 18.9999C18 18.4477 17.5523 18 17 18H10.0083C10.0056 18 10.0028 18 10 18H3.00001C2.44766 18 2.00001 18.4477 2.00001 18.9999V21C2.00001 21.5523 1.55229 22 1 22C0.447717 22 0 21.5523 0 21V18.9999C0 17.343 1.34321 16 3.00001 16H9.99169C9.99445 16 9.99721 16 9.99997 16H17C18.6568 16 20 17.343 20 18.9999V21C20 21.5523 19.5523 22 19 22C18.4477 22 18 21.5523 18 21V18.9999Z" fill="#170D42"/>
</svg>
