<svg width="23" height="22" viewBox="0 0 23 22" fill="none" xmlns="http://www.w3.org/2000/svg">
<path fill-rule="evenodd" clip-rule="evenodd" d="M11.5579 0.694026C8.04045 0.694026 5.18902 3.54546 5.18902 7.06287C5.18902 10.5803 8.04045 13.4317 11.5579 13.4317C15.0753 13.4317 17.9267 10.5803 17.9267 7.06287C17.9267 3.54546 15.0753 0.694026 11.5579 0.694026ZM4.495 7.06287C4.495 3.16216 7.65715 0 11.5579 0C15.4586 0 18.6207 3.16216 18.6207 7.06287C18.6207 10.9636 15.4586 14.1257 11.5579 14.1257C7.65715 14.1257 4.495 10.9636 4.495 7.06287Z" fill="#170D42"/>
<path fill-rule="evenodd" clip-rule="evenodd" d="M7.06287 7.88879C3.54546 7.88879 0.694026 10.7402 0.694026 14.2576C0.694026 17.7751 3.54546 20.6265 7.06287 20.6265C10.5803 20.6265 13.4317 17.7751 13.4317 14.2576C13.4317 10.7402 10.5803 7.88879 7.06287 7.88879ZM0 14.2576C0 10.3569 3.16216 7.19476 7.06287 7.19476C10.9636 7.19476 14.1257 10.3569 14.1257 14.2576C14.1257 18.1584 10.9636 21.3205 7.06287 21.3205C3.16216 21.3205 0 18.1584 0 14.2576Z" fill="#170D42"/>
<path fill-rule="evenodd" clip-rule="evenodd" d="M15.9371 7.88879C12.4197 7.88879 9.56829 10.7402 9.56829 14.2576C9.56829 17.7751 12.4197 20.6265 15.9371 20.6265C19.4546 20.6265 22.306 17.7751 22.306 14.2576C22.306 10.7402 19.4546 7.88879 15.9371 7.88879ZM8.87427 14.2576C8.87427 10.3569 12.0364 7.19476 15.9371 7.19476C19.8379 7.19476 23 10.3569 23 14.2576C23 18.1584 19.8379 21.3205 15.9371 21.3205C12.0364 21.3205 8.87427 18.1584 8.87427 14.2576Z" fill="#170D42"/>
</svg>
