<svg width="23" height="23" viewBox="0 0 23 23" fill="none" xmlns="http://www.w3.org/2000/svg">
<path fill-rule="evenodd" clip-rule="evenodd" d="M1.28033 0.21967C0.987438 -0.0732233 0.512564 -0.0732233 0.219671 0.21967C-0.0732222 0.512563 -0.0732222 0.987437 0.219671 1.28033L10.1893 11.25L0.21967 21.2197C-0.0732233 21.5126 -0.0732233 21.9874 0.21967 22.2803C0.512563 22.5732 0.987437 22.5732 1.28033 22.2803L11.25 12.3107L20.8436 21.9043C21.1365 22.1972 21.6114 22.1972 21.9043 21.9043C22.1972 21.6114 22.1972 21.1365 21.9043 20.8436L12.3107 11.25L21.9043 1.65639C22.1972 1.3635 22.1972 0.888626 21.9043 0.595732C21.6114 0.302839 21.1365 0.30284 20.8436 0.595732L11.25 10.1893L1.28033 0.21967Z" fill="#170D42"/>
</svg>
