<svg width="24" height="24" viewBox="0 0 24 24" fill="none" xmlns="http://www.w3.org/2000/svg">
<circle cx="12" cy="12" r="11.5" stroke="#170D42"/>
<path fill-rule="evenodd" clip-rule="evenodd" d="M6.53033 5.46967C6.23744 5.17678 5.76256 5.17678 5.46967 5.46967C5.17678 5.76256 5.17678 6.23744 5.46967 6.53033L11.2393 12.3L5.46967 18.0697C5.17678 18.3626 5.17678 18.8375 5.46967 19.1303C5.76256 19.4232 6.23744 19.4232 6.53033 19.1303L12.3 13.3607L17.844 18.9047C18.1369 19.1976 18.6118 19.1976 18.9047 18.9047C19.1976 18.6118 19.1976 18.1369 18.9047 17.844L13.3607 12.3L18.9047 6.75598C19.1976 6.46308 19.1976 5.98821 18.9047 5.69532C18.6118 5.40242 18.1369 5.40242 17.844 5.69532L12.3 11.2393L6.53033 5.46967Z" fill="#170D42"/>
</svg>
