<svg width="303" height="148" viewBox="0 0 303 148" fill="none" xmlns="http://www.w3.org/2000/svg">
<path d="M290.515 113.497C287.091 115.534 283.166 116.469 279.702 118.484C275.826 120.736 272.245 123.638 267.628 123.952C258.366 124.582 251.713 118.949 245.6 112.735C239.568 106.6 232.855 97.9656 233.002 88.736C233.064 84.8608 235.252 82.2468 237.493 79.3615C240.153 75.9409 242.64 72.4397 245.681 69.3473C250.756 64.1871 258.588 57.0966 266.226 57.0013C275.038 56.8913 284.275 63.6646 290.195 69.679C295.158 74.7182 301.749 83.0057 301.99 90.4756C302.25 98.5559 297.438 109.367 290.515 113.497Z" stroke="#170D42" stroke-miterlimit="10"/>
<path d="M125.199 125.525C118.102 129.689 109.968 131.601 102.789 135.72C94.7551 140.327 87.3337 146.26 77.7648 146.901C58.5708 148.191 44.7813 136.672 32.1123 123.965C19.6114 111.42 5.6987 93.7655 6.00497 74.8929C6.13196 66.9691 10.6662 61.624 15.3125 55.7242C20.8253 48.7299 25.9795 41.5707 32.2804 35.2474C42.7981 24.696 59.0302 10.1976 74.859 10.0027C93.1229 9.77781 112.265 23.6277 124.534 35.9258C134.82 46.2298 148.479 63.1758 148.979 78.45C149.517 94.9724 139.545 117.08 125.199 125.525Z" stroke="#170D42" stroke-miterlimit="10"/>
<path d="M287.17 23.4476C287.339 23.2406 287.571 23.0949 287.831 23.033C288.091 22.9712 288.364 22.9966 288.608 23.1054C288.851 23.2142 289.053 23.4004 289.18 23.635C289.308 23.8697 289.355 24.1399 289.314 24.4039L287.817 34.5781C287.788 34.7844 287.813 34.9946 287.888 35.1889C287.963 35.3832 288.086 35.5553 288.245 35.689L296.152 42.2632C296.342 42.4359 296.472 42.6643 296.524 42.9156C296.577 43.1669 296.548 43.4283 296.443 43.6624C296.337 43.8965 296.161 44.0913 295.938 44.2189C295.715 44.3464 295.458 44.4002 295.203 44.3726L285.027 42.882C284.82 42.8516 284.61 42.8751 284.415 42.9502C284.221 43.0254 284.049 43.1496 283.916 43.3109L277.352 51.2351C277.178 51.4212 276.949 51.548 276.699 51.5976C276.448 51.6472 276.189 51.6172 275.956 51.5117C275.724 51.4063 275.53 51.2307 275.402 51.0096C275.275 50.7886 275.219 50.533 275.244 50.2789L276.734 40.1046C276.765 39.8988 276.743 39.6884 276.669 39.4938C276.595 39.2992 276.472 39.1269 276.312 38.9937L268.399 32.4195C268.208 32.2465 268.077 32.0174 268.025 31.7652C267.973 31.5131 268.002 31.2509 268.108 31.0163C268.215 30.7818 268.393 30.587 268.617 30.4601C268.841 30.3332 269.099 30.2807 269.355 30.3101L279.524 31.8007C279.731 31.8317 279.943 31.8085 280.139 31.7334C280.335 31.6582 280.508 31.5337 280.641 31.3718L287.17 23.4476Z" stroke="#170D42" stroke-miterlimit="10"/>
<path d="M7.02732 5.88151C6.96044 5.70557 6.95334 5.51254 7.00713 5.33222C7.06091 5.1519 7.17259 4.99434 7.32491 4.88384C7.47724 4.77335 7.66173 4.71608 7.84991 4.72087C8.03808 4.72567 8.21948 4.79225 8.36607 4.91037L14.0474 9.4085C14.1634 9.49851 14.3002 9.55763 14.4452 9.58033C14.5902 9.60304 14.7386 9.58858 14.8764 9.53831L21.6739 7.02979C21.8462 6.97478 22.0315 6.97565 22.2032 7.03232C22.375 7.08899 22.5245 7.19853 22.6302 7.34526C22.736 7.49199 22.7926 7.6684 22.792 7.84922C22.7914 8.03004 22.7336 8.20601 22.6269 8.35194L18.1318 14.0368C18.0406 14.152 17.9807 14.2889 17.958 14.4341C17.9353 14.5793 17.9506 14.7279 18.0024 14.8655L20.5254 21.6631C20.5774 21.8353 20.5743 22.0194 20.5163 22.1897C20.4584 22.36 20.3486 22.5078 20.2023 22.6125C20.0561 22.7173 19.8807 22.7736 19.7008 22.7736C19.5209 22.7737 19.3454 22.7174 19.1991 22.6128L13.5152 18.1189C13.4006 18.0274 13.2643 17.9669 13.1195 17.9434C12.9747 17.9199 12.8263 17.9342 12.6887 17.9848L5.88875 20.4977C5.71601 20.553 5.53012 20.5522 5.35785 20.4952C5.18558 20.4382 5.03583 20.328 4.93015 20.1805C4.82446 20.033 4.7683 19.8559 4.76976 19.6745C4.77122 19.4931 4.83022 19.3169 4.93826 19.1712L9.4308 13.4906C9.5228 13.375 9.58329 13.2375 9.60641 13.0915C9.62953 12.9456 9.61449 12.7961 9.56275 12.6576L7.02732 5.88151Z" stroke="#170D42" stroke-miterlimit="10"/>
<path d="M178.244 119.769C178.327 119.601 178.464 119.465 178.633 119.382C178.802 119.299 178.993 119.274 179.178 119.31C179.362 119.347 179.53 119.444 179.654 119.585C179.778 119.726 179.853 119.905 179.866 120.093L180.423 127.318C180.435 127.464 180.485 127.604 180.567 127.726C180.648 127.848 180.76 127.947 180.89 128.014L187.348 131.3C187.506 131.389 187.631 131.525 187.706 131.69C187.781 131.854 187.802 132.039 187.766 132.216C187.73 132.393 187.639 132.554 187.506 132.677C187.373 132.799 187.205 132.876 187.025 132.897L179.8 133.459C179.653 133.47 179.512 133.519 179.39 133.601C179.268 133.683 179.169 133.795 179.103 133.927L175.828 140.395C175.737 140.55 175.599 140.673 175.435 140.746C175.271 140.819 175.088 140.839 174.911 140.803C174.735 140.767 174.575 140.676 174.453 140.544C174.33 140.412 174.252 140.245 174.23 140.067L173.668 132.843C173.657 132.696 173.609 132.555 173.528 132.433C173.447 132.311 173.336 132.212 173.205 132.145L166.742 128.861C166.584 128.772 166.459 128.634 166.384 128.469C166.308 128.304 166.288 128.119 166.324 127.942C166.36 127.764 166.452 127.602 166.586 127.48C166.721 127.358 166.89 127.282 167.07 127.262L174.291 126.702C174.438 126.69 174.58 126.642 174.703 126.559C174.826 126.477 174.925 126.365 174.992 126.233L178.244 119.769Z" stroke="#170D42" stroke-miterlimit="10"/>
</svg>
