<svg width="511" height="178" viewBox="0 0 511 178" fill="none" xmlns="http://www.w3.org/2000/svg">
<path d="M430.515 153.497C427.091 155.534 423.166 156.469 419.702 158.484C415.826 160.736 412.245 163.638 407.628 163.952C398.366 164.582 391.713 158.949 385.6 152.735C379.568 146.6 372.855 137.966 373.002 128.736C373.064 124.861 375.252 122.247 377.493 119.361C380.153 115.941 382.64 112.44 385.681 109.347C390.756 104.187 398.588 97.0966 406.226 97.0013C415.038 96.8913 424.275 103.665 430.195 109.679C435.158 114.718 441.749 123.006 441.99 130.476C442.25 138.556 437.438 149.367 430.515 153.497Z" stroke="#170D42" stroke-miterlimit="10"/>
<path d="M145.199 155.525C138.102 159.689 129.968 161.601 122.789 165.72C114.755 170.327 107.334 176.26 97.7648 176.901C78.5708 178.191 64.7813 166.672 52.1123 153.965C39.6114 141.42 25.6987 123.766 26.005 104.893C26.132 96.9691 30.6662 91.624 35.3125 85.7242C40.8253 78.7299 45.9795 71.5707 52.2804 65.2474C62.7981 54.696 79.0302 40.1976 94.859 40.0027C113.123 39.7778 132.265 53.6277 144.534 65.9258C154.82 76.2298 168.479 93.1758 168.979 108.45C169.517 124.972 159.545 147.08 145.199 155.525Z" stroke="#170D42" stroke-miterlimit="10"/>
<path d="M500.17 104.448C500.339 104.241 500.571 104.095 500.831 104.033C501.091 103.971 501.364 103.997 501.608 104.105C501.851 104.214 502.053 104.4 502.18 104.635C502.308 104.87 502.355 105.14 502.314 105.404L500.817 115.578C500.788 115.784 500.813 115.995 500.888 116.189C500.963 116.383 501.086 116.555 501.245 116.689L509.152 123.263C509.342 123.436 509.472 123.664 509.524 123.916C509.577 124.167 509.548 124.428 509.443 124.662C509.337 124.897 509.161 125.091 508.938 125.219C508.715 125.346 508.458 125.4 508.203 125.373L498.027 123.882C497.82 123.852 497.61 123.875 497.415 123.95C497.221 124.025 497.049 124.15 496.916 124.311L490.352 132.235C490.178 132.421 489.949 132.548 489.699 132.598C489.448 132.647 489.189 132.617 488.956 132.512C488.724 132.406 488.53 132.231 488.402 132.01C488.275 131.789 488.219 131.533 488.244 131.279L489.734 121.105C489.765 120.899 489.743 120.688 489.669 120.494C489.595 120.299 489.472 120.127 489.312 119.994L481.399 113.419C481.208 113.246 481.077 113.017 481.025 112.765C480.973 112.513 481.002 112.251 481.108 112.016C481.215 111.782 481.393 111.587 481.617 111.46C481.841 111.333 482.099 111.281 482.355 111.31L492.524 112.801C492.731 112.832 492.943 112.809 493.139 112.733C493.335 112.658 493.508 112.534 493.641 112.372L500.17 104.448Z" stroke="#170D42" stroke-miterlimit="10"/>
<path d="M7.02732 55.8815C6.96044 55.7056 6.95334 55.5125 7.00713 55.3322C7.06091 55.1519 7.17259 54.9943 7.32491 54.8838C7.47724 54.7733 7.66173 54.7161 7.84991 54.7209C8.03808 54.7257 8.21948 54.7923 8.36607 54.9104L14.0474 59.4085C14.1634 59.4985 14.3002 59.5576 14.4452 59.5803C14.5902 59.603 14.7386 59.5886 14.8764 59.5383L21.6739 57.0298C21.8462 56.9748 22.0315 56.9756 22.2032 57.0323C22.375 57.089 22.5245 57.1985 22.6302 57.3453C22.736 57.492 22.7926 57.6684 22.792 57.8492C22.7914 58.03 22.7336 58.206 22.6269 58.3519L18.1318 64.0368C18.0406 64.152 17.9807 64.2889 17.958 64.4341C17.9353 64.5793 17.9506 64.7279 18.0024 64.8655L20.5254 71.6631C20.5774 71.8353 20.5743 72.0194 20.5163 72.1897C20.4584 72.36 20.3486 72.5078 20.2023 72.6125C20.0561 72.7173 19.8807 72.7736 19.7008 72.7736C19.5209 72.7737 19.3454 72.7174 19.1991 72.6128L13.5152 68.1189C13.4006 68.0274 13.2643 67.9669 13.1195 67.9434C12.9747 67.9199 12.8263 67.9342 12.6887 67.9848L5.88875 70.4977C5.71601 70.553 5.53012 70.5522 5.35785 70.4952C5.18558 70.4382 5.03583 70.328 4.93015 70.1805C4.82446 70.033 4.7683 69.8559 4.76976 69.6745C4.77122 69.4931 4.83022 69.3169 4.93826 69.1712L9.4308 63.4906C9.5228 63.375 9.58329 63.2375 9.60641 63.0915C9.62953 62.9456 9.61449 62.7961 9.56275 62.6576L7.02732 55.8815Z" stroke="#170D42" stroke-miterlimit="10"/>
<path d="M358.244 1.76952C358.327 1.60094 358.464 1.46463 358.633 1.38164C358.802 1.29865 358.993 1.27361 359.178 1.31036C359.362 1.34712 359.53 1.44364 359.654 1.58501C359.778 1.72639 359.853 1.90475 359.866 2.09256L360.423 9.31757C360.435 9.46379 360.485 9.60441 360.567 9.72625C360.648 9.84809 360.76 9.94716 360.89 10.0142L367.348 13.2997C367.506 13.3888 367.631 13.5253 367.706 13.6899C367.781 13.8545 367.802 14.0386 367.766 14.2159C367.73 14.3932 367.639 14.5545 367.506 14.6769C367.373 14.7993 367.205 14.8763 367.025 14.8971L359.8 15.4589C359.653 15.4701 359.512 15.5191 359.39 15.6011C359.268 15.6831 359.169 15.7952 359.103 15.9267L355.828 22.3953C355.737 22.5504 355.599 22.6731 355.435 22.7462C355.271 22.8194 355.088 22.8392 354.911 22.803C354.735 22.7667 354.575 22.6763 354.453 22.5443C354.33 22.4122 354.252 22.2453 354.23 22.0667L353.668 14.8428C353.657 14.6965 353.609 14.5554 353.528 14.4332C353.447 14.311 353.336 14.2117 353.205 14.1451L346.742 10.8607C346.584 10.7715 346.459 10.6345 346.384 10.4694C346.308 10.3042 346.288 10.1195 346.324 9.94175C346.36 9.76401 346.452 9.60245 346.586 9.48033C346.721 9.35821 346.89 9.28184 347.07 9.26221L354.291 8.70154C354.438 8.69051 354.58 8.64154 354.703 8.55937C354.826 8.47721 354.925 8.36465 354.992 8.23263L358.244 1.76952Z" stroke="#170D42" stroke-miterlimit="10"/>
</svg>
