<svg width="24" height="24" viewBox="0 0 24 24" fill="none" xmlns="http://www.w3.org/2000/svg">
<path fill-rule="evenodd" clip-rule="evenodd" d="M3 4C2.73478 4 2.48043 4.10536 2.29289 4.29289C2.10536 4.48043 2 4.73478 2 5V19C2 19.2652 2.10536 19.5196 2.29289 19.7071C2.48043 19.8946 2.73478 20 3 20H7C7.55228 20 8 20.4477 8 21C8 21.5523 7.55228 22 7 22H3C2.20435 22 1.44129 21.6839 0.87868 21.1213C0.31607 20.5587 0 19.7957 0 19V5C0 4.20435 0.31607 3.44129 0.87868 2.87868C1.44129 2.31607 2.20435 2 3 2H7C7.55228 2 8 2.44772 8 3C8 3.55228 7.55228 4 7 4H3Z" fill="#FAF8FF"/>
<path fill-rule="evenodd" clip-rule="evenodd" d="M13.2929 6.29289C13.6834 5.90237 14.3166 5.90237 14.7071 6.29289L19.7071 11.2929C20.0976 11.6834 20.0976 12.3166 19.7071 12.7071L14.7071 17.7071C14.3166 18.0976 13.6834 18.0976 13.2929 17.7071C12.9024 17.3166 12.9024 16.6834 13.2929 16.2929L17.5858 12L13.2929 7.70711C12.9024 7.31658 12.9024 6.68342 13.2929 6.29289Z" fill="#FAF8FF"/>
<path fill-rule="evenodd" clip-rule="evenodd" d="M6 12C6 11.4477 6.44772 11 7 11H19C19.5523 11 20 11.4477 20 12C20 12.5523 19.5523 13 19 13H7C6.44772 13 6 12.5523 6 12Z" fill="#FAF8FF"/>
</svg>
