<svg width="20" height="20" viewBox="0 0 24 24" fill="none" xmlns="http://www.w3.org/2000/svg">
    <path d="M11.0974 0.684082C11.3535 -0.228029 12.6465 -0.228026 12.9026 0.684085L15.0429 8.3079C15.1313 8.6227 15.3773 8.86871 15.6921 8.95709L23.3159 11.0974C24.228 11.3535 24.228 12.6465 23.3159 12.9026L15.6921 15.0429C15.3773 15.1313 15.1313 15.3773 15.0429 15.6921L12.9026 23.3159C12.6465 24.228 11.3535 24.228 11.0974 23.3159L8.95709 15.6921C8.86871 15.3773 8.6227 15.1313 8.3079 15.0429L0.684082 12.9026C-0.228029 12.6465 -0.228026 11.3535 0.684085 11.0974L8.3079 8.95709C8.6227 8.86871 8.86871 8.6227 8.95709 8.3079L11.0974 0.684082Z" fill="#170D42"/>
</svg>
