<svg width="24" height="24" viewBox="0 0 24 24" fill="none" xmlns="http://www.w3.org/2000/svg">
<path d="M13.964 22.7236L23.6922 3.9773C23.8927 3.57636 23.9989 3.12178 24 2.6588C24.0011 2.19582 23.8972 1.74056 23.6986 1.33833C23.4999 0.936097 23.2135 0.600908 22.8679 0.366111C22.5222 0.131314 22.1292 0.00508947 21.7282 1.00463e-06L2.27184 1.00463e-06C1.87077 0.00508947 1.47784 0.131314 1.13215 0.366111C0.786458 0.600908 0.500053 0.936097 0.301429 1.33833C0.102805 1.74056 -0.00111504 2.19582 8.03078e-06 2.6588C0.0011311 3.12178 0.107258 3.57636 0.30783 3.9773L10.036 22.7236C10.2407 23.1133 10.529 23.4354 10.8731 23.659C11.2171 23.8825 11.6052 24 12 24C12.3948 24 12.7829 23.8825 13.1269 23.659C13.471 23.4354 13.7593 23.1133 13.964 22.7236V22.7236Z" fill="#170D42"/>
</svg>
