<svg width="24" height="16" viewBox="0 0 24 16" fill="none" xmlns="http://www.w3.org/2000/svg">
<path fill-rule="evenodd" clip-rule="evenodd" d="M15.8612 0.255483C15.45 -0.113224 14.8177 -0.078789 14.449 0.332396C14.0803 0.743581 14.1148 1.37581 14.5259 1.74452L20.3869 7H1C0.447715 7 0 7.44772 0 8C0 8.55229 0.447715 9 1 9H20.3869L14.5259 14.2555C14.1148 14.6242 14.0803 15.2564 14.449 15.6676C14.8177 16.0788 15.45 16.1132 15.8612 15.7445L23.6676 8.74452C23.8791 8.55483 24 8.28412 24 8C24 7.71588 23.8791 7.44517 23.6676 7.25548L15.8612 0.255483Z" fill="#170D42"/>
</svg>
