<svg width="21" height="21" viewBox="0 0 21 21" fill="none" xmlns="http://www.w3.org/2000/svg">
<path fill-rule="evenodd" clip-rule="evenodd" d="M1.58549 0.414513C1.26213 0.0911585 0.737873 0.0911585 0.414519 0.414513C0.0911646 0.737867 0.0911646 1.26213 0.414519 1.58548L9.32903 10.5L0.414513 19.4145C0.0911586 19.7379 0.0911586 20.2621 0.414513 20.5855C0.737867 20.9088 1.26213 20.9088 1.58548 20.5855L10.5 11.671L19.15 20.321C19.4734 20.6443 19.9976 20.6443 20.321 20.321C20.6443 19.9976 20.6443 19.4734 20.321 19.15L11.671 10.5L20.321 1.84997C20.6443 1.52662 20.6443 1.00236 20.321 0.679004C19.9976 0.35565 19.4734 0.35565 19.15 0.679004L10.5 9.32902L1.58549 0.414513Z" fill="#170D42"/>
</svg>
