<svg width="24" height="24" viewBox="0 0 24 24" fill="none" xmlns="http://www.w3.org/2000/svg">
<path fill-rule="evenodd" clip-rule="evenodd" d="M12 23C18.0751 23 23 18.0751 23 12C23 5.92487 18.0751 1 12 1C5.92487 1 1 5.92487 1 12C1 18.0751 5.92487 23 12 23ZM12 24C18.6274 24 24 18.6274 24 12C24 5.37258 18.6274 0 12 0C5.37258 0 0 5.37258 0 12C0 18.6274 5.37258 24 12 24Z" fill="#170D42"/>
<path d="M13.7934 9.97876L10.6182 10.3767L10.5048 10.9038L11.1296 11.0172C11.5359 11.1149 11.6168 11.2608 11.5286 11.6672L10.5048 16.473C10.2371 17.7152 10.6518 18.3 11.6252 18.3C12.3812 18.3 13.2569 17.9514 13.6548 17.4716L13.7766 16.8951C13.5005 17.1387 13.0941 17.2364 12.8264 17.2364C12.4452 17.2364 12.3077 16.9686 12.4043 16.4972L13.7934 9.97876V9.97876ZM13.889 7.08601C13.889 7.4536 13.7429 7.80614 13.483 8.06606C13.2231 8.32599 12.8705 8.47201 12.503 8.47201C12.1354 8.47201 11.7828 8.32599 11.5229 8.06606C11.263 7.80614 11.117 7.4536 11.117 7.08601C11.117 6.71842 11.263 6.36589 11.5229 6.10596C11.7828 5.84604 12.1354 5.70001 12.503 5.70001C12.8705 5.70001 13.2231 5.84604 13.483 6.10596C13.7429 6.36589 13.889 6.71842 13.889 7.08601V7.08601Z" fill="#170D42"/>
</svg>
