<svg width="24" height="24" viewBox="0 0 24 24" fill="none" xmlns="http://www.w3.org/2000/svg">
<g clip-path="url(#clip0_277_1860)">
<path d="M11.9978 8.18216C9.79417 8.18216 7.99584 9.98049 7.99584 12.1841C7.99584 14.3878 9.79417 16.1861 11.9978 16.1861C14.2014 16.1861 15.9998 14.3878 15.9998 12.1841C15.9998 9.98049 14.2014 8.18216 11.9978 8.18216ZM24.0007 12.1841C24.0007 10.5269 24.0157 8.88468 23.9227 7.23045C23.8296 5.30902 23.3913 3.60375 21.9862 2.19871C20.5782 0.790663 18.8759 0.355339 16.9545 0.26227C15.2973 0.169201 13.655 0.184212 12.0008 0.184212C10.3436 0.184212 8.70136 0.169201 7.04713 0.26227C5.1257 0.355339 3.42043 0.793665 2.01539 2.19871C0.607344 3.60676 0.17202 5.30902 0.078951 7.23045C-0.0141182 8.88768 0.000892996 10.5299 0.000892996 12.1841C0.000892996 13.8384 -0.0141182 15.4836 0.078951 17.1378C0.17202 19.0592 0.610346 20.7645 2.01539 22.1696C3.42344 23.5776 5.1257 24.0129 7.04713 24.106C8.70436 24.1991 10.3466 24.1841 12.0008 24.1841C13.658 24.1841 15.3003 24.1991 16.9545 24.106C18.8759 24.0129 20.5812 23.5746 21.9862 22.1696C23.3943 20.7615 23.8296 19.0592 23.9227 17.1378C24.0187 15.4836 24.0007 13.8414 24.0007 12.1841V12.1841ZM11.9978 18.3417C8.59028 18.3417 5.84023 15.5917 5.84023 12.1841C5.84023 8.7766 8.59028 6.02656 11.9978 6.02656C15.4053 6.02656 18.1554 8.7766 18.1554 12.1841C18.1554 15.5917 15.4053 18.3417 11.9978 18.3417ZM18.4076 7.21244C17.612 7.21244 16.9695 6.56996 16.9695 5.77437C16.9695 4.97878 17.612 4.3363 18.4076 4.3363C19.2032 4.3363 19.8456 4.97878 19.8456 5.77437C19.8459 5.96328 19.8088 6.15039 19.7367 6.32497C19.6645 6.49955 19.5586 6.65818 19.425 6.79177C19.2914 6.92535 19.1328 7.03127 18.9582 7.10345C18.7836 7.17564 18.5965 7.21267 18.4076 7.21244V7.21244Z" fill="#170D42"/>
</g>
<defs>
<clipPath id="clip0_277_1860">
<rect width="24" height="24" fill="white"/>
</clipPath>
</defs>
</svg>
