<svg width="24" height="16" viewBox="0 0 24 16" fill="none" xmlns="http://www.w3.org/2000/svg">
<path d="M6.98958 8.38542H6.85418C6.52779 8.38542 6.3646 8.49653 6.3646 8.71876C6.3646 8.87153 6.43405 8.94792 6.57294 8.94792C6.69094 8.94792 6.78816 8.89585 6.8646 8.79172C6.941 8.68759 6.98267 8.55217 6.9896 8.38548L6.98958 8.38542ZM11.1042 8.01042H11.75V7.97922C11.7567 7.95149 11.7587 7.92895 11.756 7.91162C11.752 7.89429 11.7487 7.86995 11.746 7.83862C11.742 7.80742 11.7351 7.77962 11.7252 7.75522C11.7145 7.73095 11.6989 7.70835 11.6784 7.68742C11.6576 7.66662 11.6315 7.64929 11.6002 7.63542C11.569 7.62155 11.5291 7.61462 11.4804 7.61462C11.286 7.61462 11.161 7.74657 11.1054 8.01046L11.1042 8.01042ZM16.7292 8.38542H16.6042C16.2708 8.38542 16.1042 8.49653 16.1042 8.71876C16.1042 8.87153 16.1736 8.94792 16.3125 8.94792C16.4305 8.94792 16.5277 8.89585 16.6042 8.79172C16.6806 8.68759 16.7222 8.55217 16.7292 8.38548V8.38542ZM20.0521 8.11458C20.0521 7.82986 19.9479 7.6875 19.7396 7.6875C19.6076 7.6875 19.4999 7.75695 19.4167 7.89584C19.3333 8.03472 19.2917 8.2118 19.2917 8.42708C19.2917 8.71875 19.3889 8.86458 19.5833 8.86458C19.7222 8.86458 19.8351 8.79514 19.9219 8.65626C20.0087 8.51737 20.0521 8.33681 20.0521 8.11458V8.11458ZM5 6.64584H5.90626L5.44792 9.375H4.86458L5.19792 7.28126L4.45834 9.375H4.05208L4.01048 7.29166L3.65632 9.375H3.10422L3.56256 6.64584H4.40632L4.42712 8.34374L5 6.64584ZM7.63542 7.76042C7.63542 7.80202 7.62155 7.94785 7.59382 8.19792C7.48275 8.89931 7.42375 9.29167 7.41682 9.375H6.92724L6.93724 9.14584C6.79835 9.32639 6.59696 9.41666 6.33308 9.41666C6.17335 9.41666 6.04313 9.36113 5.94244 9.25006C5.84177 9.13899 5.79144 8.99316 5.79144 8.81256C5.79144 8.54172 5.88172 8.33165 6.06228 8.18236C6.24284 8.03305 6.49631 7.9584 6.8227 7.9584C6.9199 7.9584 6.99976 7.96173 7.06228 7.9684C7.06228 7.9476 7.06428 7.92853 7.06828 7.9112C7.07228 7.89387 7.07561 7.87827 7.07828 7.8644C7.08228 7.85053 7.08428 7.84013 7.08428 7.8332C7.08428 7.69431 6.95928 7.62486 6.70928 7.62486C6.50788 7.62486 6.30301 7.65959 6.09468 7.72906C6.09468 7.70133 6.11901 7.53466 6.16768 7.22906C6.43157 7.15266 6.66421 7.11446 6.8656 7.11446C7.37949 7.11446 7.63644 7.32974 7.63644 7.7603L7.63542 7.76042ZM9.26042 7.15626L9.17702 7.66666C9.02425 7.64586 8.88189 7.63546 8.74994 7.63546C8.56245 7.63546 8.4687 7.69446 8.4687 7.81246C8.4687 7.86806 8.4843 7.90973 8.5155 7.93746C8.5467 7.96519 8.62135 8.00339 8.73946 8.05206C9.01723 8.18406 9.15612 8.39239 9.15612 8.67706C9.15612 9.17706 8.85404 9.42359 8.24988 9.41664C8.01377 9.41664 7.81239 9.39584 7.64572 9.35424C7.64572 9.34037 7.67005 9.17024 7.71872 8.84384C7.92011 8.89944 8.09719 8.92724 8.24996 8.92724C8.47219 8.92724 8.5833 8.86124 8.5833 8.72924C8.5833 8.68057 8.5677 8.64064 8.5365 8.60944C8.5053 8.57824 8.43065 8.53484 8.31254 8.47924C8.01393 8.34036 7.86462 8.1355 7.86462 7.86466C7.86462 7.36466 8.15629 7.11466 8.73962 7.11466C8.94795 7.11466 9.12157 7.12853 9.26046 7.15626H9.26042ZM10.1771 7.15626H10.4688L10.3958 7.69792H10.0937C10.0798 7.81592 10.0572 7.95655 10.0259 8.1198C9.99468 8.28299 9.97035 8.41667 9.95288 8.52084C9.93555 8.62497 9.92688 8.68744 9.92688 8.70824C9.92688 8.81931 9.99288 8.87484 10.1249 8.87484C10.1805 8.87484 10.236 8.86791 10.2915 8.85404L10.2081 9.34364C10.0622 9.39231 9.92335 9.41664 9.7914 9.41664C9.4928 9.41664 9.33655 9.25345 9.32266 8.92706C9.32266 8.84373 9.35046 8.64928 9.40606 8.34372C9.42686 8.20484 9.51367 7.6979 9.66648 6.8229H10.2394L10.1771 7.15626ZM12.2917 7.91666C12.2917 8.07638 12.2673 8.25694 12.2187 8.45834H11.0624C11.0416 8.61111 11.0763 8.72569 11.1666 8.80208C11.2569 8.87848 11.3888 8.91668 11.5624 8.91668C11.7708 8.91668 11.9722 8.86808 12.1666 8.77088L12.0728 9.33338C11.8645 9.38898 11.6665 9.41678 11.479 9.41678C10.8193 9.41678 10.4895 9.08692 10.4895 8.4272C10.4895 8.04525 10.5849 7.73102 10.7759 7.4845C10.9669 7.23797 11.2082 7.1147 11.4999 7.1147C11.7429 7.1147 11.9356 7.18762 12.078 7.33346C12.2204 7.47929 12.2915 7.67373 12.2915 7.91678L12.2917 7.91666ZM13.7396 7.14584C13.6493 7.30556 13.5729 7.52083 13.5104 7.79166C13.3576 7.77779 13.25 7.86113 13.1875 8.04166C13.125 8.22222 13.0382 8.66667 12.9271 9.375H12.3438L12.375 9.2292C12.5277 8.32643 12.6284 7.63546 12.677 7.1563H13.2083L13.1771 7.50004C13.2743 7.35421 13.3628 7.25178 13.4427 7.19274C13.5226 7.13367 13.6215 7.11807 13.7396 7.14594L13.7396 7.14584ZM15.6875 6.71874L15.5937 7.3125C15.3993 7.2153 15.2257 7.1667 15.0729 7.1667C14.8576 7.1667 14.6805 7.26219 14.5416 7.45316C14.4027 7.64413 14.3333 7.88893 14.3333 8.18754C14.3333 8.39587 14.3802 8.55907 14.4739 8.67712C14.5676 8.79512 14.7013 8.85412 14.8749 8.85412C15.0208 8.85412 15.1874 8.80899 15.3749 8.71872L15.2707 9.3333C15.0763 9.3889 14.9027 9.4167 14.7499 9.4167C14.4374 9.4167 14.1891 9.3108 14.0051 9.099C13.8211 8.8872 13.7291 8.60074 13.7291 8.23962C13.7291 7.75351 13.8523 7.35595 14.0989 7.04692C14.3454 6.73789 14.6631 6.58338 15.052 6.58338C15.2325 6.58338 15.4443 6.62851 15.6874 6.71878L15.6875 6.71874ZM17.375 7.76042C17.375 7.88535 17.3611 8.03119 17.3334 8.19792C17.2431 8.74653 17.1841 9.13889 17.1564 9.375H16.6772L16.6872 9.14584C16.5483 9.32639 16.3435 9.41666 16.0727 9.41666C15.9129 9.41666 15.7845 9.36113 15.6872 9.25006C15.59 9.13899 15.5414 8.99316 15.5414 8.81256C15.5414 8.54172 15.63 8.33165 15.8071 8.18236C15.9842 8.03305 16.2359 7.9584 16.5623 7.9584C16.6664 7.9584 16.7463 7.96173 16.8019 7.9684C16.8157 7.91973 16.8227 7.8746 16.8227 7.833C16.8227 7.69411 16.6977 7.62466 16.4477 7.62466C16.2463 7.62466 16.0414 7.65939 15.8331 7.72886C15.8331 7.70113 15.8609 7.53446 15.9165 7.22886C16.1804 7.15246 16.413 7.11426 16.6144 7.11426C17.1213 7.11426 17.3748 7.32954 17.3748 7.7601L17.375 7.76042ZM18.8438 7.14584C18.7466 7.31251 18.6736 7.52778 18.625 7.79166C18.4653 7.77779 18.3559 7.85766 18.2969 8.03126C18.2378 8.20486 18.1493 8.65277 18.0313 9.375H17.4479L17.4791 9.2292C17.6111 8.50699 17.7118 7.81602 17.7812 7.1563H18.3229C18.3229 7.2327 18.309 7.34728 18.2813 7.50004C18.3854 7.35421 18.4774 7.25178 18.5573 7.19274C18.6372 7.13367 18.7327 7.11807 18.8438 7.14594L18.8438 7.14584ZM20.3125 6.64584H20.8958L20.4479 9.375H19.8958L19.927 9.177C19.7673 9.33672 19.5868 9.41658 19.3854 9.41658C19.1701 9.41658 18.9982 9.33325 18.8698 9.16658C18.7412 8.99991 18.677 8.77769 18.677 8.49992C18.677 8.13187 18.7724 7.81242 18.9634 7.54158C19.1544 7.27075 19.3784 7.13534 19.6353 7.13534C19.8506 7.13534 20.0346 7.23603 20.1874 7.43742L20.3125 6.64584ZM21.4687 8C21.4687 6.97223 21.217 6.02431 20.7135 5.15624C20.2101 4.28819 19.5226 3.60069 18.651 3.09374C17.7795 2.58681 16.8299 2.33334 15.8021 2.33334C14.5451 2.33334 13.4062 2.71528 12.3854 3.47916C13.2674 4.28472 13.8611 5.27083 14.1667 6.4375H13.6458C13.3403 5.39583 12.7917 4.51736 12 3.80208C11.2083 4.51736 10.6597 5.39583 10.3542 6.4375H9.83334C10.1389 5.27083 10.7326 4.28472 11.6146 3.47916C10.5938 2.71528 9.45487 2.33334 8.19792 2.33334C7.17015 2.33334 6.22049 2.58681 5.34896 3.09374C4.47743 3.60069 3.78993 4.28819 3.28646 5.15624C2.78299 6.02431 2.53126 6.97223 2.53126 8C2.53126 9.02777 2.78299 9.97569 3.28646 10.8438C3.78993 11.7118 4.47743 12.3993 5.34896 12.9062C6.22049 13.4132 7.17015 13.6667 8.19792 13.6667C9.45487 13.6667 10.5938 13.2847 11.6146 12.5208C10.7812 11.75 10.2083 10.8333 9.89584 9.77084H10.4167C10.7361 10.7292 11.2639 11.5382 12 12.1979C12.7361 11.5382 13.2639 10.7292 13.5833 9.77084H14.1042C13.7917 10.8333 13.2188 11.75 12.3854 12.5208C13.4062 13.2847 14.5451 13.6667 15.8021 13.6667C16.8299 13.6667 17.7795 13.4132 18.651 12.9062C19.5226 12.3993 20.2101 11.7118 20.7135 10.8438C21.217 9.97569 21.4687 9.02777 21.4687 8ZM24 1.33334V14.6667C24 15.0278 23.8681 15.3403 23.6042 15.6042C23.3403 15.8681 23.0278 16 22.6667 16H1.33333C0.972222 16 0.659722 15.8681 0.395834 15.6042C0.131945 15.3403 0 15.0278 0 14.6667V1.33334C0 0.97222 0.131945 0.65972 0.395834 0.39584C0.659722 0.131947 0.972222 0 1.33333 0H22.6667C23.0278 0 23.3403 0.131947 23.6042 0.39584C23.8681 0.65972 24 0.97222 24 1.33334Z" fill="#170D42"/>
</svg>
