<svg width="24" height="12" viewBox="0 0 24 12" fill="none" xmlns="http://www.w3.org/2000/svg">
<path d="M23.8103 7.49274C23.9869 7.79639 24.0348 8.15724 23.9433 8.49592C23.8519 8.83459 23.6286 9.12334 23.3225 9.29864C23.0165 9.47394 22.6528 9.52144 22.3115 9.43068C21.9702 9.33992 21.6792 9.11835 21.5026 8.81469L19.6955 5.70886C18.6767 6.33919 17.5811 6.83786 16.4351 7.19276L17.0113 10.435C17.0437 10.6067 17.0414 10.7832 17.0046 10.9541C16.9678 11.125 16.8973 11.287 16.797 11.4306C16.6968 11.5743 16.5688 11.6968 16.4205 11.7911C16.2722 11.8854 16.1066 11.9496 15.9331 11.9799C15.7597 12.0103 15.5819 12.0062 15.41 11.9679C15.2382 11.9297 15.0757 11.858 14.932 11.757C14.7882 11.656 14.6661 11.5278 14.5726 11.3797C14.4791 11.2316 14.4162 11.0665 14.3874 10.8941L13.8264 7.73752C12.6115 7.87952 11.3839 7.87915 10.1691 7.73642L9.60835 10.8928C9.54544 11.2366 9.34789 11.5418 9.0589 11.7415C8.7699 11.9412 8.41296 12.0192 8.06614 11.9586C7.71931 11.8979 7.41081 11.7034 7.20809 11.4176C7.00537 11.1319 6.92493 10.7781 6.98435 10.4337L7.56066 7.1899C6.41628 6.83455 5.32225 6.33582 4.30506 5.70578L2.48608 8.83199C2.30941 9.13563 2.01842 9.35719 1.67711 9.44794C1.33581 9.53869 0.972158 9.49118 0.666153 9.31588C0.360148 9.14058 0.136857 8.85184 0.0454025 8.51317C-0.046052 8.17451 0.00182079 7.81367 0.17849 7.51003L2.16078 4.10312C1.49248 3.50542 0.873029 2.85602 0.308274 2.16106C0.0896759 1.88801 -0.0113385 1.54031 0.0272319 1.1937C0.0658022 0.847084 0.240833 0.529633 0.514202 0.310484C0.787571 0.0913354 1.13713 -0.0117569 1.48675 0.0236598C1.83637 0.0590765 2.15773 0.230134 2.38083 0.499575C4.12676 2.6439 7.21305 5.19991 12.0028 5.19991C16.7922 5.19991 19.8786 2.6439 21.6246 0.499685C21.734 0.363036 21.8695 0.249233 22.0235 0.164842C22.1774 0.0804499 22.3467 0.0271391 22.5215 0.00798572C22.6963 -0.0111677 22.8732 0.00421516 23.042 0.0532463C23.2108 0.102277 23.3682 0.183986 23.505 0.29366C23.6418 0.403334 23.7554 0.538802 23.8391 0.692248C23.9229 0.845694 23.9752 1.01408 23.9931 1.1877C24.011 1.36131 23.994 1.53672 23.9432 1.7038C23.8924 1.87088 23.8088 2.02632 23.6971 2.16117C23.1312 2.85765 22.5103 3.50835 21.8403 4.10709L23.8103 7.49274Z" fill="#170D42"/>
</svg>
