<svg width="24" height="15" viewBox="0 0 24 15" fill="none" xmlns="http://www.w3.org/2000/svg">
<path fill-rule="evenodd" clip-rule="evenodd" d="M8.44806 1.53606C8.76617 1.1119 8.68021 0.510173 8.25606 0.192057C7.8319 -0.12606 7.23017 -0.0400982 6.91206 0.384057L4.32006 3.84006H2.99048H1.92H0.96C0.429807 3.84006 0 4.26987 0 4.80006C0 5.33025 0.429807 5.76006 0.96 5.76006H1.56952L3.79429 13.0411C4.041 13.8485 4.78621 14.4001 5.63048 14.4001H11.52H18.0281C18.8545 14.4001 19.5882 13.8712 19.8495 13.0872L22.2919 5.76006H23.04C23.5702 5.76006 24 5.33025 24 4.80006C24 4.26987 23.5702 3.84006 23.04 3.84006H22.08H20.9081H19.6801L17.0881 0.384057C16.7699 -0.0400982 16.1682 -0.12606 15.7441 0.192057C15.3199 0.510173 15.2339 1.1119 15.5521 1.53606L17.2801 3.84006H6.72005L8.44806 1.53606ZM4.78906 5.76006C4.7959 5.76013 4.80274 5.76013 4.80958 5.76006H19.1905C19.1974 5.76013 19.2042 5.76013 19.2111 5.76006H20.2681L18.0281 12.4801L11.52 12.4801L5.63048 12.4801L3.57715 5.76006H4.78906Z" fill="#170D42"/>
</svg>
