<svg width="22" height="24" viewBox="0 0 22 24" fill="none" xmlns="http://www.w3.org/2000/svg">
<path fill-rule="evenodd" clip-rule="evenodd" d="M17.1834 2.23077C15.9864 2.23077 14.9941 3.21732 14.9941 4.46154C14.9941 4.85235 15.092 5.21774 15.2634 5.53512C15.2728 5.54936 15.2819 5.56392 15.2907 5.57879C15.3032 5.6 15.3149 5.62149 15.3257 5.64321C15.7146 6.27601 16.4058 6.69231 17.1834 6.69231C18.3804 6.69231 19.3728 5.70577 19.3728 4.46154C19.3728 3.21732 18.3804 2.23077 17.1834 2.23077ZM14.1714 7.40212C14.9313 8.19643 15.9972 8.69231 17.1834 8.69231C19.5093 8.69231 21.3728 6.78593 21.3728 4.46154C21.3728 2.13716 19.5093 0.230774 17.1834 0.230774C14.8576 0.230774 12.9941 2.13716 12.9941 4.46154C12.9941 4.88153 13.0549 5.28787 13.1683 5.67178L7.43794 9.05934C6.67813 8.26508 5.61221 7.76923 4.42603 7.76923C2.10019 7.76923 0.236679 9.67561 0.236679 12C0.236679 14.3244 2.10019 16.2308 4.42603 16.2308C5.61241 16.2308 6.67851 15.7347 7.43834 14.9402L13.1697 18.3234C13.0554 18.7087 12.9941 19.1167 12.9941 19.5384C12.9941 21.8628 14.8576 23.7692 17.1834 23.7692C19.5093 23.7692 21.3728 21.8628 21.3728 19.5384C21.3728 17.2141 19.5093 15.3077 17.1834 15.3077C15.999 15.3077 14.9345 15.8021 14.1749 16.5943L8.44126 13.2098C8.55459 12.826 8.61538 12.4198 8.61538 12C8.61538 11.58 8.55453 11.1736 8.44109 10.7897L14.1714 7.40212ZM6.28293 10.817C6.29392 10.8392 6.3058 10.8611 6.31858 10.8827C6.32763 10.898 6.33701 10.913 6.34673 10.9276C6.51772 11.2447 6.61538 11.6097 6.61538 12C6.61538 12.3903 6.51771 12.7553 6.3467 13.0724C6.33688 13.0872 6.32739 13.1024 6.31826 13.1178C6.30561 13.1393 6.29384 13.161 6.28296 13.1829C5.89389 13.815 5.20309 14.2308 4.42603 14.2308C3.22901 14.2308 2.23668 13.2442 2.23668 12C2.23668 10.7558 3.22901 9.76923 4.42603 9.76923C5.20307 9.76923 5.89386 10.1849 6.28293 10.817ZM14.9941 19.5384C14.9941 19.1704 15.0809 18.8249 15.2342 18.5208C15.2584 18.4892 15.2809 18.4558 15.3017 18.4206C15.3254 18.3805 15.346 18.3393 15.3635 18.2974C15.7585 17.6981 16.4304 17.3077 17.1834 17.3077C18.3804 17.3077 19.3728 18.2942 19.3728 19.5384C19.3728 20.7827 18.3804 21.7692 17.1834 21.7692C15.9864 21.7692 14.9941 20.7827 14.9941 19.5384Z" fill="#170D42"/>
</svg>
