<svg width="24" height="24" viewBox="0 0 24 24" fill="none" xmlns="http://www.w3.org/2000/svg">
<path d="M8.22153 13.8705C8.05728 14.7705 7.40628 18.966 7.21353 20.1517C7.19928 20.2365 7.16628 20.2687 7.07253 20.2687H3.57603C3.21978 20.2687 2.96178 19.9597 3.00903 19.617L5.75628 2.184C5.82678 1.734 6.22953 1.392 6.69378 1.392C13.833 1.392 14.433 1.21875 16.2563 1.92675C19.0733 3.01875 19.3313 5.6535 18.3188 8.5035C17.3108 11.4382 14.9205 12.699 11.7518 12.7365C9.71777 12.7695 8.49378 12.408 8.22228 13.8705H8.22153ZM19.7393 7.125C19.6545 7.06425 19.6223 7.04025 19.5983 7.18575C19.5045 7.71975 19.359 8.24025 19.1858 8.76075C17.3153 14.0955 12.1313 13.6312 9.60003 13.6312C9.31428 13.6312 9.12678 13.7857 9.08928 14.0715C8.03028 20.6527 7.81878 22.026 7.81878 22.026C7.77153 22.359 7.98303 22.6305 8.31528 22.6305H11.292C11.6955 22.6305 12.0278 22.335 12.108 21.9322C12.141 21.6795 12.0563 22.218 12.783 17.6527C12.999 16.6215 13.4535 16.7295 14.1563 16.7295C17.4848 16.7295 20.0813 15.3795 20.8545 11.4652C21.159 9.834 21.0705 8.118 19.7393 7.12425V7.125Z" fill="#170D42"/>
</svg>
