<svg width="24" height="22" viewBox="0 0 24 22" fill="none" xmlns="http://www.w3.org/2000/svg">
<path fill-rule="evenodd" clip-rule="evenodd" d="M1.08333 1.33334C1.63561 1.33334 2.08333 1.78106 2.08333 2.33334V7.83334H7.58333C8.13561 7.83334 8.58333 8.28106 8.58333 8.83334C8.58333 9.38563 8.13561 9.83334 7.58333 9.83334H1.08333C0.531043 9.83334 0.0833282 9.38563 0.0833282 8.83334V2.33334C0.0833282 1.78106 0.531043 1.33334 1.08333 1.33334Z" fill="#170D42"/>
<path fill-rule="evenodd" clip-rule="evenodd" d="M11.5007 0.364959C13.8087 0.0402452 16.1596 0.474391 18.1994 1.60198C20.2391 2.72957 21.8571 4.48953 22.8097 6.61666C23.7622 8.7438 23.9976 11.1229 23.4805 13.3954C22.9633 15.668 21.7216 17.711 19.9424 19.2164C18.1632 20.7219 15.943 21.6084 13.6161 21.7424C11.2893 21.8763 8.98202 21.2504 7.04186 19.9589C5.1017 18.6675 3.63379 16.7805 2.85932 14.5823C2.6758 14.0614 2.9493 13.4903 3.4702 13.3068C3.9911 13.1233 4.56215 13.3968 4.74567 13.9177C5.37606 15.707 6.57086 17.2429 8.15006 18.294C9.72926 19.3452 11.6073 19.8547 13.5012 19.7457C15.3951 19.6367 17.2023 18.9151 18.6505 17.6897C20.0987 16.4643 21.1094 14.8014 21.5303 12.9517C21.9513 11.1019 21.7596 9.16544 20.9843 7.43405C20.209 5.70266 18.892 4.27014 17.2318 3.35233C15.5715 2.43453 13.6579 2.08115 11.7794 2.34545C9.90083 2.60976 8.15906 3.47742 6.81651 4.8177C6.80937 4.82483 6.80212 4.83184 6.79477 4.83875L1.76811 9.56208C1.36563 9.94028 0.73277 9.92059 0.354578 9.51811C-0.0236134 9.11563 -0.00392458 8.48277 0.398555 8.10458L5.41447 3.39135C7.0624 1.75093 9.19792 0.688953 11.5007 0.364959Z" fill="#170D42"/>
</svg>
