<svg width="24" height="14" viewBox="0 0 24 14" fill="none" xmlns="http://www.w3.org/2000/svg">
<path fill-rule="evenodd" clip-rule="evenodd" d="M22.72 0H1.28C0.573076 0 0 0.532315 0 1.18896V12.811C0 13.4677 0.573076 14 1.28 14H22.72C23.4269 14 24 13.4677 24 12.811V1.18896C24 0.532315 23.4269 0 22.72 0ZM8.90232 9.93457L9.96987 4.11575H11.6774L10.6091 9.93457H8.90232ZM15.2475 3.99682C15.9095 3.99682 16.4396 4.12332 16.7779 4.24121L16.5464 5.50237L16.3934 5.43522C16.0782 5.31734 15.6738 5.20424 15.1154 5.21229C14.447 5.21229 14.1376 5.47092 14.1376 5.71278C14.1337 5.98535 14.4992 6.16498 15.0961 6.43416C16.0812 6.84943 16.5361 7.35319 16.5296 8.01512C16.5164 9.22295 15.3512 10.0031 13.5564 10.0031C12.7906 9.99584 12.0532 9.85509 11.6543 9.69268L11.894 8.39006L12.114 8.48256C12.6748 8.69981 13.0378 8.788 13.7213 8.788C14.212 8.788 14.7386 8.60981 14.7428 8.21977C14.746 7.96509 14.5225 7.78318 13.8579 7.49798C13.2102 7.21964 12.3523 6.75321 12.3618 5.91711C12.3719 4.78602 13.5604 3.99682 15.2475 3.99682ZM21.1717 4.11575H19.8523C19.4436 4.11575 19.1377 4.21937 18.9582 4.59829L16.4223 9.93086H18.2153C18.2153 9.93086 18.5085 9.21386 18.5748 9.05644C18.6669 9.05644 19.1006 9.05699 19.5602 9.05758C20.0784 9.05824 20.6296 9.05894 20.7616 9.05894C20.8126 9.26264 20.9693 9.93086 20.9693 9.93086H22.5537L21.1717 4.11575ZM19.0783 7.87304C19.2196 7.53774 19.7586 6.24648 19.7586 6.24648C19.7538 6.25386 19.7854 6.17777 19.8291 6.07244L19.8292 6.07219C19.8772 5.95643 19.9399 5.80544 19.985 5.69112L20.1004 6.1928C20.1004 6.1928 20.4274 7.58178 20.4957 7.87304H19.0783ZM1.4463 4.23683L1.46811 4.11572H4.22142C4.59227 4.12857 4.89206 4.23852 4.99542 4.60698L5.57674 7.20336C5.58589 7.22807 5.59481 7.25277 5.60305 7.27738L5.78117 8.08376L7.45286 4.11572H9.26155L6.57342 9.92334L4.76686 9.92531L3.2518 4.88141C2.72403 4.60818 2.12121 4.38858 1.4463 4.23683Z" fill="#170D42"/>
</svg>
