<svg width="24" height="24" viewBox="0 0 24 24" fill="none" xmlns="http://www.w3.org/2000/svg">
<path fill-rule="evenodd" clip-rule="evenodd" d="M12 24C18.6274 24 24 18.6274 24 12C24 5.37258 18.6274 0 12 0C5.37258 0 0 5.37258 0 12C0 18.6274 5.37258 24 12 24ZM12.753 3.4691C13.9159 2.20692 15.2523 2.1491 15.2894 2.19056C15.3265 2.2331 15.537 3.3742 14.4952 4.84147C13.4534 6.30874 11.8214 6.25092 11.7952 6.21383C11.769 6.17674 11.5901 4.7302 12.753 3.4691ZM18.7499 14.8767C18.8407 14.9375 18.8972 14.9753 18.9047 14.9902C18.9396 15.0611 18.7672 15.5269 18.3887 16.3887C17.3916 18.2422 16.5374 19.1564 15.9472 19.3975C15.357 19.6375 14.768 19.7269 14.145 19.512C13.3585 19.092 12.5905 18.9382 12.201 18.924C11.8105 18.9098 10.8221 19.1029 10.2745 19.4389C9.59377 19.7869 8.61195 19.6189 8.26395 19.3658C7.91595 19.1127 7.0825 18.3676 6.45413 17.2942C5.78035 16.3875 5.37118 15.1607 5.10382 14.3591C5.09068 14.3197 5.07788 14.2813 5.0654 14.244C4.79922 13.4477 4.42722 10.8862 5.1385 9.26947C5.84977 7.65165 6.8665 7.04292 7.40104 6.8291C7.93668 6.6142 8.68504 6.33492 9.39086 6.47129C10.0188 6.5601 10.6216 6.78928 11.0879 6.9666C11.4407 7.10074 11.7155 7.2052 11.8639 7.19674C12.0751 7.18468 12.628 6.9947 13.1516 6.81482C13.4802 6.70193 13.7972 6.59303 14.0109 6.53456C14.7281 6.33828 15.1312 6.38235 15.3074 6.40162C15.3378 6.40494 15.3615 6.40753 15.3789 6.40801C15.9753 6.43748 16.5577 6.5992 17.084 6.88147C17.8007 7.28183 18.477 8.07274 18.452 8.14365C18.4485 8.15326 18.4163 8.17359 18.3625 8.20749C18.0194 8.42379 16.7995 9.19271 16.5996 11.2571C16.4012 13.3049 18.2014 14.5096 18.7499 14.8767Z" fill="#170D42"/>
</svg>
