<svg width="24" height="19" viewBox="0 0 24 19" fill="none" xmlns="http://www.w3.org/2000/svg">
<path fill-rule="evenodd" clip-rule="evenodd" d="M0 3C0 1.34315 1.34315 0 3 0H21C22.6569 0 24 1.34315 24 3V16C24 17.6569 22.6569 19 21 19H3C1.34315 19 0 17.6569 0 16V3ZM22.4788 5.12458C22.4788 3.9527 21.5675 3.00229 20.4428 3.0004V3H13.0224V7.25119H20.4428V7.24889C21.5675 7.24687 22.4788 6.29647 22.4788 5.12458ZM22.4788 9.63327C22.4788 8.46138 21.5675 7.51111 20.4428 7.50909V7.50882H13.0224V11.7601H20.4428V11.7574C21.5675 11.7556 22.4788 10.8054 22.4788 9.63327ZM7.4311 7.50882V7.25119H12.8795V6.89293C12.8795 4.7585 11.2187 3.02833 9.16963 3.02833H5.70707C3.65801 3.02833 1.99679 4.7585 1.99679 6.89293V7.92359C1.99679 10.0579 3.65801 11.7882 5.70707 11.7882H9.16963C11.2187 11.7882 12.8795 10.0579 12.8795 7.92359V7.50882H7.4311ZM3.96322 15.3751C3.74697 15.8624 3.43037 16.1032 3.00163 16.1032C2.39277 16.1032 1.92 15.5794 1.92 14.9069C1.92 14.2393 2.39678 13.7059 2.98959 13.7059C3.42636 13.7059 3.80693 13.998 3.96322 14.4525H3.66669C3.51454 14.1511 3.25815 13.9701 2.9857 13.9701C2.52899 13.9701 2.17237 14.3784 2.17237 14.9024C2.17237 15.4262 2.52498 15.8392 2.97366 15.8392C3.26216 15.8392 3.46235 15.7046 3.66669 15.3751H3.96322ZM4.24189 14.4709C4.26986 13.938 4.66532 13.7088 5.2141 13.7088C5.63753 13.7088 6.098 13.8321 6.098 14.4402V15.6467C6.098 15.7529 6.15381 15.8143 6.27009 15.8143C6.30259 15.8143 6.33988 15.8054 6.36306 15.7969V16.0301C6.30026 16.0433 6.23625 16.0493 6.17219 16.048C5.8745 16.048 5.82801 15.8894 5.82801 15.6516H5.81882C5.61422 15.9467 5.40484 16.114 4.94437 16.114C4.50255 16.114 4.13985 15.9069 4.13985 15.449C4.13985 14.8542 4.70838 14.794 5.29735 14.7317C5.34091 14.7271 5.38458 14.7225 5.42814 14.7176C5.67003 14.6913 5.80496 14.6605 5.80496 14.4094C5.80496 14.0349 5.52112 13.9426 5.1768 13.9426C4.8141 13.9426 4.54424 14.1009 4.53505 14.4711H4.24189V14.4709ZM5.80483 14.8056H5.79551C5.75834 14.8717 5.62892 14.8934 5.54986 14.9066L5.54909 14.9068C5.46726 14.9206 5.38217 14.932 5.2971 14.9434L5.29706 14.9434C4.86461 15.0015 4.43262 15.0595 4.43262 15.4311C4.43262 15.7088 4.69316 15.8808 4.96768 15.8808C5.41429 15.8808 5.80949 15.6118 5.80496 15.1668V14.8056H5.80483ZM6.57789 13.7618H6.85836V14.0911C6.94888 13.9178 7.16513 13.7705 7.504 13.7478V14.0168C7.31248 14.0353 7.2234 14.0679 7.10336 14.1746C6.93411 14.3178 6.87623 14.462 6.87623 14.717V16.0479H6.57789V13.7618ZM12.8503 13.3674H13.1485V14.156C13.34 13.8594 13.6335 13.706 14.0076 13.706C14.6445 13.706 15.1741 14.2439 15.1741 14.8931C15.1741 15.5609 14.6534 16.1035 14.0122 16.1035C13.6426 16.1035 13.3268 15.9415 13.1307 15.6537V16.0482H12.8503V13.3674ZM13.1262 14.9209C13.1262 15.4309 13.5226 15.8394 14.0167 15.8394C14.5018 15.8394 14.8935 15.4173 14.8935 14.9026C14.8935 14.383 14.506 13.9702 14.0255 13.9702C13.5002 13.9701 13.1262 14.3692 13.1262 14.9209ZM15.3042 13.3674H15.5847V16.048H15.3042V13.3674ZM16.0496 15.0137C16.0718 15.4681 16.459 15.8394 16.9085 15.8394C17.2246 15.8394 17.5541 15.6069 17.6698 15.3014H17.977C17.8213 15.7696 17.3761 16.1033 16.9085 16.1033C16.2676 16.1033 15.7558 15.5748 15.7558 14.907C15.7558 14.2395 16.2634 13.706 16.8997 13.706C17.3182 13.706 17.7055 13.952 17.9058 14.3414C17.9994 14.5222 18.0348 14.6939 18.0436 15.0137H16.0496ZM17.7454 14.7492C17.6389 14.2766 17.3094 13.9702 16.9085 13.9702C16.4858 13.9702 16.1341 14.2903 16.0585 14.7492H17.7454ZM20.5139 15.0137C20.5361 15.4681 20.9233 15.8394 21.373 15.8394C21.6891 15.8394 22.0182 15.6069 22.1341 15.3014H22.4416C22.2856 15.7696 21.8401 16.1033 21.373 16.1033C20.7319 16.1033 20.2201 15.5748 20.2201 14.907C20.2201 14.2395 20.7277 13.706 21.3642 13.706C21.7825 13.706 22.1698 13.952 22.3701 14.3414C22.464 14.5222 22.4993 14.6939 22.5081 15.0137H20.5139ZM22.2099 14.7492C22.103 14.2766 21.7737 13.9702 21.373 13.9702C20.9501 13.9702 20.5984 14.2903 20.5228 14.7492H22.2099ZM8.99068 15.0137C9.01295 15.4681 9.40025 15.8394 9.84971 15.8394C10.1658 15.8394 10.4952 15.6069 10.611 15.3014H10.9181C10.7624 15.7696 10.3173 16.1033 9.84971 16.1033C9.20887 16.1033 8.69699 15.5748 8.69699 14.907C8.69699 14.2395 9.20446 13.706 9.84104 13.706C10.2594 13.706 10.6467 13.952 10.8472 14.3414C10.9407 14.5222 10.9761 14.6939 10.9851 15.0137H8.99068ZM10.6866 14.7492C10.5799 14.2766 10.2505 13.9702 9.84971 13.9702C9.42693 13.9702 9.07523 14.2903 8.99961 14.7492H10.6866ZM8.79077 13.7536H8.02703V13.3674H7.73102V13.7536H7.65643V14.0128H7.73102V15.4763C7.72623 15.9067 7.86245 16.0438 8.25727 16.0438C8.30196 16.0438 8.41309 16.0413 8.52419 16.0389C8.6352 16.0365 8.74617 16.0341 8.79077 16.0341V15.7695C8.70634 15.7795 8.35141 15.7843 8.26672 15.7843C8.05526 15.7694 8.02703 15.6522 8.02703 15.4518V14.0128H8.79077V13.7536ZM19.795 15.0305V13.7691H20.0752V15.0305C20.0752 15.7168 19.7414 16.1112 19.1584 16.1112C19.1526 16.1112 19.1472 16.1109 19.1418 16.1105C19.1344 16.1099 19.1271 16.1091 19.1194 16.1088C19.1059 16.1093 19.0938 16.1112 19.0802 16.1112C18.4972 16.1112 18.1634 15.7168 18.1634 15.0305V13.7691H18.4439V15.0305C18.4439 15.5382 18.6953 15.8437 19.1194 15.8464C19.5431 15.8437 19.795 15.5382 19.795 15.0305Z" fill="#170D42"/>
</svg>
