<svg width="22" height="22" viewBox="0 0 22 22" fill="none" xmlns="http://www.w3.org/2000/svg">
<path fill-rule="evenodd" clip-rule="evenodd" d="M12.5181 0L12.6995 0.0307827C14.6018 0.353619 16.3844 1.17541 17.8652 2.41224L17.6368 2.68568L17.8887 2.9376L2.71124 18.1157L2.4614 17.8168C1.2229 16.3354 0.400733 14.5514 0.0792028 12.6476L0.048584 12.4663L12.5181 0ZM17.104 2.71462C15.8312 1.73173 14.3427 1.06334 12.7602 0.765498L0.813851 12.7088C1.11067 14.2925 1.77933 15.7822 2.76355 17.0556L17.104 2.71462Z" fill="#170D42"/>
<path fill-rule="evenodd" clip-rule="evenodd" d="M19.2886 3.78778L19.5385 4.08587C20.7788 5.56508 21.6013 7.34892 21.9208 9.25275L21.9512 9.43381L9.48345 21.9032L9.30197 21.8723C7.40039 21.549 5.61799 20.729 4.13526 19.4951L3.83521 19.2454L19.2886 3.78778ZM4.89641 19.1918C6.17083 20.1724 7.65929 20.8394 9.24132 21.1376L21.1863 9.19107C20.8911 7.6077 20.2224 6.11861 19.2371 4.84711L4.89641 19.1918Z" fill="#170D42"/>
<path fill-rule="evenodd" clip-rule="evenodd" d="M21.9999 10.7546L21.9246 11.7168C21.719 14.3428 20.5826 16.8091 18.72 18.6717C16.8574 20.5343 14.3911 21.6707 11.7651 21.8763L10.8029 21.9517L21.9999 10.7546ZM12.727 21.0352C14.7985 20.664 16.7165 19.6675 18.2161 18.1679C19.7158 16.6682 20.7122 14.7502 21.0835 12.6787L12.727 21.0352Z" fill="#170D42"/>
<path fill-rule="evenodd" clip-rule="evenodd" d="M9.273 0.867707C7.20119 1.23864 5.28289 2.23503 3.78311 3.73481C2.28333 5.23459 1.28693 7.1529 0.916001 9.2247L9.273 0.867707ZM10.2625 0.382051L10.2348 0.0268555C7.60854 0.232021 5.14192 1.36829 3.27925 3.23096C1.41658 5.09363 0.280315 7.56025 0.0751493 10.1865L0 11.1484L10.5144 0.633977L10.2625 0.382051Z" fill="#170D42"/>
</svg>
