<svg width="24" height="24" viewBox="0 0 24 24" fill="none" xmlns="http://www.w3.org/2000/svg">
<path fill-rule="evenodd" clip-rule="evenodd" d="M7.23529 18.6616C7.71054 18.9123 8.23984 19.0432 8.77713 19.043C10.5669 19.043 12.0279 17.6194 12.0939 15.845L12.1005 0H16.0538C16.0541 0.336542 16.0854 0.67234 16.1472 1.00316H13.2526V1.00371H17.2064C17.2059 2.32982 17.6865 3.61108 18.5592 4.60959L18.5603 4.61087C19.4505 5.1924 20.491 5.5016 21.5544 5.5006V6.3811C21.9265 6.4608 22.3113 6.50325 22.7071 6.50325V10.4576C20.7333 10.4599 18.8089 9.84105 17.2065 8.68875V16.7234C17.2065 20.7355 13.9419 24 9.92928 24C8.93003 24.0003 7.94149 23.7941 7.02559 23.3944C6.11034 22.9951 5.28744 22.4112 4.60826 21.6792L4.60677 21.6782C2.73017 20.3606 1.5 18.1816 1.5 15.7202C1.5 11.7075 4.76452 8.4425 8.77713 8.4425C9.10528 8.44405 9.43288 8.46795 9.75778 8.51395V9.45005C9.78063 9.4496 9.80333 9.4488 9.82613 9.44805C9.86033 9.44685 9.89463 9.44565 9.92928 9.44565C10.2574 9.4472 10.585 9.4711 10.9099 9.5171V13.5534C10.5999 13.4561 10.2717 13.3995 9.92928 13.3995C9.04808 13.4005 8.20329 13.751 7.58024 14.3742C6.95719 14.9973 6.60679 15.8422 6.60594 16.7234C6.60599 17.4194 6.82594 18.0976 7.23444 18.6611L7.23529 18.6616ZM3.13214 19.3199C3.46987 20.1998 3.97389 20.9981 4.60516 21.6765C3.96104 20.9872 3.46367 20.1855 3.13214 19.3199Z" fill="#170D42"/>
</svg>
