<svg width="24" height="24" viewBox="0 0 24 24" fill="none" xmlns="http://www.w3.org/2000/svg">
<path d="M24 2.01121C22.9553 2.76409 21.7987 3.33993 20.5745 3.71654C19.9175 2.9447 19.0444 2.39763 18.0731 2.14934C17.1019 1.90104 16.0795 1.9635 15.1441 2.32826C14.2087 2.69302 13.4056 3.34249 12.8433 4.18882C12.2809 5.03515 11.9866 6.03751 12 7.06034V8.17494C10.0829 8.22573 8.18321 7.79131 6.47019 6.91037C4.75717 6.02942 3.28398 4.72931 2.18182 3.12581C2.18182 3.12581 -2.18182 13.1572 7.63636 17.6156C5.38967 19.1738 2.71326 19.9551 0 19.8448C9.81818 25.4178 21.8182 19.8448 21.8182 7.0269C21.8172 6.71643 21.788 6.40673 21.7309 6.10178C22.8443 4.97993 23.63 3.56352 24 2.01121V2.01121Z" fill="#170D42"/>
</svg>
