<svg width="22" height="24" viewBox="0 0 22 24" fill="none" xmlns="http://www.w3.org/2000/svg">
<path fill-rule="evenodd" clip-rule="evenodd" d="M1.77162 15.8511C2.91212 14.6713 4.46848 14 6.10095 14H15.8991C17.5315 14 19.0879 14.6713 20.2284 15.8511C21.3674 17.0295 22 18.6187 22 20.267V22.801C22 23.4632 21.4619 24 20.7981 24C20.1343 24 19.5962 23.4632 19.5962 22.801V20.267C19.5962 19.2271 19.1965 18.2381 18.498 17.5156C17.801 16.7946 16.8652 16.3979 15.8991 16.3979H6.10095C5.1348 16.3979 4.19898 16.7946 3.50198 17.5156C2.80355 18.2381 2.4038 19.2271 2.4038 20.267V22.801C2.4038 23.4632 1.86569 24 1.2019 24C0.538109 24 0 23.4632 0 22.801V20.267C0 18.6187 0.632551 17.0295 1.77162 15.8511Z" fill="#170D42"/>
<path fill-rule="evenodd" clip-rule="evenodd" d="M11 2.36403C8.99191 2.36403 7.36403 3.99191 7.36403 6C7.36403 8.00809 8.99191 9.63597 11 9.63597C13.0081 9.63597 14.636 8.00809 14.636 6C14.636 3.99191 13.0081 2.36403 11 2.36403ZM5 6C5 2.68629 7.68629 0 11 0C14.3137 0 17 2.68629 17 6C17 9.31371 14.3137 12 11 12C7.68629 12 5 9.31371 5 6Z" fill="#170D42"/>
</svg>
