<svg width="361" height="123" viewBox="0 0 361 123" fill="none" xmlns="http://www.w3.org/2000/svg">
<path d="M148.78 91.1329C148.968 90.9116 149.224 90.7585 149.508 90.6972C149.792 90.6359 150.089 90.6699 150.352 90.7939C150.614 90.918 150.829 91.1251 150.962 91.3834C151.096 91.6416 151.141 91.9366 151.09 92.2229L149.226 103.257C149.19 103.481 149.212 103.71 149.289 103.923C149.366 104.136 149.496 104.326 149.666 104.475L158.116 111.811C158.318 112.003 158.455 112.254 158.506 112.529C158.557 112.804 158.52 113.087 158.4 113.34C158.28 113.592 158.083 113.8 157.838 113.933C157.593 114.067 157.311 114.12 157.035 114.084L145.998 112.226C145.774 112.188 145.545 112.209 145.331 112.286C145.118 112.364 144.928 112.495 144.78 112.667L137.456 121.136C137.261 121.335 137.009 121.467 136.736 121.515C136.462 121.564 136.181 121.525 135.93 121.405C135.68 121.285 135.473 121.089 135.339 120.846C135.205 120.602 135.151 120.323 135.184 120.047L137.04 109.013C137.079 108.79 137.06 108.56 136.984 108.347C136.908 108.133 136.778 107.943 136.607 107.794L128.15 100.459C127.947 100.266 127.81 100.014 127.759 99.7386C127.708 99.4631 127.746 99.1785 127.867 98.9258C127.988 98.6731 128.186 98.4653 128.433 98.3325C128.679 98.1996 128.962 98.1484 129.239 98.1863L140.268 100.043C140.493 100.082 140.724 100.062 140.939 99.9844C141.153 99.9072 141.345 99.7757 141.494 99.6027L148.78 91.1329Z" stroke="#170D42" stroke-miterlimit="10"/>
<path d="M328.426 10.0827C328.323 9.81096 328.312 9.51288 328.395 9.23442C328.478 8.95596 328.651 8.71264 328.886 8.542C329.121 8.37137 329.406 8.28293 329.697 8.29034C329.987 8.29774 330.267 8.40056 330.494 8.58297L339.267 15.5293C339.446 15.6683 339.658 15.7596 339.881 15.7946C340.105 15.8297 340.334 15.8074 340.547 15.7297L351.044 11.8559C351.31 11.771 351.597 11.7723 351.862 11.8598C352.127 11.9473 352.358 12.1165 352.521 12.3431C352.685 12.5697 352.772 12.8421 352.771 13.1213C352.77 13.4006 352.681 13.6723 352.516 13.8977L345.575 22.6766C345.434 22.8545 345.341 23.0658 345.306 23.2901C345.271 23.5143 345.295 23.7439 345.375 23.9563L349.271 34.4536C349.351 34.7195 349.346 35.0039 349.257 35.2668C349.167 35.5298 348.998 35.7581 348.772 35.9198C348.546 36.0815 348.275 36.1685 347.997 36.1685C347.72 36.1686 347.449 36.0818 347.223 35.9202L338.445 28.9805C338.268 28.8391 338.058 28.7457 337.834 28.7094C337.611 28.6731 337.381 28.6952 337.169 28.7734L326.668 32.6538C326.401 32.7394 326.114 32.738 325.848 32.65C325.582 32.562 325.351 32.3919 325.188 32.1641C325.024 31.9364 324.938 31.6627 324.94 31.3826C324.942 31.1025 325.033 30.8304 325.2 30.6055L332.138 21.8332C332.28 21.6546 332.373 21.4422 332.409 21.2168C332.445 20.9914 332.422 20.7606 332.342 20.5468L328.426 10.0827Z" stroke="#170D42" stroke-miterlimit="10"/>
<path d="M90.1907 87.8543C84.8808 90.9852 78.7939 92.4224 73.4225 95.5194C67.4112 98.9828 61.8581 103.444 54.6981 103.926C40.3362 104.895 30.0182 96.2352 20.5386 86.682C11.1848 77.25 0.774552 63.977 1.00372 49.7881C1.09874 43.8307 4.49149 39.8122 7.96808 35.3766C12.093 30.1181 15.9497 24.7356 20.6644 19.9816C28.5342 12.0488 40.6799 1.14857 52.5238 1.00203C66.1899 0.832949 80.5127 11.2456 89.6932 20.4917C97.3898 28.2385 107.61 40.9789 107.984 52.4624C108.387 64.8844 100.925 81.5053 90.1907 87.8543Z" stroke="#170D42" stroke-miterlimit="10"/>
</svg>
