<svg width="23" height="23" viewBox="0 0 23 23" fill="none" xmlns="http://www.w3.org/2000/svg">
<path d="M22.7072 9.34346C22.8509 10.1133 22.9292 10.9182 22.9292 11.7582C22.9292 18.3283 18.532 23 11.8906 23C10.3803 23.0005 8.88467 22.7033 7.48922 22.1255C6.09377 21.5478 4.82584 20.7007 3.75787 19.6328C2.6899 18.5648 1.84284 17.2969 1.26507 15.9014C0.687307 14.506 0.390165 13.0103 0.390626 11.5C0.390165 9.98967 0.687307 8.49405 1.26507 7.0986C1.84284 5.70314 2.6899 4.43521 3.75787 3.36725C4.82584 2.29928 6.09377 1.45221 7.48922 0.874448C8.88467 0.296682 10.3803 -0.000459956 11.8906 5.34407e-07C14.9958 5.34407e-07 17.5904 1.14252 19.581 2.99766L16.3392 6.23949V6.23131C15.1324 5.08178 13.6009 4.49182 11.8906 4.49182C8.09623 4.49182 5.01212 7.69743 5.01212 11.493C5.01212 15.2874 8.09623 18.5 11.8906 18.5C15.3334 18.5 17.6768 16.5315 18.1581 13.8283H11.8906V9.34346H22.7084H22.7072Z" fill="#FAF8FF"/>
</svg>
