<svg width="566" height="473" viewBox="0 0 566 473" fill="none" xmlns="http://www.w3.org/2000/svg">
<g clip-path="url(#clip0_866_3432)">
<path d="M126.643 57.2177C126.651 58.2256 126.739 59.1429 126.623 60.0357C126.581 60.35 126.062 60.7831 125.72 60.8241C125.453 60.8597 124.924 60.402 124.866 60.1036C124.725 59.4123 124.785 58.6801 124.801 57.9613C124.817 57.8716 124.854 57.787 124.91 57.7147C124.965 57.6424 125.038 57.5846 125.12 57.5461C125.585 57.415 126.054 57.3371 126.643 57.2177Z" fill="white" stroke="#170D42" stroke-miterlimit="10"/>
<path d="M113.074 60.056C113.731 59.9235 114.264 59.8188 114.914 59.6893C115.027 60.4412 115.235 61.1484 115.197 61.8442C115.179 62.18 114.735 62.7172 114.431 62.76C114.126 62.8029 113.574 62.4119 113.441 62.0854C113.2 61.489 113.193 60.8018 113.074 60.056Z" fill="white" stroke="#170D42" stroke-miterlimit="10"/>
<path d="M120.988 58.4121C120.894 59.1864 120.884 59.8156 120.708 60.3932C120.658 60.5569 119.931 60.7343 119.832 60.624C119.434 60.1751 119.159 59.6148 118.731 58.9224L120.988 58.4121Z" fill="white" stroke="#170D42" stroke-miterlimit="10"/>
<path d="M130.809 56.2729L132.621 55.8498C132.614 56.4577 132.71 56.9891 132.558 57.4422C132.488 57.6574 131.794 57.9203 131.649 57.8095C131.222 57.488 130.929 56.9884 130.584 56.5597C130.66 56.4646 130.734 56.368 130.809 56.2729Z" fill="white" stroke="#170D42" stroke-miterlimit="10"/>
<path d="M99.8633 62.4294C100.739 62.2898 101.272 62.2033 102.073 62.0676C101.928 62.6576 101.909 63.1302 101.681 63.4914C101.562 63.6773 100.956 63.7965 100.773 63.6627C100.436 63.4225 100.239 62.9693 99.8633 62.4294Z" fill="white" stroke="#170D42" stroke-miterlimit="10"/>
<path d="M107.052 61.2228L108.82 60.8753C109.06 61.5599 108.868 62.031 108.239 62.188C107.609 62.345 107.224 62.0041 107.052 61.2228Z" fill="white" stroke="#170D42" stroke-miterlimit="10"/>
<path d="M186.609 103.6L183.818 112.004C180.15 123.055 169.954 118.799 169.954 118.799L169.16 118.531L166.515 117.636L163.869 116.741L161.427 115.919L158.783 115.026C153.244 113.155 146.027 110.719 138.017 108.021L135.574 107.198L132.924 106.317L130.279 105.417L127.634 104.525C119.137 101.669 110.223 98.6758 101.77 95.8521C100.951 95.5758 100.133 95.304 99.3257 95.0338L96.6802 94.1544C95.7867 93.8576 94.9039 93.5635 94.0316 93.2719L91.3816 92.388C90.4871 92.0901 89.6043 91.796 88.7331 91.5055L86.2813 90.6978L83.6313 89.8077L80.9812 88.9298L78.3219 88.0609L77.174 87.6828C75.5708 87.1537 74.0974 86.6166 72.7538 86.0716C48.4971 76.2895 64.2585 64.5786 64.2585 64.5786C76.9126 75.8197 101.26 82.6841 127.641 88.9328C136.306 90.9862 145.193 92.9702 153.957 95.0229C165.297 97.6717 176.424 100.436 186.609 103.6Z" fill="white" stroke="#170D42" stroke-miterlimit="10"/>
<path d="M72.6448 86.0311L73.5254 83.7225" stroke="#170D42" stroke-miterlimit="10"/>
<path d="M75.607 87.0062L76.3319 84.8892" stroke="#170D42" stroke-miterlimit="10"/>
<path d="M78.1925 88.0856L78.9159 85.967" stroke="#170D42" stroke-miterlimit="10"/>
<path d="M80.8426 88.9605L81.5675 86.8434" stroke="#170D42" stroke-miterlimit="10"/>
<path d="M83.4958 89.8354L84.2192 87.7169" stroke="#170D42" stroke-miterlimit="10"/>
<path d="M86.1475 90.7088L86.8724 88.5917" stroke="#170D42" stroke-miterlimit="10"/>
<path d="M88.5962 91.5164L89.3196 89.3979" stroke="#170D42" stroke-miterlimit="10"/>
<path d="M91.2479 92.3898L91.9728 90.2728" stroke="#170D42" stroke-miterlimit="10"/>
<path d="M93.8995 93.2663L94.6229 91.1477" stroke="#170D42" stroke-miterlimit="10"/>
<path d="M96.5513 94.1396L97.2747 92.0211" stroke="#170D42" stroke-miterlimit="10"/>
<path d="M99.2028 95.0129L99.9277 92.8959" stroke="#170D42" stroke-miterlimit="10"/>
<path d="M101.652 95.8207L102.375 93.7021" stroke="#170D42" stroke-miterlimit="10"/>
<path d="M104.303 96.694L105.028 94.577" stroke="#170D42" stroke-miterlimit="10"/>
<path d="M106.955 97.5705L107.68 95.4504" stroke="#170D42" stroke-miterlimit="10"/>
<path d="M109.607 98.4438L110.331 96.3268" stroke="#170D42" stroke-miterlimit="10"/>
<path d="M112.055 99.2515L112.779 97.1329" stroke="#170D42" stroke-miterlimit="10"/>
<path d="M114.707 100.125L115.432 98.0078" stroke="#170D42" stroke-miterlimit="10"/>
<path d="M117.156 100.933L117.879 98.8141" stroke="#170D42" stroke-miterlimit="10"/>
<path d="M119.807 101.806L120.532 99.689" stroke="#170D42" stroke-miterlimit="10"/>
<path d="M122.459 102.682L123.184 100.562" stroke="#170D42" stroke-miterlimit="10"/>
<path d="M125.111 103.556L125.836 101.439" stroke="#170D42" stroke-miterlimit="10"/>
<path d="M127.492 104.568L128.215 102.45" stroke="#170D42" stroke-miterlimit="10"/>
<path d="M130.144 105.441L130.868 103.324" stroke="#170D42" stroke-miterlimit="10"/>
<path d="M132.795 106.315L133.52 104.198" stroke="#170D42" stroke-miterlimit="10"/>
<path d="M135.448 107.19L136.172 105.071" stroke="#170D42" stroke-miterlimit="10"/>
<path d="M137.896 107.996L138.62 105.879" stroke="#170D42" stroke-miterlimit="10"/>
<path d="M140.547 108.872L141.271 106.754" stroke="#170D42" stroke-miterlimit="10"/>
<path d="M143.199 109.746L143.924 107.629" stroke="#170D42" stroke-miterlimit="10"/>
<path d="M145.852 110.621L146.575 108.502" stroke="#170D42" stroke-miterlimit="10"/>
<path d="M148.299 111.427L149.024 109.31" stroke="#170D42" stroke-miterlimit="10"/>
<path d="M150.953 112.302L151.676 110.183" stroke="#170D42" stroke-miterlimit="10"/>
<path d="M153.603 113.177L154.328 111.06" stroke="#170D42" stroke-miterlimit="10"/>
<path d="M156.051 113.984L156.775 111.866" stroke="#170D42" stroke-miterlimit="10"/>
<path d="M158.635 115.062L159.36 112.945" stroke="#170D42" stroke-miterlimit="10"/>
<path d="M161.289 115.937L162.012 113.819" stroke="#170D42" stroke-miterlimit="10"/>
<path d="M163.736 116.743L164.461 114.626" stroke="#170D42" stroke-miterlimit="10"/>
<path d="M166.389 117.618L167.112 115.5" stroke="#170D42" stroke-miterlimit="10"/>
<path d="M169.041 118.492L169.764 116.373" stroke="#170D42" stroke-miterlimit="10"/>
<path d="M110.572 59.7737C110.575 59.6983 110.573 59.6536 110.573 59.6536" stroke="#170D42" stroke-miterlimit="10"/>
<path d="M106.95 60.3232C106.927 60.2281 106.916 60.1683 106.916 60.1683" stroke="#170D42" stroke-miterlimit="10"/>
<path d="M122.755 57.3723L122.751 57.3364" stroke="#170D42" stroke-miterlimit="10"/>
<path d="M119.178 58.1699L119.166 58.1298" stroke="#170D42" stroke-miterlimit="10"/>
<path d="M128.347 55.9506C128.349 55.9421 128.348 55.9335 128.344 55.9256" stroke="#170D42" stroke-miterlimit="10"/>
<path d="M124.804 56.8796L124.791 56.8348" stroke="#170D42" stroke-miterlimit="10"/>
<path d="M130.897 55.1814L130.874 55.1426" stroke="#170D42" stroke-miterlimit="10"/>
<path d="M139.489 50.5053L139.479 50.4952" stroke="#170D42" stroke-miterlimit="10"/>
<path d="M136.365 52.4287C136.355 52.4203 136.346 52.4109 136.338 52.4006" stroke="#170D42" stroke-miterlimit="10"/>
<path d="M116.933 58.6317L116.926 58.5659" stroke="#170D42" stroke-miterlimit="10"/>
<path d="M127.524 88.891L127.526 88.8892" stroke="#170D42" stroke-miterlimit="10"/>
<path d="M190.357 93.4608L190.345 93.3414" stroke="#170D42" stroke-miterlimit="10"/>
<path d="M178.808 75.5253L178.804 75.4798" stroke="#170D42" stroke-miterlimit="10"/>
<path d="M127.52 88.8831C101.141 82.645 76.7839 75.7775 64.139 64.5395C64.139 64.5395 66.6454 61.0856 69.6431 60.0088C115.676 86.47 107.865 64.7991 107.865 64.7991C110.502 64.4639 113.824 64.0132 117.476 63.4971C116.767 69.9357 125.066 76.2951 127.52 88.8831Z" fill="#D4145A" stroke="#170D42" stroke-miterlimit="10"/>
<path d="M153.842 94.9794C145.078 92.9266 136.187 90.9381 127.534 88.897C125.072 76.3044 116.775 69.9435 117.491 63.5125C126.259 62.2912 136.968 60.7224 144.838 59.5599C142.051 67.7523 156.751 85.1586 153.842 94.9794Z" fill="#FBB03B" stroke="#170D42" stroke-miterlimit="10"/>
<path d="M190.346 93.3414C189.48 80.5973 179.918 84.2588 178.808 75.5239C182.664 74.5673 187.277 72.2236 192.915 67.9889C192.919 67.9874 200.534 64.6384 190.346 93.3414Z" fill="#D4145A" stroke="#170D42" stroke-miterlimit="10"/>
<path d="M190.345 93.3413C189.269 96.3763 187.992 99.7682 186.492 103.555C176.309 100.392 165.18 97.6266 153.842 94.9702C156.751 85.1494 142.054 67.7461 144.828 59.5369C151.29 58.5792 155.84 57.8932 155.84 57.8932L157.605 61.4537C162.815 69.5381 167.686 78.2762 178.808 75.5147C179.918 84.2587 189.48 80.5972 190.345 93.3413Z" fill="#29ABE2" stroke="#170D42" stroke-miterlimit="10"/>
<path d="M157.605 61.4629L155.84 57.9024C155.084 49.9535 149.103 50.9262 147.615 51.3537C146.126 51.7812 145.645 50.7053 145.645 50.7053L143.737 47.9461C148.938 44.8841 150.787 44.1786 153.562 43.5756C157.344 47.2878 161.734 54.5137 157.605 61.4629Z" fill="#D4145A" stroke="#170D42" stroke-miterlimit="10"/>
<path d="M155.84 57.9023C155.84 57.9023 151.29 58.5882 144.829 59.5444C136.96 60.7115 126.253 62.2788 117.481 63.4986C113.819 64.0086 110.497 64.4593 107.868 64.8021C105.559 65.0961 103.775 65.3021 102.744 65.3841C95.4953 65.9639 95.0864 61.7027 95.0804 61.5613C97.0411 61.4435 99.0146 61.2711 101.024 61.0519C101.024 61.0519 101.473 63.5275 103.105 63.3855C104.738 63.2435 104.67 60.7166 104.667 60.6284C105.426 60.5308 106.184 60.4287 106.943 60.3219L106.951 60.3144C107.083 60.8522 107.617 62.6141 109 62.4942C110.427 62.3701 110.562 60.2843 110.575 59.7631C111.498 59.6122 112.415 59.4567 113.327 59.2967C113.327 59.2967 113.983 61.8106 115.602 61.5347C117.076 61.2925 116.968 59.0297 116.935 58.6205C117.696 58.4753 118.447 58.3194 119.188 58.1527C119.288 58.4637 119.991 60.5098 121.483 60.2237C122.974 59.9376 122.798 57.6666 122.766 57.3547C123.46 57.1957 124.141 57.0295 124.809 56.8561C124.921 57.1824 125.673 59.2077 127.145 58.8774C128.617 58.547 128.387 56.1874 128.352 55.9271C128.784 55.8048 129.214 55.684 129.639 55.5677C130.065 55.4514 130.487 55.3108 130.904 55.164C131.063 55.4558 132.147 57.3153 133.549 56.7563C135.018 56.1705 134.309 53.8416 134.257 53.6755C134.652 53.4631 135.038 53.2416 135.423 52.9988C135.747 52.8001 136.063 52.6043 136.373 52.4114C136.564 52.6685 137.898 54.3798 139.216 53.6316C140.581 52.8564 139.583 50.6753 139.495 50.4876C141.132 49.4853 142.531 48.6435 143.744 47.9293L145.654 50.687C145.654 50.687 146.133 51.7659 147.623 51.3369C149.113 50.9079 155.085 49.9519 155.84 57.9023Z" fill="#29ABE2" stroke="#170D42" stroke-miterlimit="10"/>
<path d="M69.6369 60.0149C70.5733 59.6418 71.6082 59.599 72.5705 59.8936C77.9819 61.769 86.1571 62.1414 95.0697 61.5658C95.0834 61.6997 95.4923 65.961 102.741 65.3812C103.772 65.2992 105.556 65.0932 107.865 64.7992C107.865 64.7992 115.676 86.47 69.6369 60.0149Z" fill="#FBB03B" stroke="#170D42" stroke-miterlimit="10"/>
<path d="M103.096 63.3886C101.464 63.5306 101.015 61.055 101.015 61.055C102.228 60.928 103.443 60.7869 104.658 60.6315C104.66 60.7197 104.698 63.2494 103.096 63.3886Z" fill="white" stroke="#170D42" stroke-miterlimit="10"/>
<path d="M108.998 62.5018C107.612 62.6248 107.085 60.8568 106.95 60.3221C108.162 60.1505 109.372 59.9683 110.577 59.7738C110.56 60.292 110.425 62.3778 108.998 62.5018Z" fill="white" stroke="#170D42" stroke-miterlimit="10"/>
<path d="M115.6 61.5424C113.986 61.8137 113.326 59.3044 113.326 59.3044C114.543 59.0892 115.746 58.8639 116.933 58.6282C116.966 59.0374 117.068 61.294 115.6 61.5424Z" fill="white" stroke="#170D42" stroke-miterlimit="10"/>
<path d="M121.475 60.2404C119.988 60.522 119.282 58.4819 119.18 58.1694C120.396 57.9117 121.588 57.6452 122.757 57.3699C122.788 57.6818 122.971 59.9528 121.475 60.2404Z" fill="white" stroke="#170D42" stroke-miterlimit="10"/>
<path d="M127.139 58.8987C125.66 59.2351 124.914 57.2037 124.803 56.8774C126.02 56.5742 127.201 56.2645 128.346 55.9484C128.384 56.2087 128.65 58.5625 127.139 58.8987Z" fill="white" stroke="#170D42" stroke-miterlimit="10"/>
<path d="M133.541 56.7731C132.139 57.3321 131.059 55.4695 130.896 55.1808C132.054 54.7748 133.178 54.2766 134.257 53.6908C134.302 53.8568 135.01 56.1873 133.541 56.7731Z" fill="white" stroke="#170D42" stroke-miterlimit="10"/>
<path d="M139.209 53.6483C137.89 54.3965 136.556 52.6852 136.365 52.4282C137.487 51.7288 138.523 51.0921 139.471 50.5179C139.471 50.5179 139.482 50.5073 139.486 50.5028C139.581 50.686 140.573 52.8731 139.209 53.6483Z" fill="white" stroke="#170D42" stroke-miterlimit="10"/>
<path d="M161.062 166.064C161.044 165.056 160.947 164.139 161.054 163.246C161.093 162.929 161.607 162.494 161.95 162.447C162.215 162.41 162.745 162.855 162.81 163.161C162.957 163.85 162.909 164.585 162.896 165.301C162.881 165.391 162.845 165.476 162.79 165.549C162.735 165.622 162.664 165.681 162.581 165.72C162.125 165.864 161.649 165.937 161.062 166.064Z" fill="white" stroke="#170D42" stroke-miterlimit="10"/>
<path d="M174.605 163.095C173.949 163.232 173.425 163.349 172.769 163.478C172.642 162.734 172.433 162.022 172.466 161.325C172.481 160.986 172.919 160.446 173.225 160.401C173.531 160.357 174.084 160.74 174.219 161.065C174.461 161.66 174.476 162.349 174.605 163.095Z" fill="white" stroke="#170D42" stroke-miterlimit="10"/>
<path d="M166.706 164.813C166.791 164.039 166.795 163.41 166.966 162.831C167.015 162.665 167.739 162.482 167.832 162.583C168.235 163.027 168.514 163.586 168.95 164.274C168.107 164.481 167.543 164.616 166.706 164.813Z" fill="white" stroke="#170D42" stroke-miterlimit="10"/>
<path d="M156.904 167.048C156.382 167.178 155.861 167.304 155.097 167.49C155.104 166.882 154.998 166.352 155.145 165.896C155.214 165.681 155.904 165.41 156.05 165.519C156.48 165.838 156.778 166.333 157.127 166.76C157.052 166.855 156.978 166.952 156.904 167.048Z" fill="white" stroke="#170D42" stroke-miterlimit="10"/>
<path d="M187.786 160.581L185.575 160.972C185.714 160.382 185.725 159.896 185.953 159.544C186.072 159.358 186.674 159.234 186.859 159.365C187.211 159.603 187.408 160.051 187.786 160.581Z" fill="white" stroke="#170D42" stroke-miterlimit="10"/>
<path d="M180.614 161.865C179.981 161.998 179.436 162.118 178.846 162.233C178.6 161.551 178.792 161.083 179.416 160.914C180.04 160.745 180.436 161.087 180.614 161.865Z" fill="white" stroke="#170D42" stroke-miterlimit="10"/>
<path d="M100.645 120.27L103.351 111.839C106.913 100.753 117.151 104.91 117.151 104.91L117.946 105.177L120.603 106.043L123.259 106.909L125.711 107.708L128.367 108.574C133.922 110.389 141.163 112.754 149.194 115.375L151.644 116.172L154.3 117.038L156.955 117.902L159.61 118.766C168.132 121.537 177.078 124.446 185.559 127.188L188.011 127.98L190.664 128.843L193.317 129.706L195.969 130.567L198.621 131.428L201.076 132.218L203.728 133.079L206.378 133.938L209.041 134.789L210.195 135.161C211.804 135.674 213.283 136.196 214.631 136.727C238.995 146.268 223.349 158.134 223.349 158.134C210.584 147.016 186.171 140.39 159.723 134.408C151.064 132.394 142.156 130.5 133.375 128.534C122.014 125.99 110.859 123.333 100.645 120.27Z" fill="white" stroke="#170D42" stroke-miterlimit="10"/>
<path d="M214.777 136.725L213.919 139.042" stroke="#170D42" stroke-miterlimit="10"/>
<path d="M211.805 135.778L211.101 137.901" stroke="#170D42" stroke-miterlimit="10"/>
<path d="M209.21 134.722L208.506 136.849" stroke="#170D42" stroke-miterlimit="10"/>
<path d="M206.551 133.875L205.845 136" stroke="#170D42" stroke-miterlimit="10"/>
<path d="M203.89 133.026L203.186 135.152" stroke="#170D42" stroke-miterlimit="10"/>
<path d="M201.23 132.178L200.525 134.303" stroke="#170D42" stroke-miterlimit="10"/>
<path d="M198.772 131.394L198.07 133.519" stroke="#170D42" stroke-miterlimit="10"/>
<path d="M196.112 130.547L195.409 132.67" stroke="#170D42" stroke-miterlimit="10"/>
<path d="M193.451 129.698L192.749 131.823" stroke="#170D42" stroke-miterlimit="10"/>
<path d="M190.792 128.85L190.088 130.974" stroke="#170D42" stroke-miterlimit="10"/>
<path d="M188.131 128.001L187.428 130.126" stroke="#170D42" stroke-miterlimit="10"/>
<path d="M185.676 127.218L184.972 129.344" stroke="#170D42" stroke-miterlimit="10"/>
<path d="M183.016 126.37L182.311 128.495" stroke="#170D42" stroke-miterlimit="10"/>
<path d="M180.355 125.521L179.651 127.647" stroke="#170D42" stroke-miterlimit="10"/>
<path d="M177.694 124.672L176.99 126.798" stroke="#170D42" stroke-miterlimit="10"/>
<path d="M175.237 123.89L174.535 126.015" stroke="#170D42" stroke-miterlimit="10"/>
<path d="M172.578 123.042L171.874 125.165" stroke="#170D42" stroke-miterlimit="10"/>
<path d="M170.123 122.259L169.417 124.384" stroke="#170D42" stroke-miterlimit="10"/>
<path d="M167.461 121.41L166.758 123.536" stroke="#170D42" stroke-miterlimit="10"/>
<path d="M164.8 120.56L164.097 122.687" stroke="#170D42" stroke-miterlimit="10"/>
<path d="M162.141 119.713L161.436 121.838" stroke="#170D42" stroke-miterlimit="10"/>
<path d="M159.75 118.725L159.047 120.851" stroke="#170D42" stroke-miterlimit="10"/>
<path d="M157.089 117.876L156.385 120.002" stroke="#170D42" stroke-miterlimit="10"/>
<path d="M154.43 117.028L153.726 119.154" stroke="#170D42" stroke-miterlimit="10"/>
<path d="M151.769 116.179L151.065 118.305" stroke="#170D42" stroke-miterlimit="10"/>
<path d="M149.312 115.397L148.61 117.522" stroke="#170D42" stroke-miterlimit="10"/>
<path d="M146.652 114.549L145.949 116.673" stroke="#170D42" stroke-miterlimit="10"/>
<path d="M143.991 113.7L143.289 115.825" stroke="#170D42" stroke-miterlimit="10"/>
<path d="M141.332 112.853L140.628 114.976" stroke="#170D42" stroke-miterlimit="10"/>
<path d="M138.875 112.068L138.171 114.194" stroke="#170D42" stroke-miterlimit="10"/>
<path d="M136.215 111.22L135.51 113.345" stroke="#170D42" stroke-miterlimit="10"/>
<path d="M133.554 110.371L132.851 112.497" stroke="#170D42" stroke-miterlimit="10"/>
<path d="M131.098 109.589L130.396 111.714" stroke="#170D42" stroke-miterlimit="10"/>
<path d="M128.505 108.535L127.799 110.66" stroke="#170D42" stroke-miterlimit="10"/>
<path d="M125.843 107.686L125.14 109.812" stroke="#170D42" stroke-miterlimit="10"/>
<path d="M123.387 106.904L122.685 109.029" stroke="#170D42" stroke-miterlimit="10"/>
<path d="M120.727 106.057L120.024 108.18" stroke="#170D42" stroke-miterlimit="10"/>
<path d="M118.066 105.207L117.364 107.332" stroke="#170D42" stroke-miterlimit="10"/>
<path d="M177.107 163.351C177.106 163.428 177.109 163.471 177.109 163.471" stroke="#170D42" stroke-miterlimit="10"/>
<path d="M180.725 162.766L180.76 162.92" stroke="#170D42" stroke-miterlimit="10"/>
<path d="M164.948 165.872L164.952 165.908" stroke="#170D42" stroke-miterlimit="10"/>
<path d="M168.516 165.036L168.528 165.076" stroke="#170D42" stroke-miterlimit="10"/>
<path d="M159.371 167.349L159.372 167.373" stroke="#170D42" stroke-miterlimit="10"/>
<path d="M162.904 166.385L162.919 166.428" stroke="#170D42" stroke-miterlimit="10"/>
<path d="M153.489 169.661L153.497 169.67" stroke="#170D42" stroke-miterlimit="10"/>
<path d="M156.829 168.141L156.852 168.18" stroke="#170D42" stroke-miterlimit="10"/>
<path d="M148.282 172.9L148.293 172.911" stroke="#170D42" stroke-miterlimit="10"/>
<path d="M151.387 170.945L151.416 170.975" stroke="#170D42" stroke-miterlimit="10"/>
<path d="M170.757 164.556L170.764 164.622" stroke="#170D42" stroke-miterlimit="10"/>
<path d="M159.871 134.399L159.871 134.402" stroke="#170D42" stroke-miterlimit="10"/>
<path d="M108.718 148.267L108.723 148.313" stroke="#170D42" stroke-miterlimit="10"/>
<path d="M159.871 134.402C186.316 140.387 210.728 147.013 223.496 158.128C223.496 158.128 221.025 161.605 218.04 162.707C171.741 136.706 179.765 158.3 179.765 158.3C177.131 158.659 173.814 159.142 170.159 159.687C170.812 153.249 162.453 146.97 159.871 134.402Z" fill="#009245" stroke="#170D42" stroke-miterlimit="10"/>
<path d="M133.494 128.57C142.278 130.538 151.179 132.429 159.871 134.402C162.453 146.97 170.809 153.252 170.159 159.687C161.402 160.993 150.709 162.667 142.849 163.904C145.549 155.679 130.681 138.42 133.494 128.57Z" fill="#FBB03B" stroke="#170D42" stroke-miterlimit="10"/>
<path d="M97.0067 130.565C97.997 143.298 107.523 139.545 108.718 148.267C104.871 149.262 100.281 151.65 94.685 155.939C94.6819 155.942 87.1003 159.365 97.0067 130.565Z" fill="#009245" stroke="#170D42" stroke-miterlimit="10"/>
<path d="M97.0065 130.565C98.0536 127.522 99.2964 124.113 100.764 120.309C110.979 123.372 122.133 126.029 133.494 128.57C130.681 138.42 145.551 155.681 142.853 163.912C136.402 164.933 131.861 165.665 131.861 165.665L130.055 162.124C124.759 154.087 119.813 145.408 108.713 148.271C107.523 139.545 97.9968 143.298 97.0065 130.565Z" fill="#29ABE2" stroke="#170D42" stroke-miterlimit="10"/>
<path d="M130.055 162.124L131.854 165.667C132.687 173.609 138.659 172.578 140.145 172.135C141.63 171.693 142.118 172.766 142.118 172.766L144.063 175.498C138.89 178.61 137.05 179.334 134.284 179.97C130.457 176.293 125.997 169.109 130.055 162.124Z" fill="#009245" stroke="#170D42" stroke-miterlimit="10"/>
<path d="M131.858 165.662C131.858 165.662 136.402 164.933 142.849 163.91C150.708 162.669 161.393 161.002 170.161 159.691C173.817 159.145 177.134 158.662 179.768 158.303C182.073 157.986 183.856 157.76 184.88 157.676C192.12 157.027 192.573 161.284 192.586 161.418C190.634 161.563 188.649 161.753 186.649 161.985C186.649 161.985 186.174 159.514 184.542 159.672C182.911 159.831 183.005 162.357 183.007 162.445C182.248 162.547 181.49 162.657 180.734 162.773L180.726 162.78C180.59 162.244 180.038 160.488 178.655 160.62C177.231 160.756 177.114 162.845 177.108 163.368C176.186 163.526 175.27 163.689 174.359 163.859C174.359 163.859 173.674 161.358 172.063 161.645C170.599 161.907 170.722 164.161 170.759 164.57C170.007 164.726 169.261 164.886 168.52 165.053C168.417 164.742 167.69 162.708 166.207 163C164.725 163.292 164.916 165.57 164.954 165.881C164.262 166.049 163.578 166.217 162.903 166.388C162.789 166.061 162.015 164.045 160.546 164.391C159.077 164.736 159.328 167.087 159.366 167.35C158.934 167.472 158.503 167.595 158.086 167.723C157.67 167.852 157.241 167.989 156.828 168.142C156.665 167.85 155.563 166.003 154.164 166.574C152.701 167.175 153.433 169.5 153.486 169.661C153.096 169.878 152.721 170.11 152.327 170.349C152.007 170.554 151.692 170.752 151.384 170.948C151.189 170.691 149.841 168.995 148.529 169.754C147.172 170.543 148.19 172.713 148.281 172.901C146.653 173.919 145.263 174.776 144.056 175.502L142.12 172.761C142.12 172.761 141.629 171.688 140.145 172.132C138.661 172.577 132.692 173.607 131.858 165.662Z" fill="#29ABE2" stroke="#170D42" stroke-miterlimit="10"/>
<path d="M218.039 162.709C217.106 163.09 216.073 163.143 215.108 162.858C209.678 161.037 201.499 160.743 192.593 161.406C192.579 161.272 192.127 157.013 184.886 157.664C183.854 157.755 182.073 157.98 179.774 158.291C179.765 158.3 171.741 136.706 218.039 162.709Z" fill="#FBB03B" stroke="#170D42" stroke-miterlimit="10"/>
<path d="M184.547 159.662C186.178 159.503 186.653 161.974 186.653 161.974C185.44 162.113 184.226 162.267 183.012 162.434C183.007 162.349 182.942 159.822 184.547 159.662Z" fill="white" stroke="#170D42" stroke-miterlimit="10"/>
<path d="M178.653 160.606C180.034 160.477 180.588 162.23 180.725 162.766C179.515 162.95 178.309 163.146 177.107 163.354C177.113 162.831 177.221 160.75 178.653 160.606Z" fill="white" stroke="#170D42" stroke-miterlimit="10"/>
<path d="M172.06 161.633C173.671 161.346 174.356 163.847 174.356 163.847C173.142 164.074 171.94 164.315 170.756 164.558C170.722 164.149 170.598 161.893 172.06 161.633Z" fill="white" stroke="#170D42" stroke-miterlimit="10"/>
<path d="M166.201 162.991C167.687 162.696 168.414 164.73 168.514 165.044C167.301 165.31 166.112 165.594 164.945 165.875C164.912 165.562 164.707 163.292 166.201 162.991Z" fill="white" stroke="#170D42" stroke-miterlimit="10"/>
<path d="M160.546 164.388C162.015 164.042 162.787 166.06 162.904 166.385C161.687 166.699 160.509 167.021 159.369 167.35C159.329 167.092 159.042 164.737 160.546 164.388Z" fill="white" stroke="#170D42" stroke-miterlimit="10"/>
<path d="M154.167 166.574C155.566 166.003 156.668 167.85 156.83 168.142C155.68 168.558 154.564 169.064 153.493 169.657C153.436 169.5 152.704 167.175 154.167 166.574Z" fill="white" stroke="#170D42" stroke-miterlimit="10"/>
<path d="M148.532 169.754C149.844 168.995 151.192 170.691 151.387 170.948C150.27 171.654 149.241 172.301 148.299 172.889C148.299 172.889 148.29 172.898 148.285 172.903C148.193 172.713 147.175 170.543 148.532 169.754Z" fill="white" stroke="#170D42" stroke-miterlimit="10"/>
</g>
<path d="M290.5 108C290.5 137.628 274.322 164.492 248.086 183.966C221.85 203.44 185.582 215.5 145.5 215.5C105.418 215.5 69.1498 203.44 42.914 183.966C16.6781 164.492 0.5 137.628 0.5 108C0.5 78.3715 16.6781 51.508 42.914 32.034C69.1498 12.5599 105.418 0.5 145.5 0.5C185.582 0.5 221.85 12.5599 248.086 32.034C274.322 51.508 290.5 78.3715 290.5 108Z" stroke="#170D42"/>
<path d="M313.106 152.342C311.638 155.355 309.387 157.614 306.957 158.841C304.527 160.067 301.946 160.252 299.759 159.186C297.571 158.119 296.127 155.973 295.596 153.303C295.064 150.633 295.457 147.469 296.926 144.455C298.395 141.442 300.645 139.183 303.076 137.957C305.505 136.73 308.086 136.545 310.274 137.612C312.461 138.678 313.906 140.824 314.437 143.494C314.968 146.164 314.575 149.328 313.106 152.342Z" stroke="#170D42"/>
<path d="M339.619 160.849C338.652 162.833 337.174 164.314 335.585 165.115C333.997 165.917 332.329 166.029 330.924 165.345C329.519 164.66 328.58 163.276 328.233 161.532C327.886 159.787 328.141 157.709 329.108 155.726C330.075 153.742 331.554 152.261 333.142 151.459C334.73 150.658 336.399 150.545 337.803 151.23C339.208 151.915 340.148 153.298 340.495 155.043C340.842 156.788 340.586 158.865 339.619 160.849Z" stroke="#170D42"/>
<path d="M362.171 167.991C361.502 169.362 360.482 170.381 359.394 170.93C358.306 171.479 357.18 171.549 356.24 171.091C355.3 170.633 354.661 169.703 354.423 168.508C354.186 167.312 354.36 165.881 355.028 164.509C355.697 163.138 356.717 162.119 357.805 161.57C358.893 161.021 360.019 160.951 360.959 161.409C361.898 161.867 362.538 162.797 362.775 163.992C363.013 165.188 362.839 166.619 362.171 167.991Z" stroke="#170D42"/>
<line x1="109" y1="472.5" x2="566" y2="472.5" stroke="#170D42"/>
<path fill-rule="evenodd" clip-rule="evenodd" d="M464.659 276.422H373.139L371.739 299.944L326.003 313.045C317.718 315.419 310.66 320.879 306.283 328.302L240.666 439.581L296.299 444.808L297.793 439.954L349.691 444.808L374.894 358.918L424.945 358.472H428.349C454.458 358.472 474.623 335.529 471.274 309.636L464.659 276.422Z" fill="#4B69FD"/>
<path fill-rule="evenodd" clip-rule="evenodd" d="M343.874 444.265L301.344 440.287L300.944 441.96C300.26 444.824 298.612 447.366 296.278 449.162C294.957 450.179 293.445 450.91 291.84 451.351C292.18 449.044 292.686 446.765 293.352 444.531L250.558 440.511L249.007 443.281C247.858 445.33 246.307 447.125 244.445 448.557V448.558C242.448 450.092 240.142 451.176 237.685 451.731L218.803 455.994C211.512 457.641 206.157 463.867 205.623 471.323H344.457L343.53 450.779C343.431 448.6 343.547 446.417 343.874 444.265Z" fill="#FBEFE3"/>
<path fill-rule="evenodd" clip-rule="evenodd" d="M206.256 470.744H343.85L342.95 450.804C342.86 448.8 342.949 446.779 343.215 444.785L301.79 440.911L301.507 442.094C300.794 445.077 299.063 447.751 296.631 449.621C295.27 450.669 293.71 451.438 291.993 451.91L291.137 452.145L291.266 451.267C291.574 449.178 292.022 447.088 292.6 445.044L250.879 441.123L249.512 443.564C248.318 445.694 246.733 447.529 244.797 449.016C242.749 450.592 240.333 451.727 237.812 452.296L218.93 456.56C212.04 458.115 207.016 463.774 206.256 470.744ZM345.063 471.903H205L205.044 471.282C205.602 463.515 211.079 457.144 218.675 455.429L237.556 451.166C239.914 450.633 242.174 449.572 244.092 448.098C245.901 446.706 247.384 444.989 248.5 442.998L250.237 439.899L294.109 444.02L293.907 444.697C293.338 446.606 292.885 448.56 292.557 450.52C293.787 450.087 294.917 449.477 295.924 448.702C298.146 446.993 299.729 444.55 300.381 441.824L300.896 439.664L344.539 443.745L344.447 444.352C344.126 446.467 344.012 448.621 344.108 450.752L345.063 471.903Z" fill="#170D42"/>
<path fill-rule="evenodd" clip-rule="evenodd" d="M364.921 302.491C364.667 302.491 364.434 302.323 364.363 302.067C364.277 301.759 364.457 301.439 364.765 301.353L374.739 298.583C375.047 298.499 375.367 298.678 375.452 298.987C375.537 299.295 375.358 299.615 375.049 299.7L365.076 302.471C365.024 302.484 364.972 302.491 364.921 302.491Z" fill="#170D42"/>
<path fill-rule="evenodd" clip-rule="evenodd" d="M428.351 357.892H424.941L375.629 358.332L378.079 349.851C378.168 349.544 377.991 349.223 377.683 349.134C377.377 349.048 377.055 349.222 376.965 349.53L372.362 365.464C372.357 365.478 372.361 365.493 372.358 365.507L349.271 444.187L298.418 439.431L326.34 340.452C328.799 331.741 335.805 325.076 344.629 323.056L409.519 308.205C409.831 308.133 410.025 307.822 409.953 307.51C409.883 307.199 409.573 307 409.259 307.075L344.37 321.927C335.133 324.041 327.797 331.018 325.225 340.138L295.873 444.187L241.629 439.09L306.783 328.597C311.104 321.269 317.986 315.945 326.164 313.603L371.9 300.501C372.136 300.433 372.305 300.225 372.319 299.979L373.687 277.001H464.151L470.7 309.71C472.275 321.887 468.529 334.159 460.424 343.381C452.318 352.602 440.628 357.892 428.351 357.892ZM465.234 276.348C465.197 276.058 464.951 275.842 464.659 275.842H373.141C372.833 275.842 372.58 276.081 372.562 276.387L371.187 299.5L325.844 312.489C317.38 314.913 310.257 320.425 305.785 328.008L240.167 439.287C240.066 439.458 240.06 439.668 240.149 439.846C240.24 440.022 240.415 440.14 240.612 440.159L296.245 445.386C296.253 445.387 296.26 445.383 296.268 445.385C296.279 445.385 296.289 445.388 296.299 445.388C296.31 445.388 296.318 445.379 296.328 445.379C296.442 445.371 296.546 445.339 296.636 445.277C296.644 445.27 296.651 445.261 296.66 445.254C296.747 445.184 296.817 445.092 296.853 444.979L298.208 440.576L349.638 445.386C349.657 445.388 349.674 445.388 349.692 445.388C349.947 445.388 350.175 445.221 350.248 444.972L375.33 359.493L424.947 359.051H428.351C440.962 359.051 452.968 353.619 461.295 344.146C469.621 334.675 473.468 322.068 471.849 309.562L465.234 276.348Z" fill="#170D42"/>
<path fill-rule="evenodd" clip-rule="evenodd" d="M344.208 465.812H332.827C327.611 465.812 322.487 464.429 317.979 461.803L296.278 449.162C293.597 450.434 289.338 451.949 289.338 451.949L271.421 455.994C268.219 456.718 265.391 458.326 263.18 460.533L243.659 449.162C240.977 450.434 236.718 451.949 236.718 451.949L218.803 455.994C211.512 457.641 206.157 463.868 205.623 471.324H258.242V471.322V471.324H344.457L344.208 465.812Z" fill="#FCBD21"/>
<path fill-rule="evenodd" clip-rule="evenodd" d="M257.71 470.744H206.256C207.016 463.774 212.04 458.115 218.93 456.56L236.913 452.495C237.082 452.435 240.953 451.055 243.629 449.816L262.228 460.65C259.73 463.365 258.105 466.868 257.71 470.744ZM258.876 470.744H343.851L343.654 466.392H332.827C327.514 466.392 322.279 464.978 317.687 462.303L296.249 449.816C294.165 450.781 291.357 451.831 290.136 452.277C289.789 452.404 289.57 452.481 289.532 452.495L271.549 456.56C268.532 457.241 265.779 458.756 263.589 460.943L263.273 461.259L263.256 461.248C260.85 463.782 259.274 467.082 258.876 470.744ZM263.068 459.797L263.091 459.811C265.382 457.637 268.208 456.125 271.294 455.429L289.21 451.384C289.209 451.384 289.261 451.364 289.359 451.328C290.129 451.048 293.706 449.741 296.03 448.638L296.305 448.507L318.271 461.302C322.685 463.873 327.718 465.233 332.827 465.233H344.762L345.063 471.903H205L205.044 471.282C205.602 463.515 211.079 457.144 218.675 455.429L236.59 451.384C236.589 451.384 236.641 451.364 236.739 451.328C237.509 451.048 241.087 449.741 243.41 448.638L243.686 448.507L263.068 459.797Z" fill="#170D42"/>
<path fill-rule="evenodd" clip-rule="evenodd" d="M457.72 374.092H384.19C379.988 374.092 376.583 370.686 376.583 366.484C376.583 362.283 379.988 358.877 384.19 358.877H457.72C461.922 358.877 465.327 362.283 465.327 366.484C465.327 370.686 461.922 374.092 457.72 374.092Z" fill="#FF5613"/>
<path fill-rule="evenodd" clip-rule="evenodd" d="M420.955 459.186C417.878 459.186 415.383 456.692 415.383 453.615V374.093H426.526V453.615C426.526 456.692 424.032 459.186 420.955 459.186Z" fill="#409B81"/>
<path fill-rule="evenodd" clip-rule="evenodd" d="M424.102 457.493C423.251 457.169 422.333 456.985 421.369 456.985C420.195 456.985 419.086 457.255 418.09 457.726C416.804 456.825 415.956 455.343 415.94 453.661H425.97C425.955 455.213 425.223 456.581 424.102 457.493ZM415.935 452.558H425.975V374.671H415.935V452.558ZM377.161 366.484C377.161 362.609 380.314 359.457 384.19 359.457H457.719C461.595 359.457 464.748 362.609 464.748 366.484C464.748 370.36 461.595 373.512 457.719 373.512H384.19C380.314 373.512 377.161 370.36 377.161 366.484ZM456.72 456.985C456.062 456.985 455.426 457.077 454.816 457.231C452.484 454.382 448.943 452.558 444.983 452.558H427.078V374.671H457.719C462.234 374.671 465.907 370.998 465.907 366.484C465.907 361.97 462.234 358.298 457.719 358.298H384.19C379.675 358.298 376.002 361.97 376.002 366.484C376.002 370.998 379.675 374.671 384.19 374.671H414.831V452.558H396.927C392.967 452.558 389.425 454.381 387.093 457.231C386.483 457.076 385.848 456.985 385.19 456.985C380.935 456.985 377.486 460.434 377.486 464.689C377.486 468.944 380.935 472.394 385.19 472.394C389.445 472.394 392.895 468.944 392.895 464.689C392.895 461.515 390.974 458.791 388.231 457.611C390.358 455.196 393.464 453.661 396.927 453.661H414.835C414.851 455.532 415.722 457.186 417.062 458.301C415.012 459.684 413.665 462.03 413.665 464.689C413.665 468.944 417.114 472.394 421.369 472.394C425.624 472.394 429.074 468.944 429.074 464.689C429.074 461.83 427.513 459.34 425.199 458.011C426.343 456.907 427.061 455.368 427.074 453.661H444.983C448.446 453.661 451.551 455.196 453.679 457.611C450.937 458.791 449.015 461.515 449.015 464.689C449.015 468.944 452.464 472.394 456.72 472.394C460.975 472.394 464.424 468.944 464.424 464.689C464.424 460.434 460.975 456.985 456.72 456.985Z" fill="#170D42"/>
<path fill-rule="evenodd" clip-rule="evenodd" d="M409.568 194.404C409.568 194.404 413.664 191.417 412.936 179.082C412.936 179.082 419.414 182.466 426.482 176.744L428.112 194.262C428.112 194.262 423.212 200.474 418.074 199.872C412.936 199.269 409.568 194.404 409.568 194.404Z" fill="#FBEFE3"/>
<path fill-rule="evenodd" clip-rule="evenodd" d="M413.182 177.507C417.297 179.747 421.59 178.975 426.141 175.136C426.502 174.832 427.012 175.095 427.058 175.61L428.689 193.864C428.705 194.05 428.654 194.235 428.548 194.375C425.167 198.841 421.649 200.89 418.013 200.446C414.427 200.008 411.449 198.013 409.108 194.49C408.903 194.181 408.968 193.735 409.25 193.52C411.753 191.619 412.831 186.508 412.357 178.158C412.329 177.649 412.783 177.29 413.182 177.507ZM427.364 193.954L425.852 177.325L425.545 177.555C421.415 180.573 417.387 181.282 413.509 179.65L413.338 179.575L413.365 180.265C413.596 187.37 412.574 192.081 410.218 194.379L410.147 194.445L410.307 194.661C412.287 197.276 414.692 198.797 417.542 199.241L417.933 199.295C421.168 199.683 424.361 197.857 427.533 193.741L427.364 193.954Z" fill="#170D42"/>
<path fill-rule="evenodd" clip-rule="evenodd" d="M417.925 180.11C410.106 180.11 403.767 173.388 403.767 165.096C403.767 156.804 410.106 150.082 417.925 150.082C425.743 150.082 432.081 156.804 432.081 165.096C432.081 173.388 425.743 180.11 417.925 180.11Z" fill="#FBEFE3"/>
<path fill-rule="evenodd" clip-rule="evenodd" d="M417.924 150.657C410.434 150.657 404.341 157.133 404.341 165.096C404.341 173.058 410.434 179.535 417.924 179.535C425.414 179.535 431.507 173.058 431.507 165.096C431.507 157.133 425.414 150.657 417.924 150.657ZM417.924 180.684C409.802 180.684 403.193 173.691 403.193 165.096C403.193 156.501 409.802 149.508 417.924 149.508C426.046 149.508 432.655 156.501 432.655 165.096C432.655 173.691 426.046 180.684 417.924 180.684Z" fill="#170D42"/>
<path fill-rule="evenodd" clip-rule="evenodd" d="M413.958 169.914C413.935 169.914 413.912 169.912 413.887 169.91L411.521 169.623C411.355 169.602 411.205 169.511 411.111 169.372C411.018 169.234 410.987 169.062 411.03 168.899L411.748 166.173C411.83 165.865 412.148 165.681 412.456 165.761C412.764 165.843 412.95 166.159 412.869 166.469L412.32 168.552L414.028 168.758C414.345 168.797 414.571 169.086 414.533 169.404C414.497 169.698 414.248 169.914 413.958 169.914Z" fill="#170D42"/>
<path fill-rule="evenodd" clip-rule="evenodd" d="M417.924 164.768C417.924 165.467 417.568 166.033 417.129 166.033C416.69 166.033 416.334 165.467 416.334 164.768C416.334 164.069 416.69 163.504 417.129 163.504C417.568 163.504 417.924 164.069 417.924 164.768Z" fill="#170D42"/>
<path fill-rule="evenodd" clip-rule="evenodd" d="M410.205 164.768C410.205 165.467 409.849 166.033 409.409 166.033C408.971 166.033 408.614 165.467 408.614 164.768C408.614 164.069 408.971 163.504 409.409 163.504C409.849 163.504 410.205 164.069 410.205 164.768Z" fill="#170D42"/>
<path fill-rule="evenodd" clip-rule="evenodd" d="M419.112 161.952C418.978 161.952 418.844 161.905 418.734 161.811C417.631 160.863 416.356 160.876 416.344 160.867C416.015 160.857 415.761 160.617 415.755 160.299C415.751 159.98 416.001 159.716 416.32 159.708C416.398 159.71 418.036 159.684 419.49 160.933C419.732 161.141 419.76 161.506 419.551 161.75C419.436 161.883 419.275 161.952 419.112 161.952Z" fill="#170D42"/>
<path fill-rule="evenodd" clip-rule="evenodd" d="M407.426 161.952C407.263 161.952 407.101 161.883 406.987 161.75C406.778 161.507 406.806 161.14 407.048 160.933C408.502 159.685 410.15 159.707 410.218 159.708C410.539 159.716 410.792 159.981 410.784 160.301C410.777 160.616 410.518 160.867 410.204 160.867C410.201 160.867 410.196 160.866 410.191 160.867C410.131 160.867 408.889 160.881 407.804 161.811C407.694 161.905 407.56 161.952 407.426 161.952Z" fill="#170D42"/>
<path fill-rule="evenodd" clip-rule="evenodd" d="M413.98 176.312C413.437 176.312 412.833 176.207 412.172 175.995C411.867 175.897 411.699 175.57 411.798 175.266C411.895 174.962 412.218 174.794 412.527 174.891C413.726 175.276 414.626 175.237 415.198 174.775C415.734 174.343 415.941 173.604 416.017 172.993C414.077 173.94 412.128 173.266 411.268 172.688C411.001 172.509 410.932 172.149 411.109 171.884C411.288 171.619 411.647 171.547 411.912 171.725C412.005 171.786 414.153 173.169 416.256 171.47C416.422 171.337 416.647 171.304 416.844 171.386C417.041 171.469 417.176 171.652 417.198 171.864C417.208 171.968 417.439 174.453 415.931 175.674C415.405 176.099 414.752 176.312 413.98 176.312Z" fill="#170D42"/>
<path fill-rule="evenodd" clip-rule="evenodd" d="M387.219 252.544C389.88 250.014 397.24 251.702 400.277 252.544H413.526V247.262H402.711L389.233 204.817H324.959L340.112 252.544H387.219Z" fill="#EFF2F7"/>
<path fill-rule="evenodd" clip-rule="evenodd" d="M413.527 252.544V247.262H402.711L391.217 211.063C393.469 209.784 403.327 203.884 406.575 196.841C407.342 195.179 407.829 193.727 408.137 192.45H411.074L410.25 188.192C410.2 187.937 410.227 187.691 410.301 187.464C411.748 188.369 413.469 189 414.5 187.814C414.805 187.465 415.132 187.006 415.417 186.458H428.693C429.558 186.458 430.233 187.208 430.141 188.068L429.679 192.45H435.123C457.558 192.45 478.552 203.51 491.239 222.013L501.23 236.585C501.697 237.266 501.209 238.192 500.384 238.192H464.563C464.174 238.192 463.819 237.973 463.645 237.625L461.408 233.151L463.609 249.601L465.963 263.388C465.905 263.425 465.847 263.462 465.791 263.5C465.694 263.563 465.598 263.627 465.494 263.686C453.919 270.22 401.614 252.94 401.614 252.94C401.614 252.94 401.107 252.774 400.277 252.544H413.527ZM391.217 211.063L389.234 204.817L391.217 211.063ZM386.291 256.028C386.187 255.497 386.182 254.906 386.306 254.247C386.439 253.535 386.763 252.979 387.221 252.543H380.029C382.059 255.063 386.291 256.028 386.291 256.028ZM412.092 275.996C407.332 273.476 396.06 269.765 396.06 269.765C390.309 268.18 385.751 266.584 382.138 265.039L380.029 277.396H414.965C413.564 276.744 412.575 276.252 412.092 275.996Z" fill="#409B81"/>
<path fill-rule="evenodd" clip-rule="evenodd" d="M391.217 211.063C393.469 209.784 403.326 203.884 406.575 196.841C410.252 188.871 407.757 185.451 407.757 185.451C407.757 185.451 412.469 190.148 414.5 187.814C416.532 185.481 419.659 178.333 403.433 171.3C387.208 164.267 375.965 183.958 372.488 191.028C371.417 193.204 368.894 198.515 365.914 204.817H389.234L391.217 211.063ZM497.011 238.193H465.46C465.46 238.193 477.068 257.152 465.493 263.686C453.919 270.22 401.613 252.94 401.613 252.94C401.613 252.94 387.426 248.273 386.305 254.248C386.181 254.907 386.186 255.498 386.29 256.029C386.29 256.029 382.058 255.064 380.028 252.544H340.113L337.853 245.424C335.423 253.52 333.599 266.069 343.629 270.394C353.742 274.756 362.186 270.355 369.003 262.334C373.107 264.677 379.238 267.232 388.428 269.766C388.428 269.766 399.7 273.477 404.46 275.997C409.221 278.517 462.241 303.673 488.984 283.932C515.726 264.189 497.011 238.193 497.011 238.193Z" fill="#FBEFE3"/>
<path fill-rule="evenodd" clip-rule="evenodd" d="M409.809 187.139C409.658 187.503 409.605 187.904 409.681 188.301L410.371 191.872H408.272C408.195 192.24 408.102 192.626 407.99 193.031H411.074C411.247 193.031 411.411 192.953 411.522 192.82C411.631 192.686 411.676 192.51 411.643 192.341L410.819 188.08C410.799 187.977 410.811 187.873 410.828 187.772C410.475 187.579 410.131 187.363 409.809 187.139Z" fill="#170D42"/>
<path fill-rule="evenodd" clip-rule="evenodd" d="M365.555 204.817H365.914C365.974 204.693 366.03 204.572 366.088 204.448C365.912 204.573 365.73 204.69 365.555 204.817Z" fill="#170D42"/>
<path fill-rule="evenodd" clip-rule="evenodd" d="M373.007 191.284C376.973 183.22 387.856 165.179 403.202 171.832C410.387 174.946 414.619 178.51 415.44 182.137C416.043 184.797 414.677 186.727 414.062 187.434C413.808 187.727 413.5 187.87 413.093 187.883C411.452 187.968 408.984 185.853 408.167 185.043V185.042L404.442 181.312C404.384 181.254 404.316 181.212 404.243 181.184C400.805 176.884 394.462 174.966 394.081 174.853C393.774 174.764 393.452 174.939 393.362 175.246C393.271 175.553 393.447 175.875 393.755 175.966C393.879 176.002 406.208 179.73 405.199 188.074C404.24 196 402.404 197.788 401.396 198.149C400.556 198.447 399.539 198.038 398.376 196.932C399.183 194.426 399.202 190.961 398.413 186.533C397.233 179.914 388.354 179.615 387.976 179.605C387.644 179.595 387.39 179.85 387.382 180.17C387.374 180.49 387.627 180.755 387.947 180.764C388.03 180.766 396.257 181.038 397.275 186.756C398.757 195.066 397.316 199.68 393.045 200.462C392.297 200.527 390.228 200.472 389.669 199.438C389.668 199.434 389.664 199.433 389.663 199.43C391.187 196.905 392.096 193.361 392.287 190.827C392.733 184.944 383.897 183.586 383.52 183.531C383.209 183.481 382.91 183.703 382.863 184.02C382.817 184.337 383.036 184.631 383.352 184.678C383.435 184.689 391.496 185.932 391.132 190.74C390.854 194.417 388.941 200.272 386.209 201.242C385.156 201.612 384.026 201.173 382.848 199.928C379.482 196.373 384.749 190.375 384.802 190.316C385.016 190.076 384.995 189.71 384.756 189.497C384.517 189.285 384.151 189.306 383.938 189.544C383.853 189.638 383.131 190.467 382.375 191.678C381.933 191.349 382.052 190.064 382.276 189.289C382.364 188.982 382.188 188.661 381.88 188.572C381.572 188.482 381.252 188.658 381.163 188.966C381.081 189.246 380.404 191.729 381.726 192.644C381.751 192.66 381.778 192.655 381.804 192.668C380.56 195.017 379.654 198.239 382.007 200.725C383.321 202.114 384.516 202.53 385.473 202.53C385.898 202.53 386.275 202.448 386.596 202.334C387.488 202.018 388.281 201.336 388.975 200.44C389.909 201.479 391.656 201.634 392.589 201.634C392.925 201.634 393.154 201.614 393.201 201.61C395.405 201.208 396.981 200.022 397.928 198.069C398.944 198.942 399.917 199.406 400.833 199.406C401.157 199.406 401.475 199.351 401.787 199.24C404.026 198.44 405.562 194.73 406.35 188.213C406.511 186.887 406.38 185.673 406.049 184.563L407.307 185.822C407.492 186.108 409.396 189.341 406.047 196.598C402.941 203.333 393.447 209.111 391.036 210.497L391.395 211.627C393.467 210.468 403.694 204.467 407.101 197.084C409.268 192.384 409.353 189.184 409.012 187.281C410.177 188.151 411.769 189.09 413.133 189.042C413.862 189.017 414.469 188.732 414.937 188.194C415.668 187.355 417.291 185.059 416.571 181.882C415.651 177.822 411.308 174.082 403.662 170.768C387.4 163.721 376.079 182.411 371.967 190.773C370.887 192.968 368.308 198.395 365.273 204.817H366.555C369.485 198.619 371.958 193.418 373.007 191.284ZM488.638 283.465C461.125 303.773 405.282 275.776 404.731 275.485C399.981 272.971 389.071 269.367 388.582 269.207C368.983 263.805 363.57 258.309 362.09 255.514C361.497 254.395 361.434 253.57 361.465 253.124H366.778C366.776 253.219 366.759 253.302 366.774 253.41C366.98 254.907 369.044 256.627 372.911 258.525C380.427 262.214 389.777 265.043 389.871 265.071C389.926 265.087 389.982 265.095 390.038 265.095C390.287 265.095 390.516 264.933 390.593 264.683C390.684 264.375 390.512 264.053 390.205 263.961C390.112 263.933 380.854 261.131 373.421 257.485C368.775 255.205 368.035 253.803 367.932 253.307C367.914 253.226 367.923 253.176 367.929 253.124H379.757C381.613 255.235 384.803 256.233 385.83 256.51C387.074 260.814 394.183 261.163 394.467 261.172L399.787 261.639C399.806 261.641 399.822 261.641 399.839 261.641C400.136 261.641 400.39 261.414 400.415 261.113C400.444 260.794 400.208 260.512 399.889 260.485L394.542 260.016C394.473 260.013 387.601 259.688 386.857 255.917C386.763 255.439 386.768 254.913 386.873 254.355C387.021 253.566 387.44 252.978 388.155 252.556C391.838 250.377 401.336 253.461 401.43 253.491C403.576 254.2 454.114 270.774 465.777 264.191C468.367 262.73 470.052 260.555 470.786 257.728C472.613 250.678 468.05 241.619 466.465 238.773H496.704C498.468 241.424 513.267 265.283 488.638 283.465ZM497.48 237.855C497.371 237.703 497.196 237.614 497.01 237.614H465.46C465.25 237.614 465.056 237.726 464.954 237.909C464.851 238.092 464.856 238.316 464.965 238.496C465.032 238.606 471.692 249.621 469.662 257.44C469.011 259.949 467.512 261.881 465.207 263.182C453.986 269.516 402.314 252.563 401.794 252.39C401.382 252.254 391.7 249.113 387.567 251.557C386.561 252.151 385.944 253.021 385.734 254.14C385.663 254.518 385.63 254.887 385.632 255.243C384.358 254.845 381.85 253.884 380.478 252.181C380.368 252.043 380.202 251.965 380.027 251.965H360.984C360.743 251.965 360.527 252.114 360.442 252.34C360.386 252.487 359.933 253.836 361.004 255.939C361.928 257.754 363.941 260.018 368.089 262.484C365.491 265.452 362.668 267.884 359.609 269.468C354.585 272.07 349.286 272.202 343.859 269.862C340.828 268.555 338.71 266.35 337.564 263.307C335.641 258.198 336.723 251.573 338.174 246.441L337.536 244.431C335.812 249.864 334.204 257.669 336.479 263.714C337.739 267.063 340.069 269.49 343.4 270.926C346.125 272.101 348.818 272.688 351.469 272.688C354.424 272.688 357.324 271.958 360.143 270.497C363.251 268.888 366.251 266.403 369.137 263.084C373.313 265.402 379.4 267.878 388.246 270.317C388.358 270.354 399.525 274.041 404.188 276.509C404.597 276.725 435.024 291.975 462.306 291.975C472.271 291.975 481.816 289.941 489.326 284.398C516.219 264.545 497.67 238.119 497.48 237.855Z" fill="#170D42"/>
<path fill-rule="evenodd" clip-rule="evenodd" d="M501.708 236.258L491.717 221.685C478.917 203.017 457.76 191.87 435.123 191.87H430.322L430.718 188.128C430.778 187.554 430.591 186.981 430.206 186.552C429.82 186.124 429.269 185.878 428.692 185.878H415.683C415.507 186.308 415.3 186.699 415.082 187.037H428.692C428.944 187.037 429.175 187.14 429.344 187.327C429.512 187.515 429.591 187.756 429.564 188.006L429.102 192.389C429.084 192.553 429.137 192.715 429.247 192.838C429.357 192.96 429.513 193.029 429.678 193.029H435.123C457.377 193.029 478.176 203.987 490.761 222.341L500.753 236.912C500.891 237.114 500.818 237.302 500.779 237.374C500.742 237.446 500.626 237.612 500.383 237.612H464.563C464.393 237.612 464.239 237.517 464.162 237.366L461.927 232.892C461.799 232.639 461.509 232.515 461.239 232.597C460.968 232.681 460.796 232.947 460.834 233.228L463.037 249.698L465.433 263.717C465.452 263.707 465.473 263.696 465.493 263.686C465.849 263.485 466.18 263.272 466.493 263.049L464.183 249.524L462.443 236.517L463.126 237.884C463.4 238.431 463.951 238.771 464.563 238.771H465.798C465.589 238.403 465.46 238.192 465.46 238.192H497.012C497.012 238.192 497.157 238.395 497.401 238.771H500.383C500.981 238.771 501.526 238.442 501.804 237.914C502.082 237.385 502.046 236.75 501.708 236.258ZM373.084 276.816L375.055 265.266C374.681 265.109 374.315 264.953 373.96 264.797L371.825 277.299C371.797 277.467 371.844 277.639 371.954 277.769C372.064 277.9 372.226 277.975 372.397 277.975H408.595C407.616 277.531 406.781 277.141 406.107 276.816H373.084ZM426.568 187.817C426.248 187.817 425.989 188.076 425.989 188.397V191.894C425.989 192.215 426.248 192.473 426.568 192.473C426.888 192.473 427.148 192.215 427.148 191.894V188.397C427.148 188.076 426.888 187.817 426.568 187.817ZM423.959 187.817C423.639 187.817 423.38 188.076 423.38 188.397V191.894C423.38 192.215 423.639 192.473 423.959 192.473C424.28 192.473 424.539 192.215 424.539 191.894V188.397C424.539 188.076 424.28 187.817 423.959 187.817ZM421.351 187.817C421.032 187.817 420.772 188.076 420.772 188.397V191.894C420.772 192.215 421.032 192.473 421.351 192.473C421.671 192.473 421.931 192.215 421.931 191.894V188.397C421.931 188.076 421.671 187.817 421.351 187.817ZM416.135 187.817C415.815 187.817 415.555 188.076 415.555 188.397V191.894C415.555 192.215 415.815 192.473 416.135 192.473C416.455 192.473 416.714 192.215 416.714 191.894V188.397C416.714 188.076 416.455 187.817 416.135 187.817ZM418.743 187.817C418.423 187.817 418.163 188.076 418.163 188.397V191.894C418.163 192.215 418.423 192.473 418.743 192.473C419.064 192.473 419.322 192.215 419.322 191.894V188.397C419.322 188.076 419.064 187.817 418.743 187.817ZM413.526 187.817C413.207 187.817 412.946 188.076 412.946 188.397V191.894C412.946 192.215 413.207 192.473 413.526 192.473C413.847 192.473 414.105 192.215 414.105 191.894V188.397C414.105 188.076 413.847 187.817 413.526 187.817Z" fill="#170D42"/>
<path fill-rule="evenodd" clip-rule="evenodd" d="M412.946 247.842V251.965H404.624L403.36 247.842H412.946ZM360.985 252.544H380.028C380.192 252.748 380.374 252.938 380.565 253.124H386.746C387.057 252.631 387.496 252.25 388.036 251.965H340.537L325.751 205.396H388.809L398.098 234.651V234.652L403.412 251.965H397.945C400.06 252.43 401.613 252.94 401.613 252.94C401.613 252.94 401.809 253.005 402.173 253.124H413.526C413.846 253.124 414.105 252.864 414.105 252.544V247.262C414.105 246.943 413.846 246.683 413.526 246.683H403.134L389.785 204.642C389.709 204.401 389.485 204.237 389.233 204.237H324.959C324.774 204.237 324.6 204.325 324.491 204.475C324.382 204.623 324.351 204.816 324.406 204.992L339.561 252.719C339.637 252.96 339.86 253.124 340.112 253.124H360.887C360.909 252.749 360.985 252.544 360.985 252.544Z" fill="#170D42"/>
<path fill-rule="evenodd" clip-rule="evenodd" d="M419.999 195.869C419.039 195.869 418.26 194.832 418.26 193.551C418.26 192.27 419.039 191.233 419.999 191.233C420.958 191.233 421.737 192.27 421.737 193.551C421.737 194.832 420.958 195.869 419.999 195.869Z" fill="#FCBD21"/>
<path fill-rule="evenodd" clip-rule="evenodd" d="M420.151 194.871C419.403 194.871 418.795 194.303 418.795 193.605C418.795 192.907 419.403 192.34 420.151 192.34C420.898 192.34 421.507 192.907 421.507 193.605C421.507 194.303 420.898 194.871 420.151 194.871ZM427.702 187.954C420.837 194.412 412.494 189.222 412.142 188.998C411.899 188.843 411.566 188.9 411.4 189.128C411.232 189.355 411.295 189.666 411.537 189.822C411.59 189.855 414.512 191.674 418.385 192.065C417.979 192.469 417.725 193.008 417.725 193.605C417.725 194.853 418.813 195.869 420.151 195.869C421.488 195.869 422.576 194.853 422.576 193.605C422.576 192.968 422.29 192.393 421.833 191.981C424.02 191.635 426.315 190.675 428.461 188.657C428.668 188.461 428.667 188.145 428.457 187.951C428.248 187.757 427.909 187.758 427.702 187.954Z" fill="#170D42"/>
<path fill-rule="evenodd" clip-rule="evenodd" d="M415.155 141.351C415.155 141.351 403.336 138.951 400.592 154.722C400.592 154.722 400.181 161.305 384.685 161.991C369.189 162.676 374.536 175.979 374.536 175.979H408.307H407.644C404.897 173.241 403.834 169.35 403.834 165.036C403.834 162.709 405.519 158.333 405.784 158.542H424.454C424.454 158.542 421.849 164.733 423.769 168.573C425.689 172.413 429.09 175.979 429.09 175.979H465.596C465.596 175.979 466.83 155.271 450.237 155.271C433.643 155.271 443.252 137.523 415.155 141.351Z" fill="#4B2500"/>
<path fill-rule="evenodd" clip-rule="evenodd" d="M414.644 140.529L415.032 140.581L416.088 140.446C428.188 138.956 433.218 141.178 437.849 147.438L438.798 148.731C441.923 152.922 444.206 154.352 449.503 154.352L449.912 154.356C457.081 154.501 461.516 158.49 463.717 164.982C464.406 167.013 464.832 169.178 465.046 171.373C465.19 172.858 465.222 174.16 465.19 175.177L465.187 175.264L465.147 175.985H428.468L428.297 175.804L427.835 175.295L427.262 174.634C426.49 173.724 425.719 172.737 424.998 171.706C424.199 170.562 423.511 169.434 422.968 168.341C422.439 167.278 422.204 166.013 422.214 164.591C422.224 163.137 422.487 161.592 422.919 160.048C423.049 159.583 423.187 159.146 423.326 158.744H406.052L405.986 158.875L405.842 159.185C405.673 159.572 405.483 160.075 405.303 160.618C404.8 162.13 404.471 163.626 404.471 164.586C404.471 169.033 405.626 172.567 408.047 174.996L409.033 175.985H374.701L374.556 175.62L374.407 175.204C374.3 174.882 374.193 174.518 374.093 174.119C373.617 172.209 373.469 170.229 373.853 168.36C374.743 164.023 378.277 161.297 385.043 160.996L385.621 160.967C391.72 160.629 395.747 159.322 398.098 157.391C398.931 156.707 399.488 155.993 399.824 155.29C400.026 154.867 400.111 154.539 400.134 154.299C401.206 148.097 403.736 144.144 407.294 142.073C409.782 140.625 412.389 140.272 414.644 140.529ZM449.109 155.508C443.531 155.432 440.998 153.7 437.633 149.104L436.711 147.853C432.25 141.956 427.426 140.054 415.099 141.743L414.904 141.737C414.841 141.724 414.708 141.703 414.513 141.68L414.172 141.647C412.222 141.488 409.995 141.842 407.877 143.075C404.63 144.965 402.292 148.617 401.282 154.448C401.253 154.773 401.135 155.236 400.87 155.79C400.461 156.645 399.799 157.494 398.834 158.287C396.193 160.455 391.75 161.858 385.095 162.154L384.682 162.176C378.702 162.538 375.749 164.885 374.988 168.593C374.644 170.268 374.78 172.082 375.218 173.838C375.264 174.023 375.312 174.199 375.36 174.366L375.501 174.825H406.348L406.204 174.643C404.32 172.172 403.388 168.934 403.317 165.072L403.312 164.586C403.312 163.474 403.664 161.873 404.203 160.252C404.426 159.58 404.666 158.961 404.874 158.513C404.982 158.279 405.082 158.094 405.172 157.961C405.238 157.865 405.303 157.788 405.384 157.724C405.517 157.618 405.683 157.555 405.856 157.575L405.905 157.585L425.031 157.586L424.668 158.455C424.627 158.558 424.566 158.716 424.492 158.922L424.375 159.257C424.259 159.6 424.144 159.97 424.035 160.36C423.629 161.813 423.382 163.261 423.373 164.599C423.364 165.852 423.567 166.942 424.006 167.825C424.521 168.862 425.18 169.942 425.948 171.042C426.647 172.041 427.396 173.001 428.146 173.885C428.277 174.04 428.403 174.186 428.524 174.325L428.971 174.825H464.039L464.043 174.453C464.044 173.726 464.012 172.883 463.935 171.956L463.892 171.486C463.687 169.373 463.278 167.294 462.619 165.354C460.524 159.173 456.364 155.511 449.503 155.511L449.109 155.508Z" fill="#170D42"/>
<defs>
<clipPath id="clip0_866_3432">
<rect width="179" height="134" fill="white" transform="translate(128.711 1) rotate(45.5825)"/>
</clipPath>
</defs>
</svg>
