<svg width="167" height="121" viewBox="0 0 167 121" fill="none" xmlns="http://www.w3.org/2000/svg">
<path d="M124.364 39.1274L124.239 39.0253L124.166 38.9667C124.127 38.9333 124.082 38.8964 124.032 38.8579L123.866 38.7291L123.747 38.6337C123.465 38.4061 123.098 38.1183 122.654 37.7753C122.566 37.7066 122.473 37.6347 122.377 37.5627C122.103 37.3519 121.804 37.1254 121.481 36.8833L121.203 36.6742L120.727 36.3211L120.221 35.9496C119.874 35.6963 119.508 35.433 119.123 35.1597C119.009 35.076 118.891 34.9924 118.771 34.9087C117.554 34.0469 116.164 33.0947 114.625 32.0924C114.319 31.8916 114.006 31.6896 113.688 31.4866L113.597 31.428L113.031 31.0682C112.787 30.9143 112.542 30.7587 112.292 30.6047L111.811 30.3052C111.441 30.0776 111.063 29.8483 110.679 29.6174C110.527 29.5237 110.374 29.4316 110.218 29.3396C109.8 29.0897 109.375 28.8393 108.943 28.5882C108.656 28.4209 108.364 28.2536 108.071 28.0862L107.407 27.708C107.218 27.6009 107.027 27.4938 106.835 27.3884L106.283 27.0839L106.258 27.0705C105.872 26.8574 105.481 26.6465 105.085 26.4379L104.422 26.0882L103.709 25.7167L103.47 25.5945L102.261 24.9871C102.017 24.8649 101.773 24.7444 101.526 24.6256L101.322 24.5269L100.791 24.2725C100.581 24.1705 100.368 24.0701 100.156 23.9713L99.5176 23.6751C99.3037 23.5764 99.0897 23.4777 98.8741 23.3823C98.3799 23.1592 97.8823 22.9394 97.3814 22.723C97.1293 22.6114 96.8772 22.5043 96.6252 22.4017C96.1188 22.1875 95.609 21.9789 95.096 21.7758C94.8389 21.6721 94.5819 21.5717 94.3231 21.4713C94.0644 21.3708 93.8256 21.2805 93.5768 21.1868L93.5519 21.1767C93.2843 21.0763 93.0173 20.9776 92.7509 20.8805C92.4844 20.7835 92.2279 20.6914 91.9813 20.6044C91.7839 20.5341 91.5866 20.4672 91.3892 20.3986C91.1918 20.33 90.9945 20.2631 90.7955 20.1978L90.3991 20.0656C90.1337 19.9786 89.8678 19.8932 89.6013 19.8096C89.4686 19.766 89.336 19.7242 89.2016 19.6841L88.8019 19.5619L88.4006 19.4414C88.2165 19.3862 88.034 19.3326 87.8499 19.2741C87.7018 19.2306 87.5542 19.1887 87.4071 19.1486C87.2562 19.1051 87.1036 19.0632 86.951 19.0231C86.7553 18.9678 86.5596 18.916 86.3622 18.8557L85.9791 18.757C85.7104 18.6867 85.4384 18.6198 85.1681 18.5545L84.7618 18.4574C84.5843 18.4156 84.4068 18.3738 84.2294 18.3353C83.9989 18.2817 83.7683 18.2315 83.5378 18.183C83.4018 18.1529 83.2658 18.1244 83.1298 18.0977L82.7201 18.014C82.5078 17.9722 82.2939 17.9303 82.0799 17.8918C81.8992 17.8567 81.7184 17.8249 81.5376 17.7931L81.4381 17.7747L81.3336 17.758L81.0815 17.7145L80.6719 17.6475L80.5574 17.6291L80.4413 17.6107H80.4098L80.0449 17.5555L79.5358 17.4835C79.3699 17.4601 79.2041 17.4367 79.0283 17.4166C78.9221 17.4015 78.816 17.3898 78.7098 17.3764C78.4959 17.3513 78.2836 17.3262 78.0697 17.3045C77.8839 17.2844 77.6965 17.2643 77.5091 17.2476H77.388C77.189 17.2275 76.99 17.2108 76.7909 17.1957C76.703 17.1957 76.6135 17.1806 76.5256 17.1756L76.1507 17.1488C76.0678 17.1488 75.9849 17.1371 75.9003 17.1338H75.693C75.6101 17.1338 75.5271 17.1237 75.4442 17.1204C75.3082 17.1204 75.1722 17.1053 75.0346 17.1003H74.7974L74.4392 17.0886L73.9068 17.0769H72.8022C72.6363 17.0769 72.4854 17.0769 72.3279 17.0769C72.1968 17.0769 72.0642 17.0769 71.9315 17.0886C71.8734 17.0886 71.8154 17.0886 71.7573 17.0886H71.6777L71.3792 17.102C71.2222 17.1087 71.0646 17.117 70.9065 17.1271L70.608 17.1455H70.5433C70.4289 17.1455 70.3161 17.1606 70.2033 17.1706H70.0789C69.9794 17.1773 69.8799 17.1857 69.7804 17.1957C69.5731 17.2124 69.3674 17.2342 69.1618 17.2559H69.1253L68.8068 17.2928C68.641 17.3112 68.4668 17.3329 68.296 17.3547L68.0008 17.3948L67.6276 17.4484L67.5132 17.4668C67.4319 17.4785 67.3473 17.4902 67.2677 17.5053H67.2229L67.0969 17.5254L66.7536 17.5823L66.4036 17.6475L66.0587 17.7145C65.9028 17.7446 65.7469 17.7764 65.591 17.8115L65.4367 17.8433H65.4019L65.1216 17.9052L65.0718 17.9169C64.8397 17.9705 64.6075 18.0257 64.3753 18.0843L64.0552 18.1679C63.9789 18.1864 63.9026 18.2064 63.828 18.2282C63.7174 18.2583 63.603 18.2901 63.4846 18.3236L63.4299 18.3386L63.0302 18.4558C63.0132 18.4592 62.9966 18.4643 62.9805 18.4708L62.9208 18.4892C62.7947 18.5261 62.6703 18.5645 62.5459 18.6047C62.264 18.694 61.9826 18.7877 61.7017 18.8858C61.6487 18.9026 61.5956 18.921 61.5359 18.9411L61.4878 18.9578C61.385 18.9929 61.2821 19.0314 61.181 19.0682C61.0466 19.1168 60.9139 19.167 60.7796 19.2188H60.763L60.4197 19.3527H60.4031L60.1792 19.4431C59.7768 19.6071 59.3771 19.78 58.9801 19.9618L58.8474 20.0221L58.7794 20.0539L58.5108 20.1811C58.3648 20.2513 58.2172 20.3216 58.0729 20.3953C57.975 20.4421 57.8772 20.4923 57.781 20.5425L57.723 20.5726C57.6433 20.6128 57.5571 20.653 57.4841 20.6965C57.4112 20.74 57.3183 20.7785 57.247 20.822L57.0098 20.9508C56.9302 20.9927 56.8439 21.0362 56.7726 21.0813C56.6167 21.1684 56.4608 21.2487 56.3066 21.3491C56.1523 21.4495 55.9931 21.5332 55.8372 21.6269C55.7267 21.6905 55.6205 21.7557 55.5188 21.8227L55.1871 22.0318L55.1672 22.0452L54.9532 22.1841C54.8305 22.2628 54.7078 22.3515 54.585 22.4284L54.2185 22.6778C54.0891 22.7665 53.9614 22.8568 53.8337 22.9489C53.7375 23.0175 53.6413 23.0861 53.5468 23.1564L53.313 23.3237L53.2682 23.3572C53.1687 23.4308 53.0692 23.5061 52.9713 23.5831C52.696 23.7923 52.424 24.0098 52.152 24.2324C52.0259 24.3344 51.9016 24.4382 51.7772 24.5436C51.6528 24.649 51.482 24.793 51.336 24.9218C51.1901 25.0507 51.0441 25.1795 50.8998 25.31C50.7804 25.4171 50.6626 25.5259 50.5432 25.6364C50.0147 26.1283 49.4923 26.6449 48.9759 27.1859C48.7189 27.4554 48.4635 27.7331 48.2097 28.0226C48.0654 28.19 47.9228 28.3456 47.7801 28.5113C47.6773 28.6301 47.5745 28.7489 47.4733 28.8694L47.4567 28.8895C47.3705 28.9899 47.2909 29.0919 47.1997 29.1974L47.1516 29.2576C47.1051 29.3112 47.062 29.363 47.0205 29.425C46.9443 29.517 46.8696 29.609 46.795 29.7027C46.7469 29.7613 46.7004 29.8199 46.654 29.8801C46.5512 30.009 46.4484 30.1395 46.3472 30.2717C46.246 30.4039 46.1498 30.5294 46.052 30.6599L45.9243 30.8273C45.8231 30.9611 45.7236 31.0967 45.6241 31.2322C46.4616 27.3382 47.8631 23.4007 50.1021 19.7309L50.1352 19.679C51.5964 17.5772 61.5409 -4.18375 95.4609 9.72895C95.4887 9.73894 95.5158 9.75068 95.5421 9.7641L95.5803 9.78418C98.4313 11.2618 120.849 26.2706 124.092 38.1869C124.109 38.2545 124.132 38.3205 124.16 38.3844C124.26 38.6219 124.329 38.8717 124.364 39.1274Z" fill="#6970FF"/>
<path d="M124.399 39.4001C124.399 39.4001 52.4871 3.37502 47.6459 53.7613C45.3459 49.085 44.3044 43.8809 44.6257 38.6705C44.7703 36.182 45.103 33.7082 45.6208 31.2707C45.7203 31.1352 45.8198 30.9996 45.921 30.8658L46.0487 30.6984C46.1466 30.5679 46.2444 30.439 46.3439 30.3102C46.4434 30.1813 46.5479 30.0475 46.6508 29.9186C46.6972 29.8584 46.7436 29.7998 46.7917 29.7412C46.8664 29.6475 46.941 29.5555 47.0173 29.4634C47.0588 29.4099 47.1019 29.358 47.1483 29.2961L47.1964 29.2359C47.281 29.1304 47.3623 29.0284 47.4535 28.928L47.4701 28.9079C47.5712 28.7874 47.6741 28.6686 47.7769 28.5498C47.9195 28.3824 48.0622 28.2151 48.2064 28.0611C48.4602 27.7783 48.7156 27.5005 48.9727 27.2244C49.4879 26.6845 50.0104 26.1679 50.54 25.6748C50.6594 25.5644 50.7772 25.4556 50.8966 25.3485C51.0409 25.218 51.1868 25.0875 51.3328 24.9603C51.4787 24.8331 51.6263 24.7059 51.7739 24.5821C51.9215 24.4583 52.0227 24.3729 52.1487 24.2709C52.4207 24.0483 52.6927 23.8308 52.9681 23.6216C53.0659 23.5446 53.1654 23.4693 53.2649 23.3957L53.3097 23.3622L53.5436 23.1949C53.6381 23.1246 53.7343 23.056 53.8305 22.9874C53.9582 22.8953 54.0859 22.805 54.2153 22.7163L54.5818 22.4669C54.7045 22.3833 54.8273 22.2996 54.95 22.2226L55.1639 22.0837L55.1838 22.0703L55.5155 21.8612C55.6261 21.7942 55.7323 21.729 55.834 21.6654C55.9899 21.5717 56.1458 21.4779 56.3033 21.3876C56.4609 21.2972 56.6135 21.2069 56.7694 21.1198C56.8473 21.0747 56.9352 21.0311 57.0065 20.9893L57.2437 20.8605C57.3217 20.8169 57.4096 20.7768 57.4809 20.735C57.5522 20.6931 57.6467 20.6513 57.7197 20.6111L57.7778 20.581C57.874 20.5308 57.9718 20.4806 58.0697 20.4337C58.2139 20.3601 58.3616 20.2898 58.5075 20.2195L58.7762 20.0924L58.8442 20.0606L58.9769 20.0003C59.3738 19.8174 59.7735 19.6444 60.176 19.4816L60.3999 19.3912H60.4165L60.7598 19.2573H60.7764C60.9107 19.2055 61.0434 19.1553 61.1777 19.1067C61.2789 19.0699 61.3817 19.0314 61.4845 18.9963L61.5326 18.9795C61.5841 18.9595 61.6371 18.9411 61.6985 18.9243C61.9782 18.825 62.2596 18.7313 62.5427 18.6432C62.6671 18.603 62.7915 18.5645 62.9175 18.5277L62.9772 18.5093C62.9933 18.5028 63.01 18.4977 63.027 18.4943L63.4267 18.3771L63.4814 18.3621C63.592 18.3286 63.7064 18.2968 63.8247 18.2667C63.8993 18.2449 63.9756 18.2248 64.0519 18.2064L64.372 18.1228C64.6042 18.0642 64.8364 18.009 65.0686 17.9554L65.1184 17.9437L65.3986 17.8818H65.4335L65.5877 17.85C65.7436 17.8149 65.8995 17.7831 66.0554 17.7529L66.4004 17.686L66.7503 17.6207L67.0937 17.5638L67.2197 17.5438H67.2645C67.3457 17.5287 67.4303 17.517 67.5099 17.5053L67.6244 17.4869L67.9975 17.4333L68.2928 17.3932C68.4586 17.3714 68.6328 17.3496 68.8036 17.3312L69.122 17.2944H69.1585C69.3642 17.2727 69.5698 17.2509 69.7771 17.2342C69.8766 17.2241 69.9762 17.2158 70.0757 17.2091H70.2001C70.3128 17.199 70.4256 17.1907 70.5401 17.184H70.6047L70.9033 17.1656C71.0603 17.1555 71.2178 17.1472 71.3759 17.1405L71.6745 17.1271H71.7541C71.8121 17.1271 71.8702 17.1271 71.9282 17.1271C72.0609 17.1271 72.1936 17.117 72.3246 17.1154C72.4905 17.1154 72.6414 17.1154 72.799 17.1154H73.9035L74.4359 17.1271L74.7942 17.1388H75.0313C75.169 17.1388 75.305 17.1505 75.441 17.1589C75.5239 17.1589 75.6068 17.1589 75.6898 17.1723H75.8971C75.9816 17.1723 76.0629 17.1806 76.1475 17.1873L76.5223 17.2141C76.6102 17.2141 76.6998 17.2258 76.7877 17.2342C76.9867 17.2492 77.1857 17.266 77.3848 17.2861H77.5042C77.6916 17.3028 77.879 17.3229 78.0648 17.343C78.2787 17.3647 78.491 17.3898 78.7049 17.4149C78.8111 17.4283 78.9172 17.44 79.0234 17.4551C79.1892 17.4752 79.3551 17.4986 79.5309 17.522L80.04 17.594L80.4049 17.6492H80.4364L80.5525 17.6676L80.667 17.686L81.0766 17.7529L81.3287 17.7964L81.4332 17.8132L81.5327 17.8316C81.7135 17.8634 81.8943 17.8952 82.0751 17.9303C82.289 17.9688 82.5029 18.0106 82.7152 18.0525L83.1249 18.1362C83.2609 18.1629 83.3969 18.1914 83.5329 18.2215C83.7634 18.27 83.9939 18.3202 84.2245 18.3738C84.4019 18.4123 84.5794 18.4541 84.7569 18.4959L85.1632 18.593C85.4335 18.6583 85.7055 18.7252 85.9742 18.7955L86.3573 18.8942C86.5547 18.9461 86.7504 18.998 86.9461 19.0615C87.0987 19.1017 87.2513 19.1435 87.4022 19.187C87.5531 19.2306 87.6974 19.269 87.845 19.3126C88.0291 19.3644 88.2116 19.418 88.3957 19.4799L88.797 19.6004L89.1967 19.7225C89.3311 19.7627 89.4637 19.8045 89.5964 19.848C89.864 19.9317 90.1299 20.0171 90.3942 20.1041L90.7906 20.2363C90.9896 20.3015 91.1869 20.3685 91.3843 20.4371C91.5817 20.5057 91.779 20.5726 91.9764 20.6429C92.234 20.7333 92.4905 20.8253 92.7459 20.919C93.0014 21.0127 93.2684 21.1115 93.547 21.2152L93.5719 21.2253C93.8223 21.319 94.0694 21.4127 94.3182 21.5097C94.567 21.6068 94.834 21.7105 95.0911 21.8143C95.603 22.0162 96.1127 22.2248 96.6202 22.4402C96.8723 22.545 97.1244 22.6521 97.3765 22.7614C97.8796 22.9779 98.3772 23.1977 98.8692 23.4208C99.0848 23.5162 99.2988 23.6149 99.5127 23.7136L100.151 24.0098C100.364 24.1085 100.576 24.2089 100.786 24.311L101.317 24.5654L101.521 24.6641C101.768 24.7829 102.019 24.9034 102.256 25.0256L103.465 25.633L103.704 25.7552L104.417 26.1267L105.08 26.4764C105.475 26.6861 105.866 26.897 106.253 27.109L106.278 27.1223L106.83 27.4269C107.022 27.5323 107.213 27.6394 107.402 27.7465L108.066 28.1247C108.359 28.2921 108.651 28.4594 108.938 28.6267C109.371 28.8778 109.797 29.1282 110.213 29.3781C110.369 29.4701 110.522 29.5622 110.675 29.6559C111.058 29.8868 111.436 30.1161 111.806 30.3437L112.287 30.6432C112.537 30.7971 112.784 30.9528 113.026 31.1067L113.592 31.4665L113.683 31.5251C114.002 31.7281 114.314 31.93 114.62 32.1309C116.158 33.1349 117.547 34.0854 118.766 34.9472C118.886 35.0325 119.004 35.1145 119.118 35.1982C119.503 35.4727 119.869 35.7359 120.216 35.9881L120.722 36.3596L121.198 36.7126L121.476 36.9218C121.8 37.165 122.099 37.3915 122.372 37.6012C122.468 37.6732 122.561 37.7451 122.649 37.8137C123.094 38.1484 123.46 38.4446 123.742 38.6722L123.861 38.7676L124.027 38.8964C124.077 38.9349 124.122 38.9717 124.162 39.0052L124.235 39.0638L124.359 39.1659C124.359 39.1926 124.367 39.2194 124.372 39.2479C124.387 39.2696 124.394 39.3332 124.399 39.4001Z" fill="#DF6FFF"/>
<path d="M123.253 41.6676L123.087 41.7781C122.998 41.8328 122.903 41.8761 122.803 41.9069C122.73 41.9304 122.637 41.9555 122.526 41.9839H122.513C121.377 42.2717 118.267 42.7269 112.011 41.184C111.607 41.0468 103.719 38.9969 96.4859 36.9051L96.408 36.8817L96.2952 36.8482C95.2537 36.547 94.2287 36.2441 93.2419 35.9479H93.222L92.8422 35.8325L91.648 35.476L91.5286 35.4342L91.5021 35.4241L91.4656 35.4124L91.381 35.384L91.3329 35.3673C91.3064 35.3572 91.2799 35.3472 91.25 35.3388L91.0676 35.2786H91.0543C89.8685 34.8954 87.0473 33.9398 83.5296 33.4763C64.1249 30.9277 63.8695 46.5791 63.9127 48.537C63.9127 48.537 63.9127 48.5453 63.9127 48.5637C63.9621 49.423 64.0937 50.2753 64.3057 51.109C64.3051 51.1151 64.3051 51.1213 64.3057 51.1274C65.4086 56.5325 69.3377 68.6195 82.5212 70.0185C76.5074 70.9405 74.8539 70.8234 68.3144 69.9984C68.1621 69.9793 68.0109 69.952 67.8616 69.9164C61.2493 68.3471 55.3488 64.5877 51.1023 59.2384C49.7589 57.5448 48.6002 55.7102 47.6459 53.7664C52.4871 3.38008 124.399 39.4052 124.399 39.4052C124.449 40.0779 124.264 40.9648 123.253 41.6676Z" fill="#F97DFF"/>
<path d="M124.05 37.9861C124.05 37.9861 118.219 11.1028 98.4463 0.550316C96.2139 -0.473809 94.096 0.0382537 92.935 1.20964C92.935 1.20964 90.4472 3.38507 93.1009 7.06656C93.7477 8.04551 107.047 18.506 92.5453 34.3531C92.437 34.4716 92.361 34.6164 92.3246 34.7733C92.2882 34.9302 92.2927 35.0939 92.3376 35.2486C92.3826 35.4032 92.4664 35.5435 92.5809 35.6558C92.6955 35.7681 92.8369 35.8485 92.9914 35.8893C100.296 37.8188 127.863 48.0265 124.05 37.9861Z" fill="url(#paint0_linear_1114_3478)"/>
<path d="M95.7545 54.7587C95.7547 58.4875 94.4137 62.0896 91.9805 64.8961C89.5473 67.7027 86.1873 69.5228 82.5245 70.0185C69.3409 68.6195 65.412 56.5325 64.3057 51.1274C65.261 54.9762 68.4636 61.6699 79.166 60.9503C79.166 60.9503 84.1697 60.9503 86.1732 56.2463C86.6294 55.1625 86.8686 53.9984 86.8772 52.8209C86.8857 51.6434 86.6634 50.4758 86.223 49.3854C85.2876 47.056 83.2211 44.3869 78.7597 44.3869C78.7597 44.3869 75.7743 44.2915 74.0378 46.9071C73.4433 47.809 73.2018 48.9015 73.3603 49.9728C73.5187 51.0441 74.0657 52.0179 74.8953 52.7054L74.9401 52.7422C75.0019 52.7924 75.0448 52.8625 75.0615 52.9407C75.0783 53.019 75.068 53.1007 75.0323 53.1721C74.9966 53.2436 74.9376 53.3006 74.8653 53.3335C74.793 53.3664 74.7117 53.3733 74.6349 53.353C70.3228 52.2168 70.0524 47.9847 70.0524 47.9847C70.0524 42.3788 74.9301 40.4243 74.9301 40.4243C75.74 40.106 76.575 39.8569 77.4262 39.6796C79.6443 39.2217 81.9356 39.267 84.1342 39.8125C86.3328 40.3579 88.3837 41.3898 90.1384 42.8333C91.8931 44.2769 93.3078 46.0961 94.2799 48.1592C95.2521 50.2223 95.7575 52.4776 95.7595 54.762L95.7545 54.7587Z" fill="#FCBFFF"/>
<path d="M0 119.582H8.55L10.935 113.057H21.78L24.165 119.582H32.67L20.385 87.3623H12.33L0 119.582ZM13.14 106.127L16.335 96.8123L19.53 106.127H13.14Z" fill="white"/>
<path d="M61.9017 101.132H48.7167V107.747H54.6567V111.887C53.2167 112.247 51.7317 112.427 50.4267 112.427C45.1617 112.427 41.2017 109.547 41.2017 103.562C41.2017 97.8473 45.1617 94.6073 50.8317 94.6073C53.8467 94.6073 57.4467 95.3723 61.0917 97.7123V89.3873C57.5817 87.6323 53.8017 86.8223 50.1117 86.8223C40.7517 86.8223 32.6067 92.9873 32.6067 103.472C32.6067 113.417 39.4917 120.122 50.6517 120.122C53.8017 120.122 58.9767 119.177 61.9017 117.107V101.132Z" fill="white"/>
<path d="M67.1836 119.582H89.1436V112.382H75.5086V106.892H85.9486V99.8723H75.5086V94.6073H88.4236V87.4073H67.1836V119.582Z" fill="white"/>
<path d="M112.536 113.147L119.646 101.762V119.582H127.971V87.3623H120.456L110.871 103.067L101.286 87.3623H93.7705V119.582H102.096V101.762L109.206 113.147H112.536Z" fill="white"/>
<path d="M149.412 86.8223C139.377 86.8223 132.492 94.2473 132.492 103.472C132.492 112.697 139.332 120.122 149.367 120.122C159.357 120.122 166.287 112.697 166.287 103.472C166.287 94.2473 159.402 86.8223 149.412 86.8223ZM149.412 94.6523C154.407 94.6523 157.647 98.5223 157.647 103.472C157.647 108.422 154.407 112.292 149.412 112.292C144.372 112.292 141.132 108.422 141.132 103.472C141.132 98.5223 144.372 94.6523 149.412 94.6523Z" fill="white"/>
<defs>
<linearGradient id="paint0_linear_1114_3478" x1="83.1433" y1="120.12" x2="83.1433" y2="-0.000665857" gradientUnits="userSpaceOnUse">
<stop stop-color="#6970FF"/>
<stop offset="1" stop-color="#DF6FFF"/>
</linearGradient>
</defs>
</svg>
