<svg width="194" height="57" viewBox="0 0 194 57" fill="none" xmlns="http://www.w3.org/2000/svg">
<path d="M74.776 40.0001H80.856L82.552 35.3601H90.264L91.96 40.0001H98.008L89.272 17.0881H83.544L74.776 40.0001ZM84.12 30.4321L86.392 23.8081L88.664 30.4321H84.12Z" fill="#170D42"/>
<path d="M118.795 26.8801H109.419V31.5841H113.643V34.5281C112.619 34.7841 111.563 34.9121 110.635 34.9121C106.891 34.9121 104.075 32.8641 104.075 28.6081C104.075 24.5441 106.891 22.2401 110.923 22.2401C113.067 22.2401 115.627 22.7841 118.219 24.4481V18.5281C115.723 17.2801 113.035 16.7041 110.411 16.7041C103.755 16.7041 97.963 21.0881 97.963 28.5441C97.963 35.6161 102.859 40.3841 110.795 40.3841C113.035 40.3841 116.715 39.7121 118.795 38.2401V26.8801Z" fill="#170D42"/>
<path d="M122.551 40.0001H138.167V34.8801H128.471V30.9761H135.895V25.9841H128.471V22.2401H137.655V17.1201H122.551V40.0001Z" fill="#170D42"/>
<path d="M154.801 35.4241L159.857 27.3281V40.0001H165.777V17.0881H160.433L153.617 28.2561L146.801 17.0881H141.457V40.0001H147.377V27.3281L152.433 35.4241H154.801Z" fill="#170D42"/>
<path d="M181.025 16.7041C173.889 16.7041 168.993 21.9841 168.993 28.5441C168.993 35.1041 173.857 40.3841 180.993 40.3841C188.097 40.3841 193.025 35.1041 193.025 28.5441C193.025 21.9841 188.129 16.7041 181.025 16.7041ZM181.025 22.2721C184.577 22.2721 186.881 25.0241 186.881 28.5441C186.881 32.0641 184.577 34.8161 181.025 34.8161C177.441 34.8161 175.137 32.0641 175.137 28.5441C175.137 25.0241 177.441 22.2721 181.025 22.2721Z" fill="#170D42"/>
<path d="M64.9621 31.5611L64.8608 31.4788L64.8014 31.4315C64.769 31.4045 64.7325 31.3748 64.692 31.3438L64.557 31.2399L64.4598 31.1629C64.2302 30.9794 63.9318 30.7472 63.57 30.4705C63.4984 30.4151 63.4228 30.3571 63.3445 30.299C63.1213 30.129 62.8782 29.9463 62.6154 29.751L62.3885 29.5823L62.001 29.2975L61.5892 28.9978C61.3066 28.7935 61.0086 28.5812 60.6954 28.3607C60.6022 28.2932 60.5063 28.2257 60.4091 28.1582C59.4181 27.4631 58.2866 26.695 57.0336 25.8865C56.7843 25.7245 56.53 25.5616 56.2707 25.3979L56.1965 25.3506L55.736 25.0604C55.5376 24.9362 55.3377 24.8107 55.1338 24.6865L54.7423 24.4449C54.4412 24.2613 54.1333 24.0764 53.8214 23.8901C53.6972 23.8145 53.573 23.7403 53.4461 23.666C53.1058 23.4645 52.7597 23.2625 52.4078 23.06C52.1742 22.925 51.9365 22.79 51.6975 22.655L51.1575 22.35C51.0035 22.2636 50.8482 22.1772 50.6916 22.0922L50.242 21.8465L50.2218 21.8357C49.9076 21.6638 49.5894 21.4937 49.2671 21.3255L48.7271 21.0434L48.1465 20.7437L47.952 20.6452L46.9677 20.1552C46.7692 20.0566 46.5708 19.9595 46.3696 19.8636L46.2035 19.784L45.7714 19.5788C45.6 19.4965 45.4271 19.4155 45.2543 19.3358L44.7345 19.0969C44.5603 19.0173 44.3861 18.9376 44.2106 18.8607C43.8082 18.6807 43.4032 18.5034 42.9954 18.3289C42.7902 18.2389 42.5849 18.1525 42.3797 18.0697C41.9674 17.8969 41.5525 17.7287 41.1348 17.5649C40.9255 17.4812 40.7162 17.4002 40.5056 17.3192C40.295 17.2382 40.1005 17.1653 39.898 17.0897L39.8777 17.0816C39.6599 17.0007 39.4425 16.921 39.2256 16.8427C39.0087 16.7644 38.7998 16.6902 38.5991 16.62C38.4384 16.5633 38.2777 16.5093 38.1171 16.454C37.9564 16.3986 37.7957 16.3446 37.6337 16.292L37.311 16.1854C37.0949 16.1152 36.8785 16.0463 36.6615 15.9788C36.5535 15.9437 36.4455 15.91 36.3361 15.8776L36.0107 15.7791L35.684 15.6819C35.5341 15.6373 35.3856 15.5941 35.2357 15.5469C35.1151 15.5118 34.9949 15.4781 34.8752 15.4457C34.7523 15.4106 34.6281 15.3768 34.5039 15.3444C34.3446 15.2999 34.1852 15.258 34.0246 15.2094L33.7127 15.1298C33.4939 15.0731 33.2725 15.0191 33.0524 14.9665L32.7216 14.8882C32.5771 14.8544 32.4326 14.8207 32.2882 14.7897C32.1005 14.7465 31.9128 14.706 31.7251 14.6668C31.6144 14.6425 31.5037 14.6196 31.393 14.598L31.0595 14.5305C30.8867 14.4967 30.7125 14.463 30.5383 14.432C30.3911 14.4036 30.2439 14.378 30.0968 14.3523L30.0158 14.3375L29.9307 14.324L29.7255 14.2889L29.392 14.2349L29.2988 14.22L29.2043 14.2052H29.1786L28.8816 14.1606L28.4671 14.1026C28.332 14.0837 28.197 14.0648 28.0539 14.0486C27.9675 14.0365 27.8811 14.027 27.7947 14.0162C27.6205 13.996 27.4477 13.9757 27.2735 13.9582C27.1222 13.942 26.9697 13.9258 26.8171 13.9123H26.809H26.7685H26.7388H26.7185C26.5565 13.8961 26.3945 13.8826 26.2325 13.8704C26.1609 13.8704 26.088 13.8583 26.0164 13.8542L25.7113 13.8326C25.6438 13.8326 25.5763 13.8232 25.5074 13.8205H25.4291H25.3386C25.2711 13.8205 25.2036 13.8124 25.1361 13.8097C25.0254 13.8097 24.9146 13.7975 24.8026 13.7935H24.6095L24.3179 13.784L23.8844 13.7746H23.3727H22.9852C22.8502 13.7746 22.7273 13.7746 22.599 13.7746C22.4924 13.7746 22.3843 13.7746 22.2763 13.784C22.2291 13.784 22.1818 13.784 22.1345 13.784H22.0697L21.8267 13.7948C21.6989 13.8002 21.5706 13.807 21.4419 13.8151L21.1988 13.8299H21.1462C21.053 13.8299 20.9612 13.8421 20.8694 13.8502H20.8086H20.7762H20.7681C20.6871 13.8556 20.6061 13.8623 20.5251 13.8704C20.3563 13.8839 20.1889 13.9015 20.0215 13.919H19.9918L19.7325 13.9487C19.5975 13.9636 19.4557 13.9811 19.3166 13.9987L19.0763 14.0311L18.7725 14.0743L18.6793 14.0891C18.6132 14.0985 18.5443 14.108 18.4795 14.1201H18.4431L18.3404 14.1363L18.0609 14.1822L17.7761 14.2349L17.4952 14.2889C17.3683 14.3132 17.2414 14.3388 17.1144 14.3672L16.9889 14.3928H16.9605L16.7323 14.4428L16.6918 14.4522C16.5028 14.4954 16.3138 14.5399 16.1247 14.5872L15.8641 14.6547C15.802 14.6695 15.7399 14.6857 15.6792 14.7033C15.5892 14.7276 15.496 14.7532 15.3997 14.7802L15.3551 14.7924L15.0297 14.8868C15.0159 14.8896 15.0023 14.8937 14.9892 14.899L14.9406 14.9138C14.838 14.9435 14.7367 14.9746 14.6354 15.007C14.4059 15.079 14.1768 15.1546 13.9482 15.2337C13.905 15.2472 13.8618 15.2621 13.8132 15.2783L13.774 15.2918C13.6903 15.3201 13.6066 15.3512 13.5242 15.3809C13.4149 15.42 13.3068 15.4605 13.1975 15.5024H13.184L12.9045 15.6103H12.891L12.7087 15.6832C12.381 15.8155 12.0556 15.955 11.7325 16.1017L11.6245 16.1503L11.5691 16.1759L11.3504 16.2785C11.2316 16.3352 11.1114 16.3919 10.9939 16.4513C10.9143 16.4891 10.8346 16.5296 10.7563 16.5701L10.709 16.5944C10.6442 16.6268 10.574 16.6591 10.5146 16.6942C10.4552 16.7293 10.3796 16.7604 10.3215 16.7955L10.1284 16.8994C10.0636 16.9332 9.99341 16.9683 9.93535 17.0047C9.80843 17.0749 9.6815 17.1397 9.55593 17.2207C9.43036 17.3017 9.30074 17.3692 9.17382 17.4447C9.08381 17.496 8.99739 17.5487 8.91458 17.6027L8.64454 17.7714L8.62834 17.7822L8.45416 17.8942C8.35424 17.9577 8.25433 18.0292 8.15441 18.0913L7.85601 18.2924C7.7507 18.364 7.64673 18.4369 7.54276 18.5111C7.46445 18.5664 7.38614 18.6218 7.30918 18.6785L7.11879 18.8135L7.08234 18.8405C7.00133 18.8998 6.92031 18.9606 6.84065 19.0227C6.61651 19.1914 6.39508 19.3669 6.17364 19.5464C6.07103 19.6287 5.96976 19.7124 5.86849 19.7975C5.76723 19.8825 5.62816 19.9986 5.50934 20.1025C5.39052 20.2065 5.2717 20.3104 5.15423 20.4157C5.05701 20.5021 4.96115 20.5898 4.86393 20.6789C4.43366 21.0757 4.00835 21.4924 3.58798 21.9288C3.3787 22.1462 3.17076 22.3702 2.96418 22.6037C2.84671 22.7387 2.73059 22.8643 2.61447 22.9979C2.53076 23.0937 2.44705 23.1896 2.36468 23.2867L2.35118 23.3029C2.28097 23.3839 2.21616 23.4663 2.1419 23.5513L2.10274 23.5999C2.06493 23.6431 2.02983 23.6849 1.99607 23.7349C1.93396 23.8091 1.8732 23.8834 1.81244 23.959C1.77329 24.0062 1.73548 24.0534 1.69768 24.102C1.61396 24.206 1.53025 24.3113 1.44789 24.4179C1.36552 24.5245 1.28721 24.6258 1.20755 24.7311L1.10358 24.866C1.02122 24.974 0.940205 25.0834 0.859192 25.1927C1.54105 22.0517 2.68198 18.8755 4.50478 15.9154L4.53178 15.8736C5.72132 14.1782 13.8172 -3.37483 41.4318 7.84755C41.4545 7.8556 41.4766 7.86507 41.498 7.87589L41.5291 7.89209C43.8501 9.08398 62.101 21.1905 64.7406 30.8025C64.7548 30.857 64.7733 30.9103 64.796 30.9618C64.8775 31.1534 64.9333 31.3549 64.9621 31.5611V31.5611Z" fill="#6970FF"/>
<path d="M64.9905 31.7812C64.9905 31.7812 6.44642 2.72232 2.50514 43.3653C0.632707 39.5933 -0.215196 35.3955 0.046399 31.1927C0.164134 29.1853 0.434964 27.1899 0.856529 25.2238C0.937542 25.1144 1.01855 25.0051 1.10092 24.8971L1.20488 24.7621C1.28455 24.6568 1.36421 24.5529 1.44522 24.449C1.52624 24.345 1.6113 24.237 1.69501 24.1331C1.73282 24.0845 1.77063 24.0373 1.80978 23.99C1.87054 23.9144 1.9313 23.8402 1.99341 23.766C2.02717 23.7228 2.06227 23.6809 2.10008 23.631L2.13923 23.5824C2.2081 23.4974 2.27426 23.415 2.34852 23.334L2.36202 23.3178C2.44438 23.2206 2.5281 23.1248 2.61181 23.029C2.72793 22.894 2.84405 22.759 2.96152 22.6348C3.1681 22.4067 3.37603 22.1826 3.58532 21.9599C4.00478 21.5244 4.4301 21.1077 4.86127 20.71C4.95849 20.6209 5.05435 20.5332 5.15157 20.4468C5.26904 20.3415 5.38785 20.2362 5.50667 20.1336C5.62549 20.031 5.74566 19.9284 5.86583 19.8285C5.986 19.7287 6.06836 19.6598 6.17098 19.5775C6.39242 19.398 6.61385 19.2225 6.83799 19.0538C6.91765 18.9917 6.99866 18.9309 7.07968 18.8715L7.11613 18.8445L7.30651 18.7095C7.38347 18.6529 7.46179 18.5975 7.5401 18.5422C7.64407 18.4679 7.74803 18.395 7.85335 18.3235L8.15175 18.1224C8.25166 18.0549 8.35158 17.9874 8.4515 17.9253L8.62567 17.8133L8.64188 17.8025L8.91192 17.6337C9.00193 17.5798 9.08835 17.5271 9.17116 17.4758C9.29808 17.4002 9.425 17.3246 9.55327 17.2517C9.68154 17.1789 9.80576 17.106 9.93268 17.0358C9.99614 16.9993 10.0677 16.9642 10.1258 16.9305L10.3188 16.8266C10.3823 16.7915 10.4539 16.7591 10.5119 16.7253C10.57 16.6916 10.6469 16.6578 10.7064 16.6254L10.7536 16.6011C10.8319 16.5606 10.9116 16.5201 10.9913 16.4824C11.1087 16.423 11.2289 16.3663 11.3477 16.3096L11.5664 16.207L11.6218 16.1813L11.7298 16.1327C12.053 15.9852 12.3784 15.8457 12.706 15.7143L12.8883 15.6414H12.9018L13.1813 15.5334H13.1948C13.3042 15.4916 13.4122 15.4511 13.5216 15.4119C13.6039 15.3823 13.6876 15.3512 13.7713 15.3229L13.8105 15.3094C13.8524 15.2932 13.8956 15.2783 13.9455 15.2648C14.1733 15.1847 14.4024 15.1091 14.6328 15.038C14.7341 15.0057 14.8353 14.9746 14.9379 14.9449L14.9865 14.9301C14.9996 14.9248 15.0132 14.9207 15.0271 14.9179L15.3525 14.8234L15.397 14.8113C15.487 14.7843 15.5802 14.7586 15.6765 14.7343C15.7373 14.7168 15.7994 14.7006 15.8615 14.6857L16.1221 14.6183C16.3111 14.571 16.5001 14.5265 16.6892 14.4833L16.7297 14.4738L16.9579 14.4239H16.9862L17.1118 14.3982C17.2387 14.3699 17.3656 14.3442 17.4925 14.3199L17.7734 14.266L18.0583 14.2133L18.3378 14.1674L18.4404 14.1512H18.4769C18.543 14.1391 18.6119 14.1296 18.6767 14.1202L18.7699 14.1053L19.0736 14.0621L19.314 14.0297C19.449 14.0122 19.5908 13.9946 19.7299 13.9798L19.9891 13.9501H20.0188C20.1862 13.9325 20.3537 13.915 20.5224 13.9015C20.6034 13.8934 20.6845 13.8867 20.7655 13.8813H20.7736H20.806H20.8667C20.9586 13.8732 21.0504 13.8664 21.1435 13.861H21.1962L21.4392 13.8462C21.567 13.8381 21.6953 13.8313 21.824 13.8259L22.0671 13.8151H22.1319C22.1791 13.8151 22.2264 13.8151 22.2737 13.8151C22.3817 13.8151 22.4897 13.807 22.5964 13.8057C22.7314 13.8057 22.8543 13.8057 22.9825 13.8057H23.37H23.8818L24.3152 13.8151L24.6068 13.8246H24.7999C24.912 13.8246 25.0227 13.834 25.1334 13.8408C25.2009 13.8408 25.2684 13.8408 25.336 13.8516H25.4264H25.5047C25.5736 13.8516 25.6398 13.8583 25.7086 13.8637L26.0138 13.8853C26.0853 13.8853 26.1582 13.8948 26.2298 13.9015C26.3918 13.9136 26.5538 13.9271 26.7159 13.9433H26.7348H26.7645H26.805H26.8131C26.9657 13.9568 27.1182 13.973 27.2695 13.9892C27.4436 14.0068 27.6165 14.027 27.7906 14.0473C27.8771 14.0581 27.9635 14.0675 28.0499 14.0797C28.1849 14.0959 28.3199 14.1148 28.4631 14.1337L28.8776 14.1917L29.1746 14.2363H29.2003L29.2948 14.2511L29.388 14.266L29.7215 14.3199L29.9267 14.355L30.0118 14.3685L30.0928 14.3834C30.2399 14.409 30.3871 14.4347 30.5343 14.463C30.7085 14.4941 30.8826 14.5278 31.0555 14.5616L31.389 14.6291C31.4997 14.6506 31.6104 14.6736 31.7211 14.6979C31.9088 14.737 32.0965 14.7775 32.2842 14.8207C32.4286 14.8518 32.5731 14.8855 32.7176 14.9193L33.0484 14.9976C33.2685 15.0502 33.4899 15.1042 33.7086 15.1609L34.0205 15.2405C34.1812 15.2824 34.3405 15.3242 34.4999 15.3755C34.6241 15.4079 34.7483 15.4416 34.8712 15.4767C34.9941 15.5118 35.1115 15.5429 35.2317 15.578C35.3816 15.6198 35.5301 15.663 35.68 15.713L36.0067 15.8101L36.3321 15.9087C36.4415 15.9411 36.5495 15.9748 36.6575 16.0099C36.8753 16.0774 37.0918 16.1462 37.307 16.2164L37.6297 16.3231C37.7917 16.3757 37.9524 16.4297 38.113 16.4851C38.2737 16.5404 38.4344 16.5944 38.5951 16.6511C38.8048 16.724 39.0136 16.7982 39.2216 16.8738C39.4295 16.9494 39.6469 17.029 39.8737 17.1127L39.894 17.1208C40.0979 17.1964 40.299 17.272 40.5016 17.3503C40.7041 17.4286 40.9215 17.5123 41.1308 17.596C41.5475 17.7588 41.9625 17.9271 42.3757 18.1008C42.5809 18.1854 42.7861 18.2718 42.9914 18.3599C43.4009 18.5345 43.806 18.7118 44.2066 18.8918C44.3821 18.9687 44.5563 19.0484 44.7305 19.128L45.2503 19.3669C45.4231 19.4465 45.5959 19.5275 45.7674 19.6099L46.1995 19.815L46.3656 19.8947C46.5668 19.9905 46.7706 20.0877 46.9637 20.1862L47.948 20.6762L48.1425 20.7748L48.7231 21.0744L49.2631 21.3565C49.5845 21.5257 49.9027 21.6958 50.2177 21.8668L50.238 21.8776L50.6876 22.1232C50.8442 22.2083 50.9995 22.2947 51.1534 22.3811L51.6935 22.6861C51.9325 22.8211 52.1702 22.9561 52.4037 23.0911C52.7566 23.2935 53.1027 23.4955 53.4421 23.6971C53.569 23.7714 53.6932 23.8456 53.8174 23.9212C54.1293 24.1075 54.4372 24.2924 54.7383 24.476L55.1298 24.7176C55.3337 24.8418 55.5349 24.9673 55.732 25.0915L56.1924 25.3817L56.2667 25.4289C56.526 25.5927 56.7802 25.7556 57.0296 25.9176C58.2812 26.7275 59.4127 27.4942 60.4051 28.1893C60.5023 28.2582 60.5982 28.3243 60.6914 28.3918C61.0046 28.6132 61.3026 28.8255 61.5852 29.0289L61.997 29.3286L62.3845 29.6134L62.6114 29.7821C62.8751 29.9783 63.1182 30.1609 63.3405 30.3301C63.4188 30.3882 63.4944 30.4462 63.566 30.5015C63.9278 30.7715 64.2262 31.0104 64.4558 31.194L64.553 31.2709L64.688 31.3749C64.7285 31.4059 64.765 31.4356 64.7974 31.4626L64.8568 31.5099L64.9581 31.5922C64.9581 31.6138 64.9648 31.6354 64.9689 31.6583C64.981 31.6759 64.9864 31.7272 64.9905 31.7812Z" fill="#DF6FFF"/>
<path opacity="0.75" d="M64.0575 33.6104L63.9225 33.6994C63.8501 33.7436 63.7726 33.7785 63.6916 33.8034C63.6322 33.8223 63.5565 33.8425 63.4661 33.8655H63.4553C62.5304 34.0976 59.9987 34.4648 54.9057 33.2203C54.5763 33.1096 48.1546 31.456 42.2663 29.7688L42.2029 29.7499L42.1111 29.7229C41.2631 29.4799 40.4287 29.2356 39.6253 28.9967H39.6172H39.6091L39.2999 28.9035L38.3278 28.616L38.2306 28.5823L38.2089 28.5742L38.1792 28.5647L38.1104 28.5418L38.0712 28.5283C38.0496 28.5202 38.028 28.5121 38.0037 28.5054L37.8552 28.4568H37.8444C36.879 28.1477 34.5823 27.3769 31.7185 27.003C15.9209 24.9472 15.713 37.5721 15.7481 39.1514C15.7481 39.1514 15.7481 39.1581 15.7481 39.1729C15.7883 39.866 15.8955 40.5536 16.0681 41.226C16.0676 41.231 16.0676 41.2359 16.0681 41.2409C16.966 45.6008 20.1647 55.3505 30.8975 56.4789C26.0016 57.2227 24.6555 57.1282 19.3316 56.4627C19.2076 56.4474 19.0846 56.4253 18.963 56.3966C13.5799 55.1308 8.77621 52.0983 5.31904 47.7834C4.22543 46.4173 3.28205 44.9375 2.50519 43.3695C6.44647 2.72656 64.9905 31.7854 64.9905 31.7854C65.031 32.328 64.8811 33.0434 64.0575 33.6104Z" fill="#F97DFF"/>
<path opacity="0.75" d="M64.7069 30.6406C64.7069 30.6406 59.9595 8.95584 43.8622 0.4439C42.0449 -0.382187 40.3206 0.0308565 39.3755 0.975728C39.3755 0.975728 37.3501 2.73049 39.5105 5.70009C40.0371 6.48973 50.8645 14.9274 39.0582 27.7102C38.97 27.8058 38.9082 27.9225 38.8785 28.0491C38.8489 28.1757 38.8526 28.3077 38.8891 28.4325C38.9257 28.5572 38.9939 28.6704 39.0872 28.7609C39.1805 28.8515 39.2956 28.9164 39.4214 28.9493C45.3677 30.5057 67.811 38.7395 64.7069 30.6406Z" fill="url(#paint0_linear_438_3733)"/>
<path d="M41.6709 44.1699C41.6711 47.1777 40.5793 50.0833 38.5984 52.3471C36.6176 54.6109 33.8821 56.0791 30.9002 56.4789C20.1673 55.3504 16.9686 45.6007 16.0681 41.2408C16.8458 44.3454 19.453 49.7447 28.166 49.1642C28.166 49.1642 32.2396 49.1642 33.8707 45.3699C34.242 44.4957 34.4368 43.5566 34.4437 42.6068C34.4507 41.657 34.2697 40.7153 33.9112 39.8357C33.1496 37.9567 31.4673 35.8038 27.8352 35.8038C27.8352 35.8038 25.4048 35.7268 23.9911 37.8366C23.5071 38.5641 23.3105 39.4453 23.4395 40.3095C23.5685 41.1736 24.0138 41.9591 24.6892 42.5137L24.7256 42.5434C24.776 42.5839 24.8109 42.6404 24.8245 42.7035C24.8382 42.7666 24.8298 42.8325 24.8007 42.8902C24.7716 42.9478 24.7236 42.9938 24.6648 43.0203C24.6059 43.0469 24.5397 43.0524 24.4772 43.0361C20.9666 42.1195 20.7466 38.7059 20.7466 38.7059C20.7466 34.184 24.7175 32.6074 24.7175 32.6074C25.3769 32.3506 26.0566 32.1497 26.7496 32.0067C28.5554 31.6373 30.4208 31.6739 32.2107 32.1139C34.0006 32.5538 35.6702 33.3862 37.0987 34.5506C38.5273 35.715 39.679 37.1824 40.4704 38.8466C41.2619 40.5107 41.6733 42.33 41.6749 44.1726L41.6709 44.1699Z" fill="#FCBFFF"/>
<defs>
<linearGradient id="paint0_linear_438_3733" x1="51.757" y1="34.1515" x2="51.757" y2="-0.000189311" gradientUnits="userSpaceOnUse">
<stop stop-color="#6970FF"/>
<stop offset="1" stop-color="#DF6FFF"/>
</linearGradient>
</defs>
</svg>
