<svg xmlns="http://www.w3.org/2000/svg" xmlns:xlink="http://www.w3.org/1999/xlink" viewBox="0 0 571.87 648.91"><defs><style>.cls-1{fill:#6970ff;}.cls-2{fill:#df6fff;}.cls-3{fill:#f97dff;}.cls-3,.cls-4{opacity:0.75;}.cls-4{fill:url(#Dégradé_sans_nom_45);}.cls-5{fill:#fcbfff;}.cls-6{font-size:150px;fill:#fff;font-family:Rustica-Black, Rustica;font-weight:800;}.cls-7{letter-spacing:-0.03em;}</style><linearGradient id="Dégradé_sans_nom_45" x1="429.31" y1="253.01" x2="429.31" gradientUnits="userSpaceOnUse"><stop offset="0" stop-color="#6970ff"/><stop offset="1" stop-color="#df6fff"/></linearGradient></defs><g id="Calque_2" data-name="Calque 2"><g id="Calque_1-2" data-name="Calque 1"><path class="cls-1" d="M527.1,233.82l-.75-.61-.44-.35c-.24-.2-.51-.42-.81-.65l-1-.77-.72-.57c-1.7-1.36-3.91-3.08-6.59-5.13-.53-.41-1.09-.84-1.67-1.27q-2.48-1.89-5.4-4.06l-1.68-1.25-2.87-2.11-3-2.22q-3.14-2.27-6.62-4.72c-.69-.5-1.4-1-2.12-1.5-7.34-5.15-15.72-10.84-25-16.83q-2.78-1.8-5.65-3.62l-.55-.35-3.41-2.15c-1.47-.92-2.95-1.85-4.46-2.77l-2.9-1.79c-2.23-1.36-4.51-2.73-6.82-4.11-.92-.56-1.84-1.11-2.78-1.66q-3.78-2.24-7.69-4.49c-1.73-1-3.49-2-5.26-3l-4-2.26c-1.14-.64-2.29-1.28-3.45-1.91l-3.33-1.82-.15-.08q-3.49-1.91-7.07-3.78l-4-2.09-4.3-2.22-1.44-.73-7.29-3.63c-1.47-.73-2.94-1.45-4.43-2.16l-1.23-.59-3.2-1.52c-1.27-.61-2.55-1.21-3.83-1.8l-3.85-1.77c-1.29-.59-2.58-1.18-3.88-1.75q-4.47-2-9-3.94l-4.56-1.92q-4.58-1.92-9.22-3.74c-1.55-.62-3.1-1.22-4.66-1.82s-3-1.14-4.5-1.7l-.15-.06q-2.41-.9-4.83-1.77t-4.64-1.65c-1.19-.42-2.38-.82-3.57-1.23s-2.38-.81-3.58-1.2l-2.39-.79q-2.4-.78-4.81-1.53c-.8-.26-1.6-.51-2.41-.75l-2.41-.73-2.42-.72c-1.11-.33-2.21-.65-3.32-1q-1.33-.39-2.67-.75c-.91-.26-1.83-.51-2.75-.75-1.18-.33-2.36-.64-3.55-1l-2.31-.59c-1.62-.42-3.26-.82-4.89-1.21l-2.45-.58c-1.07-.25-2.14-.5-3.21-.73-1.39-.32-2.78-.62-4.17-.91q-1.23-.27-2.46-.51l-2.47-.5c-1.28-.25-2.57-.5-3.86-.73-1.09-.21-2.18-.4-3.27-.59l-.6-.11-.63-.1-1.52-.26-2.47-.4-.69-.11-.7-.11-.19,0-2.2-.33-3.07-.43c-1-.14-2-.28-3.06-.4-.64-.09-1.28-.16-1.92-.24-1.29-.15-2.57-.3-3.86-.43-1.12-.12-2.25-.24-3.38-.34h-.06l-.3,0-.22,0h-.15c-1.2-.12-2.4-.22-3.6-.31-.53,0-1.07-.09-1.6-.12l-2.26-.16c-.5,0-1-.07-1.51-.09l-.58,0-.67,0c-.5,0-1-.06-1.5-.08-.82,0-1.64-.09-2.47-.12l-1.43,0-2.16-.07-3.21-.07-3.79,0-2.87,0c-.95,0-1.91,0-2.86,0-.79,0-1.59,0-2.39.07-.35,0-.7,0-1.05,0l-.48,0-1.8.08q-1.42.06-2.85.15l-1.8.11-.39,0c-.69,0-1.37.09-2,.15l-.45,0-.24,0h-.06q-.9.06-1.8.15c-1.25.1-2.49.23-3.73.36l-.22,0-1.92.22c-1,.11-2,.24-3.08.37l-1.78.24h-.05l-2.25.32-.69.11c-.49.07-1,.14-1.48.23l-.27,0-.76.12-2.07.34-2.11.39-2.08.4c-.94.18-1.88.37-2.82.58l-.93.19-.21,0-1.69.37-.3.07c-1.4.32-2.8.65-4.2,1l-1.93.5c-.46.11-.92.23-1.37.36q-1,.27-2.07.57l-.33.09-2.41.7a1.71,1.71,0,0,0-.3.09l-.36.11c-.76.22-1.51.45-2.26.69q-2.55.8-5.09,1.68c-.32.1-.64.21-1,.33l-.29.1c-.62.21-1.24.44-1.85.66-.81.29-1.61.59-2.42.9l-.1,0-2.07.8-.1,0c-.46.18-.9.35-1.35.54q-3.65,1.47-7.23,3.1l-.8.36-.41.19-1.62.76c-.88.42-1.77.84-2.64,1.28-.59.28-1.18.58-1.76.88l-.35.18c-.48.24-1,.48-1.44.74s-1,.49-1.43.75l-1.43.77c-.48.25-1,.51-1.43.78h0c-.94.52-1.88,1-2.81,1.6s-1.89,1.1-2.83,1.66q-1,.57-1.92,1.17l-2,1.25-.12.08-1.29.83c-.74.47-1.48,1-2.22,1.46l-2.21,1.49c-.78.53-1.55,1.07-2.32,1.62-.58.41-1.16.82-1.73,1.24l-1.41,1-.27.2c-.6.44-1.2.89-1.79,1.35-1.66,1.25-3.3,2.55-4.94,3.88-.76.61-1.51,1.23-2.26,1.86s-1.78,1.49-2.66,2.26-1.76,1.54-2.63,2.32c-.72.64-1.43,1.29-2.15,1.95q-4.78,4.41-9.45,9.26c-1.55,1.61-3.09,3.27-4.62,5-.87,1-1.73,1.93-2.59,2.92-.62.71-1.24,1.42-1.85,2.14l-.1.12c-.52.6-1,1.21-1.55,1.84l-.29.36c-.28.32-.54.63-.79,1-.46.55-.91,1.1-1.36,1.66-.29.35-.57.7-.85,1.06-.62.77-1.24,1.55-1.85,2.34s-1.19,1.54-1.78,2.32l-.77,1c-.61.8-1.21,1.61-1.81,2.42,5-23.27,13.5-46.8,27-68.73l.2-.31c8.81-12.56,68.77-142.6,273.29-59.46a4.25,4.25,0,0,1,.49.21l.23.12c17.19,8.83,152.36,98.52,171.91,169.73a7.83,7.83,0,0,0,.41,1.18A17.54,17.54,0,0,1,527.1,233.82Z"/><path class="cls-2" d="M527.31,235.45S93.72,20.17,64.53,321.27a178,178,0,0,1-18.21-90.18,292.74,292.74,0,0,1,6-44.22c.6-.81,1.2-1.62,1.81-2.42l.77-1c.59-.78,1.18-1.55,1.78-2.32s1.23-1.57,1.85-2.34c.28-.36.56-.71.85-1.06.45-.56.9-1.11,1.36-1.66.25-.32.51-.63.79-1l.29-.36c.51-.63,1-1.24,1.55-1.84l.1-.12c.61-.72,1.23-1.43,1.85-2.14.86-1,1.72-2,2.59-2.92,1.53-1.69,3.07-3.35,4.62-5q4.66-4.84,9.45-9.26c.72-.66,1.43-1.31,2.15-1.95.87-.78,1.75-1.56,2.63-2.32s1.77-1.52,2.66-2.26,1.5-1.25,2.26-1.86c1.64-1.33,3.28-2.63,4.94-3.88.59-.46,1.19-.91,1.79-1.35l.27-.2,1.41-1c.57-.42,1.15-.83,1.73-1.24.77-.55,1.54-1.09,2.32-1.62l2.21-1.49c.74-.5,1.48-1,2.22-1.46l1.29-.83.12-.08,2-1.25q1-.6,1.92-1.17c.94-.56,1.88-1.12,2.83-1.66s1.87-1.08,2.81-1.6h0c.47-.27,1-.53,1.43-.78l1.43-.77c.47-.26.95-.5,1.43-.75s1-.5,1.44-.74l.35-.18c.58-.3,1.17-.6,1.76-.88.87-.44,1.76-.86,2.64-1.28l1.62-.76.41-.19.8-.36q3.59-1.64,7.23-3.1c.45-.19.89-.36,1.35-.54l.1,0,2.07-.8.1,0c.81-.31,1.61-.61,2.42-.9.61-.22,1.23-.45,1.85-.66l.29-.1c.31-.12.63-.23,1-.33q2.53-.89,5.09-1.68c.75-.24,1.5-.47,2.26-.69l.36-.11a1.71,1.71,0,0,1,.3-.09l2.41-.7.33-.09q1-.3,2.07-.57c.45-.13.91-.25,1.37-.36l1.93-.5c1.4-.35,2.8-.68,4.2-1l.3-.07,1.69-.37.21,0,.93-.19c.94-.21,1.88-.4,2.82-.58l2.08-.4,2.11-.39,2.07-.34.76-.12.27,0c.49-.09,1-.16,1.48-.23l.69-.11,2.25-.32h.05l1.78-.24c1-.13,2-.26,3.08-.37l1.92-.22.22,0c1.24-.13,2.48-.26,3.73-.36q.9-.09,1.8-.15h.06l.24,0,.45,0c.68-.06,1.36-.11,2-.15l.39,0,1.8-.11q1.43-.09,2.85-.15l1.8-.08.48,0c.35,0,.7,0,1.05,0,.8,0,1.6-.06,2.39-.07.95,0,1.91,0,2.86,0l2.87,0,3.79,0,3.21.07,2.16.07,1.43,0c.83,0,1.65.07,2.47.12.5,0,1,0,1.5.08l.67,0,.58,0c.51,0,1,.05,1.51.09l2.26.16c.53,0,1.07.07,1.6.12,1.2.09,2.4.19,3.6.31H244l.22,0,.3,0h.06c1.13.1,2.26.22,3.38.34,1.29.13,2.57.28,3.86.43.64.08,1.28.15,1.92.24,1,.12,2,.26,3.06.4l3.07.43,2.2.33.19,0,.7.11.69.11,2.47.4,1.52.26.63.1.6.11c1.09.19,2.18.38,3.27.59,1.29.23,2.58.48,3.86.73l2.47.5q1.23.24,2.46.51c1.39.29,2.78.59,4.17.91,1.07.23,2.14.48,3.21.73l2.45.58c1.63.39,3.27.79,4.89,1.21l2.31.59c1.19.31,2.37.62,3.55,1,.92.24,1.84.49,2.75.75s1.78.49,2.67.75c1.11.31,2.21.63,3.32,1l2.42.72,2.41.73c.81.24,1.61.49,2.41.75q2.42.75,4.81,1.53l2.39.79c1.2.39,2.39.79,3.58,1.2s2.38.81,3.57,1.23q2.33.81,4.64,1.65t4.83,1.77l.15.06c1.51.56,3,1.12,4.5,1.7s3.11,1.2,4.66,1.82q4.64,1.81,9.22,3.74l4.56,1.92q4.54,1.94,9,3.94c1.3.57,2.59,1.16,3.88,1.75l3.85,1.77c1.28.59,2.56,1.19,3.83,1.8l3.2,1.52,1.23.59c1.49.71,3,1.43,4.43,2.16l7.29,3.63,1.44.73,4.3,2.22,4,2.09q3.57,1.88,7.07,3.78l.15.08,3.33,1.82c1.16.63,2.31,1.27,3.45,1.91l4,2.26c1.77,1,3.53,2,5.26,3q3.91,2.25,7.69,4.49c.94.55,1.86,1.1,2.78,1.66,2.31,1.38,4.59,2.75,6.82,4.11l2.9,1.79c1.51.92,3,1.85,4.46,2.77l3.41,2.15.55.35q2.88,1.82,5.65,3.62c9.27,6,17.65,11.68,25,16.83.72.51,1.43,1,2.12,1.5q3.48,2.46,6.62,4.72l3,2.22,2.87,2.11,1.68,1.25q2.92,2.18,5.4,4.06c.58.43,1.14.86,1.67,1.27,2.68,2,4.89,3.77,6.59,5.13l.72.57,1,.77c.3.23.57.45.81.65l.44.35.75.61c0,.16,0,.32.08.49C527.24,234.67,527.28,235.05,527.31,235.45Z"/><path class="cls-3" d="M520.4,249h0l-1,.66a7.53,7.53,0,0,1-1.71.77c-.44.14-1,.29-1.67.46h-.08c-6.85,1.72-25.6,4.44-63.32-4.78-2.44-.82-50-13.07-93.61-25.57l-.47-.14-.68-.2c-6.28-1.8-12.46-3.61-18.41-5.38l-.06,0-.06,0-2.29-.69h0L329.84,212l-.72-.25h0l-.16-.06-.22-.07-.51-.17-.29-.1h0c-.16-.06-.32-.12-.5-.17l-1.1-.36-.08,0c-7.15-2.29-24.16-8-45.37-10.77-117-15.23-118.54,78.3-118.28,90,0,0,0,.05,0,.16A79.78,79.78,0,0,0,165,305.42a.52.52,0,0,0,0,.11c6.65,32.3,30.34,104.53,109.83,112.89-36.26,5.51-46.23,4.81-85.66-.12a25.61,25.61,0,0,1-2.73-.49A183.22,183.22,0,0,1,85.37,354a180.69,180.69,0,0,1-20.84-32.7c29.19-301.1,462.78-85.82,462.78-85.82C527.61,239.5,526.5,244.8,520.4,249Z"/><path class="cls-4" d="M525.22,227S490.06,66.35,370.83,3.29C357.38-2.83,344.6.23,337.6,7.23c0,0-15,13,1,35,3.9,5.85,84.1,68.36-3.34,163.06a5.58,5.58,0,0,0,2.68,9.18C382,226,548.21,287,525.22,227Z"/><path class="cls-5" d="M354.6,327.23a92,92,0,0,1-79.77,91.19C195.34,410.06,171.65,337.83,165,305.53c5.76,23,25.07,63,89.6,58.7,0,0,30.17,0,42.25-28.11a53.37,53.37,0,0,0,.3-41c-5.64-13.92-18.1-29.87-45-29.87,0,0-17.95-.57-28.47,15.06a26.12,26.12,0,0,0,5.17,34.65l.27.22a2.09,2.09,0,0,1-1.84,3.65c-26-6.79-27.63-32.08-27.63-32.08,0-33.5,29.41-45.18,29.41-45.18a93.58,93.58,0,0,1,15.05-4.45A92.08,92.08,0,0,1,354.6,327.23Z"/><text class="cls-6" transform="translate(1.5 593.71)"><tspan class="cls-7">A</tspan><tspan x="104.4" y="0">GEMO</tspan></text></g></g></svg>