<svg width="65" height="57" viewBox="0 0 65 57" fill="none" xmlns="http://www.w3.org/2000/svg">
<path d="M64.9622 31.5612L64.861 31.4789L64.8016 31.4316C64.7692 31.4046 64.7327 31.3749 64.6922 31.3439L64.5572 31.24L64.46 31.163C64.2304 30.9795 63.932 30.7473 63.5702 30.4706C63.4986 30.4152 63.423 30.3572 63.3447 30.2991C63.1215 30.1291 62.8784 29.9464 62.6156 29.7511L62.3887 29.5824L62.0012 29.2976L61.5894 28.9979C61.3068 28.7936 61.0088 28.5813 60.6956 28.3608C60.6024 28.2933 60.5065 28.2258 60.4093 28.1583C59.4183 27.4632 58.2868 26.6951 57.0338 25.8866C56.7844 25.7246 56.5301 25.5617 56.2709 25.398L56.1966 25.3507L55.7362 25.0605C55.5377 24.9363 55.3379 24.8108 55.134 24.6866L54.7425 24.445C54.4414 24.2614 54.1335 24.0765 53.8216 23.8902C53.6974 23.8146 53.5732 23.7404 53.4462 23.6661C53.106 23.4646 52.7599 23.2626 52.4079 23.0601C52.1743 22.9251 51.9367 22.7901 51.6977 22.6551L51.1576 22.3501C51.0037 22.2637 50.8484 22.1773 50.6918 22.0923L50.2422 21.8466L50.2219 21.8358C49.9078 21.6639 49.5896 21.4938 49.2673 21.3256L48.7272 21.0435L48.1466 20.7438L47.9522 20.6453L46.9679 20.1553C46.7694 20.0567 46.571 19.9596 46.3698 19.8637L46.2037 19.7841L45.7716 19.5789C45.6001 19.4966 45.4273 19.4156 45.2545 19.3359L44.7347 19.097C44.5605 19.0174 44.3863 18.9377 44.2108 18.8608C43.8084 18.6808 43.4033 18.5035 42.9956 18.329C42.7903 18.239 42.5851 18.1526 42.3799 18.0698C41.9676 17.897 41.5526 17.7288 41.135 17.565C40.9257 17.4813 40.7164 17.4003 40.5058 17.3193C40.2951 17.2383 40.1007 17.1654 39.8982 17.0898L39.8779 17.0817C39.6601 17.0008 39.4427 16.9211 39.2258 16.8428C39.0088 16.7645 38.8 16.6903 38.5993 16.6201C38.4386 16.5634 38.2779 16.5094 38.1172 16.4541C37.9566 16.3987 37.7959 16.3447 37.6339 16.2921L37.3112 16.1855C37.0951 16.1153 36.8786 16.0464 36.6617 15.9789C36.5537 15.9438 36.4457 15.9101 36.3363 15.8777L36.0109 15.7792L35.6842 15.682C35.5343 15.6374 35.3858 15.5942 35.2359 15.547C35.1153 15.5119 34.9951 15.4782 34.8754 15.4458C34.7525 15.4107 34.6283 15.3769 34.5041 15.3445C34.3447 15.3 34.1854 15.2581 34.0247 15.2095L33.7128 15.1299C33.4941 15.0732 33.2727 15.0192 33.0526 14.9666L32.7218 14.8883C32.5773 14.8545 32.4328 14.8208 32.2884 14.7898C32.1007 14.7466 31.913 14.7061 31.7253 14.6669C31.6146 14.6426 31.5039 14.6197 31.3932 14.5981L31.0597 14.5306C30.8868 14.4968 30.7127 14.4631 30.5385 14.4321C30.3913 14.4037 30.2441 14.3781 30.097 14.3524L30.0159 14.3376L29.9309 14.3241L29.7256 14.289L29.3921 14.235L29.299 14.2201L29.2045 14.2053H29.1788L28.8818 14.1607L28.4672 14.1027C28.3322 14.0838 28.1972 14.0649 28.0541 14.0487C27.9677 14.0366 27.8813 14.0271 27.7948 14.0163C27.6207 13.9961 27.4478 13.9758 27.2737 13.9583C27.1224 13.9421 26.9699 13.9259 26.8173 13.9124H26.8092H26.7687H26.739H26.7187C26.5567 13.8962 26.3947 13.8827 26.2326 13.8705C26.1611 13.8705 26.0882 13.8584 26.0166 13.8543L25.7115 13.8327C25.6439 13.8327 25.5764 13.8233 25.5076 13.8206H25.4293H25.3388C25.2713 13.8206 25.2038 13.8125 25.1363 13.8098C25.0255 13.8098 24.9148 13.7976 24.8028 13.7936H24.6097L24.318 13.7841L23.8846 13.7747H23.3729H22.9854C22.8503 13.7747 22.7275 13.7747 22.5992 13.7747C22.4925 13.7747 22.3845 13.7747 22.2765 13.7841C22.2292 13.7841 22.182 13.7841 22.1347 13.7841H22.0699L21.8269 13.7949C21.6991 13.8003 21.5708 13.8071 21.4421 13.8152L21.199 13.83H21.1464C21.0532 13.83 20.9614 13.8422 20.8696 13.8503H20.8088H20.7764H20.7683C20.6873 13.8557 20.6063 13.8624 20.5253 13.8705C20.3565 13.884 20.1891 13.9016 20.0216 13.9191H19.9919L19.7327 13.9488C19.5977 13.9637 19.4559 13.9812 19.3168 13.9988L19.0765 14.0312L18.7727 14.0743L18.6795 14.0892C18.6134 14.0986 18.5445 14.1081 18.4797 14.1202H18.4432L18.3406 14.1364L18.0611 14.1823L17.7762 14.235L17.4954 14.289C17.3685 14.3133 17.2415 14.3389 17.1146 14.3673L16.9891 14.3929H16.9607L16.7325 14.4428L16.692 14.4523C16.503 14.4955 16.314 14.54 16.1249 14.5873L15.8643 14.6548C15.8022 14.6696 15.7401 14.6858 15.6793 14.7034C15.5893 14.7277 15.4962 14.7533 15.3999 14.7803L15.3553 14.7925L15.0299 14.8869C15.016 14.8897 15.0025 14.8938 14.9894 14.8991L14.9408 14.9139C14.8382 14.9436 14.7369 14.9747 14.6356 15.0071C14.4061 15.0791 14.177 15.1547 13.9484 15.2338C13.9052 15.2473 13.862 15.2622 13.8134 15.2784L13.7742 15.2919C13.6905 15.3202 13.6068 15.3513 13.5244 15.381C13.415 15.4201 13.307 15.4606 13.1977 15.5025H13.1841L12.9047 15.6104H12.8912L12.7089 15.6833C12.3812 15.8156 12.0558 15.9551 11.7327 16.1018L11.6246 16.1504L11.5693 16.176L11.3506 16.2786C11.2317 16.3353 11.1116 16.392 10.9941 16.4514C10.9144 16.4892 10.8348 16.5297 10.7565 16.5702L10.7092 16.5945C10.6444 16.6269 10.5742 16.6592 10.5148 16.6943C10.4554 16.7294 10.3798 16.7605 10.3217 16.7956L10.1286 16.8995C10.0638 16.9333 9.99359 16.9684 9.93553 17.0048C9.80861 17.075 9.68169 17.1398 9.55612 17.2208C9.43055 17.3018 9.30093 17.3693 9.17401 17.4448C9.08399 17.4961 8.99758 17.5488 8.91476 17.6028L8.64472 17.7715L8.62852 17.7823L8.45434 17.8943C8.35443 17.9578 8.25451 18.0293 8.15459 18.0914L7.8562 18.2925C7.75088 18.3641 7.64691 18.437 7.54295 18.5112C7.46463 18.5665 7.38632 18.6219 7.30936 18.6786L7.11898 18.8136L7.08252 18.8406C7.00151 18.8999 6.9205 18.9607 6.84083 19.0228C6.6167 19.1915 6.39526 19.367 6.17383 19.5465C6.07121 19.6288 5.96994 19.7125 5.86868 19.7976C5.76741 19.8826 5.62834 19.9987 5.50952 20.1026C5.3907 20.2066 5.27188 20.3105 5.15441 20.4158C5.0572 20.5022 4.96133 20.5899 4.86412 20.679C4.43385 21.0758 4.00853 21.4925 3.58816 21.9289C3.37888 22.1463 3.17095 22.3703 2.96436 22.6038C2.84689 22.7388 2.73077 22.8644 2.61466 22.998C2.53094 23.0938 2.44723 23.1897 2.36487 23.2868L2.35136 23.303C2.28115 23.384 2.21634 23.4664 2.14208 23.5514L2.10292 23.6C2.06512 23.6432 2.03001 23.685 1.99626 23.735C1.93415 23.8092 1.87339 23.8835 1.81263 23.9591C1.77347 24.0063 1.73567 24.0535 1.69786 24.1021C1.61415 24.2061 1.53043 24.3114 1.44807 24.418C1.36571 24.5246 1.28739 24.6259 1.20773 24.7312L1.10376 24.8661C1.0214 24.9741 0.940388 25.0835 0.859375 25.1928C1.54123 22.0518 2.68217 18.8756 4.50496 15.9155L4.53196 15.8737C5.7215 14.1783 13.8174 -3.37473 41.432 7.84765C41.4547 7.8557 41.4767 7.86517 41.4982 7.87599L41.5292 7.89219C43.8503 9.08408 62.1011 21.1906 64.7408 30.8026C64.755 30.8571 64.7735 30.9104 64.7962 30.9619C64.8776 31.1535 64.9335 31.355 64.9622 31.5612V31.5612Z" fill="#6970FF"/>
<path d="M64.9905 31.7812C64.9905 31.7812 6.44642 2.72238 2.50514 43.3654C0.632707 39.5933 -0.215196 35.3956 0.046399 31.1927C0.164134 29.1854 0.434964 27.19 0.856529 25.2238C0.937542 25.1145 1.01855 25.0052 1.10092 24.8972L1.20488 24.7622C1.28455 24.6569 1.36421 24.553 1.44522 24.449C1.52624 24.3451 1.6113 24.2371 1.69501 24.1332C1.73282 24.0846 1.77063 24.0373 1.80978 23.9901C1.87054 23.9145 1.9313 23.8403 1.99341 23.766C2.02717 23.7228 2.06227 23.681 2.10008 23.6311L2.13923 23.5825C2.2081 23.4974 2.27426 23.4151 2.34852 23.3341L2.36202 23.3179C2.44438 23.2207 2.5281 23.1249 2.61181 23.029C2.72793 22.8941 2.84405 22.7591 2.96152 22.6349C3.1681 22.4068 3.37603 22.1827 3.58532 21.96C4.00478 21.5244 4.4301 21.1078 4.86127 20.71C4.95849 20.621 5.05435 20.5332 5.15157 20.4468C5.26904 20.3415 5.38785 20.2363 5.50667 20.1337C5.62549 20.0311 5.74566 19.9285 5.86583 19.8286C5.986 19.7287 6.06836 19.6599 6.17098 19.5775C6.39242 19.398 6.61385 19.2225 6.83799 19.0538C6.91765 18.9917 6.99866 18.931 7.07968 18.8716L7.11613 18.8446L7.30651 18.7096C7.38347 18.6529 7.46179 18.5976 7.5401 18.5422C7.64407 18.468 7.74803 18.3951 7.85335 18.3236L8.15175 18.1224C8.25166 18.055 8.35158 17.9875 8.4515 17.9254L8.62567 17.8133L8.64188 17.8025L8.91192 17.6338C9.00193 17.5798 9.08835 17.5272 9.17116 17.4759C9.29808 17.4003 9.425 17.3247 9.55327 17.2518C9.68154 17.1789 9.80576 17.106 9.93268 17.0358C9.99614 16.9994 10.0677 16.9643 10.1258 16.9306L10.3188 16.8266C10.3823 16.7915 10.4539 16.7591 10.5119 16.7254C10.57 16.6916 10.6469 16.6579 10.7064 16.6255L10.7536 16.6012C10.8319 16.5607 10.9116 16.5202 10.9913 16.4824C11.1087 16.423 11.2289 16.3663 11.3477 16.3096L11.5664 16.2071L11.6218 16.1814L11.7298 16.1328C12.053 15.9852 12.3784 15.8458 12.706 15.7144L12.8883 15.6415H12.9018L13.1813 15.5335H13.1948C13.3042 15.4917 13.4122 15.4512 13.5216 15.412C13.6039 15.3823 13.6876 15.3513 13.7713 15.3229L13.8105 15.3094C13.8524 15.2932 13.8956 15.2784 13.9455 15.2649C14.1733 15.1848 14.4024 15.1092 14.6328 15.0381C14.7341 15.0057 14.8353 14.9747 14.9379 14.945L14.9865 14.9301C14.9996 14.9249 15.0132 14.9208 15.0271 14.918L15.3525 14.8235L15.397 14.8113C15.487 14.7844 15.5802 14.7587 15.6765 14.7344C15.7373 14.7169 15.7994 14.7007 15.8615 14.6858L16.1221 14.6183C16.3111 14.5711 16.5001 14.5265 16.6892 14.4833L16.7297 14.4739L16.9579 14.4239H16.9862L17.1118 14.3983C17.2387 14.37 17.3656 14.3443 17.4925 14.32L17.7734 14.266L18.0583 14.2134L18.3378 14.1675L18.4404 14.1513H18.4769C18.543 14.1391 18.6119 14.1297 18.6767 14.1202L18.7699 14.1054L19.0736 14.0622L19.314 14.0298C19.449 14.0123 19.5908 13.9947 19.7299 13.9799L19.9891 13.9502H20.0188C20.1862 13.9326 20.3537 13.9151 20.5224 13.9016C20.6034 13.8935 20.6845 13.8867 20.7655 13.8813H20.7736H20.806H20.8667C20.9586 13.8732 21.0504 13.8665 21.1435 13.8611H21.1962L21.4392 13.8462C21.567 13.8381 21.6953 13.8314 21.824 13.826L22.0671 13.8152H22.1319C22.1791 13.8152 22.2264 13.8152 22.2737 13.8152C22.3817 13.8152 22.4897 13.8071 22.5964 13.8057C22.7314 13.8057 22.8543 13.8057 22.9825 13.8057H23.37H23.8818L24.3152 13.8152L24.6068 13.8246H24.7999C24.912 13.8246 25.0227 13.8341 25.1334 13.8408C25.2009 13.8408 25.2684 13.8408 25.336 13.8516H25.4264H25.5047C25.5736 13.8516 25.6398 13.8584 25.7086 13.8638L26.0138 13.8854C26.0853 13.8854 26.1582 13.8948 26.2298 13.9016C26.3918 13.9137 26.5538 13.9272 26.7159 13.9434H26.7348H26.7645H26.805H26.8131C26.9657 13.9569 27.1182 13.9731 27.2695 13.9893C27.4436 14.0069 27.6165 14.0271 27.7906 14.0474C27.8771 14.0581 27.9635 14.0676 28.0499 14.0797C28.1849 14.0959 28.3199 14.1148 28.4631 14.1337L28.8776 14.1918L29.1746 14.2363H29.2003L29.2948 14.2512L29.388 14.266L29.7215 14.32L29.9267 14.3551L30.0118 14.3686L30.0928 14.3835C30.2399 14.4091 30.3871 14.4347 30.5343 14.4631C30.7085 14.4941 30.8826 14.5279 31.0555 14.5616L31.389 14.6291C31.4997 14.6507 31.6104 14.6737 31.7211 14.698C31.9088 14.7371 32.0965 14.7776 32.2842 14.8208C32.4286 14.8518 32.5731 14.8856 32.7176 14.9193L33.0484 14.9976C33.2685 15.0503 33.4899 15.1043 33.7086 15.1609L34.0205 15.2406C34.1812 15.2824 34.3405 15.3243 34.4999 15.3756C34.6241 15.408 34.7483 15.4417 34.8712 15.4768C34.9941 15.5119 35.1115 15.5429 35.2317 15.578C35.3816 15.6199 35.5301 15.6631 35.68 15.713L36.0067 15.8102L36.3321 15.9087C36.4415 15.9411 36.5495 15.9749 36.6575 16.01C36.8753 16.0775 37.0918 16.1463 37.307 16.2165L37.6297 16.3231C37.7917 16.3758 37.9524 16.4298 38.113 16.4851C38.2737 16.5405 38.4344 16.5945 38.5951 16.6511C38.8048 16.724 39.0136 16.7983 39.2216 16.8739C39.4295 16.9495 39.6469 17.0291 39.8737 17.1128L39.894 17.1209C40.0979 17.1965 40.299 17.2721 40.5016 17.3504C40.7041 17.4286 40.9215 17.5123 41.1308 17.596C41.5475 17.7589 41.9625 17.9272 42.3757 18.1009C42.5809 18.1854 42.7861 18.2718 42.9914 18.36C43.4009 18.5346 43.806 18.7119 44.2066 18.8918C44.3821 18.9688 44.5563 19.0484 44.7305 19.1281L45.2503 19.367C45.4231 19.4466 45.5959 19.5276 45.7674 19.6099L46.1995 19.8151L46.3656 19.8948C46.5668 19.9906 46.7706 20.0878 46.9637 20.1863L47.948 20.6763L48.1425 20.7748L48.7231 21.0745L49.2631 21.3566C49.5845 21.5258 49.9027 21.6959 50.2177 21.8668L50.238 21.8776L50.6876 22.1233C50.8442 22.2083 50.9995 22.2947 51.1534 22.3811L51.6935 22.6862C51.9325 22.8212 52.1702 22.9561 52.4037 23.0911C52.7566 23.2936 53.1027 23.4956 53.4421 23.6972C53.569 23.7714 53.6932 23.8457 53.8174 23.9213C54.1293 24.1075 54.4372 24.2925 54.7383 24.476L55.1298 24.7177C55.3337 24.8418 55.5349 24.9674 55.732 25.0916L56.1924 25.3818L56.2667 25.429C56.526 25.5928 56.7802 25.7557 57.0296 25.9176C58.2812 26.7275 59.4127 27.4942 60.4051 28.1894C60.5023 28.2582 60.5982 28.3244 60.6914 28.3919C61.0046 28.6132 61.3026 28.8256 61.5852 29.029L61.997 29.3286L62.3845 29.6134L62.6114 29.7822C62.8751 29.9783 63.1182 30.161 63.3405 30.3302C63.4188 30.3882 63.4944 30.4463 63.566 30.5016C63.9278 30.7716 64.2262 31.0105 64.4558 31.1941L64.553 31.271L64.688 31.375C64.7285 31.406 64.765 31.4357 64.7974 31.4627L64.8568 31.5099L64.9581 31.5923C64.9581 31.6139 64.9648 31.6355 64.9689 31.6584C64.981 31.676 64.9864 31.7273 64.9905 31.7812Z" fill="#DF6FFF"/>
<path opacity="0.75" d="M64.0572 33.6103L63.9222 33.6993C63.8498 33.7435 63.7723 33.7784 63.6913 33.8033C63.6319 33.8222 63.5562 33.8424 63.4658 33.8654H63.455C62.5301 34.0975 59.9984 34.4647 54.9054 33.2202C54.576 33.1095 48.1543 31.4559 42.266 29.7687L42.2026 29.7498L42.1108 29.7228C41.2628 29.4798 40.4284 29.2355 39.625 28.9966H39.6169H39.6088L39.2996 28.9034L38.3275 28.6159L38.2302 28.5822L38.2086 28.5741L38.1789 28.5646L38.1101 28.5417L38.0709 28.5282C38.0493 28.5201 38.0277 28.512 38.0034 28.5052L37.8549 28.4567H37.8441C36.8787 28.1475 34.582 27.3768 31.7182 27.0029C15.9206 24.9471 15.7127 37.572 15.7478 39.1512C15.7478 39.1512 15.7478 39.158 15.7478 39.1728C15.788 39.8659 15.8952 40.5535 16.0678 41.2259C16.0673 41.2309 16.0673 41.2358 16.0678 41.2408C16.9657 45.6007 20.1644 55.3504 30.8972 56.4788C26.0013 57.2226 24.6552 57.1281 19.3313 56.4626C19.2073 56.4473 19.0842 56.4252 18.9627 56.3965C13.5795 55.1307 8.77591 52.0982 5.31873 47.7833C4.22512 46.4172 3.28174 44.9374 2.50488 43.3694C6.44616 2.72645 64.9902 31.7853 64.9902 31.7853C65.0307 32.3279 64.8808 33.0433 64.0572 33.6103Z" fill="#F97DFF"/>
<path opacity="0.75" d="M64.7065 30.6406C64.7065 30.6406 59.9592 8.95584 43.8619 0.4439C42.0445 -0.382187 40.3203 0.0308565 39.3751 0.975728C39.3751 0.975728 37.3498 2.73049 39.5101 5.70009C40.0367 6.48973 50.8641 14.9274 39.0578 27.7102C38.9697 27.8058 38.9078 27.9225 38.8782 28.0491C38.8486 28.1757 38.8522 28.3077 38.8888 28.4325C38.9253 28.5572 38.9936 28.6704 39.0868 28.7609C39.1801 28.8515 39.2952 28.9164 39.421 28.9493C45.3674 30.5057 67.8107 38.7395 64.7065 30.6406Z" fill="url(#paint0_linear_1172_1301)"/>
<path d="M41.6712 44.1699C41.6714 47.1776 40.5797 50.0832 38.5988 52.347C36.6179 54.6108 33.8824 56.079 30.9005 56.4788C20.1676 55.3504 16.969 45.6007 16.0684 41.2408C16.8461 44.3453 19.4534 49.7446 28.1663 49.1642C28.1663 49.1642 32.2399 49.1642 33.871 45.3699C34.2423 44.4956 34.4371 43.5566 34.444 42.6068C34.451 41.657 34.27 40.7152 33.9115 39.8356C33.1499 37.9567 31.4676 35.8037 27.8355 35.8037C27.8355 35.8037 25.4051 35.7268 23.9914 37.8365C23.5074 38.564 23.3108 39.4453 23.4398 40.3094C23.5688 41.1736 24.0141 41.9591 24.6895 42.5136L24.7259 42.5433C24.7763 42.5838 24.8112 42.6403 24.8248 42.7035C24.8385 42.7666 24.8301 42.8324 24.801 42.8901C24.7719 42.9478 24.724 42.9937 24.6651 43.0203C24.6062 43.0468 24.54 43.0524 24.4775 43.036C20.9669 42.1195 20.7469 38.7058 20.7469 38.7058C20.7469 34.1839 24.7178 32.6073 24.7178 32.6073C25.3772 32.3506 26.0569 32.1497 26.7499 32.0067C28.5557 31.6373 30.4211 31.6739 32.211 32.1138C34.0009 32.5538 35.6705 33.3861 37.099 34.5505C38.5276 35.715 39.6793 37.1824 40.4707 38.8465C41.2622 40.5107 41.6736 42.3299 41.6752 44.1726L41.6712 44.1699Z" fill="#FCBFFF"/>
<defs>
<linearGradient id="paint0_linear_1172_1301" x1="51.7566" y1="34.1515" x2="51.7566" y2="-0.000189311" gradientUnits="userSpaceOnUse">
<stop stop-color="#6970FF"/>
<stop offset="1" stop-color="#DF6FFF"/>
</linearGradient>
</defs>
</svg>
