<?xml version="1.0" encoding="utf-8"?>
<!-- Generator: Adobe Illustrator 26.0.1, SVG Export Plug-In . SVG Version: 6.00 Build 0)  -->
<svg version="1.1" id="Calque_1" xmlns="http://www.w3.org/2000/svg" xmlns:xlink="http://www.w3.org/1999/xlink" x="0px" y="0px"
	 viewBox="0 0 630.7 85" style="enable-background:new 0 0 630.7 85;" xml:space="preserve">
<style type="text/css">
	.st0{fill:#ADFFE2;}
	.st1{fill:#DF6FFF;}
	.st2{fill:#2D1C78;}
	.st3{fill:#FFFFFF;}
</style>
<g>
	<path class="st0" d="M385.8,86.5H8.9l1-0.4C73.1,61,123.2,24.7,196.7,24.5h0.6c20.7,0,41.2,2.9,61.1,8.6
		c24.7,6.9,47.5,17.2,70.5,28C347.3,69.7,365.9,78.7,385.8,86.5z"/>
	<path class="st1" d="M625,86.5H279.6c17-8.2,33.2-17.1,49.4-25.4c26.1-13.5,52.1-25.7,81.3-32c10.8-2.4,21.8-3.8,32.8-4.3
		c3-0.1,6.1-0.2,9.2-0.2C520.3,24.5,568.3,59.1,625,86.5z"/>
	<path class="st2" d="M596.5,86.4l0.2,0.1H125.9c50.8-12.1,90.6-35.6,132.5-53.4c30.3-12.9,61.7-22.9,99.1-23.6c1.2,0,2.5,0,3.8,0
		c30.4,0,56.8,6.2,81.8,15.2C493.1,42.8,537.4,72.3,596.5,86.4z"/>
</g>
<path class="st3" d="M602.3,86.5h-608c5.3,0,10.5-0.1,15.5-0.4c79-4,131-38,186.9-61.6c30.9-13.1,63-23,101.6-23
	c20,0,39.9,2.7,59.2,8c18.4,5,35.6,11.9,52.8,19.5c54.4,24.2,106.8,55.9,186.2,57.4C598.4,86.5,600.3,86.5,602.3,86.5z"/>
</svg>
