<svg id="Calque_1" data-name="Calque 1" xmlns="http://www.w3.org/2000/svg" viewBox="0 0 630.72 85"><defs><style>.cls-1{fill:#adffe2;}.cls-2{fill:#df6fff;}.cls-3{fill:#2d1c78;}.cls-4{fill:#fff;}</style></defs><path class="cls-1" d="M391.46,85H14.54l1-.39C78.73,59.51,128.87,23.19,202.42,23H203a224.22,224.22,0,0,1,61.11,8.56c24.7,6.89,47.47,17.19,70.52,28C353,68.2,371.59,77.16,391.46,85Z"/><path class="cls-2" d="M630.72,85H285.28c17-8.21,33.16-17.07,49.35-25.44,26.06-13.48,52.09-25.72,81.33-32a197.67,197.67,0,0,1,32.84-4.31c3-.14,6.09-.21,9.2-.21C526,23,574,57.57,630.72,85Z"/><path class="cls-3" d="M602.15,84.94l.23.06H131.62c50.78-12.11,90.59-35.58,132.49-53.44C294.41,18.65,325.79,8.67,363.22,8c1.25,0,2.51,0,3.78,0,30.42,0,56.83,6.18,81.8,15.21C498.82,41.29,543.06,70.8,602.15,84.94Z"/><path class="cls-4" d="M608,85H0q7.94,0,15.53-.39c79-4,131-37.95,186.89-61.61C233.33,9.93,265.45,0,304,0a223.79,223.79,0,0,1,59.22,8C381.59,13,398.87,19.9,416,27.52c54.35,24.24,106.75,55.93,186.19,57.42Q605,85,608,85Z"/></svg>