<svg width="16" height="24" viewBox="0 0 16 24" fill="none" xmlns="http://www.w3.org/2000/svg">
<path fill-rule="evenodd" clip-rule="evenodd" d="M15.7445 15.8612C16.1132 15.45 16.0788 14.8177 15.6676 14.449C15.2564 14.0803 14.6242 14.1148 14.2555 14.5259L8.99999 20.3869L8.99999 1C8.99999 0.447715 8.55228 -3.2555e-07 7.99999 -3.49692e-07C7.44771 -3.73833e-07 6.99999 0.447715 6.99999 1L6.99999 20.3869L1.74451 14.5259C1.3758 14.1148 0.743572 14.0803 0.332386 14.449C-0.0787989 14.8177 -0.113234 15.45 0.255473 15.8612L7.25547 23.6676C7.44516 23.8791 7.71587 24 7.99999 24C8.28411 24 8.55482 23.8791 8.74451 23.6676L15.7445 15.8612Z" fill="#170D42"/>
</svg>
