<svg width="585" height="426" viewBox="0 0 585 426" fill="none" xmlns="http://www.w3.org/2000/svg">
<path fill-rule="evenodd" clip-rule="evenodd" d="M382.805 0.439941H212.51C203.337 0.439941 195.901 7.87551 195.901 17.0492L195.878 25.0717H399.391L399.414 17.0492C399.414 7.87551 391.978 0.439941 382.805 0.439941Z" fill="#EEF2F8"/>
<path fill-rule="evenodd" clip-rule="evenodd" d="M214.388 14.0431C214.388 17.0837 211.923 19.5487 208.882 19.5487C205.841 19.5487 203.376 17.0837 203.376 14.0431C203.376 11.0017 205.841 8.53662 208.882 8.53662C211.923 8.53662 214.388 11.0017 214.388 14.0431Z" fill="#FF4200"/>
<path fill-rule="evenodd" clip-rule="evenodd" d="M234.053 14.0431C234.053 17.0837 231.588 19.5487 228.547 19.5487C225.506 19.5487 223.041 17.0837 223.041 14.0431C223.041 11.0017 225.506 8.53662 228.547 8.53662C231.588 8.53662 234.053 11.0017 234.053 14.0431Z" fill="#FF8E62"/>
<path fill-rule="evenodd" clip-rule="evenodd" d="M253.719 14.0431C253.719 17.0837 251.254 19.5487 248.213 19.5487C245.173 19.5487 242.707 17.0837 242.707 14.0431C242.707 11.0017 245.173 8.53662 248.213 8.53662C251.254 8.53662 253.719 11.0017 253.719 14.0431Z" fill="#009E80"/>
<path fill-rule="evenodd" clip-rule="evenodd" d="M248.213 19.1087C245.419 19.1087 243.147 16.8364 243.147 14.0431C243.147 11.2489 245.419 8.97663 248.213 8.97663C251.007 8.97663 253.279 11.2489 253.279 14.0431C253.279 16.8364 251.007 19.1087 248.213 19.1087ZM248.213 8.09657C244.934 8.09657 242.267 10.7649 242.267 14.0431C242.267 17.3222 244.934 19.9887 248.213 19.9887C251.492 19.9887 254.159 17.3222 254.159 14.0431C254.159 10.7649 251.492 8.09657 248.213 8.09657ZM228.547 19.1087C225.753 19.1087 223.481 16.8364 223.481 14.0431C223.481 11.2489 225.753 8.97663 228.547 8.97663C231.341 8.97663 233.613 11.2489 233.613 14.0431C233.613 16.8364 231.341 19.1087 228.547 19.1087ZM228.547 8.09657C225.269 8.09657 222.601 10.7649 222.601 14.0431C222.601 17.3222 225.269 19.9887 228.547 19.9887C231.826 19.9887 234.493 17.3222 234.493 14.0431C234.493 10.7649 231.826 8.09657 228.547 8.09657ZM208.882 19.1087C206.089 19.1087 203.816 16.8364 203.816 14.0431C203.816 11.2489 206.089 8.97663 208.882 8.97663C211.675 8.97663 213.948 11.2489 213.948 14.0431C213.948 16.8364 211.675 19.1087 208.882 19.1087ZM208.882 8.09657C205.603 8.09657 202.936 10.7649 202.936 14.0431C202.936 17.3222 205.603 19.9887 208.882 19.9887C212.16 19.9887 214.828 17.3222 214.828 14.0431C214.828 10.7649 212.16 8.09657 208.882 8.09657ZM196.319 24.6319L196.341 17.0494C196.341 8.13354 203.595 0.880053 212.51 0.880053H382.805C391.72 0.880053 398.974 8.13354 398.974 17.0485L398.951 24.6319H196.319ZM398 364.159C398 373.075 390.747 380.328 381.831 380.328H211.536C202.62 380.328 195.367 373.075 195.367 364.16L196.317 25.5119H398.95L398 364.159ZM382.805 0H212.51C203.109 0 195.461 7.64863 195.461 17.0485L195.437 25.5119L194.487 364.159C194.487 373.561 202.135 381.208 211.536 381.208H381.831C391.232 381.208 398.88 373.561 398.88 364.16L399.854 17.0494C399.854 7.64863 392.206 0 382.805 0Z" fill="#170D42"/>
<path fill-rule="evenodd" clip-rule="evenodd" d="M232.553 206.136C232.553 206.136 235.547 200.33 242.153 174.259C248.758 148.188 272.883 142.383 272.883 142.383V142.384C276.371 141.271 280.002 140.549 283.714 140.256C283.73 140.254 283.747 140.252 283.764 140.251C284.328 140.208 284.895 140.175 285.463 140.151C285.521 140.148 285.578 140.144 285.636 140.142C286.259 140.116 286.883 140.105 287.509 140.105H291.365C291.366 140.107 291.367 140.108 291.368 140.111L291.398 140.105H291.401C292.433 142.279 294.99 143.822 297.991 143.828C300.99 143.822 303.547 142.279 304.579 140.105H304.582H304.583L304.612 140.111C304.614 140.108 304.615 140.107 304.616 140.105H308.471C309.098 140.105 309.722 140.116 310.345 140.142C310.402 140.144 310.459 140.148 310.518 140.151C311.085 140.175 311.653 140.208 312.217 140.251C312.234 140.252 312.25 140.254 312.267 140.256C315.978 140.549 319.61 141.271 323.099 142.384L323.098 142.383C323.098 142.383 347.223 148.188 353.828 174.259C360.434 200.33 363.426 206.136 363.426 206.136H340.416C340.416 206.136 336.403 187.761 329.299 177.258C329.819 186.067 331.443 200.198 331.443 200.198H264.538C264.538 200.198 266.162 186.067 266.682 177.258C259.577 187.761 255.564 206.136 255.564 206.136H232.553Z" fill="#409B81"/>
<path fill-rule="evenodd" clip-rule="evenodd" d="M329.638 177.029C336.189 186.711 340.165 203.215 340.744 205.726H362.787C361.908 203.711 358.935 196.085 353.432 174.36C346.961 148.824 323.241 142.839 323.001 142.781C319.486 141.661 315.874 140.952 312.235 140.664C311.625 140.617 311.063 140.585 310.5 140.561C310.496 140.56 310.416 140.556 310.413 140.556L310.328 140.552C309.711 140.526 309.092 140.515 308.471 140.515H304.832C303.631 142.779 300.979 144.232 297.992 144.238C295.003 144.232 292.351 142.779 291.149 140.515H287.509C286.889 140.515 286.27 140.526 285.653 140.552L285.567 140.556C285.565 140.556 285.544 140.557 285.523 140.558C285.503 140.559 285.483 140.561 285.481 140.561C284.918 140.585 284.356 140.617 283.796 140.66C280.107 140.952 276.494 141.662 273.008 142.775C272.738 142.839 249.033 148.773 242.55 174.36C237.045 196.085 234.072 203.711 233.194 205.726H255.237C255.816 203.215 259.793 186.711 266.343 177.029C266.363 176.999 266.391 176.982 266.42 176.965C266.433 176.958 266.446 176.95 266.458 176.941L267.322 167.841C267.344 167.615 267.561 167.454 267.769 167.472C267.994 167.493 268.16 167.693 268.139 167.919L266.662 183.474C266.658 183.527 266.642 183.575 266.62 183.62C266.031 190.503 265.21 197.902 264.997 199.788H330.984C330.777 197.953 329.996 190.908 329.411 184.191C329.411 184.19 329.411 184.19 329.411 184.189C329.411 184.189 329.41 184.188 329.41 184.187L327.782 167.909C327.76 167.684 327.924 167.482 328.149 167.46C328.366 167.437 328.575 167.602 328.598 167.827L329.507 176.93C329.516 176.935 329.526 176.94 329.535 176.945C329.573 176.967 329.612 176.989 329.638 177.029ZM354.225 174.158C360.729 199.825 363.762 205.889 363.792 205.947C363.857 206.076 363.851 206.226 363.777 206.349C363.703 206.471 363.57 206.545 363.427 206.545H340.416C340.223 206.545 340.057 206.411 340.016 206.222C339.977 206.048 336.264 189.278 329.808 178.805C330.386 187.251 331.746 199.24 331.845 200.103L331.85 200.151C331.863 200.267 331.826 200.384 331.749 200.472C331.671 200.558 331.56 200.608 331.443 200.608H264.538C264.421 200.608 264.31 200.558 264.233 200.472C264.155 200.384 264.118 200.267 264.131 200.151C264.131 200.147 264.133 200.131 264.136 200.102C264.235 199.233 265.596 187.248 266.173 178.805C259.717 189.278 256.003 206.048 255.965 206.222C255.924 206.411 255.758 206.545 255.564 206.545H232.554C232.411 206.545 232.278 206.471 232.204 206.349C232.129 206.226 232.123 206.076 232.189 205.947C232.219 205.889 235.253 199.825 241.756 174.158C248.346 148.148 272.543 142.043 272.787 141.984C276.306 140.862 279.982 140.139 283.681 139.848C284.301 139.798 284.873 139.766 285.446 139.741L285.625 139.732C286.248 139.707 286.878 139.695 287.509 139.695H291.398C291.558 139.695 291.704 139.786 291.772 139.929C292.776 142.043 295.218 143.413 297.992 143.418C300.764 143.413 303.205 142.043 304.208 139.929C304.276 139.786 304.421 139.695 304.58 139.695H308.471C309.103 139.695 309.733 139.707 310.361 139.732L310.467 139.738C311.108 139.766 311.68 139.798 312.249 139.843C316.002 140.14 319.677 140.862 323.224 141.993H323.223C324.81 142.37 347.77 148.681 354.225 174.158Z" fill="#170D42"/>
<path fill-rule="evenodd" clip-rule="evenodd" d="M237.189 232.414H291.603C293.13 232.414 294.369 231.176 294.369 229.647C294.369 228.119 293.13 226.88 291.603 226.88H237.189C235.661 226.88 234.422 228.119 234.422 229.647C234.422 231.176 235.661 232.414 237.189 232.414ZM237.189 242.568H313.583C315.111 242.568 316.35 241.329 316.35 239.801C316.35 238.274 315.111 237.034 313.583 237.034H237.189C235.662 237.034 234.422 238.274 234.422 239.801C234.422 241.329 235.662 242.568 237.189 242.568Z" fill="#EEF2F8"/>
<path fill-rule="evenodd" clip-rule="evenodd" d="M228.406 132.23C228.406 129.485 230.64 127.251 233.385 127.251H362.27C365.016 127.251 367.249 129.485 367.249 132.23V216.292H228.406V132.23ZM227.526 216.741V245.436C227.526 248.667 230.155 251.296 233.385 251.296H362.27C365.501 251.296 368.129 248.667 368.129 245.436V132.23C368.129 129 365.501 126.371 362.27 126.371H233.385C230.155 126.371 227.526 129 227.526 132.23V216.724C227.526 216.726 227.526 216.729 227.526 216.732C227.526 216.735 227.526 216.738 227.526 216.741ZM228.406 217.172H367.249V245.436C367.249 248.182 365.016 250.416 362.27 250.416H233.385C230.64 250.416 228.406 248.182 228.406 245.436V217.172Z" fill="#170D42"/>
<path fill-rule="evenodd" clip-rule="evenodd" d="M25.3688 206.005H79.7826C81.3104 206.005 82.5495 204.767 82.5495 203.239C82.5495 201.711 81.3104 200.472 79.7826 200.472H25.3688C23.841 200.472 22.6019 201.711 22.6019 203.239C22.6019 204.767 23.841 206.005 25.3688 206.005ZM25.3693 216.159H101.764C103.291 216.159 104.531 214.92 104.531 213.392C104.531 211.864 103.291 210.625 101.764 210.625H25.3693C23.8416 210.625 22.6025 211.864 22.6025 213.392C22.6025 214.92 23.8416 216.159 25.3693 216.159Z" fill="#EEF2F8"/>
<path fill-rule="evenodd" clip-rule="evenodd" d="M16.5861 105.821C16.5861 103.075 18.8196 100.842 21.5654 100.842H150.45C153.196 100.842 155.429 103.075 155.429 105.821V189.883H16.5861V105.821ZM15.706 190.332V219.027C15.706 222.257 18.3347 224.886 21.5654 224.886H150.45C153.681 224.886 156.309 222.257 156.309 219.027V105.821C156.309 102.59 153.681 99.9617 150.45 99.9617H21.5654C18.3347 99.9617 15.706 102.59 15.706 105.821V190.314C15.7059 190.317 15.7059 190.319 15.7059 190.323C15.7059 190.326 15.7059 190.329 15.706 190.332ZM16.5861 190.763H155.429V219.027C155.429 221.772 153.196 224.006 150.45 224.006H21.5654C18.8196 224.006 16.5861 221.772 16.5861 219.027V190.763Z" fill="#170D42"/>
<path fill-rule="evenodd" clip-rule="evenodd" d="M105.568 147.006H66.4485C63.1008 147.006 60.2116 149.355 59.5286 152.633L54.8406 175.126C53.9262 179.516 57.2766 183.637 61.7604 183.637H110.256C114.74 183.637 118.09 179.516 117.176 175.126L112.488 152.633C111.805 149.355 108.916 147.006 105.568 147.006Z" fill="#FF8E62"/>
<path fill-rule="evenodd" clip-rule="evenodd" d="M99.9217 152.895C99.9217 153.138 100.119 153.335 100.362 153.335C100.605 153.335 100.802 153.138 100.802 152.895V147.446H105.568C108.691 147.446 111.42 149.665 112.057 152.722L116.745 175.216C117.154 177.177 116.663 179.195 115.399 180.75C114.135 182.305 112.26 183.197 110.255 183.197H61.7603C59.7565 183.197 57.882 182.305 56.6173 180.75C55.3536 179.195 54.8625 177.177 55.2708 175.216L59.9589 152.722C60.5969 149.665 63.326 147.446 66.4484 147.446H71.2135V152.895C71.2135 153.138 71.4107 153.335 71.6536 153.335C71.8964 153.335 72.0936 153.138 72.0936 152.895V147.446H99.9217V152.895ZM100.802 146.566V142.207C100.802 135.276 95.1623 129.635 88.2301 129.635H83.785C76.8529 129.635 71.2135 135.276 71.2135 142.207V146.566H66.4484C62.9106 146.566 59.8198 149.08 59.0973 152.543L54.4101 175.036C53.9464 177.258 54.5026 179.544 55.9344 181.305C57.3671 183.067 59.4898 184.077 61.7603 184.077H110.255C112.526 184.077 114.649 183.067 116.081 181.305C117.514 179.544 118.069 177.258 117.606 175.036L112.918 152.543C112.197 149.08 109.106 146.566 105.568 146.566H100.802ZM72.0936 146.566H99.9217V142.207C99.9217 135.76 94.6774 130.515 88.2301 130.515H83.785C77.3377 130.515 72.0936 135.76 72.0936 142.207V146.566Z" fill="#170D42"/>
<path fill-rule="evenodd" clip-rule="evenodd" d="M451.432 206.607H505.845C507.373 206.607 508.612 205.368 508.612 203.841C508.612 202.313 507.373 201.074 505.845 201.074H451.432C449.904 201.074 448.665 202.313 448.665 203.841C448.665 205.368 449.904 206.607 451.432 206.607ZM451.432 216.761H527.826C529.353 216.761 530.592 215.522 530.592 213.994C530.592 212.466 529.353 211.227 527.826 211.227H451.432C449.904 211.227 448.665 212.466 448.665 213.994C448.665 215.522 449.904 216.761 451.432 216.761Z" fill="#EEF2F8"/>
<path fill-rule="evenodd" clip-rule="evenodd" d="M442.649 106.423C442.649 103.678 444.882 101.444 447.628 101.444H576.513C579.258 101.444 581.492 103.678 581.492 106.423V190.485H442.649V106.423ZM441.769 190.934V219.629C441.769 222.859 444.397 225.488 447.628 225.488H576.513C579.743 225.488 582.372 222.859 582.372 219.629V106.423C582.372 103.193 579.743 100.564 576.513 100.564H447.628C444.397 100.564 441.769 103.193 441.769 106.423V190.915C441.769 190.919 441.769 190.921 441.769 190.925C441.769 190.928 441.769 190.93 441.769 190.934ZM442.649 191.365H581.492V219.629C581.492 222.375 579.258 224.608 576.513 224.608H447.628C444.882 224.608 442.649 222.375 442.649 219.629V191.365Z" fill="#170D42"/>
<path fill-rule="evenodd" clip-rule="evenodd" d="M467.042 169.749H559.587L559.353 169.099C556.367 160.791 549.16 154.721 540.466 153.193L531.634 151.641C527.104 150.845 522.888 148.791 519.47 145.714L519.278 145.543H467.042V169.749Z" fill="#6CA7FF"/>
<path fill-rule="evenodd" clip-rule="evenodd" d="M467.482 169.309H558.961L558.938 169.248C556.015 161.109 548.906 155.123 540.389 153.627L531.557 152.075C526.941 151.263 522.66 149.177 519.176 146.042L519.11 145.983H467.482V169.309ZM559.587 170.189H467.042C466.799 170.189 466.602 169.992 466.602 169.749V145.543C466.602 145.299 466.799 145.103 467.042 145.103H519.278C519.388 145.103 519.492 145.143 519.573 145.215L519.765 145.388C523.126 148.412 527.256 150.425 531.709 151.208L540.541 152.759C549.369 154.312 556.736 160.515 559.767 168.95L560 169.6C560.049 169.735 560.028 169.885 559.947 170.003C559.864 170.12 559.729 170.189 559.587 170.189Z" fill="#170D42"/>
<path fill-rule="evenodd" clip-rule="evenodd" d="M467.042 164.256H556.972C557.927 165.763 558.735 167.379 559.353 169.099L559.587 169.749H467.042V164.256Z" fill="#EEF2F8"/>
<path fill-rule="evenodd" clip-rule="evenodd" d="M467.482 169.309H558.961L558.939 169.247C558.377 167.685 557.635 166.156 556.729 164.696H467.482V169.309ZM559.587 170.189H467.042C466.799 170.189 466.602 169.992 466.602 169.749V164.256C466.602 164.012 466.799 163.816 467.042 163.816H556.972C557.122 163.816 557.263 163.894 557.343 164.02C558.342 165.596 559.158 167.255 559.767 168.95L560 169.6C560.049 169.735 560.028 169.886 559.946 170.003C559.864 170.12 559.729 170.189 559.587 170.189Z" fill="#170D42"/>
<path fill-rule="evenodd" clip-rule="evenodd" d="M90.1672 425.24H168.492V368.037H90.1672V425.24Z" fill="#DF6FFF"/>
<path fill-rule="evenodd" clip-rule="evenodd" d="M90.7573 424.652H167.902V368.625H90.7573V424.652ZM168.197 425.24H90.4622C90.2988 425.24 90.1672 425.108 90.1672 424.946V368.33C90.1672 368.168 90.2988 368.037 90.4622 368.037H168.197C168.36 368.037 168.492 368.168 168.492 368.33V424.946C168.492 425.108 168.36 425.24 168.197 425.24Z" fill="#170D42"/>
<path fill-rule="evenodd" clip-rule="evenodd" d="M109.819 424.833H149.76V416.776H109.819V424.833Z" fill="#EEF2F8"/>
<path fill-rule="evenodd" clip-rule="evenodd" d="M110.118 424.646H149.422V417.033H110.118V424.646ZM149.716 425.24H109.823C109.66 425.24 109.529 425.107 109.529 424.943V416.737C109.529 416.572 109.66 416.439 109.823 416.439H149.716C149.879 416.439 150.011 416.572 150.011 416.737V424.943C150.011 425.107 149.879 425.24 149.716 425.24Z" fill="#170D42"/>
<path fill-rule="evenodd" clip-rule="evenodd" d="M155.611 425.014L233.291 424.82V386.868L155.611 386.71V425.014Z" fill="#DF6FFF"/>
<path fill-rule="evenodd" clip-rule="evenodd" d="M155.881 424.644H233.026V387.113H155.881V424.644ZM233.321 425.24H155.586C155.423 425.24 155.291 425.106 155.291 424.942V386.815C155.291 386.651 155.423 386.518 155.586 386.518H233.321C233.484 386.518 233.616 386.651 233.616 386.815V424.942C233.616 425.106 233.484 425.24 233.321 425.24Z" fill="#170D42"/>
<path fill-rule="evenodd" clip-rule="evenodd" d="M174.182 424.919H213.979V416.803H174.182V424.919Z" fill="#EEF2F8"/>
<path fill-rule="evenodd" clip-rule="evenodd" d="M174.361 424.646H213.666V417.033H174.361V424.646ZM213.96 425.24H174.067C173.904 425.24 173.772 425.107 173.772 424.943V416.737C173.772 416.572 173.904 416.439 174.067 416.439H213.96C214.123 416.439 214.255 416.572 214.255 416.737V424.943C214.255 425.107 214.123 425.24 213.96 425.24Z" fill="#170D42"/>
<path fill-rule="evenodd" clip-rule="evenodd" d="M174.109 395.027H213.952L214.256 386.518L174.109 386.71V395.027Z" fill="#EEF2F8"/>
<path fill-rule="evenodd" clip-rule="evenodd" d="M174.361 394.724H213.666V387.112H174.361V394.724ZM213.96 395.318H174.067C173.904 395.318 173.772 395.185 173.772 395.021V386.815C173.772 386.65 173.904 386.518 174.067 386.518H213.96C214.123 386.518 214.255 386.65 214.255 386.815V395.021C214.255 395.185 214.123 395.318 213.96 395.318Z" fill="#170D42"/>
<path fill-rule="evenodd" clip-rule="evenodd" d="M80.8391 352.196L90.0146 369.209H168.569L177.249 352.437L80.8391 352.196Z" fill="#DF6FFF"/>
<path fill-rule="evenodd" clip-rule="evenodd" d="M90.3045 369.209H168.18L176.858 352.784H81.6265L90.3045 369.209ZM168.359 369.797H90.1245C90.0141 369.797 89.9125 369.735 89.8615 369.639L80.8729 352.626C80.8248 352.535 80.8284 352.425 80.8818 352.338C80.9358 352.25 81.032 352.196 81.1359 352.196H177.348C177.452 352.196 177.549 352.25 177.601 352.338C177.656 352.425 177.66 352.535 177.611 352.626L168.622 369.639C168.571 369.735 168.47 369.797 168.359 369.797Z" fill="#170D42"/>
<path fill-rule="evenodd" clip-rule="evenodd" d="M44.3041 390.443C44.3085 390.54 44.312 390.637 44.3164 390.733C44.312 390.637 44.3085 390.54 44.3041 390.443ZM44.2689 389.158C44.2706 389.27 44.2733 389.383 44.275 389.496C44.2733 389.384 44.2706 389.27 44.2689 389.158ZM44.3763 391.786C44.3798 391.839 44.3815 391.892 44.3859 391.944C44.3815 391.892 44.3798 391.839 44.3763 391.786ZM62.5766 355.664C62.7834 355.538 62.9903 355.41 63.2015 355.285C62.9903 355.41 62.7834 355.538 62.5766 355.664ZM60.9635 356.692C61.1668 356.557 61.371 356.423 61.5769 356.289C61.371 356.423 61.1668 356.557 60.9635 356.692ZM59.4577 357.741C59.6452 357.605 59.837 357.47 60.0289 357.335C59.837 357.47 59.6452 357.605 59.4577 357.741ZM58.047 358.813C58.2036 358.688 58.3682 358.565 58.5284 358.442C58.3682 358.565 58.2036 358.688 58.047 358.813ZM56.7243 359.91C56.7929 359.85 56.8668 359.792 56.9364 359.733C56.8668 359.792 56.7929 359.85 56.7243 359.91ZM55.1358 361.377C55.2537 361.263 55.3655 361.146 55.4852 361.034C55.3655 361.146 55.2537 361.263 55.1358 361.377ZM64.3473 354.634C64.5356 354.529 64.7178 354.424 64.9079 354.321C64.7178 354.424 64.5356 354.529 64.3473 354.634ZM52.8239 363.836C52.9576 363.678 53.0941 363.522 53.2322 363.365C53.0941 363.522 52.9576 363.678 52.8239 363.836ZM51.8303 365.049C51.9535 364.89 52.0794 364.734 52.2061 364.577C52.0794 364.734 51.9535 364.89 51.8303 365.049ZM50.915 366.271C51.0198 366.124 51.1298 365.979 51.2371 365.833C51.1298 365.979 51.0198 366.124 50.915 366.271ZM50.0728 367.505C50.1344 367.41 50.2022 367.316 50.2638 367.221C50.2022 367.316 50.1344 367.41 50.0728 367.505ZM49.1285 369.055C49.1857 368.957 49.2394 368.857 49.2966 368.758C49.2394 368.857 49.1857 368.957 49.1285 369.055ZM48.3567 370.474C48.4333 370.324 48.509 370.174 48.5882 370.025C48.509 370.174 48.4333 370.324 48.3567 370.474ZM47.7099 371.797C47.7847 371.633 47.8604 371.47 47.9387 371.308C47.8604 371.47 47.7847 371.633 47.7099 371.797ZM47.1387 373.1C47.2065 372.936 47.276 372.774 47.3464 372.61C47.276 372.774 47.2065 372.936 47.1387 373.1ZM46.6318 374.398C46.6864 374.249 46.7453 374.098 46.8026 373.949C46.7453 374.098 46.6864 374.248 46.6318 374.398ZM46.1804 375.696C46.2138 375.592 46.2525 375.487 46.2877 375.381C46.2525 375.487 46.2138 375.592 46.1804 375.696ZM45.7465 377.138C45.7579 377.098 45.7667 377.058 45.7782 377.018C45.7667 377.058 45.7579 377.098 45.7465 377.138ZM45.3443 378.717C45.3742 378.586 45.4024 378.456 45.435 378.325C45.4024 378.456 45.3742 378.586 45.3443 378.717ZM45.0495 380.085C45.0785 379.937 45.1067 379.789 45.1384 379.641C45.1067 379.789 45.0785 379.937 45.0495 380.085ZM44.8128 381.41C44.8365 381.261 44.8612 381.112 44.8867 380.964C44.8612 381.112 44.8365 381.261 44.8128 381.41ZM44.6227 382.713C44.6394 382.579 44.6596 382.445 44.6772 382.313C44.6596 382.445 44.6394 382.579 44.6227 382.713ZM44.4757 384.004C44.4836 383.913 44.4951 383.824 44.5047 383.734C44.4951 383.824 44.4836 383.913 44.4757 384.004ZM44.2909 386.852C44.2944 386.772 44.2953 386.693 44.2988 386.613C44.2953 386.693 44.2944 386.772 44.2909 386.852ZM53.9072 362.627C54.0454 362.48 54.1809 362.332 54.3226 362.187C54.1809 362.332 54.0463 362.48 53.9072 362.627ZM44.2645 388.218C44.2654 388.107 44.2654 387.996 44.2662 387.884C44.2654 387.996 44.2654 388.107 44.2645 388.218ZM0.44487 326.531C0.501198 320.855 6.6378 317.28 11.5459 320.132C20.8841 325.558 26.9019 332.921 30.6369 341.056C30.636 341.055 30.636 341.053 30.636 341.052C30.1836 306.309 38.0619 263.941 71.605 234.083C79.7948 226.792 92.758 232.1 93.4198 243.045C94.7319 264.742 91.4696 302.011 67.174 353.202C67.0156 353.261 66.8572 353.318 66.7032 353.395C70.2656 351.644 74.4009 354.324 74.1739 358.289C73.5763 368.721 69.419 388.409 48.9437 410.816C48.9437 410.816 45.6998 403.825 44.613 394.4C43.0104 396.993 41.3621 399.61 39.6565 402.257C39.6565 402.257 37.2892 394.829 34.9764 382.811C33.1459 395.841 29.5509 405.392 29.5509 405.392C3.61042 377.005 0.277664 343.535 0.44487 326.531Z" fill="#409B81"/>
<path fill-rule="evenodd" clip-rule="evenodd" d="M35.5282 371.684C36.102 355.09 32.3688 332.74 11.325 320.513C10.2451 319.886 9.05707 319.572 7.86723 319.572C6.69236 319.572 5.51662 319.877 4.44207 320.489C2.24017 321.742 0.910416 324.002 0.885773 326.536C0.715927 343.604 4.16925 376.153 28.8539 403.946C27.6834 381.718 22.4937 360.136 13.3808 339.664C13.2822 339.443 13.3816 339.182 13.6043 339.084C13.8234 338.985 14.0866 339.084 14.1851 339.307C23.299 359.781 28.5036 381.359 29.7119 403.583C31.1834 399.147 35.0222 386.305 35.5282 371.684ZM39.3749 399.732C41.4413 367.781 47.6703 336.298 57.9889 305.85L75.9499 252.86C76.0273 252.631 76.2773 252.509 76.507 252.585C76.7375 252.663 76.8616 252.913 76.7833 253.143L58.8232 306.133C48.4412 336.766 42.2025 368.449 40.1951 400.602C41.4941 398.568 42.8405 396.423 44.2222 394.18C42.8009 381.025 45.5529 363.297 66.5078 353.001C66.5668 352.972 66.6266 352.953 66.6856 352.928C82.1261 320.312 95.2547 280.69 92.9807 243.072C92.6859 238.192 89.7025 234.005 85.1949 232.143C83.6143 231.491 81.9651 231.172 80.3317 231.172C77.2832 231.172 74.2884 232.284 71.8973 234.412C37.5813 264.958 30.7513 308.909 31.0645 340.401C31.0663 340.627 31.0716 340.85 31.0751 341.074C35.7024 351.265 36.7312 362.399 36.4065 371.737C36.2736 375.562 35.9128 379.263 35.427 382.731C36.9583 390.691 38.508 396.641 39.3749 399.732ZM48.5486 408.682C49.6618 393.093 54.5074 377.981 62.7359 364.609C62.8644 364.401 63.1372 364.336 63.3414 364.464C63.5482 364.591 63.6124 364.862 63.4857 365.069C55.1648 378.59 50.3421 393.906 49.3714 409.688C58.2599 399.775 72.457 380.618 73.7348 358.264C73.8307 356.579 73.0519 355.019 71.6491 354.089C70.8509 353.558 69.9427 353.29 69.0256 353.29C68.304 353.29 67.578 353.456 66.8968 353.791C52.0732 361.074 44.6059 372.832 44.7027 388.738C44.7555 397.537 47.2373 405.225 48.5486 408.682ZM0.00572205 326.527C0.0338821 323.677 1.52908 321.134 4.00643 319.724C6.44506 318.337 9.3466 318.346 11.7667 319.751C20.5858 324.876 26.4135 331.735 30.1836 339.208C30.0516 307.618 37.1827 264.135 71.3129 233.754C75.2379 230.261 80.6855 229.33 85.5302 231.331C90.352 233.321 93.5439 237.799 93.859 243.019C94.9634 261.291 92.3013 282.552 86.1594 304.501C81.8137 320.032 75.7264 336.076 67.9775 352.511C69.4058 352.239 70.8843 352.524 72.1366 353.355C73.8017 354.46 74.7275 356.313 74.6131 358.315C73.2851 381.552 58.1966 401.335 49.2984 411.081C49.2271 412.591 49.1787 414.105 49.1787 415.623V423.566C49.1787 423.809 48.9816 424.006 48.7387 424.006C48.4949 424.006 48.2986 423.809 48.2986 423.566V415.623C48.2986 413.995 48.3532 412.371 48.435 410.752C47.8876 409.484 45.4429 403.489 44.3912 395.58C42.9857 397.845 41.5601 400.113 40.0948 402.388C39.6917 409.395 39.4787 416.423 39.4787 423.468C39.4787 423.71 39.2825 423.908 39.0387 423.908C38.7958 423.908 38.5987 423.71 38.5987 423.468C38.5987 416.402 38.8125 409.354 39.2165 402.327C39.0273 401.718 37.0806 395.376 35.0371 385.304C33.1371 397.005 30.0058 405.434 29.9627 405.548C29.9319 405.629 29.8756 405.692 29.8078 405.741C29.9205 408.378 29.9909 411.021 29.9909 413.674V423.468C29.9909 423.71 29.7937 423.908 29.5509 423.908C29.308 423.908 29.1108 423.71 29.1108 423.468V413.674C29.1108 410.884 29.036 408.105 28.9111 405.333C3.3772 377.146 -0.166771 343.888 0.00572205 326.527Z" fill="#170D42"/>
<path fill-rule="evenodd" clip-rule="evenodd" d="M243.987 70.6515C235.839 70.6515 229.209 77.281 229.209 85.4294C229.209 93.5769 235.839 100.206 243.987 100.206H346.359C354.507 100.206 361.136 93.5769 361.136 85.4294C361.136 77.281 354.507 70.6515 346.359 70.6515H243.987ZM346.359 101.086H243.987C235.354 101.086 228.329 94.0627 228.329 85.4294C228.329 76.7952 235.354 69.7715 243.987 69.7715H346.359C354.992 69.7715 362.016 76.7952 362.016 85.4294C362.016 94.0627 354.992 101.086 346.359 101.086ZM250.008 78.7991C247.03 78.7991 244.607 81.2218 244.607 84.1999C244.607 85.6204 245.158 86.9149 246.058 87.8803C246.06 87.8821 246.062 87.8839 246.064 87.8856C246.072 87.8944 246.081 87.9032 246.089 87.9129C247.074 88.9514 248.466 89.6008 250.008 89.6008C252.986 89.6008 255.409 87.178 255.409 84.1999C255.409 81.2218 252.986 78.7991 250.008 78.7991ZM245.754 88.8176C246.874 89.8499 248.368 90.4809 250.008 90.4809C253.472 90.4809 256.289 87.6638 256.289 84.1999C256.289 80.7369 253.472 77.919 250.008 77.919C246.544 77.919 243.727 80.7369 243.727 84.1999C243.727 85.7084 244.261 87.0936 245.15 88.1778L241.139 92.1873C240.967 92.3598 240.967 92.6379 241.139 92.8104C241.225 92.8958 241.337 92.9389 241.45 92.9389C241.563 92.9389 241.675 92.8958 241.762 92.8104L245.754 88.8176Z" fill="#170D42"/>
<path fill-rule="evenodd" clip-rule="evenodd" d="M239.093 135.53C238.83 135.53 238.563 135.556 238.292 135.61C236.65 135.936 235.578 136.899 235.108 138.469C234.644 140.016 234.998 141.399 236.159 142.583C237.345 143.792 238.546 144.987 239.748 146.181L240.96 147.388C241.084 147.512 241.187 147.599 241.286 147.663C241.836 148.017 242.57 147.915 243.07 147.413L244.787 145.691C245.808 144.666 246.829 143.641 247.853 142.62C248.688 141.789 249.104 140.809 249.123 139.626C249.102 138.578 248.762 137.693 248.084 136.922C246.641 135.281 244.169 135.059 242.459 136.419C242.137 136.672 241.912 136.674 241.594 136.431C240.813 135.831 239.974 135.53 239.093 135.53ZM242.005 148.754C241.589 148.754 241.175 148.639 240.809 148.402C240.656 148.304 240.507 148.18 240.338 148.011L239.127 146.805C237.923 145.608 236.719 144.411 235.531 143.199C234.147 141.79 233.71 140.067 234.264 138.217C234.829 136.337 236.162 135.137 238.121 134.748C239.516 134.47 240.825 134.774 242.019 135.649C244.145 134.095 247.037 134.399 248.745 136.341C249.556 137.264 249.98 138.365 250.003 139.617V139.632C249.982 141.039 249.467 142.255 248.475 143.244C247.451 144.264 246.431 145.288 245.411 146.311L243.693 148.035C243.221 148.509 242.611 148.754 242.005 148.754Z" fill="#170D42"/>
<path fill-rule="evenodd" clip-rule="evenodd" d="M335.243 322.196H265.853C262.688 322.196 260.122 319.629 260.122 316.465V297.8C260.122 294.634 262.688 292.069 265.853 292.069H335.243C338.407 292.069 340.974 294.634 340.974 297.8V316.465C340.974 319.629 338.407 322.196 335.243 322.196Z" fill="#6CA7FF"/>
<path fill-rule="evenodd" clip-rule="evenodd" d="M265.853 292.508C262.936 292.508 260.562 294.882 260.562 297.799V316.464C260.562 319.382 262.936 321.755 265.853 321.755H335.243C338.16 321.755 340.533 319.382 340.533 316.464V297.799C340.533 294.882 338.16 292.508 335.243 292.508H265.853ZM335.243 322.635H265.853C262.45 322.635 259.682 319.868 259.682 316.464V297.799C259.682 294.397 262.45 291.628 265.853 291.628H335.243C338.646 291.628 341.414 294.397 341.414 297.799V316.464C341.414 319.868 338.646 322.635 335.243 322.635Z" fill="#170D42"/>
<path fill-rule="evenodd" clip-rule="evenodd" d="M305.833 300.53H304.417H291.37C291.221 300.53 291.127 300.612 291.086 300.66C291.044 300.709 290.976 300.813 290.998 300.961L291.991 307.667C292.116 308.511 292.854 309.149 293.708 309.149H303.496C304.349 309.149 305.088 308.511 305.213 307.667L306.204 300.961C306.226 300.813 306.16 300.71 306.117 300.66C306.075 300.612 305.983 300.53 305.833 300.53ZM304.417 299.65H305.833H306.632C307.044 299.65 307.438 299.472 307.71 299.163C308.15 298.664 308.783 298.378 309.449 298.378H310.542C310.785 298.378 310.982 298.575 310.982 298.818C310.982 299.061 310.785 299.258 310.542 299.258H309.449C309.036 299.258 308.643 299.435 308.371 299.745C308.017 300.145 307.539 300.409 307.021 300.497C307.086 300.685 307.106 300.889 307.076 301.09L306.083 307.796C305.895 309.069 304.782 310.029 303.496 310.029H294.699C294.531 310.634 293.975 311.079 293.318 311.079H292.965C292.66 311.079 292.412 311.326 292.412 311.631C292.412 311.935 292.66 312.184 292.965 312.184H295.411H295.413H295.414H302.049H302.05H302.052H305.204C305.447 312.184 305.644 312.381 305.644 312.624C305.644 312.866 305.447 313.064 305.204 313.064H303.626C303.801 313.346 303.902 313.679 303.902 314.035C303.902 315.056 303.071 315.887 302.05 315.887C301.03 315.887 300.199 315.056 300.199 314.035C300.199 313.679 300.3 313.346 300.475 313.064H296.988C297.163 313.346 297.264 313.679 297.264 314.035C297.264 315.056 296.433 315.887 295.413 315.887C294.392 315.887 293.561 315.056 293.561 314.035C293.561 313.679 293.662 313.346 293.837 313.064H292.965C292.175 313.064 291.532 312.421 291.532 311.631C291.532 310.841 292.175 310.199 292.965 310.199H293.318C293.474 310.199 293.616 310.134 293.716 310.029H293.708C292.421 310.029 291.309 309.069 291.12 307.796L290.128 301.09C290.074 300.728 290.18 300.362 290.42 300.086C290.658 299.809 291.005 299.65 291.37 299.65H304.417ZM302.05 313.064H302.052C302.587 313.065 303.022 313.5 303.022 314.035C303.022 314.57 302.586 315.007 302.05 315.007C301.515 315.007 301.079 314.57 301.079 314.035C301.079 313.5 301.514 313.065 302.049 313.064H302.05ZM295.411 313.064C294.876 313.065 294.441 313.5 294.441 314.035C294.441 314.57 294.878 315.007 295.413 315.007C295.949 315.007 296.384 314.57 296.384 314.035C296.384 313.5 295.95 313.065 295.414 313.064H295.413H295.411ZM300.384 307.257C300.556 307.429 300.835 307.429 301.006 307.257C301.178 307.085 301.178 306.806 301.006 306.634L299.211 304.839L301.006 303.044C301.178 302.872 301.178 302.593 301.006 302.421C300.835 302.25 300.556 302.25 300.384 302.421L298.589 304.217L296.793 302.421C296.621 302.249 296.342 302.249 296.171 302.421C295.999 302.593 295.999 302.872 296.171 303.043L297.966 304.839L296.171 306.635C295.999 306.807 295.999 307.085 296.171 307.257C296.342 307.429 296.621 307.429 296.793 307.257L298.589 305.461L300.384 307.257Z" fill="#170D42"/>
<path fill-rule="evenodd" clip-rule="evenodd" d="M581.468 319.379H442.226C440.518 319.379 439.135 320.763 439.135 322.471V349.749C439.135 351.455 440.518 352.84 442.226 352.84H453.528V424.828H462.284V352.84H563.762V424.828H572.517V352.84H581.468C583.176 352.84 584.56 351.455 584.56 349.749V322.471C584.56 320.763 583.176 319.379 581.468 319.379Z" fill="#6CA7FF"/>
<path fill-rule="evenodd" clip-rule="evenodd" d="M584.12 349.748C584.12 351.21 582.93 352.4 581.468 352.4H512.287V319.818H581.468C582.93 319.818 584.12 321.008 584.12 322.47V349.748ZM564.202 424.388H572.077V353.28H564.202V424.388ZM442.226 352.4C440.764 352.4 439.574 351.21 439.574 349.748V322.47C439.574 321.008 440.764 319.818 442.226 319.818H511.406V352.4H442.226ZM453.968 424.388H461.844V353.28H453.968V424.388ZM581.468 318.938H442.226C440.279 318.938 438.694 320.522 438.694 322.47V349.748C438.694 351.696 440.279 353.28 442.226 353.28H453.087V425.268H462.724V353.28H563.322V425.268H572.957V353.28H581.468C583.416 353.28 585 351.696 585 349.748V322.47C585 320.522 583.416 318.938 581.468 318.938Z" fill="#170D42"/>
<path fill-rule="evenodd" clip-rule="evenodd" d="M496.622 303.009C496.622 294.221 489.582 287.077 480.833 286.912C471.808 286.741 464.421 294.345 464.421 303.372V315.174C464.421 317.308 466.151 319.038 468.285 319.038H492.758C494.892 319.038 496.622 317.308 496.622 315.174V303.009Z" fill="#4B69FD"/>
<path fill-rule="evenodd" clip-rule="evenodd" d="M501.285 289.009H460.552C459.415 289.009 458.6 287.917 458.922 286.828L466.717 260.462C466.93 259.74 467.594 259.244 468.347 259.244H493.489C494.243 259.244 494.906 259.74 495.12 260.462L502.916 286.828C503.237 287.917 502.421 289.009 501.285 289.009Z" fill="#009E80"/>
<path fill-rule="evenodd" clip-rule="evenodd" d="M460.552 288.569C460.151 288.569 459.783 288.385 459.543 288.064C459.303 287.743 459.23 287.337 459.344 286.952L467.14 260.586C467.297 260.056 467.793 259.684 468.348 259.684H493.49C494.045 259.684 494.541 260.056 494.699 260.586L502.494 286.952C502.608 287.337 502.536 287.743 502.295 288.064C502.055 288.385 501.687 288.569 501.286 288.569H460.552ZM496.183 303.009V315.173C496.183 317.062 494.648 318.598 492.759 318.598H468.285C466.397 318.598 464.861 317.062 464.861 315.173V303.372C464.861 299.073 466.635 294.865 469.729 291.83C470.687 290.89 471.745 290.103 472.864 289.449H488.302C492.998 292.171 496.183 297.252 496.183 303.009ZM503.338 286.703L495.543 260.337C495.276 259.435 494.432 258.804 493.49 258.804H468.348C467.406 258.804 466.562 259.435 466.296 260.337L458.5 286.703C458.307 287.357 458.43 288.045 458.838 288.59C459.246 289.137 459.871 289.449 460.552 289.449H471.242C470.497 289.973 469.779 290.548 469.113 291.202C465.851 294.401 463.981 298.838 463.981 303.372V315.173C463.981 317.547 465.912 319.478 468.285 319.478H492.759C495.133 319.478 497.063 317.547 497.063 315.173V303.009C497.063 297.434 494.238 292.454 489.945 289.449H501.286C501.967 289.449 502.592 289.137 502.999 288.59C503.408 288.045 503.531 287.357 503.338 286.703Z" fill="#170D42"/>
<path fill-rule="evenodd" clip-rule="evenodd" d="M549.545 319.133H523.307C519.288 319.133 516.031 315.876 516.031 311.857H556.821C556.821 315.876 553.564 319.133 549.545 319.133Z" fill="#DF6FFF"/>
<path fill-rule="evenodd" clip-rule="evenodd" d="M516.485 312.298C516.713 315.862 519.685 318.694 523.307 318.694H549.545C553.167 318.694 556.139 315.862 556.367 312.298H516.485ZM549.545 319.574H523.307C519.052 319.574 515.591 316.112 515.591 311.858V311.418H557.261V311.858C557.261 316.112 553.8 319.574 549.545 319.574Z" fill="#170D42"/>
<path fill-rule="evenodd" clip-rule="evenodd" d="M422.592 425.526H357.182L357.347 425.066C359.457 419.194 364.552 414.904 370.697 413.824L376.94 412.727C380.14 412.164 383.119 410.712 385.536 408.538L385.672 408.416H422.592V425.526Z" fill="#EFF2F7"/>
<path fill-rule="evenodd" clip-rule="evenodd" d="M357.808 425.086H422.152V408.856L385.831 408.864C383.35 411.097 380.302 412.582 377.015 413.16L370.773 414.257C364.843 415.299 359.888 419.443 357.808 425.086ZM422.593 425.966H357.183C357.039 425.966 356.904 425.896 356.823 425.779C356.74 425.662 356.72 425.512 356.768 425.377L356.934 424.917C359.091 418.911 364.336 414.495 370.621 413.39L376.864 412.292C379.987 411.744 382.885 410.332 385.242 408.211L385.377 408.089C385.458 408.016 385.563 407.976 385.672 407.976H422.593C422.835 407.976 423.033 408.173 423.033 408.416V425.526C423.033 425.769 422.835 425.966 422.593 425.966Z" fill="#170D42"/>
<path fill-rule="evenodd" clip-rule="evenodd" d="M419.95 416.971C419.95 418.116 419.021 419.044 417.876 419.044C416.731 419.044 415.804 418.116 415.804 416.971C415.804 415.826 416.731 414.898 417.876 414.898C419.021 414.898 419.95 415.826 419.95 416.971Z" fill="#6CA7FF"/>
<path fill-rule="evenodd" clip-rule="evenodd" d="M417.876 415.338C416.976 415.338 416.243 416.071 416.243 416.97C416.243 417.871 416.976 418.603 417.876 418.603C418.777 418.603 419.51 417.871 419.51 416.97C419.51 416.071 418.777 415.338 417.876 415.338ZM417.876 419.484C416.49 419.484 415.363 418.356 415.363 416.97C415.363 415.585 416.49 414.458 417.876 414.458C419.262 414.458 420.39 415.585 420.39 416.97C420.39 418.356 419.262 419.484 417.876 419.484Z" fill="#170D42"/>
<path fill-rule="evenodd" clip-rule="evenodd" d="M381.441 415.885C381.308 415.885 381.176 415.825 381.09 415.71C379.269 413.304 377.502 413.123 377.484 413.122C377.243 413.101 377.063 412.89 377.082 412.649C377.102 412.408 377.313 412.22 377.55 412.245C377.638 412.251 379.711 412.429 381.791 415.179C381.938 415.373 381.9 415.649 381.706 415.796C381.627 415.856 381.534 415.885 381.441 415.885Z" fill="#170D42"/>
<path fill-rule="evenodd" clip-rule="evenodd" d="M385.363 414.504C385.231 414.504 385.099 414.444 385.012 414.33C383.192 411.924 381.423 411.742 381.406 411.741C381.166 411.72 380.985 411.509 381.005 411.268C381.023 411.027 381.235 410.842 381.473 410.864C381.56 410.87 383.632 411.048 385.714 413.798C385.861 413.992 385.822 414.268 385.628 414.415C385.549 414.475 385.456 414.504 385.363 414.504Z" fill="#170D42"/>
<path fill-rule="evenodd" clip-rule="evenodd" d="M357.808 425.086H422.152V422.085H359.273C358.68 423.049 358.188 424.058 357.808 425.086ZM422.593 425.966H357.183C357.039 425.966 356.904 425.896 356.823 425.779C356.74 425.662 356.72 425.512 356.768 425.377L356.933 424.918C357.367 423.71 357.947 422.53 358.657 421.41C358.738 421.282 358.878 421.205 359.029 421.205H422.593C422.835 421.205 423.033 421.402 423.033 421.645V425.526C423.033 425.769 422.835 425.966 422.593 425.966Z" fill="#170D42"/>
<path fill-rule="evenodd" clip-rule="evenodd" d="M359.852 421.205H375.338C375.261 418.161 374.843 415.631 374.093 413.673L370.773 414.257C366.322 415.039 362.421 417.54 359.852 421.205ZM358.591 422.817C358.518 422.817 358.443 422.799 358.374 422.76C358.163 422.639 358.089 422.372 358.209 422.16C358.209 422.16 358.209 422.16 358.209 422.159C358.21 422.159 358.21 422.159 358.21 422.159C358.249 422.088 358.29 422.017 358.331 421.947C358.437 421.766 358.545 421.586 358.657 421.409C358.663 421.401 358.668 421.393 358.673 421.385C361.357 417.156 365.665 414.261 370.621 413.39L374.293 412.744C374.497 412.708 374.696 412.818 374.776 413.009C375.688 415.204 376.177 418.107 376.226 421.639C376.228 421.757 376.182 421.87 376.099 421.954C376.017 422.037 375.904 422.085 375.786 422.085H359.274C359.212 422.186 359.151 422.289 359.09 422.392C359.051 422.46 359.012 422.527 358.973 422.595C358.892 422.737 358.744 422.817 358.591 422.817Z" fill="#170D42"/>
<path fill-rule="evenodd" clip-rule="evenodd" d="M358.151 423.64C358.085 423.64 358.018 423.625 357.954 423.593C357.737 423.485 357.649 423.221 357.757 423.004V423.003C357.758 423.003 357.758 423.002 357.758 423.002C357.8 422.917 357.843 422.834 357.887 422.751C357.96 422.611 358.034 422.471 358.111 422.333C358.229 422.121 358.496 422.043 358.709 422.162C358.921 422.28 358.998 422.547 358.881 422.76C358.881 422.76 358.88 422.76 358.88 422.761C358.808 422.891 358.738 423.022 358.669 423.154C358.627 423.235 358.585 423.315 358.545 423.397C358.467 423.551 358.312 423.64 358.151 423.64Z" fill="#170D42"/>
<path fill-rule="evenodd" clip-rule="evenodd" d="M357.733 424.536C357.674 424.536 357.615 424.524 357.558 424.5C357.392 424.427 357.292 424.266 357.292 424.096C357.292 424.038 357.304 423.978 357.329 423.921C357.329 423.92 357.33 423.917 357.331 423.914C357.401 423.754 357.476 423.597 357.549 423.438C357.551 423.436 357.553 423.433 357.554 423.429L357.567 423.402L357.569 423.403C357.683 423.207 357.936 423.111 358.143 423.209C358.364 423.312 358.467 423.554 358.365 423.774L358.307 423.897C358.249 424.021 358.191 424.144 358.136 424.27C358.065 424.436 357.903 424.536 357.733 424.536Z" fill="#170D42"/>
<path fill-rule="evenodd" clip-rule="evenodd" d="M385.672 408.417H422.593V404.056H385.672V408.417Z" fill="#6CA7FF"/>
<path fill-rule="evenodd" clip-rule="evenodd" d="M386.112 407.976H422.152V404.495H386.112V407.976ZM422.593 408.856H385.672C385.429 408.856 385.232 408.659 385.232 408.416V404.056C385.232 403.812 385.429 403.616 385.672 403.616H422.593C422.836 403.616 423.033 403.812 423.033 404.056V408.416C423.033 408.659 422.836 408.856 422.593 408.856Z" fill="#170D42"/>
<path fill-rule="evenodd" clip-rule="evenodd" d="M421.714 394.369L422.592 404.055H385.672L384.588 394.369H421.714Z" fill="#FBEFE3"/>
<path fill-rule="evenodd" clip-rule="evenodd" d="M386.065 403.615H422.111L421.312 394.809H385.08L386.065 403.615ZM422.592 404.495H385.672C385.447 404.495 385.259 404.327 385.234 404.104L384.151 394.418C384.137 394.294 384.176 394.169 384.26 394.075C384.344 393.982 384.463 393.929 384.588 393.929H421.714C421.941 393.929 422.131 394.103 422.152 394.33L423.031 404.015C423.042 404.139 423.001 404.26 422.917 404.352C422.834 404.443 422.716 404.495 422.592 404.495Z" fill="#170D42"/>
<path fill-rule="evenodd" clip-rule="evenodd" d="M379.487 346.404C377.582 337.197 376.056 329.276 375.978 327.178L378.384 326.474L379.487 346.404ZM442.259 248.789H372.575L375.766 289.33L361.749 292.834C347.524 296.39 338.057 309.821 339.471 324.416C341.278 343.049 344.496 368.219 349.824 386.927L384.558 382.585L387.271 390.861L390.184 394.369H424.883L413.348 316.243L417.635 314.988C440.81 308.208 454.144 283.969 447.466 260.765L442.259 248.789Z" fill="#DF6FFF"/>
<path fill-rule="evenodd" clip-rule="evenodd" d="M376.439 327.502C376.581 329.237 377.344 333.566 378.715 340.413L377.975 327.052L376.439 327.502ZM379.487 346.844C379.281 346.844 379.099 346.699 379.056 346.494C376.791 335.546 375.607 329.053 375.539 327.195C375.531 326.993 375.661 326.813 375.855 326.756L378.26 326.053C378.388 326.016 378.528 326.038 378.637 326.115C378.747 326.192 378.815 326.316 378.823 326.45L379.927 346.379C379.94 346.61 379.773 346.81 379.545 346.84C379.525 346.843 379.506 346.844 379.487 346.844ZM390.39 393.929H424.373L412.913 316.308C412.881 316.09 413.014 315.883 413.224 315.821L417.511 314.566C440.387 307.872 453.635 283.792 447.043 260.886L441.928 249.229H373.052L376.204 289.295C376.221 289.51 376.081 289.705 375.872 289.757L361.856 293.261C347.734 296.792 338.504 309.875 339.91 324.373C341.65 342.332 344.836 367.625 350.145 386.444L384.504 382.149C384.715 382.122 384.911 382.248 384.976 382.449L387.663 390.645L390.39 393.929ZM390.184 394.809C390.052 394.809 389.928 394.751 389.845 394.65L386.933 391.142C386.897 391.1 386.87 391.051 386.853 390.998L384.253 383.068L349.879 387.364C349.664 387.389 349.46 387.257 349.401 387.048C344.012 368.13 340.789 342.568 339.034 324.458C337.586 309.523 347.094 296.044 361.643 292.408L375.297 288.993L372.137 248.823C372.128 248.701 372.17 248.581 372.252 248.49C372.336 248.4 372.453 248.349 372.576 248.349H442.259C442.455 248.349 442.628 248.478 442.682 248.667L447.889 260.643C454.614 284.012 441.097 308.582 417.758 315.411L413.839 316.558L425.318 394.305C425.337 394.432 425.299 394.56 425.216 394.657C425.132 394.753 425.011 394.809 424.883 394.809H390.184Z" fill="#170D42"/>
<path fill-rule="evenodd" clip-rule="evenodd" d="M366.622 329.957C366.43 329.957 366.254 329.83 366.199 329.638C366.133 329.404 366.268 329.161 366.502 329.094L413.228 315.82C413.462 315.752 413.705 315.89 413.772 316.123C413.838 316.356 413.702 316.6 413.468 316.666L366.742 329.941C366.702 329.952 366.661 329.957 366.622 329.957Z" fill="#170D42"/>
<path fill-rule="evenodd" clip-rule="evenodd" d="M375.765 289.77C375.566 289.77 375.386 289.636 375.337 289.434C375.281 289.198 375.426 288.96 375.662 288.903L408.194 281.036C408.428 280.979 408.668 281.123 408.725 281.36C408.783 281.596 408.637 281.833 408.401 281.89L375.869 289.758C375.834 289.767 375.799 289.77 375.765 289.77Z" fill="#170D42"/>
<path fill-rule="evenodd" clip-rule="evenodd" d="M387.271 390.862L384.558 382.586L355.547 386.212L359.775 404.056L387.271 390.862Z" fill="#FBEFE3"/>
<path fill-rule="evenodd" clip-rule="evenodd" d="M356.089 386.588L360.077 403.422L386.732 390.631L384.253 383.067L356.089 386.588ZM359.775 404.495C359.71 404.495 359.646 404.481 359.586 404.452C359.465 404.395 359.377 404.286 359.346 404.156L355.119 386.313C355.091 386.192 355.114 386.063 355.186 385.961C355.257 385.858 355.369 385.79 355.493 385.775L384.504 382.149C384.715 382.121 384.91 382.248 384.976 382.448L387.689 390.724C387.757 390.933 387.66 391.162 387.461 391.257L359.965 404.452C359.905 404.481 359.84 404.495 359.775 404.495Z" fill="#170D42"/>
<path fill-rule="evenodd" clip-rule="evenodd" d="M387.271 390.861L398.63 404.544L366.053 425.526H337.572L337.886 424.248C339.29 418.527 344.445 414.522 350.336 414.574L353.431 414.602C354.287 414.61 355.129 414.38 355.864 413.94L357.172 413.155C358.479 412.371 359.318 410.995 359.419 409.474L359.775 404.056L387.271 390.861Z" fill="#EFF2F7"/>
<path fill-rule="evenodd" clip-rule="evenodd" d="M338.134 425.086H365.924L397.976 404.443L387.152 391.406L360.198 404.341L359.859 409.503C359.749 411.168 358.829 412.674 357.399 413.533L356.091 414.317C355.286 414.8 354.384 415.036 353.427 415.042L350.332 415.015C344.629 414.984 339.676 418.803 338.314 424.353L338.134 425.086ZM366.053 425.966H337.573C337.438 425.966 337.31 425.903 337.226 425.798C337.143 425.69 337.113 425.552 337.145 425.421L337.459 424.142C338.92 418.194 344.227 414.079 350.34 414.135L353.435 414.162C354.2 414.147 354.972 413.961 355.638 413.562L356.946 412.777C358.129 412.068 358.89 410.822 358.98 409.446L359.337 404.027C359.347 403.869 359.442 403.728 359.585 403.659L387.081 390.465C387.264 390.377 387.481 390.425 387.609 390.581L398.969 404.264C399.05 404.361 399.085 404.487 399.066 404.611C399.047 404.736 398.975 404.846 398.869 404.915L366.292 425.896C366.221 425.941 366.138 425.966 366.053 425.966Z" fill="#170D42"/>
<path fill-rule="evenodd" clip-rule="evenodd" d="M359.419 409.474L390.184 394.369L387.271 390.861L359.775 404.055L359.419 409.474Z" fill="#6CA7FF"/>
<path fill-rule="evenodd" clip-rule="evenodd" d="M360.197 404.341L359.908 408.743L389.487 394.221L387.152 391.407L360.197 404.341ZM359.419 409.915C359.333 409.915 359.248 409.889 359.174 409.84C359.044 409.752 358.969 409.602 358.98 409.446L359.336 404.027C359.346 403.869 359.442 403.728 359.585 403.659L387.08 390.465C387.263 390.377 387.481 390.425 387.609 390.581L390.522 394.089C390.608 394.193 390.642 394.33 390.614 394.462C390.586 394.594 390.499 394.706 390.377 394.765L359.613 409.869C359.552 409.899 359.485 409.915 359.419 409.915Z" fill="#170D42"/>
<path fill-rule="evenodd" clip-rule="evenodd" d="M338.104 425.086H365.924L397.976 404.443L395.85 401.884L367.274 420.48C365.664 421.529 363.796 422.083 361.873 422.083H339.108C338.569 423.103 338.25 424.388 338.104 425.086ZM366.054 425.966H337.573C337.445 425.966 337.322 425.91 337.239 425.812C337.155 425.714 337.118 425.586 337.138 425.458C337.153 425.36 337.52 423.045 338.469 421.42C338.548 421.286 338.693 421.203 338.849 421.203H361.873C363.625 421.203 365.327 420.698 366.795 419.743L395.699 400.933C395.886 400.811 396.135 400.849 396.278 401.021L398.97 404.264C399.05 404.361 399.085 404.487 399.066 404.611C399.047 404.736 398.975 404.846 398.87 404.915L366.292 425.895C366.221 425.941 366.138 425.966 366.054 425.966Z" fill="#170D42"/>
<path fill-rule="evenodd" clip-rule="evenodd" d="M339.581 421.203H355.435C356.35 417.359 354.816 415.454 354.324 414.961C354.008 415.017 353.712 415.035 353.426 415.042L350.332 415.014C345.879 414.973 341.765 417.383 339.581 421.203ZM355.778 422.083H338.848C338.696 422.083 338.554 422.006 338.473 421.876C338.393 421.747 338.385 421.587 338.452 421.45C340.674 416.961 345.341 414.072 350.34 414.134L353.434 414.162C353.726 414.163 354.025 414.129 354.363 414.056C354.491 414.029 354.628 414.06 354.732 414.142C354.849 414.236 357.608 416.491 356.203 421.757C356.152 421.949 355.977 422.083 355.778 422.083Z" fill="#170D42"/>
<path fill-rule="evenodd" clip-rule="evenodd" d="M391.96 400.553C391.96 401.698 391.032 402.627 389.887 402.627C388.742 402.627 387.814 401.698 387.814 400.553C387.814 399.409 388.742 398.481 389.887 398.481C391.032 398.481 391.96 399.409 391.96 400.553Z" fill="#6CA7FF"/>
<path fill-rule="evenodd" clip-rule="evenodd" d="M389.887 398.92C388.987 398.92 388.254 399.653 388.254 400.553C388.254 401.454 388.987 402.186 389.887 402.186C390.787 402.186 391.52 401.454 391.52 400.553C391.52 399.653 390.787 398.92 389.887 398.92ZM389.887 403.066C388.501 403.066 387.374 401.939 387.374 400.553C387.374 399.167 388.501 398.04 389.887 398.04C391.273 398.04 392.4 399.167 392.4 400.553C392.4 401.939 391.273 403.066 389.887 403.066Z" fill="#170D42"/>
<path fill-rule="evenodd" clip-rule="evenodd" d="M364.354 412.812C364.348 412.812 364.343 412.812 364.336 412.812C360.749 412.667 358.771 411.803 358.688 411.766C358.466 411.667 358.367 411.407 358.466 411.185C358.564 410.964 358.824 410.865 359.046 410.962C359.065 410.97 360.97 411.796 364.372 411.932C364.614 411.941 364.803 412.147 364.793 412.389C364.784 412.626 364.589 412.812 364.354 412.812Z" fill="#170D42"/>
<path fill-rule="evenodd" clip-rule="evenodd" d="M361.094 416.356C360.961 416.356 360.829 416.296 360.743 416.182C358.922 413.775 357.154 413.594 357.137 413.593C356.896 413.572 356.716 413.361 356.735 413.12C356.754 412.879 356.965 412.696 357.204 412.716C357.291 412.722 359.363 412.9 361.445 415.65C361.592 415.844 361.553 416.12 361.359 416.267C361.28 416.327 361.187 416.356 361.094 416.356Z" fill="#170D42"/>
<path fill-rule="evenodd" clip-rule="evenodd" d="M349.823 387.368C349.605 387.368 349.415 387.205 349.388 386.982C349.357 386.741 349.529 386.521 349.77 386.491L386.712 381.874C385.511 376.5 375.741 332.676 375.538 327.195C375.529 326.952 375.718 326.748 375.961 326.739C376.21 326.72 376.408 326.919 376.418 327.162C376.626 332.797 387.565 381.661 387.676 382.153C387.704 382.275 387.678 382.402 387.607 382.503C387.536 382.604 387.425 382.671 387.301 382.687L349.879 387.364C349.86 387.367 349.842 387.368 349.823 387.368Z" fill="#170D42"/>
<path fill-rule="evenodd" clip-rule="evenodd" d="M400.056 186.513C400.056 186.513 403.167 184.245 402.613 174.879C402.613 174.879 407.532 177.448 412.899 173.104L414.137 186.405C414.137 186.405 410.416 191.122 406.515 190.665C402.613 190.207 400.056 186.513 400.056 186.513Z" fill="#FBEFE3"/>
<path fill-rule="evenodd" clip-rule="evenodd" d="M402.801 173.683C405.925 175.384 409.185 174.798 412.64 171.883C412.914 171.652 413.302 171.852 413.337 172.242L414.575 186.103C414.587 186.244 414.549 186.385 414.468 186.491C411.901 189.882 409.229 191.438 406.469 191.101C403.746 190.768 401.484 189.253 399.707 186.579C399.551 186.344 399.601 186.005 399.815 185.842C401.715 184.398 402.534 180.518 402.174 174.178C402.152 173.791 402.497 173.518 402.801 173.683ZM413.569 186.172L412.421 173.545L412.188 173.72C409.052 176.011 405.993 176.55 403.049 175.31L402.918 175.254L402.939 175.777C403.115 181.172 402.339 184.75 400.55 186.494L400.496 186.544L400.617 186.708C402.121 188.694 403.947 189.848 406.111 190.186L406.408 190.227C408.864 190.522 411.288 189.135 413.697 186.01L413.569 186.172Z" fill="#170D42"/>
<path fill-rule="evenodd" clip-rule="evenodd" d="M406.402 175.659C400.465 175.659 395.652 170.555 395.652 164.259C395.652 157.963 400.465 152.859 406.402 152.859C412.338 152.859 417.151 157.963 417.151 164.259C417.151 170.555 412.338 175.659 406.402 175.659Z" fill="#FBEFE3"/>
<path fill-rule="evenodd" clip-rule="evenodd" d="M406.401 153.295C400.714 153.295 396.088 158.213 396.088 164.259C396.088 170.305 400.714 175.223 406.401 175.223C412.088 175.223 416.715 170.305 416.715 164.259C416.715 158.213 412.088 153.295 406.401 153.295ZM406.401 176.095C400.234 176.095 395.216 170.786 395.216 164.259C395.216 157.733 400.234 152.423 406.401 152.423C412.569 152.423 417.587 157.733 417.587 164.259C417.587 170.786 412.569 176.095 406.401 176.095Z" fill="#170D42"/>
<path fill-rule="evenodd" clip-rule="evenodd" d="M403.39 167.917C403.372 167.917 403.355 167.916 403.336 167.915L401.539 167.696C401.413 167.681 401.3 167.612 401.228 167.506C401.157 167.402 401.134 167.27 401.167 167.147L401.712 165.077C401.774 164.843 402.015 164.705 402.25 164.764C402.485 164.827 402.624 165.067 402.563 165.302L402.146 166.883L403.443 167.04C403.684 167.07 403.856 167.289 403.827 167.53C403.799 167.754 403.61 167.917 403.39 167.917Z" fill="#170D42"/>
<path fill-rule="evenodd" clip-rule="evenodd" d="M406.401 164.01C406.401 164.541 406.131 164.971 405.797 164.971C405.464 164.971 405.193 164.541 405.193 164.01C405.193 163.48 405.464 163.05 405.797 163.05C406.131 163.05 406.401 163.48 406.401 164.01Z" fill="#170D42"/>
<path fill-rule="evenodd" clip-rule="evenodd" d="M400.539 164.01C400.539 164.541 400.269 164.971 399.936 164.971C399.602 164.971 399.332 164.541 399.332 164.01C399.332 163.48 399.602 163.05 399.936 163.05C400.269 163.05 400.539 163.48 400.539 164.01Z" fill="#170D42"/>
<path fill-rule="evenodd" clip-rule="evenodd" d="M407.303 161.871C407.202 161.871 407.1 161.836 407.017 161.765C406.165 161.034 405.218 161.05 405.204 161.049C404.946 161.048 404.759 160.862 404.754 160.619C404.748 160.376 404.94 160.175 405.183 160.168C405.239 160.171 406.486 160.151 407.59 161.098C407.774 161.255 407.795 161.533 407.637 161.718C407.551 161.819 407.428 161.871 407.303 161.871Z" fill="#170D42"/>
<path fill-rule="evenodd" clip-rule="evenodd" d="M398.43 161.871C398.306 161.871 398.184 161.819 398.097 161.718C397.938 161.533 397.96 161.255 398.143 161.098C399.247 160.151 400.497 160.168 400.55 160.168C400.793 160.175 400.985 160.376 400.98 160.619C400.974 160.858 400.778 161.049 400.54 161.049C400.537 161.049 400.532 161.047 400.53 161.049C400.483 161.049 399.54 161.058 398.717 161.765C398.634 161.836 398.532 161.871 398.43 161.871Z" fill="#170D42"/>
<path fill-rule="evenodd" clip-rule="evenodd" d="M405.577 169.479C403.869 171.028 402.167 171.214 402.167 171.214C402.167 171.214 404.717 174.03 406.248 171.717C406.854 170.804 405.577 169.479 405.577 169.479Z" fill="#170D42"/>
<path fill-rule="evenodd" clip-rule="evenodd" d="M403.074 171.449C403.565 171.834 404.244 172.241 404.837 172.186C405.244 172.155 405.585 171.922 405.881 171.475C406.13 171.1 405.803 170.495 405.523 170.106C404.596 170.858 403.699 171.248 403.074 171.449ZM404.743 173.07C403.271 173.07 401.901 171.576 401.841 171.51C401.731 171.387 401.699 171.213 401.756 171.059C401.814 170.905 401.955 170.796 402.119 170.777C402.135 170.775 403.712 170.578 405.282 169.154C405.458 168.994 405.73 169.002 405.894 169.174C405.957 169.238 407.406 170.767 406.615 171.961C406.165 172.641 405.589 173.012 404.902 173.064C404.849 173.067 404.796 173.07 404.743 173.07Z" fill="#170D42"/>
<path opacity="0.3" fill-rule="evenodd" clip-rule="evenodd" d="M399.007 167.754C400.099 167.754 400.983 167.272 400.983 166.677C400.983 166.082 400.099 165.601 399.007 165.601C397.914 165.601 397.03 166.082 397.03 166.677C397.03 167.272 397.914 167.754 399.007 167.754ZM407.17 167.754C408.262 167.754 409.147 167.272 409.147 166.677C409.147 166.082 408.262 165.601 407.17 165.601C406.079 165.601 405.193 166.082 405.193 166.677C405.193 167.272 406.079 167.754 407.17 167.754Z" fill="#6CA7FF"/>
<path fill-rule="evenodd" clip-rule="evenodd" d="M424.32 164.427C424.32 142.071 405.388 146.12 405.388 146.12C405.388 146.12 390.181 142.898 388.961 164.427C388.627 170.309 387.474 175.484 385.975 179.898H401.757L403.226 175.316H403.226C398.846 173.876 395.664 169.545 395.664 164.427C395.664 162.41 396.162 160.52 397.028 158.877H403.271L403.773 156.012L404.847 158.877H412.367C412.367 158.877 410.658 167.899 412.693 173.662C411.979 174.207 411.205 174.668 410.375 175.017L410.507 175.316L411.976 179.898H427.305C425.805 175.484 424.32 170.318 424.32 164.427Z" fill="#EE7A08"/>
<path fill-rule="evenodd" clip-rule="evenodd" d="M411.95 170.467C411.95 170.467 412.115 173.271 413.96 176.207L411.95 170.467Z" fill="#8B4500"/>
<path fill-rule="evenodd" clip-rule="evenodd" d="M412.297 179.457L410.944 175.245C411.479 174.993 411.995 174.676 412.497 174.328C412.776 175 413.131 175.715 413.587 176.441C413.671 176.574 413.814 176.647 413.961 176.647C414.04 176.647 414.122 176.625 414.194 176.58C414.4 176.45 414.461 176.179 414.333 175.973C413.613 174.828 413.16 173.701 412.873 172.764C411.28 167.172 412.783 159.044 412.799 158.958C412.824 158.83 412.789 158.697 412.706 158.596C412.622 158.495 412.498 158.436 412.367 158.436H405.153L404.186 155.858C404.116 155.671 403.926 155.553 403.733 155.574C403.535 155.592 403.374 155.741 403.34 155.936L402.903 158.436H397.028C396.865 158.436 396.715 158.527 396.639 158.671C395.714 160.427 395.225 162.418 395.225 164.426C395.225 169.489 398.201 173.918 402.676 175.59L401.436 179.457H386.586C388.162 174.651 389.108 169.606 389.4 164.452C389.822 157.015 391.957 151.772 395.749 148.866C400.122 145.516 405.246 146.54 405.297 146.55C405.357 146.564 405.42 146.564 405.479 146.55C405.553 146.535 412.96 145.023 418.297 149.345C422.001 152.345 423.88 157.419 423.88 164.426C423.88 170.117 425.27 175.194 426.692 179.457H412.297ZM427.722 179.756C426.257 175.443 424.76 170.251 424.76 164.426C424.76 157.137 422.769 151.83 418.844 148.656C413.439 144.284 406.314 145.49 405.386 145.671C404.624 145.53 399.647 144.777 395.225 148.159C391.213 151.225 388.958 156.69 388.522 164.401C388.223 169.685 387.225 174.851 385.559 179.756C385.513 179.89 385.535 180.038 385.618 180.154C385.7 180.269 385.833 180.337 385.975 180.337H401.757C401.948 180.337 402.118 180.214 402.176 180.032L403.645 175.451C403.719 175.221 403.594 174.974 403.364 174.898C399.023 173.47 396.105 169.262 396.105 164.426C396.105 162.648 396.516 160.888 397.298 159.317H403.272C403.485 159.317 403.668 159.163 403.705 158.953L403.929 157.679L404.436 159.031C404.5 159.203 404.665 159.317 404.848 159.317H411.843C411.577 160.942 410.869 165.996 411.515 170.551C411.536 170.814 411.649 171.902 412.129 173.344C412.145 173.395 412.157 173.448 412.173 173.499C411.545 173.952 410.884 174.325 410.205 174.611C410.096 174.657 410.01 174.745 409.967 174.855C409.923 174.964 409.926 175.086 409.973 175.194L411.557 180.032C411.616 180.213 411.785 180.337 411.976 180.337H427.305C427.447 180.337 427.58 180.269 427.662 180.154C427.746 180.038 427.768 179.89 427.722 179.756Z" fill="#170D42"/>
<path fill-rule="evenodd" clip-rule="evenodd" d="M442.682 220.501C442.682 220.501 441.015 219.749 438.455 218.53L438.049 215.497L448.361 223.383L442.682 220.501ZM472.983 227.756C471.508 220.642 466.41 213.46 460.594 207.237L460.6 207.234C450.967 193.184 435.126 184.592 418.091 184.592H413.956C412.85 186.924 410.109 188.579 406.893 188.588C403.677 188.579 400.936 186.924 399.83 184.592H395.695C390.741 184.592 385.726 185.281 380.869 186.604C368.607 189.943 358.457 198.133 352.318 208.934C352.316 208.937 352.314 208.939 352.313 208.941C349.891 212.114 348.469 216.162 347.659 220.251C347.655 220.264 347.652 220.277 347.648 220.291C347.648 220.291 347.647 220.304 347.647 220.308C345.835 229.521 347.127 238.916 347.128 238.926V238.925L345.784 231.292L329.139 234.458C329.125 234.426 326.814 234.93 326.814 234.93C327.256 237.061 327.737 239.179 328.276 241.239C331.187 252.368 337.451 258.18 346.536 258.685C367.074 259.822 373.002 228.42 373.002 228.42L375.738 215.497L374.065 227.988L370.462 249.092H443.324L442.578 244.727C445.534 246.409 448.207 247.654 450.444 248.736C463.061 254.831 477.119 247.693 472.983 227.756Z" fill="#4B69FD"/>
<path fill-rule="evenodd" clip-rule="evenodd" d="M438.859 218.236C441.291 219.39 442.861 220.099 442.863 220.1C442.869 220.103 442.875 220.106 442.881 220.108L444.287 220.822L438.626 216.493L438.859 218.236ZM448.36 223.824C448.293 223.824 448.226 223.808 448.161 223.776L442.491 220.898C442.355 220.836 440.721 220.096 438.266 218.927C438.132 218.864 438.038 218.736 438.019 218.589L437.612 215.556C437.589 215.38 437.674 215.207 437.828 215.117C437.982 215.027 438.175 215.038 438.316 215.148L448.628 223.034C448.809 223.172 448.854 223.424 448.734 223.618C448.65 223.75 448.507 223.824 448.36 223.824ZM327.334 235.268C327.786 237.421 328.234 239.341 328.701 241.128C331.541 251.987 337.55 257.746 346.559 258.246C366.494 259.342 372.51 228.649 372.569 228.338L375.306 215.406C375.356 215.175 375.576 215.023 375.811 215.064C376.045 215.104 376.205 215.321 376.173 215.556L374.502 228.047L370.984 248.653H442.802L442.145 244.802C442.116 244.634 442.187 244.465 442.326 244.367C442.465 244.269 442.649 244.26 442.796 244.345C445.352 245.8 447.681 246.919 449.736 247.907L450.636 248.34C456.815 251.326 463.392 251.041 467.802 247.601C472.712 243.77 474.4 236.754 472.552 227.846C471.284 221.731 467.152 214.898 460.272 207.538C460.239 207.502 460.212 207.462 460.193 207.419C450.55 193.4 434.816 185.032 418.09 185.032H414.228C412.941 187.459 410.097 189.019 406.894 189.028C403.689 189.019 400.845 187.458 399.559 185.032H395.695C390.799 185.032 385.849 185.705 380.984 187.029C368.998 190.293 358.953 198.15 352.7 209.153C352.685 209.178 352.665 209.206 352.646 209.229C350.541 211.986 349.003 215.729 348.091 220.337C346.303 229.417 347.551 238.773 347.563 238.865C347.597 239.104 347.433 239.324 347.197 239.36C346.959 239.395 346.736 239.237 346.695 239.002L345.427 231.808L329.221 234.891C329.193 234.896 329.166 234.899 329.139 234.899H329.138C328.961 234.924 328.158 235.09 327.334 235.268ZM347.607 259.155C347.246 259.155 346.881 259.144 346.511 259.124C341.859 258.866 337.915 257.232 334.787 254.265C331.646 251.287 329.312 246.941 327.85 241.352C327.348 239.433 326.868 237.361 326.383 235.02C326.334 234.784 326.484 234.553 326.719 234.501C328.041 234.212 328.705 234.067 329.059 234.038L329.057 234.026L345.7 230.86C345.817 230.838 345.935 230.864 346.032 230.93C346.129 230.996 346.196 231.099 346.216 231.216L346.242 231.363C346.23 228.1 346.444 224.144 347.215 220.224C348.166 215.427 349.759 211.56 351.962 208.675C358.305 197.51 368.54 189.505 380.753 186.18C385.694 184.835 390.721 184.152 395.695 184.152H399.83C400 184.152 400.155 184.251 400.228 184.404C401.302 186.669 403.919 188.14 406.894 188.148C409.866 188.14 412.483 186.669 413.559 184.404C413.632 184.251 413.787 184.152 413.956 184.152H418.09C435.133 184.152 451.16 192.689 460.963 206.985C460.964 206.989 460.966 206.991 460.968 206.994C467.928 214.451 472.116 221.407 473.414 227.667C475.333 236.92 473.533 244.247 468.343 248.296C463.667 251.943 456.736 252.264 450.253 249.132L449.355 248.7C447.504 247.81 445.433 246.815 443.167 245.562L443.758 249.019C443.779 249.147 443.744 249.277 443.66 249.376C443.576 249.475 443.453 249.533 443.324 249.533H370.462C370.333 249.533 370.21 249.475 370.126 249.376C370.043 249.277 370.007 249.147 370.029 249.019L373.757 226.975L373.433 228.511C373.375 228.814 367.414 259.154 347.607 259.155Z" fill="#170D42"/>
<path fill-rule="evenodd" clip-rule="evenodd" d="M322.199 193.123C334.393 205.837 337.333 227.286 338.037 236.117L338.257 240.099L343.37 240.117L347.18 237.586L351.658 238.512L355.453 235.99L355.458 235.987L359.932 236.909L359.94 236.903L359.95 236.905L363.756 234.379L368.224 235.303L368.231 235.298L368.238 235.3L372.038 232.775L376.512 233.696L376.521 233.691L376.53 233.693L380.336 231.167H380.341L384.804 232.089L388.613 229.558L393.092 230.483L396.902 227.952L399.48 228.237C399.48 228.237 388.414 199.628 396.831 178.662L388.18 173.982C388.18 173.982 388.178 173.991 388.178 173.992C388.178 173.991 388.18 173.982 388.18 173.982L367.078 177.641L349.417 181.063L328.476 185.55C328.476 185.55 328.489 185.573 328.495 185.584C328.489 185.573 328.476 185.55 328.476 185.55L322.199 193.123Z" fill="#EFF2F7"/>
<path fill-rule="evenodd" clip-rule="evenodd" d="M393.002 230.015L388.702 229.128C388.585 229.101 388.467 229.126 388.369 229.192L384.713 231.621L380.43 230.737C380.316 230.714 380.19 230.737 380.093 230.801L376.431 233.23L372.127 232.344C372.011 232.316 371.892 232.343 371.794 232.409L368.141 234.836L363.845 233.949C363.73 233.922 363.61 233.947 363.513 234.012L359.851 236.443L355.547 235.557C355.432 235.531 355.307 235.559 355.21 235.624L351.567 238.044L347.269 237.156C347.154 237.131 347.034 237.154 346.936 237.221L343.237 239.677L339.574 239.664L344.975 235.628L347.375 234.25L351.691 235.14C351.806 235.167 351.925 235.141 352.024 235.075L355.681 232.646L359.979 233.534C360.094 233.56 360.213 233.534 360.311 233.469L363.959 231.047L368.253 231.931C368.299 231.941 368.348 231.941 368.395 231.935C368.469 231.929 368.54 231.905 368.603 231.864L372.257 229.44L376.545 230.325C376.659 230.35 376.78 230.326 376.877 230.26L380.533 227.832L384.833 228.718C384.947 228.743 385.068 228.72 385.166 228.654L388.836 226.216L391.577 226.599L396.273 227.842L393.002 230.015ZM322.787 193.104L328.409 186.321C330.566 190.158 343.503 213.985 344.286 235.045L338.651 239.255L338.475 236.081C337.785 227.415 334.874 205.979 322.787 193.104ZM349.502 181.495L367.153 178.074L387.663 174.518C387.104 178.789 384.002 205.615 391.016 225.632L388.793 225.321C388.686 225.307 388.578 225.33 388.489 225.39L384.831 227.819L380.531 226.932C380.416 226.904 380.296 226.931 380.199 226.997L376.543 229.426L372.255 228.54C372.14 228.512 372.021 228.539 371.923 228.604L368.261 231.034L363.956 230.148C363.841 230.121 363.722 230.146 363.624 230.213L359.978 232.635L355.68 231.748C355.564 231.72 355.445 231.746 355.347 231.812L351.689 234.241L347.39 233.354C347.284 233.329 347.175 233.35 347.081 233.403L345.135 234.521C344.165 213.334 331.27 189.608 329.156 185.854L349.502 181.495ZM398.778 227.596L392 225.801C384.861 205.978 387.961 179.04 388.53 174.672L396.278 178.864C388.922 197.766 397.102 222.854 398.778 227.596ZM399.911 228.258C399.913 228.208 399.908 228.161 399.894 228.114C399.891 228.102 399.895 228.09 399.89 228.078C399.78 227.794 388.985 199.386 397.239 178.827C397.323 178.619 397.237 178.382 397.04 178.276L388.389 173.596C388.387 173.594 388.383 173.592 388.38 173.591C388.297 173.548 388.2 173.529 388.104 173.549L388.072 173.554C388.071 173.555 388.071 173.555 388.07 173.555L366.994 177.209L349.326 180.633L328.387 185.119C328.379 185.121 328.373 185.13 328.366 185.132C328.328 185.142 328.289 185.15 328.254 185.17C328.213 185.193 328.183 185.226 328.154 185.259C328.15 185.264 328.142 185.264 328.137 185.269L321.86 192.843C321.717 193.015 321.726 193.267 321.881 193.428C334.001 206.065 336.91 227.515 337.597 236.14L337.817 240.123C337.818 240.137 337.825 240.149 337.828 240.162C337.831 240.19 337.838 240.216 337.847 240.242C337.858 240.272 337.871 240.299 337.887 240.326C337.894 240.337 337.896 240.35 337.904 240.362C337.91 240.371 337.92 240.373 337.926 240.38C337.958 240.416 337.993 240.446 338.035 240.47C338.049 240.479 338.06 240.49 338.075 240.497C338.13 240.521 338.19 240.539 338.255 240.539L343.369 240.557H343.37C343.457 240.557 343.541 240.532 343.613 240.484L347.271 238.055L351.569 238.943C351.684 238.97 351.804 238.944 351.902 238.878L355.548 236.454L359.843 237.339C359.89 237.35 359.937 237.35 359.985 237.343C360.058 237.337 360.131 237.313 360.193 237.272L363.846 234.848L368.135 235.733C368.18 235.743 368.225 235.743 368.271 235.739C368.346 235.733 368.418 235.708 368.481 235.666L372.128 233.243L376.423 234.127C376.469 234.137 376.517 234.137 376.566 234.131C376.639 234.125 376.711 234.101 376.773 234.06L380.427 231.635L384.715 232.521C384.829 232.546 384.949 232.522 385.048 232.456L388.702 230.027L393.003 230.914C393.118 230.94 393.238 230.915 393.336 230.849L397.012 228.407L399.431 228.675C399.436 228.676 399.44 228.672 399.444 228.673C399.456 228.674 399.468 228.677 399.48 228.677C399.499 228.677 399.513 228.662 399.532 228.659C399.595 228.651 399.651 228.634 399.704 228.602C399.73 228.586 399.749 228.569 399.771 228.55C399.789 228.532 399.813 228.525 399.828 228.505C399.854 228.472 399.861 228.431 399.876 228.393C399.883 228.376 399.9 228.368 399.905 228.349C399.907 228.34 399.905 228.33 399.906 228.32C399.911 228.299 399.909 228.279 399.911 228.258Z" fill="#170D42"/>
<path fill-rule="evenodd" clip-rule="evenodd" d="M443.927 245.962C443.995 246 444.069 246.018 444.142 246.018C444.296 246.018 444.445 245.937 444.526 245.794C444.646 245.582 444.571 245.314 444.359 245.194C434.153 239.439 421.165 232.52 418.772 231.248C420.577 227.616 424.905 214.691 425.83 211.907L438.239 218.913C438.451 219.033 438.719 218.957 438.838 218.747C438.958 218.535 438.883 218.267 438.672 218.147L425.797 210.878C425.682 210.812 425.545 210.803 425.422 210.85C425.299 210.899 425.203 210.998 425.163 211.123C425.162 211.127 425.159 211.137 425.153 211.154C424.885 211.964 419.528 228.122 417.795 231.216C417.737 231.319 417.724 231.442 417.757 231.555C417.791 231.669 417.868 231.765 417.973 231.819C418.119 231.897 432.706 239.634 443.927 245.962ZM457.603 230.688C457.69 230.803 457.821 230.863 457.955 230.863C458.047 230.863 458.139 230.834 458.22 230.774C458.413 230.627 458.452 230.351 458.306 230.158C454.72 225.407 445.113 221.212 444.705 221.036C444.483 220.938 444.223 221.041 444.127 221.266C444.03 221.488 444.133 221.748 444.356 221.844C444.454 221.886 454.158 226.123 457.603 230.688Z" fill="#170D42"/>
<path fill-rule="evenodd" clip-rule="evenodd" d="M405.248 198.659C399.372 190.754 395.382 181.251 389.011 182.635C382.75 183.994 392.869 196.034 392.869 196.034C392.869 196.034 374.603 195.803 374.757 201.831C374.757 201.831 374.488 204.247 379.26 204.487L386.126 204.428C386.126 204.428 372.616 206.946 373.98 211.879C375.34 216.798 385.805 212.227 385.805 212.227C385.805 212.227 375.958 216.534 378.504 220.275C381.14 224.146 390.811 217.952 392.884 216.559C391.168 217.761 384.623 222.692 387.456 226.083C390.281 229.465 398.091 220.025 402.898 220.773C407.705 221.521 418.909 229.833 418.909 229.833L425.074 212.711C425.074 212.711 411.124 206.564 405.248 198.659ZM329.977 226.727C330.518 227.289 331.073 227.792 331.639 228.236C330.959 227.874 330.386 227.364 329.977 226.727ZM328.676 225.651C327.902 224.877 327.456 223.893 327.073 222.891C327.874 224.216 328.737 225.387 329.647 226.382C329.295 226.172 328.96 225.934 328.676 225.651ZM346.823 207.441L334.597 209.026L344.228 206.522C345.639 206.146 346.516 204.739 346.231 203.306C345.938 201.834 344.524 200.863 343.045 201.119L331.235 203.158C331.235 203.158 332.312 199.884 334.226 197.986C335.131 197.088 335.469 195.767 335.016 194.575L334.938 194.371C334.163 192.335 331.586 191.668 329.951 193.109C328.575 194.325 326.715 196.35 325.2 198.961C324.983 199.334 324.774 199.718 324.574 200.114C322.975 203.285 321.983 207.179 322.834 211.46C322.888 211.731 322.957 211.981 323.014 212.246C323.076 212.51 323.133 212.78 323.195 213.042V213.043C323.48 214.245 323.814 215.374 324.173 216.46C324.169 216.459 324.159 216.458 324.158 216.458C325.255 221.838 326.227 228.36 327.559 234.77C328.235 234.625 329.129 234.438 329.138 234.458L337.684 232.832L337.66 232.203L337.458 230.694C337.803 230.711 338.34 230.711 338.681 230.685H338.682C338.997 230.659 339.312 230.634 339.622 230.572C343.223 229.855 345.351 229.068 346.575 228.464C347.508 228.005 348 226.963 347.796 225.943C347.586 224.883 346.676 224.109 345.596 224.076C343.169 224.003 337.624 225.286 337.389 222.585L346.647 221.229C348.31 220.995 349.434 219.411 349.107 217.765C348.812 216.283 347.435 215.27 345.932 215.429L336.512 216.507L348.029 212.983C349.416 212.547 350.252 211.137 349.968 209.711C349.677 208.248 348.304 207.257 346.823 207.441Z" fill="#FBEFE3"/>
<path fill-rule="evenodd" clip-rule="evenodd" d="M350.751 203.642L373.609 199.213L373.373 202.073C372.957 207.1 369.247 211.238 364.295 212.197C359.415 213.142 354.493 210.776 352.184 206.373L350.751 203.642Z" fill="#DF6FFF"/>
<path fill-rule="evenodd" clip-rule="evenodd" d="M351.415 203.961L352.574 206.169C354.809 210.432 359.485 212.684 364.211 211.764C368.95 210.847 372.537 206.846 372.934 202.036L373.123 199.755L351.415 203.961ZM362.112 212.847C357.823 212.847 353.852 210.502 351.794 206.578L350.361 203.846C350.297 203.723 350.294 203.577 350.354 203.451C350.414 203.325 350.531 203.236 350.667 203.21L373.525 198.78C373.661 198.754 373.8 198.793 373.903 198.885C374.005 198.977 374.058 199.111 374.048 199.249L373.811 202.109C373.381 207.311 369.502 211.636 364.379 212.629C363.619 212.776 362.861 212.847 362.112 212.847Z" fill="#170D42"/>
<path fill-rule="evenodd" clip-rule="evenodd" d="M362.76 208.145C362.447 206.528 363.504 204.964 365.121 204.651C366.737 204.338 368.301 205.395 368.614 207.012C368.928 208.628 367.871 210.192 366.254 210.505C364.638 210.819 363.074 209.762 362.76 208.145Z" fill="#6CA7FF"/>
<path fill-rule="evenodd" clip-rule="evenodd" d="M365.693 205.037C365.531 205.037 365.368 205.053 365.204 205.084C364.538 205.213 363.962 205.594 363.581 206.155C363.201 206.718 363.064 207.395 363.192 208.062C363.322 208.728 363.703 209.305 364.265 209.684C364.828 210.064 365.504 210.202 366.171 210.073C366.838 209.944 367.414 209.564 367.794 209.001C368.173 208.438 368.312 207.762 368.183 207.095C368.054 206.429 367.673 205.853 367.11 205.472C366.685 205.185 366.195 205.037 365.693 205.037ZM365.68 211.001C365.005 211.001 364.345 210.8 363.772 210.414C363.015 209.902 362.502 209.125 362.329 208.229C362.155 207.331 362.34 206.42 362.853 205.663C363.364 204.906 364.14 204.393 365.037 204.219C365.934 204.047 366.845 204.231 367.603 204.743C368.36 205.255 368.873 206.031 369.047 206.928C369.221 207.826 369.035 208.736 368.523 209.493C368.012 210.251 367.235 210.764 366.339 210.937C366.119 210.98 365.899 211.001 365.68 211.001Z" fill="#170D42"/>
<path fill-rule="evenodd" clip-rule="evenodd" d="M359.13 210.367C358.817 208.751 359.874 207.187 361.49 206.873C363.107 206.56 364.671 207.617 364.984 209.234C365.297 210.85 364.24 212.414 362.624 212.727C361.008 213.041 359.443 211.984 359.13 210.367Z" fill="#6CA7FF"/>
<path fill-rule="evenodd" clip-rule="evenodd" d="M359.562 210.284C359.691 210.951 360.073 211.527 360.635 211.907C361.197 212.286 361.874 212.425 362.54 212.295C363.207 212.167 363.784 211.786 364.163 211.223C364.543 210.661 364.681 209.984 364.552 209.317C364.423 208.652 364.042 208.075 363.479 207.695C362.917 207.315 362.241 207.176 361.574 207.306C360.907 207.436 360.331 207.816 359.951 208.378C359.571 208.941 359.433 209.617 359.562 210.284ZM362.049 213.224C361.374 213.224 360.714 213.022 360.142 212.637C359.385 212.125 358.872 211.348 358.698 210.451C358.525 209.554 358.71 208.643 359.222 207.885C359.734 207.128 360.509 206.615 361.407 206.442C362.303 206.27 363.214 206.454 363.972 206.966C364.73 207.478 365.242 208.253 365.416 209.151C365.59 210.048 365.404 210.959 364.893 211.716C364.381 212.473 363.605 212.986 362.707 213.16C362.488 213.202 362.268 213.224 362.049 213.224Z" fill="#170D42"/>
<path fill-rule="evenodd" clip-rule="evenodd" d="M352.431 205.099C352.532 205.08 352.627 205.046 352.72 205.012C352.698 205.245 352.697 205.482 352.743 205.722C353.006 207.077 354.316 207.963 355.672 207.7C355.982 207.64 356.265 207.519 356.518 207.36C356.428 207.597 356.396 207.86 356.448 208.127C356.595 208.889 357.332 209.387 358.094 209.24C358.855 209.092 359.354 208.354 359.206 207.593C359.059 206.831 358.321 206.333 357.559 206.481C357.475 206.497 357.395 206.523 357.316 206.554C357.633 206.039 357.773 205.412 357.649 204.772C357.386 203.417 356.076 202.532 354.721 202.795C354.454 202.846 354.213 202.948 353.988 203.073C353.983 202.991 353.982 202.91 353.966 202.828C353.762 201.777 352.745 201.089 351.694 201.293C350.643 201.496 349.956 202.513 350.159 203.565C350.363 204.616 351.38 205.302 352.431 205.099Z" fill="#8B4500"/>
<path fill-rule="evenodd" clip-rule="evenodd" d="M356.517 207.113C356.573 207.113 356.629 207.131 356.674 207.169C356.757 207.237 356.787 207.349 356.749 207.449C356.669 207.656 356.649 207.869 356.69 208.081C356.811 208.707 357.419 209.121 358.047 208.997C358.673 208.875 359.084 208.267 358.963 207.641C358.904 207.336 358.73 207.074 358.474 206.9C358.218 206.727 357.909 206.663 357.606 206.724C357.536 206.737 357.471 206.759 357.408 206.784C357.308 206.822 357.196 206.796 357.126 206.713C357.059 206.631 357.05 206.515 357.105 206.424C357.405 205.938 357.512 205.368 357.405 204.82C357.291 204.23 356.954 203.718 356.456 203.382C355.958 203.045 355.358 202.921 354.767 203.038C354.553 203.079 354.337 203.162 354.108 203.289C354.034 203.331 353.943 203.331 353.869 203.291C353.794 203.249 353.746 203.173 353.741 203.089C353.735 202.982 353.733 202.928 353.722 202.875C353.636 202.432 353.383 202.047 353.009 201.794C352.634 201.542 352.183 201.448 351.74 201.536C351.297 201.622 350.913 201.875 350.661 202.249C350.408 202.623 350.316 203.074 350.402 203.518C350.488 203.961 350.741 204.344 351.116 204.597C351.49 204.851 351.939 204.943 352.384 204.856H352.385C352.473 204.839 352.554 204.809 352.634 204.78C352.714 204.751 352.803 204.765 352.87 204.817C352.938 204.868 352.974 204.951 352.966 205.036C352.943 205.282 352.949 205.485 352.986 205.675C353.221 206.893 354.405 207.697 355.624 207.458C355.887 207.406 356.143 207.303 356.386 207.15C356.426 207.126 356.472 207.113 356.517 207.113ZM357.827 209.513C357.051 209.513 356.357 208.963 356.204 208.175C356.181 208.054 356.171 207.932 356.176 207.81C356.026 207.868 355.874 207.913 355.718 207.943C354.23 208.23 352.788 207.255 352.5 205.77C352.473 205.633 352.459 205.495 352.458 205.345C351.891 205.451 351.317 205.33 350.838 205.008C350.354 204.68 350.027 204.186 349.916 203.612C349.686 202.429 350.463 201.279 351.646 201.049C352.803 200.828 353.926 201.561 354.19 202.699C354.352 202.631 354.513 202.584 354.674 202.551C355.393 202.416 356.125 202.561 356.732 202.972C357.34 203.382 357.752 204.005 357.891 204.725C357.988 205.224 357.941 205.735 357.761 206.209C358.11 206.194 358.455 206.291 358.751 206.49C359.117 206.738 359.364 207.113 359.449 207.546C359.622 208.441 359.035 209.309 358.141 209.483C358.035 209.503 357.931 209.513 357.827 209.513Z" fill="#170D42"/>
<path fill-rule="evenodd" clip-rule="evenodd" d="M371.81 205.914C371.839 206.063 372.772 206.941 372.674 206.972C371.392 207.374 370.972 205.467 369.657 205.722C368.342 205.976 368.685 207.747 367.37 208.001C366.055 208.257 365.713 206.486 364.398 206.74C363.083 206.995 363.426 208.766 362.111 209.02C360.795 209.276 360.452 207.506 359.136 207.761C357.82 208.016 358.162 209.785 356.846 210.04C355.529 210.296 353.164 208.31 353.164 208.31C353.135 208.161 354.301 207.801 354.257 207.655C354.082 207.068 353.327 206.755 353.424 206.725C354.706 206.322 355.126 208.229 356.442 207.975C357.757 207.72 357.413 205.949 358.728 205.695C360.043 205.44 360.386 207.21 361.701 206.956C363.015 206.701 362.672 204.931 363.987 204.676C365.303 204.421 365.646 206.19 366.962 205.936C368.279 205.681 367.936 203.911 369.252 203.656C370.57 203.4 370.844 205.029 372.186 204.921L371.81 205.914Z" fill="#409B81"/>
<path fill-rule="evenodd" clip-rule="evenodd" d="M353.944 208.361C354.838 209.019 356.093 209.735 356.762 209.608C357.183 209.527 357.345 209.23 357.595 208.711C357.854 208.17 358.177 207.499 359.052 207.328C359.929 207.158 360.478 207.662 360.92 208.066C361.346 208.455 361.607 208.674 362.027 208.588C362.447 208.508 362.609 208.209 362.858 207.691C363.117 207.15 363.44 206.479 364.313 206.308C365.188 206.138 365.738 206.643 366.181 207.047C366.605 207.436 366.866 207.654 367.286 207.569C367.706 207.488 367.868 207.19 368.117 206.671C368.376 206.131 368.699 205.459 369.574 205.29C370.389 205.139 370.937 205.586 371.376 205.987C371.363 205.91 371.371 205.831 371.398 205.758L371.571 205.302C371.087 205.168 370.739 204.853 370.442 204.584C370.016 204.2 369.774 203.997 369.337 204.088C368.915 204.17 368.754 204.466 368.504 204.986C368.244 205.527 367.921 206.198 367.046 206.369C366.17 206.54 365.62 206.035 365.178 205.631C364.753 205.242 364.489 205.023 364.071 205.108C363.651 205.189 363.49 205.487 363.241 206.006C362.981 206.547 362.659 207.218 361.784 207.388C360.908 207.557 360.359 207.054 359.918 206.65C359.493 206.262 359.231 206.042 358.811 206.127C358.392 206.208 358.231 206.506 357.982 207.025C357.722 207.565 357.4 208.237 356.525 208.407C355.699 208.566 355.145 208.097 354.704 207.693C354.697 208.009 354.35 208.178 353.944 208.361ZM356.607 210.503C355.136 210.503 353.122 208.849 352.882 208.647C352.804 208.582 352.752 208.493 352.733 208.394C352.651 207.979 353.04 207.803 353.532 207.583C353.574 207.563 353.624 207.541 353.675 207.517C353.552 207.381 353.392 207.27 353.289 207.198C353.148 207.1 352.936 206.952 352.98 206.666C353.007 206.499 353.134 206.355 353.294 206.305C354.188 206.023 354.773 206.561 355.243 206.994C355.67 207.385 355.952 207.623 356.358 207.543C356.777 207.462 356.939 207.164 357.188 206.644C357.448 206.104 357.77 205.432 358.644 205.263C359.518 205.09 360.069 205.597 360.511 206.001C360.936 206.389 361.198 206.61 361.617 206.523C362.037 206.443 362.198 206.145 362.447 205.625C362.706 205.086 363.029 204.413 363.903 204.244C364.779 204.073 365.329 204.577 365.771 204.98C366.197 205.37 366.459 205.59 366.878 205.504C367.299 205.422 367.461 205.125 367.71 204.605C367.97 204.065 368.294 203.394 369.169 203.223C370.058 203.053 370.598 203.54 371.032 203.931C371.436 204.296 371.706 204.517 372.149 204.483C372.3 204.468 372.446 204.537 372.537 204.656C372.627 204.777 372.65 204.936 372.597 205.077L372.304 205.851C372.389 205.947 372.506 206.074 372.588 206.162C373.03 206.638 373.179 206.799 373.106 207.077C373.068 207.223 372.951 207.346 372.808 207.392C371.911 207.672 371.325 207.135 370.855 206.703C370.429 206.312 370.147 206.076 369.741 206.154C369.321 206.235 369.159 206.534 368.91 207.053C368.651 207.592 368.328 208.265 367.453 208.434C366.58 208.6 366.029 208.099 365.587 207.696C365.162 207.307 364.9 207.089 364.482 207.173C364.062 207.253 363.901 207.552 363.651 208.071C363.392 208.611 363.069 209.284 362.194 209.453C361.32 209.624 360.769 209.121 360.327 208.716C359.902 208.327 359.639 208.107 359.22 208.193C358.799 208.275 358.637 208.573 358.387 209.091C358.128 209.631 357.805 210.303 356.929 210.474C356.825 210.493 356.718 210.503 356.607 210.503Z" fill="#170D42"/>
<path fill-rule="evenodd" clip-rule="evenodd" d="M375.288 206.004C375.317 206.153 376.25 207.032 376.152 207.062C374.87 207.465 374.45 205.557 373.135 205.811C371.82 206.066 372.163 207.837 370.848 208.092C369.533 208.346 369.19 206.576 367.876 206.83C366.56 207.085 366.904 208.856 365.589 209.111C364.273 209.366 363.93 207.595 362.614 207.85C361.298 208.105 361.64 209.876 360.323 210.131C359.007 210.386 356.642 208.399 356.642 208.399C356.613 208.251 357.778 207.89 357.735 207.745C357.56 207.157 356.805 206.844 356.901 206.813C358.184 206.41 358.604 208.318 359.919 208.064C361.234 207.81 360.891 206.038 362.206 205.783C363.521 205.529 363.864 207.3 365.179 207.045C366.493 206.791 366.15 205.019 367.465 204.765C368.781 204.509 369.124 206.28 370.44 206.025C371.757 205.77 371.414 203.999 372.73 203.745C374.047 203.489 374.322 205.119 375.664 205.011L375.288 206.004Z" fill="#409B81"/>
<path fill-rule="evenodd" clip-rule="evenodd" d="M357.419 208.45C358.314 209.109 359.57 209.833 360.238 209.699C360.659 209.617 360.821 209.321 361.071 208.801C361.33 208.259 361.653 207.588 362.529 207.417C363.404 207.25 363.954 207.751 364.397 208.155C364.822 208.545 365.084 208.764 365.504 208.679C365.923 208.598 366.084 208.3 366.334 207.781C366.593 207.24 366.916 206.568 367.791 206.398C368.665 206.226 369.215 206.732 369.657 207.136C370.081 207.525 370.344 207.745 370.763 207.66C371.182 207.579 371.344 207.281 371.593 206.761C371.852 206.221 372.174 205.549 373.049 205.379C373.865 205.224 374.413 205.675 374.852 206.077C374.839 206 374.847 205.921 374.874 205.848L375.048 205.392C374.563 205.257 374.215 204.942 373.918 204.673C373.492 204.289 373.248 204.088 372.812 204.177C372.392 204.258 372.23 204.555 371.98 205.075C371.72 205.616 371.397 206.287 370.521 206.458C369.647 206.628 369.096 206.123 368.654 205.719C368.228 205.331 367.966 205.111 367.547 205.197C367.127 205.278 366.966 205.576 366.716 206.095C366.457 206.636 366.135 207.307 365.26 207.477C364.385 207.643 363.836 207.143 363.393 206.739C362.968 206.35 362.707 206.129 362.288 206.215C361.868 206.296 361.707 206.594 361.458 207.114C361.198 207.654 360.876 208.327 360 208.496C359.174 208.652 358.621 208.185 358.179 207.781C358.174 208.098 357.826 208.267 357.419 208.45ZM360.083 210.593C358.612 210.593 356.597 208.938 356.357 208.735C356.281 208.671 356.228 208.582 356.208 208.483C356.128 208.067 356.516 207.892 357.008 207.671C357.05 207.652 357.1 207.629 357.151 207.605C357.029 207.47 356.869 207.359 356.766 207.287C356.626 207.189 356.414 207.041 356.457 206.755C356.481 206.589 356.607 206.445 356.766 206.394C357.665 206.113 358.249 206.65 358.719 207.083C359.146 207.474 359.427 207.712 359.833 207.632C360.253 207.551 360.415 207.253 360.664 206.733C360.923 206.193 361.246 205.521 362.12 205.351C362.995 205.181 363.545 205.684 363.987 206.089C364.412 206.478 364.672 206.696 365.092 206.612C365.512 206.532 365.674 206.233 365.923 205.714C366.182 205.175 366.505 204.502 367.38 204.333C368.254 204.164 368.805 204.666 369.247 205.069C369.673 205.459 369.934 205.677 370.354 205.593C370.775 205.511 370.937 205.214 371.187 204.694C371.446 204.153 371.769 203.482 372.645 203.312C373.533 203.141 374.074 203.628 374.508 204.021C374.912 204.385 375.183 204.61 375.626 204.573C375.777 204.556 375.922 204.626 376.013 204.746C376.104 204.867 376.126 205.026 376.073 205.167L375.781 205.94C375.865 206.038 375.983 206.165 376.065 206.253C376.508 206.73 376.656 206.891 376.582 207.168C376.543 207.314 376.425 207.437 376.28 207.482C375.386 207.762 374.801 207.224 374.331 206.792C373.904 206.402 373.624 206.166 373.217 206.243C372.797 206.324 372.635 206.622 372.386 207.142C372.127 207.682 371.805 208.354 370.93 208.524C370.056 208.696 369.505 208.191 369.063 207.786C368.638 207.397 368.377 207.178 367.958 207.263C367.538 207.343 367.376 207.642 367.127 208.161C366.868 208.701 366.545 209.373 365.671 209.543C364.797 209.706 364.246 209.211 363.803 208.806C363.378 208.416 363.116 208.196 362.696 208.282C362.275 208.364 362.113 208.662 361.863 209.181C361.604 209.722 361.281 210.393 360.405 210.564C360.301 210.584 360.194 210.593 360.083 210.593Z" fill="#170D42"/>
<path fill-rule="evenodd" clip-rule="evenodd" d="M351.784 200.775L374.641 196.347L374.405 199.206C373.989 204.234 370.279 208.371 365.327 209.331C360.447 210.276 355.526 207.909 353.217 203.508L351.784 200.775Z" fill="#DF6FFF"/>
<path fill-rule="evenodd" clip-rule="evenodd" d="M352.448 201.095L353.607 203.304C355.843 207.566 360.52 209.819 365.243 208.898C369.982 207.98 373.569 203.98 373.966 199.169L374.155 196.889L352.448 201.095ZM363.144 209.982C358.856 209.982 354.886 207.636 352.827 203.713L351.394 200.98C351.33 200.856 351.327 200.71 351.387 200.584C351.448 200.459 351.564 200.37 351.7 200.343L374.557 195.914C374.693 195.888 374.832 195.927 374.935 196.019C375.037 196.111 375.091 196.245 375.08 196.383L374.843 199.242C374.413 204.443 370.535 208.77 365.411 209.763C364.652 209.91 363.893 209.982 363.144 209.982Z" fill="#170D42"/>
<path fill-rule="evenodd" clip-rule="evenodd" d="M418.696 229.13C416.476 227.517 407.312 221.013 402.967 220.338C402.76 220.305 402.548 220.29 402.333 220.29C400.077 220.29 397.433 221.979 394.868 223.618C391.886 225.523 389.067 227.323 387.796 225.801C387.3 225.206 387.114 224.544 387.229 223.775C387.646 220.995 391.776 217.881 393.112 216.938C393.349 216.779 393.498 216.675 393.538 216.646C393.553 216.636 393.561 216.621 393.574 216.609C394.214 216.205 394.944 215.822 395.651 215.617C395.885 215.55 396.019 215.307 395.952 215.073C395.885 214.84 395.641 214.702 395.408 214.772C394.207 215.118 393.001 215.892 392.158 216.511C389.915 217.973 383.872 221.638 380.503 221.022C379.77 220.89 379.236 220.564 378.871 220.026C378.527 219.523 378.442 218.998 378.608 218.419C379.442 215.523 385.918 212.658 385.983 212.63C385.995 212.624 386.002 212.614 386.014 212.608C387.688 211.831 390.194 210.811 392.969 210.17C393.206 210.115 393.354 209.879 393.299 209.642C393.244 209.404 393.006 209.257 392.771 209.312C389.769 210.006 387.124 211.106 385.42 211.911C384.285 212.379 378.49 214.641 375.708 213.312C375.031 212.99 374.606 212.483 374.406 211.763C374.236 211.147 374.333 210.56 374.703 209.968C376.772 206.655 386.114 204.878 386.208 204.86C386.259 204.851 386.304 204.831 386.347 204.806C386.683 204.772 387.041 204.735 387.445 204.691C388.499 204.58 389.796 204.442 391.386 204.305C391.628 204.285 391.807 204.071 391.787 203.829C391.766 203.587 391.55 203.413 391.311 203.429C389.714 203.566 388.41 203.704 387.352 203.817C386.669 203.889 386.104 203.949 385.617 203.993L379.285 204.048C377.021 203.934 376.026 203.319 375.591 202.824C375.165 202.342 375.195 201.893 375.198 201.821C375.18 201.125 375.446 200.509 376.011 199.937C379.553 196.349 392.732 196.476 392.864 196.474C393.049 196.484 393.194 196.377 393.267 196.221C393.341 196.066 393.317 195.882 393.207 195.75C391.309 193.491 386.589 187.026 387.528 184.274C387.744 183.643 388.26 183.248 389.106 183.064C393.678 182.068 397.067 187.234 400.989 193.212C402.226 195.099 403.506 197.049 404.897 198.921C410.305 206.198 422.211 211.886 424.524 212.944L418.696 229.13ZM425.254 212.307C425.115 212.246 411.344 206.12 405.604 198.396C404.227 196.546 402.955 194.606 401.725 192.73C397.625 186.48 394.083 181.081 388.919 182.205C387.763 182.456 387.015 183.056 386.696 183.99C385.611 187.167 390.258 193.455 391.949 195.595C388.796 195.631 378.652 196.01 375.386 199.319C374.654 200.06 374.295 200.909 374.322 201.783C374.312 201.866 374.25 202.608 374.899 203.37C375.687 204.297 377.148 204.822 379.267 204.927L382.331 204.901C379.307 205.78 375.329 207.304 373.956 209.502C373.456 210.303 373.322 211.143 373.558 211.996C373.825 212.965 374.422 213.675 375.329 214.108C376.956 214.882 379.362 214.623 381.479 214.119C379.818 215.241 378.196 216.672 377.763 218.177C377.523 219.01 377.651 219.798 378.143 220.522C378.641 221.254 379.382 221.713 380.345 221.888C382.662 222.308 385.971 220.99 388.697 219.57C387.55 220.811 386.569 222.24 386.359 223.643C386.207 224.662 386.463 225.578 387.121 226.365C388.888 228.484 392.024 226.479 395.342 224.36C398.014 222.652 400.777 220.884 402.833 221.207C407.478 221.93 418.537 230.103 418.648 230.186C418.725 230.243 418.817 230.273 418.91 230.273C418.953 230.273 418.996 230.267 419.037 230.253C419.171 230.213 419.277 230.113 419.324 229.982L425.49 212.859C425.568 212.642 425.465 212.401 425.254 212.307ZM347.902 212.563L336.384 216.086C336.167 216.153 336.035 216.374 336.082 216.597C336.129 216.819 336.337 216.964 336.563 216.944L345.98 215.866C347.267 215.732 348.424 216.584 348.676 217.851C348.81 218.527 348.665 219.21 348.265 219.772C347.866 220.334 347.27 220.697 346.585 220.793L337.326 222.149C337.096 222.183 336.931 222.391 336.952 222.623C337.169 225.117 340.672 224.844 343.489 224.62C344.282 224.558 345.03 224.498 345.584 224.516C346.461 224.543 347.194 225.164 347.366 226.029C347.532 226.863 347.127 227.702 346.381 228.07C345.283 228.611 343.203 229.41 339.538 230.14C339.244 230.199 338.947 230.222 338.648 230.246C331.273 230.822 325.692 221.679 323.625 212.94L323.444 212.146L323.366 211.813C323.332 211.669 323.297 211.524 323.267 211.374C322.54 207.716 323.112 203.994 324.969 200.313C325.164 199.924 325.37 199.547 325.582 199.181C327.328 196.172 329.424 194.163 330.244 193.439C330.904 192.856 331.777 192.644 332.638 192.857C333.504 193.07 334.211 193.695 334.528 194.528L334.606 194.732C334.986 195.728 334.714 196.882 333.917 197.673C331.951 199.623 330.863 202.883 330.818 203.02C330.769 203.167 330.802 203.328 330.902 203.444C331.003 203.561 331.158 203.617 331.31 203.591L343.121 201.552C344.377 201.333 345.552 202.145 345.8 203.393C346.039 204.594 345.3 205.782 344.119 206.095L334.488 208.6C334.263 208.659 334.123 208.881 334.167 209.11C334.211 209.338 334.426 209.497 334.655 209.462L346.878 207.877C348.123 207.725 349.293 208.565 349.537 209.797C349.777 211.004 349.073 212.194 347.902 212.563ZM329.057 234.025L329.058 234.031C328.832 234.054 328.478 234.124 327.901 234.246C327.223 230.945 326.642 227.639 326.079 224.436C325.851 223.146 325.63 221.901 325.409 220.682C328.309 226.675 332.535 230.549 336.995 231.077C337.049 231.52 337.103 231.962 337.167 232.42L329.057 234.025ZM346.768 207.003L341.491 207.689L344.342 206.947C345.973 206.513 346.993 204.875 346.664 203.221C346.321 201.5 344.697 200.392 342.971 200.685L331.917 202.594C332.337 201.551 333.244 199.58 334.537 198.299C335.581 197.262 335.932 195.74 335.428 194.419L335.351 194.214C334.931 193.113 333.996 192.285 332.85 192.002C331.703 191.721 330.541 192.002 329.662 192.779C328.809 193.532 326.631 195.619 324.821 198.74C324.6 199.12 324.386 199.512 324.183 199.916C322.235 203.777 321.637 207.691 322.403 211.546C322.436 211.708 322.473 211.863 322.511 212.019L322.586 212.34C322.586 212.342 322.586 212.344 322.586 212.347L322.769 213.144C323.044 214.308 323.37 215.422 323.727 216.499C323.729 216.515 323.725 216.53 323.729 216.545C324.233 219.022 324.708 221.726 325.213 224.589C325.801 227.938 326.41 231.401 327.128 234.86C327.152 234.975 327.221 235.075 327.319 235.139C327.392 235.186 327.475 235.21 327.56 235.21C327.59 235.21 327.621 235.206 327.652 235.2C328.519 235.015 329.012 234.917 329.138 234.898H329.139C329.167 234.898 329.194 234.896 329.221 234.89L337.744 233.207C337.975 233.163 338.13 232.945 338.097 232.711C338.02 232.173 337.956 231.657 337.89 231.139C337.939 231.14 337.987 231.149 338.036 231.149C338.263 231.149 338.49 231.141 338.717 231.123C339.021 231.098 339.366 231.072 339.71 231.003C342.728 230.402 345.103 229.681 346.77 228.859C347.873 228.316 348.472 227.082 348.229 225.857C347.977 224.589 346.9 223.676 345.611 223.636C345.008 223.621 344.238 223.68 343.419 223.744C341.215 223.914 338.521 224.127 337.938 222.95L346.71 221.665C347.635 221.535 348.442 221.044 348.983 220.282C349.524 219.519 349.721 218.595 349.539 217.678C349.197 215.962 347.63 214.812 345.884 214.992L341.23 215.524L348.163 213.403C349.766 212.899 350.729 211.274 350.401 209.625C350.066 207.944 348.472 206.802 346.768 207.003Z" fill="#170D42"/>
</svg>
