<svg width="588" height="400" viewBox="0 0 588 400" fill="none" xmlns="http://www.w3.org/2000/svg">
<path fill-rule="evenodd" clip-rule="evenodd" d="M278.188 113.48H301.98V55.2341H278.188V113.48ZM277.718 114.422H302.451C302.711 114.422 302.921 114.211 302.921 113.952V54.7637C302.921 54.5039 302.711 54.2932 302.451 54.2932H277.718C277.457 54.2932 277.247 54.5039 277.247 54.7637V113.952C277.247 114.211 277.457 114.422 277.718 114.422ZM295.915 109.835H298.955V108.052H295.915V109.835ZM299.426 107.112H295.444C295.184 107.112 294.974 107.322 294.974 107.582V110.305C294.974 110.566 295.184 110.776 295.444 110.776H299.426C299.685 110.776 299.896 110.566 299.896 110.305V107.582C299.896 107.322 299.685 107.112 299.426 107.112ZM281.213 89.6493H292.604V87.8661H281.213V89.6493ZM293.074 86.9251H280.743C280.482 86.9251 280.272 87.1359 280.272 87.3956V90.1197C280.272 90.3794 280.482 90.5902 280.743 90.5902H293.074C293.334 90.5902 293.545 90.3794 293.545 90.1197V87.3956C293.545 87.1359 293.334 86.9251 293.074 86.9251ZM281.213 96.3772H292.604V94.5941H281.213V96.3772ZM293.074 93.654H280.743C280.482 93.654 280.272 93.8648 280.272 94.1245V96.8477C280.272 97.1083 280.482 97.3182 280.743 97.3182H293.074C293.334 97.3182 293.545 97.1083 293.545 96.8477V94.1245C293.545 93.8648 293.334 93.654 293.074 93.654ZM281.213 82.9204H292.604V81.1372H281.213V82.9204ZM293.074 80.1963H280.743C280.482 80.1963 280.272 80.407 280.272 80.6667V83.3908C280.272 83.6506 280.482 83.8613 280.743 83.8613H293.074C293.334 83.8613 293.545 83.6506 293.545 83.3908V80.6667C293.545 80.407 293.334 80.1963 293.074 80.1963ZM295.915 89.6493H298.955V87.8661H295.915V89.6493ZM299.426 86.9251H295.444C295.184 86.9251 294.974 87.1359 294.974 87.3956V90.1197C294.974 90.3794 295.184 90.5902 295.444 90.5902H299.426C299.685 90.5902 299.896 90.3794 299.896 90.1197V87.3956C299.896 87.1359 299.685 86.9251 299.426 86.9251ZM295.915 103.106H298.955V101.323H295.915V103.106ZM299.426 100.383H295.444C295.184 100.383 294.974 100.593 294.974 100.853V103.577C294.974 103.837 295.184 104.047 295.444 104.047H299.426C299.685 104.047 299.896 103.837 299.896 103.577V100.853C299.896 100.593 299.685 100.383 299.426 100.383ZM281.213 75.7172H298.955V58.7261H281.213V75.7172ZM299.426 57.7851H280.743C280.482 57.7851 280.272 57.9959 280.272 58.2556V76.1877C280.272 76.4474 280.482 76.6582 280.743 76.6582H299.426C299.685 76.6582 299.896 76.4474 299.896 76.1877V58.2556C299.896 57.9959 299.685 57.7851 299.426 57.7851ZM295.915 96.3772H298.955V94.5941H295.915V96.3772ZM299.426 93.654H295.444C295.184 93.654 294.974 93.8648 294.974 94.1245V96.8477C294.974 97.1083 295.184 97.3182 295.444 97.3182H299.426C299.685 97.3182 299.896 97.1083 299.896 96.8477V94.1245C299.896 93.8648 299.685 93.654 299.426 93.654ZM30.9578 125.02H48.4326V136.89C48.4326 137.15 48.6425 137.36 48.9031 137.36C49.1628 137.36 49.3736 137.15 49.3736 136.89V125.02H82.1016C82.3613 125.02 82.572 124.81 82.572 124.55C82.572 124.29 82.3613 124.079 82.1016 124.079H65.5245V107.582C65.5245 107.322 65.3137 107.112 65.054 107.112C64.7943 107.112 64.5835 107.322 64.5835 107.582V124.079H30.9578C30.6972 124.079 30.4873 124.29 30.4873 124.55C30.4873 124.81 30.6972 125.02 30.9578 125.02ZM338.397 294.663H472.944V0.940972H338.397V294.663ZM337.927 295.605H473.414C473.675 295.605 473.885 295.394 473.885 295.134V0.470486C473.885 0.210778 473.675 0 473.414 0H337.927C337.667 0 337.456 0.210778 337.456 0.470486V295.134C337.456 295.394 337.667 295.605 337.927 295.605ZM484.997 47.5285H536.142C536.401 47.5285 536.612 47.3177 536.612 47.058C536.612 46.7983 536.401 46.5875 536.142 46.5875H519.563V30.56H536.142C536.401 30.56 536.612 30.3501 536.612 30.0895C536.612 29.8298 536.401 29.619 536.142 29.619H499.9C499.64 29.619 499.429 29.8298 499.429 30.0895C499.429 30.3501 499.64 30.56 499.9 30.56H518.622V46.5875H484.997C484.737 46.5875 484.526 46.7983 484.526 47.058C484.526 47.3177 484.737 47.5285 484.997 47.5285ZM281.213 103.106H292.604V101.323H281.213V103.106ZM293.074 100.383H280.743C280.482 100.383 280.272 100.593 280.272 100.853V103.577C280.272 103.837 280.482 104.047 280.743 104.047H293.074C293.334 104.047 293.545 103.837 293.545 103.577V100.853C293.545 100.593 293.334 100.383 293.074 100.383ZM346.264 286.156H465.077V9.44924H346.264V286.156ZM465.548 8.50733H345.793C345.533 8.50733 345.323 8.71811 345.323 8.97782V286.627C345.323 286.886 345.533 287.097 345.793 287.097H465.548C465.808 287.097 466.018 286.886 466.018 286.627V8.97782C466.018 8.71811 465.808 8.50733 465.548 8.50733ZM295.915 82.9204H298.955V81.1372H295.915V82.9204ZM299.426 80.1963H295.444C295.184 80.1963 294.974 80.407 294.974 80.6667V83.3908C294.974 83.6506 295.184 83.8613 295.444 83.8613H299.426C299.685 83.8613 299.896 83.6506 299.896 83.3908V80.6667C299.896 80.407 299.685 80.1963 299.426 80.1963ZM281.213 109.835H292.604V108.052H281.213V109.835ZM293.074 107.112H280.743C280.482 107.112 280.272 107.322 280.272 107.582V110.305C280.272 110.566 280.482 110.776 280.743 110.776H293.074C293.334 110.776 293.545 110.566 293.545 110.305V107.582C293.545 107.322 293.334 107.112 293.074 107.112ZM201.216 398.469H359.463V370.032H201.216V398.469ZM173.761 369.092H332.007V340.655H173.761V369.092ZM147.652 339.715H305.898V311.277H147.652V339.715ZM147.652 310.336H266.926V13.821H147.652V310.336ZM146.711 13.3505V310.336H135.394V1.38887H311.852V310.336H267.867V13.3505C267.867 13.0899 267.657 12.88 267.397 12.88H147.181C146.921 12.88 146.711 13.0899 146.711 13.3505ZM587.458 398.469H360.404V369.561C360.404 369.302 360.193 369.091 359.933 369.091H332.948V340.185C332.948 339.924 332.737 339.715 332.477 339.715H306.839V311.277H587.458C587.718 311.277 587.929 311.067 587.929 310.807C587.929 310.546 587.718 310.336 587.458 310.336H312.793V0.918387C312.793 0.657738 312.583 0.447901 312.323 0.447901H134.923C134.663 0.447901 134.453 0.657738 134.453 0.918387V310.336H21.3345C21.0748 310.336 20.864 310.546 20.864 310.807C20.864 311.067 21.0748 311.277 21.3345 311.277H146.711V340.185C146.711 340.445 146.921 340.655 147.181 340.655H172.82V369.561C172.82 369.822 173.031 370.032 173.29 370.032H200.275V398.469H21.3345C21.0748 398.469 20.864 398.68 20.864 398.939C20.864 399.199 21.0748 399.41 21.3345 399.41H587.458C587.718 399.41 587.929 399.199 587.929 398.939C587.929 398.68 587.718 398.469 587.458 398.469Z" fill="#170D42"/>
<path fill-rule="evenodd" clip-rule="evenodd" d="M107.73 201.437C108.185 199.168 108.369 196.803 108.244 194.375C107.524 180.431 94.943 168.063 80.8096 167.401C70.3027 166.91 60.957 171.964 55.5172 179.853C51.9387 185.042 46.1847 188.313 39.8303 188.593C39.7183 188.598 39.6082 188.604 39.4972 188.61C24.6176 189.428 12.6449 201.514 12.1296 216.213C12.1153 216.605 12.1096 216.996 12.1115 217.385C12.1609 226.28 10.1354 235.112 5.48246 242.731C2.03521 248.375 0.175183 255.07 0.514686 262.213C1.36674 280.178 16.3708 294.655 34.5881 295.123C46.7107 295.434 57.4792 289.663 64.0067 280.686C69.6309 284.35 76.3824 286.464 83.642 286.394C102.556 286.211 118.49 270.187 118.337 251.522C118.286 245.402 116.623 239.661 113.747 234.693C107.903 224.592 105.439 212.846 107.73 201.437Z" fill="#409B81"/>
<path fill-rule="evenodd" clip-rule="evenodd" d="M71.6342 284.41L68.769 304.673C68.7069 305.118 68.5902 305.553 68.4227 305.971C66.8202 309.979 61.4491 310.822 58.6629 307.505L57.4321 306.04C56.7142 305.184 56.2663 304.138 56.1458 303.032L54.6685 289.503C50.8943 291.941 46.6157 293.674 42.0181 294.525L50.4793 397.68H64.8574L76.7305 285.766C74.9822 285.439 73.28 284.984 71.6342 284.41Z" fill="#8B4500"/>
<path fill-rule="evenodd" clip-rule="evenodd" d="M83.6363 285.925C76.7418 285.973 70.0242 284.045 64.2692 280.294C64.0556 280.156 63.7696 280.207 63.62 280.412C56.9221 289.624 46.0699 294.948 34.6004 294.654C16.5949 294.192 1.83156 279.933 0.989009 262.191C0.666632 255.394 2.36123 248.749 5.88922 242.973C10.3225 235.713 12.639 226.863 12.5868 217.382C12.5848 217 12.5905 216.615 12.6048 216.228C13.1098 201.807 24.9347 189.88 39.5226 189.078L39.851 189.062C46.3343 188.776 52.1871 185.516 55.9096 180.116C61.2591 172.36 69.9612 167.838 79.4001 167.838C79.8602 167.838 80.325 167.849 80.788 167.871C94.705 168.522 107.061 180.67 107.769 194.398C107.89 196.74 107.72 199.077 107.264 201.346C105.043 212.397 107.199 224.323 113.334 234.925C116.247 239.959 117.812 245.698 117.86 251.525C118.013 269.991 102.341 285.743 83.6363 285.925ZM55.1728 289.74C58.5858 287.5 61.626 284.67 64.1253 281.322C66.3337 282.721 68.6758 283.861 71.1082 284.737L68.2975 304.609C68.242 305.013 68.1347 305.413 67.9814 305.799C67.2907 307.525 65.7691 308.729 63.9126 309.021C62.0626 309.313 60.2306 308.635 59.029 307.205L57.7991 305.741C57.1385 304.953 56.7301 303.999 56.6182 302.982L55.1728 289.74ZM64.4292 397.211H50.9178L42.5262 294.899C46.7069 294.067 50.6825 292.503 54.277 290.294L55.6734 303.082C55.8033 304.283 56.287 305.411 57.068 306.339L58.2978 307.804C59.714 309.491 61.866 310.294 64.0613 309.949C66.2547 309.604 68.0501 308.182 68.8668 306.143C69.0475 305.687 69.1726 305.214 69.2394 304.738L72.0257 285.033C73.3976 285.486 74.7921 285.868 76.2121 286.152L64.4292 397.211ZM114.161 234.46C108.139 224.055 106.02 212.358 108.196 201.528C108.668 199.183 108.843 196.769 108.718 194.35C107.986 180.162 95.2169 167.606 80.8322 166.933C70.5493 166.455 60.9203 171.182 55.1249 179.588C51.5708 184.741 45.989 187.852 39.8086 188.124L39.4699 188.141C24.3946 188.971 12.1769 201.294 11.6539 216.196C11.6396 216.595 11.6339 216.991 11.6358 217.387C11.6871 226.696 9.41815 235.376 5.07519 242.488C1.44924 248.424 -0.291935 255.252 0.0399458 262.235C0.904323 280.465 16.0748 295.117 34.5759 295.593C34.8855 295.601 35.1941 295.605 35.5046 295.605C37.5616 295.605 39.596 295.424 41.588 295.083L50.006 397.717C50.0248 397.961 50.2309 398.149 50.4793 398.149H64.8573C65.1011 398.149 65.3052 397.967 65.3297 397.729L77.1511 286.313C79.2834 286.681 81.4523 286.881 83.6467 286.863C102.865 286.678 118.968 270.491 118.812 251.517C118.762 245.532 117.153 239.633 114.161 234.46Z" fill="#170D42"/>
<path fill-rule="evenodd" clip-rule="evenodd" d="M100.152 352.624L88.1144 397.509H83.4905L92.6386 350.509H97.0884C98.2854 350.509 99.392 350.938 99.9095 351.6C100.165 351.928 100.247 352.273 100.152 352.624ZM20.5601 352.624C20.4651 352.273 20.5479 351.928 20.8038 351.6C21.3214 350.938 22.4279 350.509 23.623 350.509H28.0747L37.2229 397.509H32.598L20.5601 352.624ZM82.0677 350.509H91.6694L82.5213 397.509H75.766L82.0677 350.509ZM71.8017 350.509H81.1079L74.8062 397.509H68.0435L71.8017 350.509ZM60.8319 350.509H70.8485L67.0903 397.509H60.8319V350.509ZM49.8639 350.509H59.8805V397.509H53.6212L49.8639 350.509ZM44.9473 397.509H38.1921L29.0439 350.509H38.6447L44.9473 397.509ZM39.6035 350.509H48.9107L52.668 397.509H45.9071L39.6035 350.509ZM100.662 351.027C99.9622 350.129 98.5921 349.571 97.0884 349.571H23.623C22.1202 349.571 20.7502 350.129 20.0501 351.027C19.6178 351.583 19.4714 352.234 19.6407 352.864L31.7727 398.099C31.8273 398.305 32.0174 398.448 32.2319 398.448H88.4804C88.6959 398.448 88.885 398.305 88.9396 398.099L101.073 352.864C101.242 352.234 101.095 351.583 100.662 351.027Z" fill="#170D42"/>
<path fill-rule="evenodd" clip-rule="evenodd" d="M170.57 336.273L158.508 360.886L146.362 375.516L155.81 381.301L161.116 379.513L161.584 384.836L185.478 399.465H215.93L215.594 398.097C214.092 391.98 208.581 387.699 202.283 387.755L198.973 387.784C198.058 387.793 197.157 387.547 196.371 387.076L194.973 386.237C193.576 385.399 192.678 383.928 192.571 382.301L192.19 376.509L204.204 353.17C208.744 344.35 205.66 333.52 197.153 328.417C187.701 322.746 175.421 326.375 170.57 336.273ZM245.935 343.798C243.085 337.571 236.866 333.578 230.018 333.578C217.556 333.578 209.084 346.23 213.832 357.752L223.481 381.171V399.465H234.748L237.799 395.877L241.314 399.465H293.42L293.243 398.973C290.987 392.695 285.54 388.108 278.969 386.953L272.295 385.78C268.871 385.178 265.686 383.626 263.103 381.301L245.935 343.798Z" fill="#FBEFE3"/>
<path fill-rule="evenodd" clip-rule="evenodd" d="M215.33 398.994H185.611L162.033 384.559L161.586 379.472C161.573 379.329 161.495 379.199 161.375 379.12C161.254 379.041 161.105 379.021 160.967 379.068L155.869 380.785L147.071 375.398L158.871 361.186C158.894 361.158 158.914 361.126 158.93 361.093L170.993 336.48C173.247 331.88 177.358 328.41 182.27 326.958C187.182 325.507 192.518 326.186 196.912 328.82C205.18 333.781 208.199 344.382 203.786 352.954L191.772 376.293C191.733 376.369 191.715 376.454 191.721 376.54L192.102 382.332C192.219 384.113 193.202 385.723 194.732 386.641L196.131 387.48C196.991 387.996 198 388.247 198.978 388.255L202.287 388.226C208.408 388.145 213.682 392.277 215.138 398.21L215.33 398.994ZM185.478 399.935H215.93C216.075 399.935 216.212 399.868 216.3 399.755C216.39 399.641 216.422 399.493 216.387 399.353L216.052 397.985C214.49 391.626 208.829 387.247 202.279 387.285L198.969 387.314C198.128 387.335 197.326 387.1 196.614 386.673L195.217 385.834C193.951 385.075 193.138 383.743 193.041 382.271L192.669 376.608L204.623 353.385C209.262 344.373 206.088 333.229 197.396 328.014C192.778 325.244 187.167 324.529 182.004 326.056C176.839 327.582 172.518 331.23 170.148 336.066L158.111 360.629L146 375.216C145.913 375.321 145.875 375.459 145.898 375.593C145.92 375.728 146 375.846 146.116 375.918L155.564 381.702C155.683 381.775 155.828 381.792 155.96 381.746L160.701 380.15L161.116 384.878C161.128 385.025 161.211 385.159 161.339 385.237L185.232 399.866C185.307 399.912 185.391 399.935 185.478 399.935Z" fill="#170D42"/>
<path fill-rule="evenodd" clip-rule="evenodd" d="M234.531 398.994H223.952V381.17C223.952 381.109 223.94 381.048 223.916 380.991L214.268 357.573C212.098 352.308 212.694 346.338 215.863 341.606C219.031 336.873 224.323 334.048 230.018 334.048C236.662 334.048 242.743 337.951 245.508 343.993L262.675 381.497C262.702 381.555 262.741 381.608 262.789 381.651C265.441 384.037 268.699 385.626 272.214 386.243L278.888 387.416C285.228 388.53 290.527 392.961 292.75 398.994H241.512L238.135 395.546C238.042 395.452 237.913 395.396 237.782 395.406C237.65 395.411 237.526 395.471 237.44 395.572L234.531 398.994ZM223.482 399.935H234.748C234.886 399.935 235.017 399.875 235.107 399.769L237.823 396.573L240.978 399.794C241.067 399.884 241.188 399.935 241.314 399.935H293.419C293.573 399.935 293.717 399.861 293.804 399.736C293.892 399.61 293.914 399.45 293.862 399.306L293.685 398.814C291.378 392.393 285.771 387.67 279.051 386.49L272.376 385.316C269.068 384.735 265.998 383.249 263.49 381.016L246.363 343.602C243.445 337.227 237.03 333.107 230.018 333.107C224.009 333.107 218.424 336.088 215.081 341.082C211.737 346.076 211.108 352.375 213.397 357.932L223.011 381.263V399.465C223.011 399.725 223.221 399.935 223.482 399.935Z" fill="#170D42"/>
<path fill-rule="evenodd" clip-rule="evenodd" d="M215.93 399.464L215.595 398.097C214.093 391.98 208.581 387.698 202.284 387.754L198.973 387.784C198.973 389.903 197.255 391.622 195.135 391.622H192.864C192.164 391.622 191.477 391.431 190.878 391.068L152.646 367.946L146.362 375.516L155.81 381.3L161.117 379.513L161.585 384.835L185.478 399.464H215.93ZM274.467 386.295C273.533 388.491 271.607 390.108 269.284 390.65C268.727 390.781 268.155 390.846 267.583 390.846H223.481V399.464H234.748L237.799 395.875L241.314 399.464H293.42L293.243 398.972C290.987 392.694 285.54 388.107 278.969 386.952L274.52 386.17L274.467 386.295Z" fill="#729AE8"/>
<path fill-rule="evenodd" clip-rule="evenodd" d="M215.33 398.994H185.611L162.033 384.559L161.586 379.472C161.573 379.329 161.495 379.199 161.375 379.12C161.254 379.041 161.105 379.021 160.967 379.068L155.869 380.784L147.071 375.398L152.75 368.558L190.634 391.471C191.307 391.878 192.079 392.094 192.864 392.094H195.135C197.354 392.094 199.186 390.408 199.419 388.251L202.287 388.226C208.408 388.145 213.682 392.276 215.138 398.21H215.137L215.33 398.994ZM185.478 399.935H215.93C216.075 399.935 216.212 399.868 216.3 399.755C216.39 399.64 216.422 399.493 216.387 399.352L216.052 397.985C214.49 391.626 208.829 387.247 202.279 387.285L198.969 387.314C198.712 387.316 198.504 387.525 198.504 387.784C198.504 389.642 196.992 391.153 195.135 391.153H192.864C192.25 391.153 191.648 390.984 191.122 390.666L152.89 367.544C152.691 367.422 152.434 367.467 152.285 367.645L146 375.216C145.913 375.321 145.875 375.458 145.898 375.593C145.92 375.727 146 375.846 146.116 375.918L155.564 381.702C155.683 381.775 155.828 381.792 155.96 381.746L160.701 380.15L161.116 384.878C161.128 385.025 161.211 385.159 161.339 385.237L185.232 399.865C185.307 399.911 185.391 399.935 185.478 399.935Z" fill="#170D42"/>
<path fill-rule="evenodd" clip-rule="evenodd" d="M234.531 398.994H223.952V391.317H267.584C268.193 391.317 268.801 391.247 269.391 391.109C271.774 390.552 273.78 388.912 274.803 386.698L278.889 387.416C285.228 388.529 290.527 392.96 292.75 398.994H241.512L238.135 395.546C238.042 395.451 237.913 395.396 237.783 395.406C237.65 395.41 237.526 395.47 237.44 395.571L234.531 398.994ZM223.482 399.935H234.748C234.886 399.935 235.018 399.875 235.107 399.769L237.824 396.573L240.979 399.794C241.067 399.884 241.188 399.935 241.314 399.935H293.419C293.573 399.935 293.717 399.861 293.804 399.735C293.892 399.61 293.914 399.449 293.862 399.305L293.686 398.814C291.379 392.392 285.771 387.67 279.051 386.488L274.602 385.706C274.387 385.67 274.174 385.785 274.088 385.986L274.035 386.111C273.162 388.161 271.346 389.686 269.177 390.192C268.658 390.314 268.121 390.376 267.584 390.376H223.482C223.221 390.376 223.011 390.586 223.011 390.846V399.464C223.011 399.724 223.221 399.935 223.482 399.935Z" fill="#170D42"/>
<path fill-rule="evenodd" clip-rule="evenodd" d="M164.634 210.494H241.736V239.019C241.736 239.019 243.179 260.388 248.666 268.762C254.152 277.137 244.911 286.955 243.468 291.864C242.025 296.772 240.58 301.97 240.58 301.97C240.58 301.97 245.489 308.613 248.666 320.741C251.842 332.869 258.45 340.088 258.45 340.088C258.45 340.088 224.987 360.59 182.827 363.767C182.827 363.767 183.219 347.307 181.146 342.975L158.282 330.848C158.282 330.848 163.191 319.585 171.853 315.832C180.517 312.078 178.207 306.88 178.207 306.88C178.207 306.88 164.634 295.329 166.944 278.869C169.254 262.41 167.522 264.72 164.345 252.303C161.17 239.886 166.516 210.494 166.516 210.494" fill="#D16AE2"/>
<path fill-rule="evenodd" clip-rule="evenodd" d="M183.307 363.258C183.356 360.369 183.481 346.767 181.57 342.772C181.527 342.682 181.455 342.607 181.366 342.559L158.896 330.641C159.858 328.63 164.557 319.505 172.041 316.264C175.479 314.773 177.668 312.876 178.547 310.624C179.395 308.445 178.667 306.76 178.636 306.688C178.608 306.624 178.564 306.567 178.511 306.522C178.377 306.407 165.163 294.939 167.41 278.934C169.167 266.415 168.58 264.583 166.835 259.144C166.275 257.398 165.578 255.225 164.801 252.185C161.887 240.793 166.533 214.584 166.936 210.964H241.264V239.019C241.324 239.929 242.781 260.639 248.272 269.02C252.146 274.934 248.265 281.798 245.432 286.809C244.349 288.724 243.414 290.378 243.016 291.731C241.588 296.587 240.141 301.793 240.126 301.844C240.087 301.984 240.115 302.134 240.201 302.25C240.25 302.316 245.097 308.973 248.21 320.86C250.944 331.298 256.273 338.218 257.728 339.969C253.514 342.434 221.937 360.211 183.307 363.258ZM182.862 364.236C224.652 361.087 258.36 340.694 258.696 340.489C258.815 340.416 258.896 340.292 258.916 340.153C258.936 340.014 258.891 339.874 258.797 339.77C258.731 339.699 252.227 332.485 249.12 320.621C246.25 309.665 241.91 303.062 241.093 301.882C241.38 300.851 242.657 296.287 243.919 291.997C244.287 290.747 245.197 289.137 246.25 287.272C249.203 282.05 253.247 274.898 249.059 268.505C243.703 260.33 242.218 239.2 242.204 238.988L242.205 210.494C242.205 210.233 241.994 210.023 241.735 210.023H166.515C166.277 210.023 166.077 210.202 166.049 210.438C165.906 211.643 160.728 240.06 163.889 252.419C164.674 255.485 165.376 257.673 165.939 259.431C167.68 264.858 168.205 266.497 166.478 278.805C164.259 294.615 176.618 306.093 177.81 307.158C178.058 307.84 179.247 312.115 171.666 315.4C162.933 319.184 158.053 330.193 157.85 330.66C157.751 330.885 157.843 331.148 158.061 331.264L180.784 343.317C182.714 347.705 182.36 363.594 182.356 363.756C182.353 363.888 182.406 364.016 182.502 364.108C182.59 364.191 182.707 364.237 182.826 364.237C182.838 364.237 182.85 364.237 182.862 364.236Z" fill="#170D42"/>
<path fill-rule="evenodd" clip-rule="evenodd" d="M181.146 343.446C181.191 343.446 181.238 343.439 181.283 343.425C181.532 343.349 181.672 343.085 181.595 342.838C177.527 329.582 179.834 321.742 181.073 317.529C181.29 316.792 181.478 316.156 181.605 315.594C182.509 311.592 178.736 306.789 178.575 306.587C178.413 306.383 178.116 306.352 177.913 306.511C177.71 306.672 177.676 306.969 177.838 307.172C177.875 307.218 181.492 311.826 180.686 315.387C180.566 315.918 180.382 316.542 180.171 317.264C178.904 321.571 176.545 329.588 180.696 343.112C180.758 343.316 180.944 343.446 181.146 343.446Z" fill="#170D42"/>
<path fill-rule="evenodd" clip-rule="evenodd" d="M240.58 302.441C240.76 302.441 240.932 302.337 241.01 302.162C241.116 301.925 241.01 301.647 240.772 301.54C240.664 301.492 229.926 296.595 227.839 287.031L227.725 286.502C225.641 276.94 224.861 273.362 218.223 266.889C211.155 259.999 207.13 250.079 205.866 245.303C205.799 245.052 205.541 244.903 205.291 244.969C205.04 245.036 204.89 245.293 204.957 245.544C206.245 250.413 210.351 260.529 217.566 267.563C224.002 273.839 224.765 277.341 226.805 286.702L226.921 287.23C229.11 297.266 239.93 302.195 240.389 302.4C240.451 302.428 240.516 302.441 240.58 302.441Z" fill="#170D42"/>
<path fill-rule="evenodd" clip-rule="evenodd" d="M212.496 143.907C212.496 143.907 209.17 141.482 209.762 131.467C209.762 131.467 204.502 134.214 198.764 129.569L197.44 143.791C197.44 143.791 201.419 148.835 205.59 148.346C209.762 147.857 212.496 143.907 212.496 143.907Z" fill="#FBEFE3"/>
<path fill-rule="evenodd" clip-rule="evenodd" d="M209.562 130.189C206.221 132.007 202.735 131.38 199.041 128.264C198.748 128.017 198.333 128.23 198.296 128.648L196.972 143.468C196.959 143.619 197 143.769 197.087 143.883C199.831 147.509 202.688 149.172 205.64 148.812C208.551 148.456 210.969 146.837 212.869 143.977C213.036 143.726 212.983 143.363 212.754 143.189C210.722 141.645 209.847 137.496 210.231 130.717C210.255 130.304 209.886 130.012 209.562 130.189ZM198.048 143.542L199.275 130.041L199.524 130.228C202.878 132.678 206.148 133.254 209.296 131.928L209.435 131.868L209.413 132.428C209.226 138.196 210.055 142.021 211.968 143.887L212.025 143.94L211.896 144.115C210.288 146.239 208.336 147.473 206.022 147.834L205.704 147.878C203.078 148.193 200.486 146.71 197.911 143.368L198.048 143.542Z" fill="#170D42"/>
<path fill-rule="evenodd" clip-rule="evenodd" d="M205.706 132.306C212.054 132.306 217.2 126.848 217.2 120.117C217.2 113.385 212.054 107.927 205.706 107.927C199.359 107.927 194.213 113.385 194.213 120.117C194.213 126.848 199.359 132.306 205.706 132.306Z" fill="#FBEFE3"/>
<path fill-rule="evenodd" clip-rule="evenodd" d="M205.707 108.398C211.785 108.398 216.73 113.655 216.73 120.117C216.73 126.579 211.785 131.835 205.707 131.835C199.629 131.835 194.684 126.579 194.684 120.117C194.684 113.655 199.629 108.398 205.707 108.398ZM205.707 132.776C212.304 132.776 217.671 127.097 217.671 120.117C217.671 113.136 212.304 107.457 205.707 107.457C199.11 107.457 193.743 113.136 193.743 120.117C193.743 127.097 199.11 132.776 205.707 132.776Z" fill="#170D42"/>
<path fill-rule="evenodd" clip-rule="evenodd" d="M208.927 124.028C208.945 124.028 208.964 124.027 208.984 124.025L210.906 123.792C211.041 123.775 211.161 123.702 211.239 123.589C211.315 123.477 211.338 123.336 211.304 123.205L210.722 120.992C210.655 120.741 210.396 120.594 210.147 120.657C209.896 120.723 209.746 120.98 209.812 121.231L210.257 122.922L208.87 123.09C208.612 123.122 208.429 123.356 208.46 123.614C208.489 123.853 208.691 124.028 208.927 124.028Z" fill="#170D42"/>
<path fill-rule="evenodd" clip-rule="evenodd" d="M205.477 118.488C205.971 118.488 206.611 118.402 207.277 118.082C207.512 117.97 207.611 117.69 207.498 117.455C207.386 117.221 207.105 117.121 206.87 117.234C205.803 117.745 204.807 117.473 204.797 117.471C204.55 117.404 204.288 117.544 204.216 117.793C204.144 118.042 204.285 118.302 204.534 118.374C204.563 118.383 204.931 118.488 205.477 118.488Z" fill="#170D42"/>
<path fill-rule="evenodd" clip-rule="evenodd" d="M214.19 118.661C214.309 118.661 214.429 118.616 214.52 118.525C214.705 118.343 214.707 118.044 214.525 117.86C213.43 116.751 212.098 116.661 212.042 116.657C211.783 116.652 211.561 116.84 211.545 117.1C211.53 117.358 211.726 117.58 211.984 117.596C212.001 117.598 213.026 117.68 213.855 118.52C213.947 118.614 214.068 118.661 214.19 118.661Z" fill="#170D42"/>
<path fill-rule="evenodd" clip-rule="evenodd" d="M209.352 128.095C210.181 128.095 210.746 127.398 210.808 127.317C210.968 127.113 210.93 126.817 210.724 126.658C210.52 126.499 210.225 126.536 210.066 126.74C209.971 126.858 209.637 127.175 209.338 127.154C209.105 127.148 208.863 126.972 208.621 126.631C208.471 126.42 208.177 126.371 207.964 126.521C207.753 126.672 207.704 126.966 207.854 127.177C208.28 127.775 208.774 128.083 209.322 128.095H209.352Z" fill="#170D42"/>
<path fill-rule="evenodd" clip-rule="evenodd" d="M205.799 122.424C206.423 122.424 206.98 122.157 207.283 121.927C207.49 121.77 207.53 121.474 207.373 121.268C207.216 121.062 206.922 121.02 206.715 121.176C206.619 121.247 205.785 121.827 205.049 121.195C204.852 121.026 204.555 121.048 204.386 121.245C204.216 121.443 204.239 121.739 204.436 121.909C204.879 122.289 205.356 122.424 205.799 122.424Z" fill="#170D42"/>
<path fill-rule="evenodd" clip-rule="evenodd" d="M212.736 122.424C213.36 122.424 213.917 122.157 214.22 121.927C214.427 121.77 214.467 121.474 214.31 121.268C214.153 121.062 213.859 121.02 213.652 121.176C213.556 121.247 212.722 121.827 211.986 121.195C211.789 121.026 211.492 121.048 211.323 121.245C211.153 121.443 211.176 121.739 211.373 121.909C211.816 122.289 212.293 122.424 212.736 122.424Z" fill="#170D42"/>
<path fill-rule="evenodd" clip-rule="evenodd" d="M182.373 120.646C189.941 119.615 186.579 103.438 201.143 103.438H205.639H208.239C222.803 103.438 219.376 119.615 226.943 120.646C239.068 122.299 236.784 134.502 236.784 134.502H209.901L209.048 131.839H209.047C213.73 130.299 217.132 125.668 217.132 120.195C217.132 117.546 216.326 115.101 214.972 113.1H201.813C200.677 113.1 199.721 113.953 199.592 115.082L199 120.266C198.392 120.151 197.716 120.224 196.905 121.176C196.605 121.529 196.391 121.976 196.395 122.439C196.404 123.645 197.385 124.62 198.593 124.62C198.665 124.62 198.734 124.606 198.806 124.598L198.672 130.067L198.61 132.571L198.564 134.502H172.533C172.533 134.502 170.25 122.299 182.373 120.646ZM197.533 95.332C197.533 90.8548 201.162 87.2264 205.639 87.2264C210.115 87.2264 213.744 90.8548 213.744 95.332C213.744 99.8082 210.115 103.438 205.639 103.438C201.162 103.438 197.533 99.8082 197.533 95.332Z" fill="#EFF2F7"/>
<path fill-rule="evenodd" clip-rule="evenodd" d="M172.94 134.032H198.104L198.323 125.076C196.988 124.942 195.935 123.812 195.924 122.442C195.921 121.904 196.142 121.346 196.546 120.871C197.312 119.971 198.024 119.757 198.586 119.754L199.126 115.029C199.281 113.661 200.436 112.63 201.813 112.63H214.972C215.128 112.63 215.274 112.708 215.362 112.837C216.828 115.002 217.603 117.547 217.603 120.195C217.603 125.609 214.421 130.345 209.635 132.131L210.245 134.032H236.377C236.534 132.741 236.83 128.468 234.455 125.184C232.839 122.947 230.29 121.578 226.88 121.113C223.498 120.651 222.153 117.438 220.73 114.037C218.745 109.29 216.494 103.908 208.239 103.908H201.143C192.887 103.908 190.614 109.291 188.608 114.04C187.173 117.44 185.818 120.651 182.437 121.113C179.027 121.578 176.478 122.947 174.862 125.184C172.488 128.468 172.783 132.741 172.94 134.032ZM213.274 95.3321C213.274 91.1222 209.849 87.6971 205.639 87.6971C201.428 87.6971 198.003 91.1222 198.003 95.3321C198.003 99.542 201.428 102.967 205.639 102.967C209.849 102.967 213.274 99.542 213.274 95.3321ZM174.095 124.639C175.868 122.182 178.632 120.681 182.311 120.179C185.159 119.792 186.356 116.957 187.742 113.675C189.756 108.904 192.262 102.967 201.143 102.967H201.753C198.973 101.547 197.062 98.6613 197.062 95.3321C197.062 90.6037 200.91 86.7561 205.639 86.7561C210.367 86.7561 214.215 90.6037 214.215 95.3321C214.215 98.7027 212.255 101.617 209.421 103.018C217.335 103.528 219.695 109.125 221.599 113.674C222.972 116.957 224.158 119.792 227.007 120.179C230.685 120.681 233.45 122.182 235.222 124.639C238.274 128.866 237.291 134.357 237.247 134.589C237.205 134.812 237.011 134.972 236.784 134.972H209.902C209.698 134.972 209.517 134.841 209.454 134.646L208.599 131.983C208.52 131.736 208.655 131.473 208.9 131.392C213.542 129.866 216.662 125.366 216.662 120.195C216.662 117.819 215.991 115.535 214.719 113.571H201.813C200.914 113.571 200.162 114.244 200.06 115.135L199.467 120.319C199.453 120.449 199.385 120.566 199.28 120.644C199.175 120.721 199.042 120.753 198.913 120.728C198.492 120.649 197.984 120.635 197.264 121.482C197.005 121.785 196.863 122.123 196.865 122.435C196.873 123.381 197.647 124.149 198.592 124.149L198.76 124.131C198.893 124.118 199.027 124.163 199.127 124.254C199.224 124.346 199.279 124.475 199.276 124.61L199.033 134.513C199.027 134.769 198.818 134.972 198.563 134.972H172.533C172.306 134.972 172.112 134.812 172.07 134.589C172.027 134.357 171.043 128.866 174.095 124.639Z" fill="#170D42"/>
<path fill-rule="evenodd" clip-rule="evenodd" d="M120.776 252.921L125.986 243.805C129.687 237.329 132.24 230.243 133.343 222.866C136.904 199.049 144.431 176.985 152.486 164.553C155.369 160.107 158.541 156.391 161.697 153.314C169.323 145.873 182.153 150.686 182.937 161.312C183.257 165.652 181.249 169.781 177.762 172.384C159.879 185.73 152.23 228.03 151.689 233.682C151.093 239.906 157.459 239.26 158.5 252.194C159.657 266.558 153.42 267.631 150.839 266.193C148.257 264.754 149.81 253.146 149.81 253.146C144.256 260.711 147.962 272.347 143.901 275.85C140.127 279.105 136.587 275.778 136.587 275.778C130.418 277.705 127.896 272.727 127.896 272.727C120.807 271.688 121.58 264.912 121.58 264.912C117.314 260.192 120.776 252.921 120.776 252.921ZM248.336 153.314C251.492 156.391 254.665 160.107 257.546 164.553C265.602 176.985 273.129 199.049 276.689 222.866C277.792 230.243 280.346 237.329 284.047 243.805L289.257 252.921C289.257 252.921 292.719 260.192 288.451 264.912C288.451 264.912 289.226 271.688 282.136 272.727C282.136 272.727 279.616 277.705 273.446 275.778C273.446 275.778 269.905 279.105 266.132 275.85C262.07 272.347 265.777 260.711 260.221 253.146C260.221 253.146 261.776 264.754 259.195 266.193C256.612 267.631 250.376 266.558 251.532 252.194C252.573 239.26 258.94 239.906 258.343 233.682C257.802 228.03 250.154 185.73 232.271 172.384C228.783 169.781 226.775 165.652 227.095 161.312C227.879 150.686 240.709 145.873 248.336 153.314Z" fill="#FBEFE3"/>
<path fill-rule="evenodd" clip-rule="evenodd" d="M128.415 250.764C124.613 257.867 122.789 261.612 122.047 264.985C122.007 265.36 121.544 270.974 127.461 272.157C126.762 269.131 127.268 263.358 132.198 252.387C132.303 252.15 132.582 252.042 132.82 252.15C133.056 252.257 133.163 252.535 133.056 252.772C127.311 265.561 127.838 270.847 128.663 272.859C128.764 273.103 128.87 273.301 128.978 273.473C129.21 273.753 129.504 274.06 129.872 274.36C129.944 274.39 130.003 274.438 130.05 274.496C131.271 275.425 133.192 276.172 135.959 275.455C135.448 273.818 134.549 268.249 138.901 254.35C138.979 254.102 139.241 253.962 139.491 254.042C139.738 254.12 139.876 254.383 139.798 254.632C134.992 269.978 136.728 274.919 136.973 275.49C137.448 275.903 140.414 278.239 143.594 275.494C145.333 273.994 145.536 270.701 145.771 266.886C146.054 262.294 146.378 257.096 149.376 252.951C149.372 250.598 148.639 249.588 148.624 249.567C148.465 249.364 148.499 249.071 148.702 248.91C148.905 248.749 149.2 248.782 149.363 248.985C149.43 249.07 150.988 251.101 149.983 256.071C149.982 256.076 149.979 256.081 149.978 256.087C149.653 260.217 149.725 265.033 151.068 265.781C151.914 266.255 153.402 266.482 154.812 265.577C156.337 264.597 158.782 261.559 158.032 252.231C157.458 245.097 155.266 242.219 153.504 239.907C152.13 238.103 150.943 236.545 151.222 233.637C151.79 227.702 159.644 185.32 177.48 172.007C180.907 169.449 182.772 165.464 182.469 161.347C182.12 156.63 179.162 152.662 174.747 150.989C170.308 149.308 165.433 150.327 162.026 153.65C158.577 157.015 155.5 160.77 152.883 164.809C144.558 177.656 137.249 199.929 133.809 222.936C132.717 230.241 130.223 237.341 126.395 244.038L121.201 253.123C121.17 253.19 118.27 259.432 121.357 263.861C122.234 260.611 124.077 256.875 127.585 250.32C127.709 250.092 127.992 250.006 128.222 250.127C128.452 250.251 128.538 250.536 128.415 250.764ZM120.368 252.688L125.578 243.572C129.348 236.975 131.805 229.986 132.878 222.798C136.336 199.665 143.7 177.25 152.093 164.298C154.748 160.2 157.87 156.391 161.369 152.977C165.041 149.395 170.294 148.296 175.08 150.11C179.841 151.913 183.031 156.193 183.407 161.278C183.734 165.717 181.729 170.01 178.043 172.762C160.479 185.87 152.722 227.846 152.158 233.727C151.915 236.268 152.896 237.555 154.253 239.336C155.992 241.619 158.374 244.746 158.971 252.156C159.721 261.481 157.399 265.031 155.321 266.369C153.561 267.501 151.684 267.202 150.61 266.604C148.458 265.404 148.782 258.695 149.114 255.157C147.213 258.787 146.948 263.086 146.711 266.943C146.462 270.971 146.248 274.449 144.21 276.206C142.874 277.358 141.561 277.745 140.398 277.744C138.51 277.744 137.019 276.725 136.481 276.301C133.235 277.238 130.957 276.328 129.501 275.221C129.335 275.155 128.697 274.85 128.128 273.891C127.886 273.59 127.71 273.328 127.604 273.157C121.112 272.076 121.042 266.278 121.099 265.077C116.875 260.182 120.206 253.025 120.368 252.688ZM232.553 172.007C250.39 185.32 258.244 227.702 258.813 233.637C259.091 236.545 257.904 238.103 256.53 239.907C254.768 242.219 252.576 245.097 252.002 252.231C251.252 261.559 253.697 264.597 255.223 265.577C256.632 266.482 258.12 266.254 258.966 265.782C260.309 265.034 260.381 260.217 260.057 256.087C260.055 256.08 260.052 256.076 260.051 256.071C259.046 251.101 260.604 249.07 260.672 248.985C260.832 248.784 261.123 248.751 261.328 248.909C261.531 249.067 261.567 249.362 261.411 249.567C261.4 249.581 260.663 250.589 260.658 252.95C263.657 257.096 263.979 262.294 264.263 266.885C264.498 270.701 264.701 273.994 266.44 275.494C269.621 278.238 272.587 275.903 273.063 275.49C273.308 274.913 275.038 269.967 270.236 254.632C270.158 254.383 270.296 254.12 270.544 254.042C270.794 253.962 271.057 254.102 271.134 254.35C275.486 268.248 274.587 273.818 274.075 275.455C276.857 276.173 278.788 275.406 280.011 274.465C280.031 274.445 280.055 274.431 280.079 274.414C280.492 274.087 280.821 273.75 281.072 273.447C281.175 273.279 281.275 273.092 281.37 272.859C282.197 270.847 282.723 265.561 276.978 252.772C276.872 252.535 276.978 252.257 277.214 252.15C277.453 252.044 277.73 252.15 277.836 252.387C282.765 263.357 283.272 269.131 282.572 272.157C288.48 270.976 288.027 265.376 287.986 264.988C287.247 261.615 285.421 257.869 281.619 250.764C281.497 250.536 281.582 250.251 281.812 250.127C282.041 250.006 282.326 250.092 282.449 250.32C285.957 256.874 287.8 260.611 288.676 263.86C291.757 259.437 288.865 253.192 288.849 253.155L283.639 244.038C279.811 237.341 277.317 230.241 276.225 222.936C272.785 199.93 265.477 177.657 257.152 164.809C254.534 160.771 251.458 157.016 248.007 153.65C244.601 150.327 239.727 149.31 235.287 150.989C230.872 152.662 227.913 156.63 227.566 161.347C227.262 165.464 229.127 169.449 232.553 172.007ZM234.954 150.11C239.74 148.296 244.993 149.396 248.664 152.977C252.165 156.391 255.286 160.201 257.941 164.298C266.335 177.251 273.698 199.666 277.156 222.798C278.23 229.986 280.686 236.975 284.456 243.572L289.683 252.72C289.828 253.025 293.159 260.182 288.935 265.077C288.991 266.278 288.923 272.076 282.43 273.157C282.325 273.327 282.15 273.588 281.908 273.888C281.334 274.859 280.688 275.161 280.528 275.223C279.073 276.328 276.795 277.235 273.553 276.301C273.016 276.725 271.524 277.745 269.637 277.744C268.474 277.744 267.159 277.358 265.825 276.206C263.787 274.449 263.572 270.971 263.324 266.943C263.086 263.086 262.82 258.787 260.92 255.157C261.253 258.695 261.576 265.404 259.424 266.604C258.351 267.202 256.473 267.499 254.714 266.369C252.635 265.031 250.314 261.481 251.064 252.156C251.66 244.746 254.042 241.619 255.782 239.336C257.138 237.555 258.119 236.268 257.876 233.727C257.313 227.846 249.555 185.87 231.99 172.762C228.305 170.01 226.3 165.717 226.627 161.278C227.002 156.193 230.193 151.913 234.954 150.11Z" fill="#170D42"/>
<path fill-rule="evenodd" clip-rule="evenodd" d="M129.686 218.522C129.686 218.522 133.121 211.86 140.702 181.941C148.283 152.021 175.969 145.358 175.969 145.358L175.968 145.359C179.972 144.082 184.14 143.254 188.399 142.917C188.417 142.916 188.437 142.913 188.456 142.911C189.104 142.861 189.754 142.824 190.407 142.796C190.473 142.793 190.538 142.788 190.605 142.786C191.319 142.758 192.036 142.744 192.754 142.744H197.18C197.181 142.745 197.182 142.747 197.182 142.75L197.217 142.744H197.218H197.221C198.406 145.239 201.34 147.009 204.783 147.016C208.226 147.009 211.16 145.239 212.344 142.744H212.348L212.383 142.75C212.384 142.747 212.386 142.745 212.387 142.744H216.811C217.529 142.744 218.246 142.758 218.96 142.786C219.027 142.788 219.093 142.793 219.159 142.796C219.811 142.824 220.462 142.861 221.11 142.911C221.129 142.913 221.148 142.916 221.168 142.917C225.427 143.254 229.593 144.082 233.597 145.359V145.358C233.597 145.358 261.284 152.021 268.864 181.941C276.445 211.86 279.88 218.522 279.88 218.522H253.472C253.472 218.522 248.867 197.435 240.714 185.382C241.309 195.491 243.173 211.708 243.173 211.708H166.392C166.392 211.708 168.256 195.491 168.853 185.382C160.698 197.435 156.093 218.522 156.093 218.522H129.686Z" fill="#4B69FD"/>
<path fill-rule="evenodd" clip-rule="evenodd" d="M241.309 193.288L239.442 174.605L241.309 193.288Z" fill="#4B69FD"/>
<path fill-rule="evenodd" clip-rule="evenodd" d="M168.361 192.471L170.056 174.619L168.361 192.471Z" fill="#4B69FD"/>
<path fill-rule="evenodd" clip-rule="evenodd" d="M167.798 198.365H241.774L241.419 194.533H168.148L167.798 198.365Z" fill="#D16AE2"/>
<path fill-rule="evenodd" clip-rule="evenodd" d="M167.449 202.182H242.131L241.775 198.349H167.799L167.449 202.182Z" fill="#729AE8"/>
<path fill-rule="evenodd" clip-rule="evenodd" d="M155.718 218.051C156.382 215.17 160.946 196.23 168.462 185.118C168.496 185.069 168.55 185.05 168.596 185.018L169.588 174.575C169.613 174.316 169.839 174.12 170.101 174.151C170.359 174.176 170.549 174.405 170.524 174.664L168.829 192.516C168.824 192.576 168.807 192.63 168.781 192.681C168.742 193.139 168.701 193.6 168.661 194.061H240.905C240.883 193.82 240.863 193.58 240.842 193.339C240.841 193.338 240.84 193.337 240.84 193.335L238.973 174.652C238.947 174.393 239.135 174.163 239.394 174.137C239.654 174.113 239.883 174.3 239.909 174.558L240.954 185.004C241.007 185.039 241.067 185.064 241.103 185.118C248.62 196.23 253.184 215.17 253.848 218.051H279.145C278.138 215.739 274.726 206.988 268.408 182.056C260.969 152.692 233.763 145.883 233.454 145.807C229.451 144.53 225.305 143.716 221.074 143.381C220.43 143.331 219.786 143.295 219.139 143.267C219.136 143.267 219.04 143.261 219.038 143.261L218.943 143.255C218.234 143.228 217.524 143.214 216.811 143.214H212.634C211.256 145.812 208.212 147.479 204.782 147.487C201.354 147.479 198.31 145.812 196.931 143.214H192.754C192.042 143.214 191.332 143.228 190.53 143.261C190.527 143.261 190.43 143.267 190.426 143.267C189.78 143.295 189.135 143.331 188.435 143.386C184.261 143.716 180.115 144.53 176.079 145.816C175.805 145.882 148.583 152.751 141.158 182.056C134.84 206.988 131.428 215.739 130.421 218.051H155.718ZM242.647 211.238C242.507 210.003 242.141 206.714 241.728 202.652H167.837C167.424 206.714 167.058 210.003 166.919 211.238H242.647ZM168.315 197.879H241.257C241.166 196.929 241.076 195.967 240.99 195.002H168.578L168.315 197.879ZM241.347 198.836H168.226L167.964 201.711H241.614L241.347 198.836ZM129.267 218.306C129.302 218.24 132.782 211.279 140.246 181.824C147.813 151.963 175.596 144.956 175.825 144.911C179.897 143.612 184.114 142.783 188.419 142.442C189.072 142.392 189.729 142.355 190.47 142.322L190.586 142.315C191.307 142.287 192.03 142.273 192.754 142.273H197.18C197.187 142.273 197.196 142.273 197.203 142.273C197.386 142.265 197.566 142.371 197.647 142.541C198.798 144.967 201.6 146.538 204.782 146.546C207.966 146.538 210.767 144.967 211.919 142.541C211.997 142.378 212.167 142.273 212.348 142.273H216.811C217.536 142.273 218.259 142.287 218.977 142.315L219.18 142.327C219.837 142.355 220.493 142.392 221.205 142.448C225.45 142.783 229.668 143.612 233.707 144.9C233.987 144.968 261.757 151.974 269.321 181.824C276.784 211.279 280.264 218.24 280.299 218.306C280.373 218.452 280.368 218.627 280.282 218.767C280.196 218.907 280.044 218.992 279.88 218.992H253.473C253.251 218.992 253.059 218.838 253.012 218.623C252.969 218.421 248.707 199.176 241.298 187.157C241.459 189.505 241.672 192.093 241.904 194.68L242.216 198.027C242.224 198.118 242.234 198.211 242.242 198.302C242.242 198.303 242.243 198.304 242.243 198.306L242.26 198.486C242.934 205.475 243.63 211.555 243.641 211.655C243.657 211.787 243.615 211.921 243.525 212.022C243.436 212.121 243.308 212.179 243.174 212.179H166.392C166.258 212.179 166.13 212.121 166.041 212.022C165.951 211.921 165.909 211.787 165.924 211.655C165.942 211.502 167.584 197.162 168.267 187.157C160.858 199.176 156.598 218.421 156.553 218.623C156.506 218.838 156.314 218.992 156.093 218.992H129.686C129.522 218.992 129.37 218.907 129.284 218.767C129.198 218.627 129.193 218.452 129.267 218.306Z" fill="#170D42"/>
<path fill-rule="evenodd" clip-rule="evenodd" d="M307.861 398.973H427.364V341.573H307.861V398.973Z" fill="#729AE8"/>
<path fill-rule="evenodd" clip-rule="evenodd" d="M336.712 398.494L397.806 398.267L398.041 386.371H336.614L336.712 398.494Z" fill="#EEF2F8"/>
<path fill-rule="evenodd" clip-rule="evenodd" d="M337.031 354.747H398.194V341.573H337.031V354.747Z" fill="#EEF2F8"/>
<path fill-rule="evenodd" clip-rule="evenodd" d="M307.827 399.002H426.457V341.545H398.194V354.27C398.194 354.533 397.992 354.747 397.742 354.747H336.542C336.291 354.747 336.09 354.533 336.09 354.27V341.545H307.827V399.002ZM336.542 340.632H397.742H426.911C427.162 340.632 427.364 340.837 427.364 341.088V399.458C427.364 399.709 427.162 399.914 426.911 399.914H307.373C307.123 399.914 306.92 399.709 306.92 399.458V341.088C306.92 340.837 307.123 340.632 307.373 340.632H336.542ZM337.031 398.032H397.253V386.74H337.031V398.032ZM397.742 398.973H336.542C336.291 398.973 336.09 398.774 336.09 398.528V386.244C336.09 385.998 336.291 385.799 336.542 385.799H397.742C397.992 385.799 398.194 385.998 398.194 386.244V398.528C398.194 398.774 397.992 398.973 397.742 398.973ZM397.253 353.806H337.031V341.573H397.253V353.806Z" fill="#170D42"/>
<path fill-rule="evenodd" clip-rule="evenodd" d="M318.211 341.573H403.84V300.171H318.211V341.573Z" fill="#729AE8"/>
<path fill-rule="evenodd" clip-rule="evenodd" d="M338.913 340.632H383.138V332.163H338.913V340.632Z" fill="#EEF2F8"/>
<path fill-rule="evenodd" clip-rule="evenodd" d="M338.913 308.639H383.138V300.171H338.913V308.639Z" fill="#EEF2F8"/>
<path fill-rule="evenodd" clip-rule="evenodd" d="M319.115 340.664H338.913V331.7C338.913 331.437 339.113 331.223 339.362 331.223H382.689C382.937 331.223 383.139 331.437 383.139 331.7V340.664H402.937V300.138H383.253V308.621C383.253 308.873 383.051 309.076 382.802 309.076H339.251C339.001 309.076 338.799 308.873 338.799 308.621V300.138H319.115V340.664ZM339.251 299.23H382.802H403.388C403.638 299.23 403.84 299.433 403.84 299.684V341.119C403.84 341.371 403.638 341.573 403.388 341.573H382.689H339.362H318.663C318.413 341.573 318.211 341.371 318.211 341.119V299.684C318.211 299.433 318.413 299.23 318.663 299.23H339.251ZM339.703 300.138V308.167H382.35V300.138H339.703ZM339.854 340.632H382.198V332.164H339.854V340.632Z" fill="#170D42"/>
<path fill-rule="evenodd" clip-rule="evenodd" d="M514.976 399.278H445.037L445.214 398.786C447.47 392.508 452.918 387.921 459.488 386.766L466.163 385.593C469.586 384.991 472.771 383.439 475.355 381.115L475.5 380.984H514.976V399.278Z" fill="#EFF2F7"/>
<path fill-rule="evenodd" clip-rule="evenodd" d="M445.708 398.808H514.506V381.454L475.67 381.464C473.017 383.851 469.759 385.438 466.244 386.057L459.57 387.229C453.23 388.344 447.931 392.774 445.708 398.808ZM514.976 399.749H445.038C444.885 399.749 444.741 399.674 444.654 399.549C444.565 399.424 444.544 399.263 444.595 399.119L444.772 398.627C447.079 392.206 452.687 387.484 459.407 386.302L466.082 385.129C469.422 384.543 472.52 383.033 475.04 380.765L475.184 380.635C475.271 380.557 475.383 380.513 475.5 380.513H514.976C515.236 380.513 515.447 380.724 515.447 380.984V399.278C515.447 399.538 515.236 399.749 514.976 399.749Z" fill="#170D42"/>
<path fill-rule="evenodd" clip-rule="evenodd" d="M512.15 390.131C512.15 391.355 511.158 392.348 509.934 392.348C508.709 392.348 507.718 391.355 507.718 390.131C507.718 388.907 508.709 387.915 509.934 387.915C511.158 387.915 512.15 388.907 512.15 390.131Z" fill="#D16AE2"/>
<path fill-rule="evenodd" clip-rule="evenodd" d="M509.933 388.384C508.971 388.384 508.187 389.168 508.187 390.13C508.187 391.093 508.971 391.876 509.933 391.876C510.896 391.876 511.68 391.093 511.68 390.13C511.68 389.168 510.896 388.384 509.933 388.384ZM509.933 392.817C508.451 392.817 507.246 391.612 507.246 390.13C507.246 388.649 508.451 387.443 509.933 387.443C511.416 387.443 512.621 388.649 512.621 390.13C512.621 391.612 511.416 392.817 509.933 392.817Z" fill="#170D42"/>
<path fill-rule="evenodd" clip-rule="evenodd" d="M470.976 388.97C470.834 388.97 470.693 388.906 470.601 388.784C468.654 386.211 466.765 386.017 466.746 386.016C466.488 385.994 466.295 385.768 466.316 385.51C466.336 385.252 466.562 385.052 466.816 385.078C466.909 385.085 469.126 385.275 471.351 388.215C471.508 388.422 471.467 388.718 471.26 388.875C471.175 388.939 471.075 388.97 470.976 388.97Z" fill="#170D42"/>
<path fill-rule="evenodd" clip-rule="evenodd" d="M475.17 387.493C475.028 387.493 474.887 387.429 474.795 387.307C472.848 384.734 470.957 384.541 470.939 384.54C470.682 384.517 470.489 384.291 470.51 384.033C470.529 383.776 470.756 383.578 471.01 383.602C471.103 383.608 473.319 383.798 475.545 386.739C475.702 386.946 475.66 387.241 475.453 387.398C475.369 387.462 475.269 387.493 475.17 387.493Z" fill="#170D42"/>
<path fill-rule="evenodd" clip-rule="evenodd" d="M445.708 398.808H514.506V395.599H447.273C446.639 396.63 446.114 397.709 445.708 398.808ZM514.976 399.749H445.038C444.885 399.749 444.741 399.675 444.654 399.549C444.565 399.424 444.544 399.263 444.595 399.119L444.771 398.628C445.236 397.337 445.856 396.075 446.615 394.877C446.701 394.741 446.851 394.658 447.013 394.658H514.976C515.236 394.658 515.447 394.869 515.447 395.129V399.278C515.447 399.538 515.236 399.749 514.976 399.749Z" fill="#170D42"/>
<path fill-rule="evenodd" clip-rule="evenodd" d="M447.892 394.658H464.451C464.369 391.403 463.921 388.698 463.119 386.605L459.57 387.229C454.81 388.066 450.639 390.739 447.892 394.658ZM446.544 396.382C446.466 396.382 446.386 396.362 446.312 396.321C446.087 396.192 446.008 395.906 446.136 395.679C446.136 395.679 446.136 395.679 446.136 395.678C446.137 395.678 446.137 395.678 446.137 395.678C446.179 395.602 446.223 395.527 446.266 395.451C446.38 395.257 446.495 395.065 446.615 394.876C446.621 394.868 446.627 394.859 446.632 394.851C449.502 390.329 454.108 387.234 459.407 386.302L463.333 385.612C463.551 385.573 463.765 385.691 463.849 385.895C464.825 388.242 465.347 391.346 465.4 395.122C465.402 395.248 465.353 395.369 465.265 395.459C465.176 395.548 465.056 395.599 464.93 395.599H447.275C447.208 395.707 447.143 395.817 447.078 395.927C447.036 396 446.995 396.071 446.953 396.145C446.867 396.296 446.708 396.382 446.544 396.382Z" fill="#170D42"/>
<path fill-rule="evenodd" clip-rule="evenodd" d="M446.074 397.262C446.003 397.262 445.931 397.246 445.864 397.212C445.631 397.096 445.537 396.814 445.653 396.581V396.58C445.654 396.58 445.654 396.579 445.654 396.579C445.699 396.489 445.744 396.4 445.791 396.311C445.869 396.162 445.949 396.012 446.031 395.864C446.157 395.637 446.442 395.555 446.67 395.682C446.897 395.808 446.98 396.093 446.855 396.321C446.855 396.321 446.854 396.321 446.854 396.322C446.776 396.461 446.701 396.601 446.628 396.742C446.583 396.829 446.538 396.914 446.495 397.002C446.412 397.167 446.246 397.262 446.074 397.262Z" fill="#170D42"/>
<path fill-rule="evenodd" clip-rule="evenodd" d="M445.626 398.22C445.564 398.22 445.501 398.207 445.44 398.181C445.262 398.104 445.156 397.931 445.156 397.749C445.156 397.687 445.168 397.623 445.195 397.563C445.196 397.561 445.196 397.558 445.197 397.555C445.272 397.384 445.352 397.216 445.431 397.046C445.433 397.043 445.435 397.041 445.435 397.037L445.45 397.008L445.451 397.009C445.574 396.799 445.844 396.696 446.066 396.801C446.301 396.911 446.412 397.169 446.303 397.405L446.241 397.536C446.179 397.669 446.117 397.801 446.058 397.935C445.982 398.113 445.809 398.22 445.626 398.22Z" fill="#170D42"/>
<path fill-rule="evenodd" clip-rule="evenodd" d="M475.5 380.985H514.977V376.322H475.5V380.985Z" fill="#D16AE2"/>
<path fill-rule="evenodd" clip-rule="evenodd" d="M475.97 380.513H514.506V376.792H475.97V380.513ZM514.977 381.454H475.5C475.24 381.454 475.029 381.244 475.029 380.984V376.322C475.029 376.062 475.24 375.852 475.5 375.852H514.977C515.237 375.852 515.448 376.062 515.448 376.322V380.984C515.448 381.244 515.237 381.454 514.977 381.454Z" fill="#170D42"/>
<path fill-rule="evenodd" clip-rule="evenodd" d="M514.037 365.965L514.976 376.321H475.5L474.341 365.965H514.037Z" fill="#8B4500"/>
<path fill-rule="evenodd" clip-rule="evenodd" d="M475.92 375.851H514.462L513.607 366.435H474.867L475.92 375.851ZM514.976 376.792H475.5C475.26 376.792 475.058 376.612 475.032 376.374L473.874 366.017C473.859 365.884 473.901 365.751 473.99 365.651C474.08 365.551 474.208 365.494 474.341 365.494H514.037C514.28 365.494 514.483 365.68 514.506 365.923L515.445 376.279C515.457 376.411 515.413 376.54 515.323 376.638C515.235 376.736 515.108 376.792 514.976 376.792Z" fill="#170D42"/>
<path fill-rule="evenodd" clip-rule="evenodd" d="M468.887 314.679C466.85 304.836 465.219 296.366 465.135 294.123L467.707 293.37L468.887 314.679ZM536.004 210.307H461.497L464.908 253.654L449.921 257.401C434.711 261.204 424.589 275.564 426.101 291.169C428.033 311.092 431.473 338.005 437.171 358.008L474.309 353.365L477.209 362.214L480.324 365.965H517.426L505.092 282.431L509.676 281.089C534.454 273.839 548.712 247.923 541.572 223.112L536.004 210.307Z" fill="#729AE8"/>
<path fill-rule="evenodd" clip-rule="evenodd" d="M465.628 294.469C465.779 296.325 466.595 300.953 468.061 308.274L467.27 293.988L465.628 294.469ZM468.887 315.15C468.667 315.15 468.472 314.995 468.426 314.775C466.004 303.069 464.739 296.127 464.665 294.141C464.657 293.925 464.796 293.732 465.003 293.671L467.575 292.919C467.712 292.88 467.862 292.903 467.978 292.986C468.096 293.069 468.168 293.2 468.177 293.344L469.357 314.653C469.371 314.899 469.192 315.114 468.949 315.146C468.928 315.149 468.907 315.15 468.887 315.15ZM480.545 365.494H516.88L504.626 282.5C504.593 282.267 504.735 282.045 504.96 281.979L509.543 280.638C534.003 273.481 548.167 247.734 541.119 223.242L535.65 210.778H462.006L465.377 253.618C465.394 253.847 465.245 254.055 465.022 254.111L450.036 257.858C434.936 261.633 425.067 275.622 426.57 291.123C428.431 310.325 431.838 337.37 437.513 357.492L474.251 352.899C474.477 352.869 474.687 353.005 474.756 353.219L477.629 361.983L480.545 365.494ZM480.324 366.435C480.184 366.435 480.051 366.373 479.962 366.265L476.848 362.514C476.81 362.469 476.781 362.417 476.762 362.36L473.983 353.881L437.229 358.475C437 358.501 436.781 358.36 436.718 358.137C430.957 337.909 427.51 310.578 425.634 291.214C424.086 275.246 434.252 260.833 449.807 256.946L464.407 253.295L461.028 210.344C461.018 210.213 461.063 210.084 461.152 209.987C461.241 209.891 461.366 209.837 461.498 209.837H536.004C536.214 209.837 536.398 209.975 536.457 210.177L542.023 222.982C549.214 247.969 534.762 274.239 509.807 281.541L505.617 282.767L517.89 365.896C517.911 366.032 517.871 366.169 517.781 366.273C517.692 366.375 517.562 366.435 517.426 366.435H480.324Z" fill="#170D42"/>
<path fill-rule="evenodd" clip-rule="evenodd" d="M455.131 297.094C454.926 297.094 454.738 296.959 454.679 296.753C454.608 296.502 454.753 296.243 455.003 296.171L504.963 281.978C505.214 281.906 505.473 282.053 505.545 282.302C505.615 282.551 505.471 282.812 505.22 282.883L455.26 297.076C455.217 297.088 455.174 297.094 455.131 297.094Z" fill="#170D42"/>
<path fill-rule="evenodd" clip-rule="evenodd" d="M464.907 254.126C464.694 254.126 464.502 253.982 464.45 253.766C464.39 253.513 464.545 253.259 464.797 253.198L499.581 244.787C499.831 244.725 500.088 244.88 500.149 245.133C500.21 245.385 500.055 245.639 499.802 245.7L465.018 254.113C464.981 254.122 464.944 254.126 464.907 254.126Z" fill="#170D42"/>
<path fill-rule="evenodd" clip-rule="evenodd" d="M477.209 362.214L474.309 353.366L443.29 357.243L447.81 376.322L477.209 362.214Z" fill="#8B4500"/>
<path fill-rule="evenodd" clip-rule="evenodd" d="M443.869 357.645L448.133 375.645L476.634 361.968L473.983 353.881L443.869 357.645ZM447.811 376.792C447.741 376.792 447.672 376.777 447.608 376.746C447.479 376.684 447.385 376.569 447.352 376.429L442.832 357.351C442.802 357.221 442.827 357.084 442.903 356.975C442.98 356.865 443.099 356.792 443.232 356.776L474.251 352.898C474.477 352.869 474.686 353.005 474.756 353.218L477.656 362.067C477.73 362.291 477.626 362.536 477.413 362.638L448.014 376.746C447.95 376.777 447.88 376.792 447.811 376.792Z" fill="#170D42"/>
<path fill-rule="evenodd" clip-rule="evenodd" d="M477.209 362.214L489.355 376.845L454.522 399.278H424.071L424.406 397.912C425.907 391.795 431.419 387.512 437.718 387.569L441.027 387.598C441.943 387.606 442.843 387.361 443.629 386.89L445.027 386.051C446.424 385.213 447.322 383.742 447.429 382.115L447.81 376.322L477.209 362.214Z" fill="#EFF2F7"/>
<path fill-rule="evenodd" clip-rule="evenodd" d="M424.671 398.807H454.385L488.655 376.736L477.082 362.796L448.262 376.627L447.9 382.146C447.782 383.926 446.799 385.536 445.27 386.454L443.872 387.293C443.011 387.809 442.046 388.062 441.023 388.068L437.714 388.039C431.616 388.006 426.321 392.09 424.864 398.024L424.671 398.807ZM454.523 399.748H424.072C423.927 399.748 423.79 399.682 423.701 399.569C423.612 399.454 423.58 399.306 423.614 399.166L423.949 397.799C425.511 391.439 431.186 387.039 437.722 387.098L441.032 387.127C441.849 387.111 442.675 386.913 443.387 386.486L444.785 385.647C446.05 384.889 446.864 383.556 446.96 382.085L447.342 376.291C447.352 376.122 447.454 375.971 447.607 375.898L477.006 361.79C477.202 361.696 477.434 361.747 477.572 361.914L489.718 376.544C489.804 376.648 489.842 376.783 489.821 376.916C489.8 377.049 489.724 377.167 489.61 377.24L454.778 399.673C454.702 399.722 454.614 399.748 454.523 399.748Z" fill="#170D42"/>
<path fill-rule="evenodd" clip-rule="evenodd" d="M447.429 382.115L480.324 365.965L477.209 362.214L447.811 376.321L447.429 382.115Z" fill="#D16AE2"/>
<path fill-rule="evenodd" clip-rule="evenodd" d="M448.262 376.627L447.953 381.334L479.58 365.806L477.082 362.797L448.262 376.627ZM447.429 382.586C447.338 382.586 447.247 382.559 447.168 382.506C447.028 382.412 446.949 382.252 446.96 382.085L447.341 376.291C447.352 376.122 447.454 375.971 447.607 375.898L477.006 361.79C477.201 361.696 477.434 361.747 477.572 361.914L480.686 365.665C480.777 365.776 480.814 365.922 480.784 366.064C480.754 366.205 480.661 366.324 480.531 366.387L447.637 382.537C447.571 382.569 447.5 382.586 447.429 382.586Z" fill="#170D42"/>
<path fill-rule="evenodd" clip-rule="evenodd" d="M424.639 398.808H454.385L488.655 376.736L486.383 374L455.829 393.883C454.107 395.004 452.11 395.597 450.054 395.597H425.713C425.137 396.688 424.795 398.061 424.639 398.808ZM454.523 399.749H424.072C423.934 399.749 423.804 399.688 423.714 399.584C423.625 399.479 423.585 399.342 423.607 399.206C423.623 399.101 424.015 396.625 425.03 394.888C425.114 394.744 425.269 394.656 425.436 394.656H450.054C451.927 394.656 453.746 394.116 455.316 393.095L486.221 372.983C486.421 372.853 486.688 372.893 486.84 373.077L489.719 376.544C489.804 376.648 489.842 376.783 489.821 376.916C489.801 377.049 489.724 377.167 489.611 377.24L454.778 399.673C454.702 399.722 454.614 399.749 454.523 399.749Z" fill="#170D42"/>
<path fill-rule="evenodd" clip-rule="evenodd" d="M426.218 394.656H443.17C444.148 390.546 442.508 388.509 441.982 387.982C441.644 388.042 441.327 388.061 441.022 388.068L437.714 388.039C432.953 387.995 428.554 390.571 426.218 394.656ZM443.537 395.597H425.435C425.272 395.597 425.12 395.514 425.034 395.376C424.949 395.238 424.939 395.066 425.012 394.921C427.387 390.121 432.378 387.031 437.722 387.098L441.031 387.127C441.342 387.129 441.662 387.093 442.024 387.015C442.161 386.985 442.307 387.018 442.418 387.107C442.544 387.206 445.493 389.618 443.991 395.248C443.937 395.454 443.749 395.597 443.537 395.597Z" fill="#170D42"/>
<path fill-rule="evenodd" clip-rule="evenodd" d="M482.224 372.577C482.224 373.801 481.231 374.794 480.007 374.794C478.783 374.794 477.791 373.801 477.791 372.577C477.791 371.353 478.783 370.361 480.007 370.361C481.231 370.361 482.224 371.353 482.224 372.577Z" fill="#D16AE2"/>
<path fill-rule="evenodd" clip-rule="evenodd" d="M480.007 370.831C479.044 370.831 478.26 371.614 478.26 372.576C478.26 373.54 479.044 374.323 480.007 374.323C480.969 374.323 481.753 373.54 481.753 372.576C481.753 371.614 480.969 370.831 480.007 370.831ZM480.007 375.264C478.525 375.264 477.319 374.058 477.319 372.576C477.319 371.095 478.525 369.89 480.007 369.89C481.489 369.89 482.694 371.095 482.694 372.576C482.694 374.058 481.489 375.264 480.007 375.264Z" fill="#170D42"/>
<path fill-rule="evenodd" clip-rule="evenodd" d="M452.706 385.684C452.7 385.684 452.694 385.684 452.688 385.684C448.852 385.53 446.737 384.606 446.648 384.566C446.411 384.46 446.305 384.182 446.41 383.945C446.516 383.708 446.793 383.602 447.031 383.706C447.051 383.714 449.088 384.598 452.725 384.743C452.985 384.753 453.186 384.973 453.176 385.232C453.167 385.485 452.958 385.684 452.706 385.684Z" fill="#170D42"/>
<path fill-rule="evenodd" clip-rule="evenodd" d="M449.221 389.473C449.079 389.473 448.938 389.409 448.846 389.287C446.899 386.714 445.008 386.521 444.989 386.52C444.733 386.497 444.54 386.271 444.56 386.013C444.58 385.756 444.806 385.56 445.061 385.581C445.154 385.588 447.37 385.778 449.596 388.719C449.753 388.926 449.711 389.221 449.504 389.378C449.42 389.442 449.32 389.473 449.221 389.473Z" fill="#170D42"/>
<path fill-rule="evenodd" clip-rule="evenodd" d="M437.17 358.478C436.937 358.478 436.733 358.304 436.704 358.066C436.671 357.808 436.855 357.573 437.113 357.541L476.612 352.604C475.327 346.858 464.882 300.001 464.664 294.14C464.655 293.881 464.857 293.662 465.117 293.653C465.383 293.632 465.595 293.846 465.605 294.106C465.828 300.131 477.525 352.376 477.643 352.903C477.672 353.033 477.645 353.169 477.569 353.277C477.493 353.385 477.374 353.457 477.242 353.473L437.229 358.475C437.21 358.478 437.19 358.478 437.17 358.478Z" fill="#170D42"/>
<path fill-rule="evenodd" clip-rule="evenodd" d="M490.88 143.721C490.88 143.721 494.205 141.296 493.614 131.281C493.614 131.281 498.873 134.028 504.612 129.383L505.935 143.605C505.935 143.605 501.957 148.649 497.785 148.159C493.614 147.67 490.88 143.721 490.88 143.721Z" fill="#8B4500"/>
<path fill-rule="evenodd" clip-rule="evenodd" d="M493.814 130.002C497.155 131.821 500.64 131.194 504.335 128.077C504.628 127.83 505.042 128.044 505.08 128.462L506.403 143.282C506.417 143.433 506.375 143.583 506.289 143.697C503.544 147.323 500.688 148.986 497.736 148.625C494.825 148.27 492.407 146.65 490.507 143.791C490.34 143.539 490.393 143.177 490.622 143.003C492.653 141.459 493.529 137.31 493.144 130.531C493.121 130.117 493.49 129.826 493.814 130.002ZM505.327 143.355L504.101 129.854L503.851 130.041C500.498 132.492 497.228 133.067 494.079 131.742L493.94 131.681L493.962 132.241C494.15 138.01 493.321 141.835 491.408 143.7L491.35 143.754L491.479 143.929C493.087 146.052 495.04 147.286 497.354 147.648L497.671 147.691C500.297 148.006 502.889 146.524 505.465 143.182L505.327 143.355Z" fill="#170D42"/>
<path fill-rule="evenodd" clip-rule="evenodd" d="M497.664 132.116C491.316 132.116 486.17 126.658 486.17 119.926C486.17 113.195 491.316 107.737 497.664 107.737C504.012 107.737 509.157 113.195 509.157 119.926C509.157 126.658 504.012 132.116 497.664 132.116Z" fill="#8B4500"/>
<path fill-rule="evenodd" clip-rule="evenodd" d="M497.664 108.203C491.584 108.203 486.637 113.462 486.637 119.926C486.637 126.391 491.584 131.649 497.664 131.649C503.745 131.649 508.691 126.391 508.691 119.926C508.691 113.462 503.745 108.203 497.664 108.203ZM497.664 132.581C491.07 132.581 485.704 126.904 485.704 119.926C485.704 112.948 491.07 107.271 497.664 107.271C504.258 107.271 509.624 112.948 509.624 119.926C509.624 126.904 504.258 132.581 497.664 132.581Z" fill="#170D42"/>
<path fill-rule="evenodd" clip-rule="evenodd" d="M494.444 123.837C494.425 123.837 494.407 123.837 494.387 123.835L492.465 123.601C492.331 123.584 492.209 123.511 492.133 123.398C492.057 123.286 492.032 123.146 492.067 123.014L492.65 120.801C492.717 120.551 492.974 120.401 493.225 120.466C493.475 120.533 493.626 120.79 493.56 121.041L493.115 122.732L494.501 122.899C494.758 122.931 494.942 123.166 494.911 123.423C494.882 123.662 494.679 123.837 494.444 123.837Z" fill="#170D42"/>
<path fill-rule="evenodd" clip-rule="evenodd" d="M497.664 119.66C497.664 120.227 497.375 120.687 497.019 120.687C496.662 120.687 496.373 120.227 496.373 119.66C496.373 119.093 496.662 118.633 497.019 118.633C497.375 118.633 497.664 119.093 497.664 119.66Z" fill="#170D42"/>
<path fill-rule="evenodd" clip-rule="evenodd" d="M491.397 119.66C491.397 120.227 491.108 120.687 490.75 120.687C490.395 120.687 490.105 120.227 490.105 119.66C490.105 119.093 490.395 118.633 490.75 118.633C491.108 118.633 491.397 119.093 491.397 119.66Z" fill="#170D42"/>
<path fill-rule="evenodd" clip-rule="evenodd" d="M498.629 117.373C498.519 117.373 498.411 117.336 498.322 117.259C497.426 116.49 496.391 116.5 496.382 116.492C496.114 116.485 495.908 116.29 495.903 116.031C495.9 115.773 496.103 115.558 496.362 115.552C496.425 115.553 497.755 115.533 498.935 116.546C499.132 116.715 499.155 117.012 498.985 117.21C498.892 117.318 498.761 117.373 498.629 117.373Z" fill="#170D42"/>
<path fill-rule="evenodd" clip-rule="evenodd" d="M489.141 117.373C489.008 117.373 488.877 117.318 488.784 117.21C488.615 117.012 488.637 116.715 488.834 116.546C490.014 115.533 491.352 115.551 491.408 115.552C491.668 115.558 491.873 115.774 491.867 116.033C491.861 116.289 491.651 116.493 491.396 116.493C491.394 116.493 491.39 116.492 491.386 116.493C491.337 116.493 490.328 116.504 489.448 117.26C489.358 117.336 489.25 117.373 489.141 117.373Z" fill="#170D42"/>
<path fill-rule="evenodd" clip-rule="evenodd" d="M494.462 129.032C494.021 129.032 493.531 128.947 492.994 128.774C492.747 128.695 492.61 128.43 492.69 128.182C492.769 127.936 493.032 127.8 493.282 127.879C494.256 128.191 494.986 128.159 495.451 127.784C495.886 127.433 496.054 126.833 496.115 126.337C494.541 127.106 492.958 126.559 492.26 126.09C492.044 125.945 491.987 125.652 492.131 125.437C492.276 125.222 492.568 125.164 492.783 125.308C492.859 125.358 494.602 126.48 496.31 125.101C496.445 124.993 496.627 124.966 496.787 125.033C496.947 125.1 497.056 125.249 497.074 125.421C497.083 125.505 497.27 127.523 496.046 128.514C495.619 128.859 495.089 129.032 494.462 129.032Z" fill="#170D42"/>
<path fill-rule="evenodd" clip-rule="evenodd" d="M511.147 125.157C509.741 127.765 507.535 129.611 504.64 129.611L504.398 124.221C504.469 124.229 504.539 124.243 504.611 124.243C505.819 124.243 506.8 123.268 506.809 122.062C506.813 121.599 506.599 121.152 506.299 120.799C505.488 119.847 504.812 119.774 504.204 119.889L503.612 114.705C503.482 113.576 502.527 112.724 501.391 112.724H490.354C487.86 112.724 485.923 110.554 486.201 108.075C486.78 102.892 489.556 96.1321 501.141 103.372C506.958 107.007 510.607 110.811 511.879 114.679C513.017 118.138 512.875 121.953 511.147 125.157Z" fill="#EE7A08"/>
<path fill-rule="evenodd" clip-rule="evenodd" d="M504.891 124.699L505.09 129.124C507.369 128.953 509.36 127.481 510.733 124.934C512.321 121.989 512.576 118.305 511.432 114.826C510.205 111.094 506.658 107.375 500.892 103.771C496.273 100.884 492.707 100.014 490.295 101.181C487.804 102.386 486.948 105.623 486.668 108.127C486.551 109.177 486.888 110.231 487.592 111.018C488.294 111.803 489.301 112.253 490.355 112.253H501.391C502.768 112.253 503.923 113.285 504.079 114.652L504.618 119.378C505.367 119.379 506.011 119.736 506.657 120.494C507.063 120.971 507.283 121.528 507.28 122.065C507.269 123.431 506.222 124.559 504.891 124.699ZM504.641 130.081C504.389 130.081 504.183 129.884 504.171 129.632L503.929 124.242C503.923 124.106 503.976 123.974 504.075 123.88C504.173 123.786 504.308 123.74 504.444 123.753L504.612 123.773C505.558 123.773 506.332 123.003 506.339 122.058C506.341 121.747 506.2 121.408 505.941 121.104C505.221 120.258 504.712 120.272 504.291 120.351C504.163 120.377 504.03 120.346 503.924 120.268C503.819 120.19 503.751 120.072 503.736 119.942L503.145 114.758C503.042 113.867 502.289 113.194 501.391 113.194H490.355C489.033 113.194 487.77 112.63 486.89 111.645C486.008 110.659 485.586 109.338 485.733 108.023C486.172 104.094 487.608 101.435 489.885 100.334C492.609 99.0168 496.48 99.9041 501.391 102.973C507.348 106.697 511.027 110.586 512.326 114.532C513.551 118.255 513.272 122.209 511.561 125.381C509.927 128.412 507.47 130.081 504.641 130.081Z" fill="#170D42"/>
<path fill-rule="evenodd" clip-rule="evenodd" d="M548.864 163.847C549.385 164.207 549.915 164.54 550.456 164.828C552.77 166.057 553.43 172.864 553.43 172.864L553.961 186.554C553.961 186.554 553.53 175.544 548.864 163.847ZM575.841 143.05C572.151 140.444 568.312 149.439 568.312 149.439C568.312 149.439 573.311 136.986 569.402 134.533C565.234 131.917 562.96 136.623 562.96 136.623C562.96 136.623 564.054 130.11 558.894 129.34C554.245 128.645 553.234 135.352 553.234 135.352C553.234 135.352 552.425 130.45 548.444 131.305C544.462 132.159 543.636 137.782 546.229 144.002C548.823 150.222 549.034 151.38 549.144 153.335C549.144 153.335 546.052 143.94 541.875 144.35C538.829 144.648 537.082 146.422 537.42 148.986C531.634 145.171 526.025 144.204 526.025 144.204C523.846 162.983 529.2 175.727 529.2 175.727C529.2 175.727 536.418 213.752 558.398 214.554C579.064 215.308 569.663 167.405 569.703 167.168C571.695 155.118 580.051 146.024 575.841 143.05ZM440.2 185.861L441.464 172.22C441.464 172.22 442.486 165.457 444.862 164.354C445.419 164.095 445.965 163.791 446.505 163.459C441.219 174.889 440.2 185.861 440.2 185.861ZM458.728 149.232C459.203 146.69 457.553 144.825 454.529 144.364C450.379 143.731 446.788 152.948 446.788 152.948C447.004 151.002 447.276 149.856 450.199 143.783C453.12 137.712 452.597 132.051 448.668 130.986C444.738 129.919 443.667 134.772 443.667 134.772C443.667 134.772 443.016 128.019 438.338 128.465C433.144 128.958 433.887 135.519 433.887 135.519C433.887 135.519 431.869 130.698 427.565 133.087C423.532 135.327 427.855 148.03 427.855 148.03C427.855 148.03 424.504 138.843 420.68 141.249C416.318 143.991 424.174 153.52 425.519 165.659C425.545 165.898 413.594 213.229 434.27 213.583C456.261 213.959 465.505 176.375 465.505 176.375C465.505 176.375 471.534 163.935 470.363 145.067C470.363 145.067 464.709 145.733 458.728 149.232Z" fill="#8B4500"/>
<path fill-rule="evenodd" clip-rule="evenodd" d="M555.947 151.239C555.729 151.379 555.666 151.671 555.807 151.889C555.947 152.107 556.24 152.17 556.457 152.029C559.617 149.991 563.814 153.351 563.855 153.384C563.942 153.455 564.048 153.491 564.152 153.491C564.289 153.491 564.424 153.431 564.517 153.316C564.681 153.115 564.651 152.82 564.45 152.655C564.258 152.498 559.682 148.826 555.947 151.239ZM549.818 165.014C549.959 165.095 550.098 165.171 550.235 165.244C551.949 166.154 552.784 171.087 552.959 172.883L553.107 176.699C552.419 173.253 551.38 169.194 549.818 165.014ZM569.238 167.09C569.223 167.183 569.223 167.183 569.321 167.761C574.531 198.495 568.275 208.484 566.233 210.814C564.229 213.099 561.599 214.198 558.415 214.084C537.064 213.305 529.733 176.016 529.661 175.64C529.655 175.607 529.646 175.576 529.633 175.545C529.58 175.42 524.448 162.935 526.434 144.77C527.892 145.096 532.384 146.28 536.98 149.264C537.15 150.254 537.594 151.312 538.303 152.392C541.136 156.712 544.513 161.376 548.481 164.162C552.373 173.984 553.273 183.389 553.451 185.911C553.559 188.95 553.678 192.42 553.733 194.392C553.74 194.647 553.949 194.849 554.203 194.849H554.217C554.477 194.842 554.681 194.625 554.674 194.366C554.624 192.55 554.519 189.469 554.418 186.62C554.422 186.592 554.432 186.566 554.431 186.537L554.186 180.22C554.18 180.06 554.176 179.967 554.176 179.958C554.176 179.957 554.175 179.956 554.175 179.956L553.898 172.82C553.828 172.097 553.143 165.723 550.677 164.413C550.186 164.153 549.681 163.841 549.132 163.46C549.128 163.458 549.124 163.459 549.12 163.456C545.241 160.773 541.897 156.157 539.089 151.876C538.398 150.822 538 149.811 537.885 148.895C537.856 148.667 537.846 148.446 537.853 148.233C537.853 148.217 537.853 148.2 537.854 148.184C537.886 147.506 538.102 146.908 538.499 146.4C538.51 146.385 538.522 146.372 538.534 146.357C538.862 145.952 539.299 145.624 539.827 145.371C539.87 145.351 539.91 145.329 539.952 145.311C540.205 145.199 540.477 145.104 540.768 145.027C540.827 145.011 540.888 144.998 540.948 144.985C541.255 144.912 541.576 144.852 541.92 144.819C545.05 144.524 547.869 150.969 548.697 153.483C548.699 153.49 548.703 153.493 548.706 153.5C548.685 153.758 548.877 153.985 549.134 154.006C549.251 154.017 552.002 154.293 553.843 157.613C553.929 157.768 554.09 157.856 554.255 157.856C554.332 157.856 554.41 157.837 554.482 157.797C554.71 157.671 554.791 157.384 554.666 157.158C552.972 154.101 550.544 153.322 549.602 153.13C549.478 151.164 549.151 149.788 546.663 143.821C545.008 139.851 544.742 136.101 545.952 133.791C546.527 132.692 547.398 132.01 548.542 131.765C549.45 131.571 550.243 131.698 550.901 132.144C552.37 133.142 552.767 135.408 552.77 135.43C552.775 135.462 552.791 135.491 552.802 135.521C552.801 135.541 552.793 135.558 552.794 135.578C552.816 136.025 553.356 146.532 553.623 148.749C553.652 148.987 553.854 149.163 554.09 149.163C554.108 149.163 554.127 149.162 554.146 149.16C554.404 149.128 554.588 148.894 554.557 148.636C554.294 146.452 553.739 135.639 553.734 135.531C553.732 135.487 553.715 135.447 553.702 135.408C553.756 135.057 554.733 129.195 558.824 129.805C560.01 129.982 560.929 130.509 561.557 131.371C563.004 133.36 562.501 136.514 562.496 136.546C562.483 136.624 562.496 136.699 562.521 136.771C562.369 137.521 560.414 147.198 560.259 148.672C560.233 148.93 560.42 149.161 560.679 149.188C560.695 149.19 560.712 149.191 560.728 149.191C560.966 149.191 561.17 149.011 561.196 148.769C561.347 147.313 563.431 137.023 563.451 136.918C563.465 136.849 563.461 136.78 563.445 136.715C563.678 136.292 564.613 134.761 566.129 134.328C567.07 134.059 568.086 134.262 569.152 134.932C572.084 136.771 569.225 145.902 567.876 149.265C567.836 149.363 567.84 149.464 567.865 149.558L566.811 151.979C566.707 152.217 566.815 152.494 567.054 152.599C567.115 152.625 567.179 152.637 567.241 152.637C567.423 152.637 567.596 152.532 567.673 152.355L568.774 149.829C568.819 149.728 568.817 149.621 568.79 149.522C569.126 148.77 571.417 143.83 573.904 143.126C574.493 142.961 575.038 143.061 575.569 143.435C577.619 144.883 576.086 148.332 573.964 153.106C572.252 156.958 570.121 161.751 569.238 167.09ZM576.112 142.667C575.345 142.125 574.515 141.976 573.647 142.221C572.402 142.573 571.246 143.731 570.302 145.009C571.412 141.045 572.27 135.778 569.651 134.135C568.347 133.316 567.074 133.078 565.864 133.425C564.859 133.714 564.079 134.362 563.527 134.981C563.502 133.76 563.261 132.116 562.32 130.822C561.539 129.746 560.41 129.091 558.964 128.874C555.738 128.391 553.949 131.186 553.172 133.595C552.829 132.819 552.281 131.946 551.433 131.368C550.554 130.771 549.515 130.596 548.344 130.845C546.934 131.147 545.819 132.016 545.118 133.355C543.78 135.91 544.033 139.958 545.795 144.183C546.571 146.046 547.131 147.45 547.538 148.551C546.167 146.105 544.19 143.65 541.829 143.882C541.425 143.922 541.049 143.993 540.687 144.082C540.616 144.099 540.543 144.115 540.474 144.134C540.127 144.229 539.802 144.344 539.5 144.483C539.456 144.502 539.415 144.526 539.372 144.548C538.736 144.858 538.21 145.266 537.807 145.762C537.798 145.774 537.784 145.782 537.775 145.793C537.764 145.808 537.755 145.825 537.744 145.84C537.641 145.973 537.549 146.111 537.464 146.256C537.446 146.287 537.427 146.319 537.409 146.351C537.372 146.417 537.329 146.478 537.296 146.546C537.256 146.631 537.231 146.721 537.197 146.809C537.182 146.847 537.167 146.886 537.153 146.925C537.095 147.088 537.047 147.256 537.01 147.427C537.003 147.459 536.997 147.492 536.99 147.524C536.956 147.702 536.932 147.882 536.921 148.068C536.92 148.081 536.917 148.092 536.916 148.105C531.401 144.684 526.327 143.779 526.105 143.74C525.976 143.717 525.846 143.751 525.743 143.828C525.639 143.905 525.572 144.022 525.557 144.15C523.455 162.265 528.393 174.986 528.746 175.862C528.893 176.605 530.769 185.837 535.131 195.042C541.167 207.78 549.207 214.69 558.38 215.024C558.546 215.03 558.711 215.034 558.873 215.034C562.133 215.034 564.846 213.824 566.941 211.434C575.062 202.168 571.96 177.695 570.249 167.604C570.215 167.398 570.19 167.255 570.178 167.178C571.048 161.984 573.14 157.275 574.824 153.489C577.127 148.305 578.792 144.56 576.112 142.667ZM445.489 164.572C443.706 168.663 442.451 172.661 441.579 176.065L441.93 172.277C442.208 170.454 443.305 165.596 445.06 164.781C445.202 164.715 445.344 164.646 445.489 164.572ZM465.082 176.171C465.067 176.2 465.057 176.231 465.048 176.263C464.957 176.635 455.683 213.496 434.278 213.113C431.092 213.059 428.524 211.819 426.645 209.428C419.075 199.795 424.135 173.96 425.867 166.272C425.996 165.701 425.996 165.701 425.985 165.608C425.39 160.229 423.519 155.328 422.015 151.39C420.152 146.509 418.806 142.983 420.931 141.647C421.28 141.427 421.628 141.318 421.984 141.318C422.191 141.318 422.398 141.355 422.61 141.427C425.056 142.263 427.08 147.322 427.373 148.088C427.342 148.185 427.335 148.293 427.373 148.396L428.338 150.976C428.408 151.165 428.587 151.282 428.778 151.282C428.833 151.282 428.888 151.273 428.943 151.253C429.187 151.162 429.31 150.891 429.219 150.648L428.295 148.174C428.326 148.081 428.334 147.979 428.3 147.88C427.133 144.45 424.768 135.179 427.794 133.499C428.894 132.889 429.921 132.739 430.845 133.058C432.334 133.572 433.187 135.15 433.397 135.585C433.378 135.65 433.369 135.717 433.38 135.788C433.396 135.892 434.925 146.28 434.998 147.743C435.011 147.994 435.218 148.19 435.468 148.19C435.475 148.19 435.484 148.19 435.491 148.189C435.751 148.176 435.951 147.956 435.938 147.696C435.864 146.217 434.43 136.457 434.317 135.691C434.345 135.621 434.363 135.546 434.354 135.467C434.35 135.435 434.017 132.259 435.568 130.35C436.241 129.523 437.187 129.047 438.381 128.933C442.484 128.546 443.158 134.43 443.196 134.799C443.181 134.839 443.163 134.878 443.158 134.923C443.147 135.031 442.014 145.798 441.634 147.965C441.59 148.221 441.76 148.465 442.016 148.51C442.044 148.515 442.07 148.517 442.098 148.517C442.323 148.517 442.52 148.357 442.561 148.128C442.946 145.928 444.047 135.465 444.094 135.021C444.095 135 444.089 134.982 444.088 134.961C444.101 134.932 444.119 134.905 444.126 134.873C444.131 134.851 444.639 132.618 446.166 131.694C446.846 131.282 447.648 131.198 448.543 131.44C449.673 131.747 450.506 132.474 451.022 133.601C452.106 135.973 451.639 139.704 449.774 143.58C446.97 149.404 446.57 150.761 446.342 152.717C445.39 152.859 442.924 153.507 441.069 156.469C440.931 156.689 440.998 156.98 441.218 157.117C441.295 157.166 441.382 157.189 441.467 157.189C441.623 157.189 441.777 157.11 441.866 156.968C443.877 153.758 446.633 153.622 446.76 153.619C447.02 153.611 447.224 153.396 447.218 153.136C447.218 153.135 447.218 153.135 447.218 153.134C447.22 153.128 447.224 153.125 447.226 153.119C448.189 150.654 451.358 144.359 454.457 144.829C454.8 144.882 455.116 144.959 455.42 145.047C455.478 145.064 455.539 145.081 455.596 145.1C455.883 145.192 456.15 145.3 456.396 145.425C456.438 145.447 456.477 145.471 456.517 145.493C457.031 145.775 457.451 146.126 457.756 146.547C457.767 146.562 457.778 146.577 457.789 146.592C458.158 147.121 458.343 147.73 458.338 148.41C458.338 148.424 458.336 148.438 458.336 148.454C458.332 148.669 458.31 148.89 458.268 149.12C458.104 150.028 457.653 151.014 456.907 152.028C453.872 156.154 450.286 160.585 446.268 163.056C446.265 163.058 446.262 163.057 446.258 163.059C445.974 163.233 445.703 163.392 445.439 163.535C445.182 163.674 444.924 163.806 444.664 163.927C442.131 165.103 441.106 171.432 440.998 172.15C440.996 172.159 440.995 172.168 440.994 172.176L440.338 179.262C440.338 179.263 440.337 179.267 440.337 179.267L439.731 185.817C439.731 185.818 439.73 185.818 439.73 185.818V185.819C439.727 185.848 439.737 185.875 439.74 185.903C439.487 188.742 439.216 191.814 439.069 193.623C439.048 193.883 439.241 194.11 439.5 194.131C439.513 194.131 439.525 194.132 439.538 194.132C439.781 194.132 439.987 193.946 440.007 193.7C440.167 191.734 440.472 188.282 440.742 185.255C441.052 182.761 442.449 173.412 446.87 163.794C450.982 161.224 454.603 156.748 457.664 152.586C458.43 151.546 458.929 150.511 459.153 149.533C463.901 146.8 468.451 145.857 469.923 145.61C470.933 163.839 465.141 176.048 465.082 176.171ZM470.664 144.707C470.565 144.623 470.436 144.586 470.307 144.6C470.083 144.627 464.968 145.258 459.279 148.379C459.279 148.367 459.276 148.355 459.276 148.342C459.274 148.156 459.259 147.974 459.235 147.793C459.23 147.761 459.226 147.73 459.222 147.698C459.193 147.524 459.154 147.354 459.105 147.186C459.093 147.147 459.08 147.11 459.067 147.071C459.038 146.982 459.018 146.89 458.983 146.802C458.953 146.732 458.912 146.668 458.879 146.599C458.864 146.568 458.848 146.538 458.831 146.507C458.753 146.355 458.666 146.209 458.57 146.068C458.559 146.054 458.554 146.039 458.543 146.025C458.527 146.002 458.507 145.982 458.49 145.959C458.411 145.852 458.328 145.746 458.237 145.646C458.204 145.61 458.169 145.577 458.135 145.542C457.948 145.348 457.74 145.168 457.51 145.004C457.478 144.98 457.449 144.954 457.416 144.931C457.339 144.88 457.253 144.833 457.172 144.784C457.072 144.724 456.972 144.663 456.865 144.608C456.785 144.566 456.702 144.529 456.618 144.49C456.498 144.435 456.376 144.382 456.249 144.333C456.167 144.301 456.084 144.27 455.999 144.241C455.854 144.192 455.705 144.148 455.553 144.106C455.477 144.086 455.402 144.063 455.324 144.044C455.094 143.988 454.856 143.94 454.609 143.901C454.605 143.901 454.602 143.9 454.599 143.899C452.257 143.534 450.147 145.887 448.647 148.259C449.112 147.179 449.747 145.808 450.622 143.988C452.608 139.863 453.076 135.834 451.877 133.211C451.249 131.836 450.182 130.91 448.79 130.533C447.635 130.219 446.587 130.339 445.677 130.889C444.8 131.42 444.207 132.263 443.823 133.019C443.175 130.572 441.552 127.678 438.291 127.997C436.836 128.135 435.673 128.728 434.835 129.76C433.827 131.003 433.499 132.632 433.408 133.85C432.89 133.201 432.146 132.513 431.158 132.171C429.969 131.758 428.683 131.928 427.337 132.676C424.635 134.176 425.21 139.482 426.106 143.499C425.231 142.173 424.139 140.956 422.916 140.536C422.06 140.244 421.224 140.35 420.429 140.85C417.651 142.597 419.114 146.426 421.137 151.725C422.615 155.596 424.453 160.411 425.043 165.645C425.028 165.72 424.995 165.862 424.949 166.065C422.701 176.05 418.292 200.322 425.905 210.009C427.968 212.633 430.78 213.994 434.261 214.054C434.37 214.056 434.479 214.057 434.588 214.057C443.638 214.056 451.918 207.594 458.548 195.345C463.397 186.386 465.764 177.267 465.951 176.534C466.349 175.68 471.962 163.241 470.832 145.039C470.825 144.909 470.764 144.789 470.664 144.707ZM440.211 151.147C440.364 150.937 440.317 150.642 440.107 150.49C436.506 147.883 431.741 151.302 431.54 151.449C431.33 151.602 431.285 151.897 431.437 152.106C431.53 152.232 431.673 152.299 431.818 152.299C431.915 152.299 432.011 152.27 432.095 152.209C432.138 152.176 436.501 149.041 439.554 151.252C439.765 151.403 440.06 151.356 440.211 151.147Z" fill="#170D42"/>
<path fill-rule="evenodd" clip-rule="evenodd" d="M537.99 203.681C535.555 195.746 534.316 187.492 534.316 179.191V174.736C534.316 174.736 534.927 146.984 531.072 145.444C529.819 144.945 528.542 144.504 527.253 144.096C527.221 144.084 527.19 144.06 527.158 144.05C526.959 143.988 526.758 143.934 526.558 143.874C526.293 143.794 526.028 143.716 525.761 143.64C525.227 143.487 506.174 141.509 506.174 141.509C506.173 141.512 506.171 141.514 506.17 141.517L506.133 141.509C505.688 142.445 504.997 143.279 504.127 143.957C502.675 145.086 500.721 145.778 498.569 145.783C496.416 145.778 494.464 145.086 493.012 143.957C492.141 143.279 491.45 142.445 491.006 141.509L490.967 141.517C490.966 141.514 490.964 141.512 490.963 141.509C490.963 141.509 471.911 143.487 471.377 143.64C471.111 143.716 467.319 144.945 466.065 145.444C462.21 146.984 462.822 174.736 462.822 174.736V179.191C462.822 187.492 461.583 195.746 459.147 203.681L457.062 210.474H540.076L537.99 203.681Z" fill="#D16AE2"/>
<path fill-rule="evenodd" clip-rule="evenodd" d="M470.057 144.05C470.024 144.06 469.994 144.084 469.961 144.096C468.672 144.503 467.395 144.945 466.142 145.444C462.287 146.984 462.899 174.736 462.899 174.736C465.411 159.72 471.453 143.639 471.453 143.639C471.187 143.716 470.922 143.794 470.656 143.874C470.457 143.934 470.255 143.988 470.057 144.05ZM531.07 145.444C529.818 144.945 526.026 143.716 525.76 143.639C525.76 143.639 531.802 159.72 534.314 174.736C534.314 174.736 534.926 146.984 531.07 145.444Z" fill="#409B81"/>
<path fill-rule="evenodd" clip-rule="evenodd" d="M457.698 210.004L459.597 203.819C462.048 195.831 463.291 187.544 463.291 179.19V174.991C463.326 174.937 463.353 174.879 463.364 174.814C465.675 161.002 471.05 146.103 471.805 144.049C473.735 143.792 483.77 142.73 490.73 142.006C491.2 142.878 491.883 143.675 492.722 144.327C494.313 145.565 496.389 146.249 498.569 146.254C500.748 146.249 502.823 145.565 504.415 144.327C505.254 143.675 505.937 142.878 506.407 142.006C513.48 142.742 523.731 143.827 525.413 144.057C526.179 146.142 531.533 160.994 533.844 174.776V179.19C533.844 187.544 535.088 195.831 537.54 203.819V203.819L539.439 210.004H457.698ZM470.693 144.354C469.561 147.494 465.706 158.564 463.324 169.959C463.342 159.631 464.092 146.77 466.318 145.881C466.88 145.657 467.47 145.436 468.099 145.214C468.643 145.027 469.214 144.836 469.734 144.664C469.866 144.622 469.991 144.581 470.127 144.537C470.133 144.534 470.138 144.532 470.144 144.53C470.301 144.478 470.448 144.43 470.586 144.386L470.693 144.354ZM530.897 145.881C530.973 145.912 531.047 145.958 531.118 146.016C531.142 146.034 531.165 146.06 531.188 146.081C531.236 146.127 531.285 146.174 531.331 146.231C531.357 146.262 531.383 146.299 531.408 146.334C531.452 146.392 531.494 146.454 531.535 146.524C531.561 146.566 531.586 146.609 531.612 146.655C531.652 146.73 531.692 146.811 531.732 146.894C531.756 146.944 531.779 146.993 531.802 147.046C531.843 147.142 531.883 147.245 531.923 147.352C531.943 147.403 531.963 147.45 531.981 147.503C532.035 147.656 532.089 147.817 532.139 147.987C532.143 147.999 532.147 148.009 532.151 148.022C532.207 148.21 532.261 148.408 532.314 148.616C532.327 148.667 532.339 148.723 532.351 148.775C532.391 148.933 532.428 149.094 532.466 149.263C532.482 149.338 532.498 149.416 532.514 149.493C532.547 149.65 532.579 149.808 532.61 149.971C532.626 150.056 532.643 150.142 532.659 150.229C532.689 150.396 532.719 150.567 532.747 150.742C532.762 150.828 532.776 150.912 532.791 150.999C532.822 151.196 532.853 151.397 532.883 151.602C532.893 151.672 532.904 151.741 532.914 151.813C532.952 152.087 532.99 152.366 533.027 152.653C533.027 152.659 533.028 152.663 533.029 152.668C533.067 152.973 533.104 153.285 533.14 153.604C533.143 153.642 533.148 153.683 533.152 153.721C533.182 153.992 533.211 154.266 533.239 154.545C533.247 154.627 533.254 154.711 533.262 154.794C533.286 155.037 533.309 155.283 533.331 155.533C533.338 155.623 533.347 155.715 533.354 155.806C533.376 156.057 533.397 156.31 533.416 156.565C533.423 156.652 533.43 156.741 533.437 156.828C533.458 157.105 533.478 157.384 533.497 157.666C533.502 157.733 533.507 157.799 533.511 157.867C533.584 158.943 533.644 160.052 533.695 161.177C533.698 161.223 533.699 161.269 533.701 161.313C533.716 161.635 533.729 161.957 533.741 162.28C533.744 162.358 533.747 162.437 533.749 162.515C533.761 162.818 533.771 163.122 533.781 163.425C533.784 163.499 533.786 163.572 533.789 163.645C533.799 163.97 533.808 164.294 533.816 164.619C533.818 164.668 533.819 164.718 533.82 164.767C533.85 165.914 533.87 167.059 533.88 168.185C533.881 168.23 533.881 168.275 533.881 168.32C533.885 168.638 533.887 168.955 533.889 169.269C533.889 169.35 533.889 169.43 533.89 169.511C533.89 169.659 533.89 169.807 533.891 169.955C531.515 158.593 527.675 147.556 526.532 144.381C527.79 144.79 530.007 145.526 530.897 145.881ZM540.524 210.336L538.439 203.543C536.014 195.644 534.785 187.451 534.785 179.19V174.746C534.855 171.607 535.017 160.055 533.93 152.285C533.172 146.572 532.09 145.345 531.246 145.008H531.246C531.066 144.936 530.83 144.848 530.562 144.752C529.594 144.383 528.57 144.02 527.436 143.663C527.409 143.647 527.329 143.61 527.298 143.601C527.181 143.564 527.06 143.529 526.941 143.496L526.693 143.424C526.427 143.343 526.159 143.264 525.89 143.187C525.344 143.032 509.411 141.372 506.222 141.041C506.199 141.039 506.176 141.038 506.154 141.039C505.952 141.031 505.788 141.135 505.707 141.308C505.301 142.161 504.655 142.949 503.837 143.585C502.409 144.694 500.538 145.309 498.569 145.313C496.599 145.309 494.727 144.694 493.3 143.585C492.482 142.949 491.836 142.161 491.43 141.308C491.372 141.185 491.249 141.099 491.113 141.063C491.051 141.042 490.985 141.035 490.914 141.041C487.726 141.372 471.793 143.032 471.246 143.188C471.162 143.212 470.814 143.322 470.337 143.477L470.271 143.497C470.153 143.53 470.034 143.564 469.919 143.601C469.859 143.619 469.819 143.641 469.824 143.645C469.72 143.679 469.613 143.715 469.503 143.751C468.892 143.947 468.307 144.142 467.755 144.338C467.001 144.596 466.304 144.842 465.89 145.008C461.933 146.588 462.247 170.057 462.35 174.736V179.19C462.35 187.451 461.121 195.644 458.697 203.543L456.611 210.336C456.568 210.479 456.594 210.633 456.683 210.753C456.772 210.874 456.912 210.945 457.061 210.945H540.075C540.224 210.945 540.364 210.874 540.453 210.753C540.542 210.633 540.569 210.479 540.524 210.336Z" fill="#170D42"/>
</svg>
