<svg width="617" height="481" viewBox="0 0 617 481" fill="none" xmlns="http://www.w3.org/2000/svg">
<path fill-rule="evenodd" clip-rule="evenodd" d="M40.4018 152.491C40.4018 151.745 39.7964 151.141 39.0512 151.141C38.3045 151.141 37.6991 151.745 37.6991 152.491C37.6991 153.238 38.3045 153.843 39.0512 153.843C39.7964 153.843 40.4018 153.238 40.4018 152.491Z" fill="#170D42"/>
<path fill-rule="evenodd" clip-rule="evenodd" d="M432.89 195.057C433.637 195.057 434.242 194.452 434.242 193.707C434.242 192.96 433.637 192.354 432.89 192.354C432.144 192.354 431.54 192.96 431.54 193.707C431.54 194.452 432.144 195.057 432.89 195.057Z" fill="#170D42"/>
<path fill-rule="evenodd" clip-rule="evenodd" d="M185.666 163.697C185.666 164.442 186.27 165.047 187.016 165.047C187.763 165.047 188.368 164.442 188.368 163.697C188.368 162.95 187.763 162.344 187.016 162.344C186.27 162.344 185.666 162.95 185.666 163.697Z" fill="#170D42"/>
<path fill-rule="evenodd" clip-rule="evenodd" d="M61.0088 7.51109C61.7555 7.51109 62.3614 6.90567 62.3614 6.15902C62.3614 5.41377 61.7555 4.80835 61.0088 4.80835C60.2636 4.80835 59.6581 5.41377 59.6581 6.15902C59.6581 6.90567 60.2636 7.51109 61.0088 7.51109Z" fill="#170D42"/>
<path fill-rule="evenodd" clip-rule="evenodd" d="M100.534 205.795C100.534 206.541 101.138 207.146 101.885 207.146C102.631 207.146 103.235 206.541 103.235 205.795C103.235 205.049 102.631 204.443 101.885 204.443C101.138 204.443 100.534 205.049 100.534 205.795Z" fill="#170D42"/>
<path fill-rule="evenodd" clip-rule="evenodd" d="M422.349 2.70274C423.096 2.70274 423.701 2.09732 423.701 1.35067C423.701 0.605425 423.096 0 422.349 0C421.604 0 420.999 0.605425 420.999 1.35067C420.999 2.09732 421.604 2.70274 422.349 2.70274Z" fill="#170D42"/>
<path fill-rule="evenodd" clip-rule="evenodd" d="M149.857 73.4706C149.857 74.2172 150.461 74.8212 151.209 74.8212C151.955 74.8212 152.56 74.2172 152.56 73.4706C152.56 72.7239 151.955 72.1199 151.209 72.1199C150.461 72.1199 149.857 72.7239 149.857 73.4706Z" fill="#170D42"/>
<path fill-rule="evenodd" clip-rule="evenodd" d="M582.493 11.9574C583.24 11.9574 583.844 11.3534 583.844 10.6068C583.844 9.86013 583.24 9.2561 582.493 9.2561C581.747 9.2561 581.143 9.86013 581.143 10.6068C581.143 11.3534 581.747 11.9574 582.493 11.9574Z" fill="#170D42"/>
<path fill-rule="evenodd" clip-rule="evenodd" d="M560.648 105.197C561.394 105.197 561.998 104.592 561.998 103.845C561.998 103.099 561.394 102.495 560.648 102.495C559.901 102.495 559.297 103.099 559.297 103.845C559.297 104.592 559.901 105.197 560.648 105.197Z" fill="#170D42"/>
<path fill-rule="evenodd" clip-rule="evenodd" d="M479.196 9.08697C477.481 12.8859 476.613 16.9351 476.613 21.1465C476.613 37.377 489.817 50.5831 506.049 50.5831C507.66 50.5831 509.28 50.4475 510.887 50.1804C505.87 58.8395 496.706 64.1583 486.632 64.1583C471.171 64.1583 458.594 51.5814 458.594 36.12C458.594 23.5333 467.175 12.3923 479.196 9.08697ZM486.632 65.5565C497.723 65.5565 507.762 59.417 512.832 49.533C512.956 49.2926 512.93 49.0031 512.765 48.7892C512.598 48.5739 512.324 48.4718 512.061 48.5319C510.076 48.9654 508.053 49.1849 506.049 49.1849C490.589 49.1849 478.011 36.6066 478.011 21.1465C478.011 16.6569 479.048 12.3574 481.092 8.37109C481.217 8.1306 481.189 7.83977 481.024 7.62584C480.859 7.41051 480.582 7.30984 480.321 7.36857C466.922 10.2978 457.196 22.3896 457.196 36.12C457.196 52.3518 470.4 65.5565 486.632 65.5565Z" fill="#170D42"/>
<path fill-rule="evenodd" clip-rule="evenodd" d="M615.377 230.505H568.447V130.871C568.447 130.485 568.135 130.172 567.748 130.172H477.549C477.163 130.172 476.85 130.485 476.85 130.871V223.411H374.459C374.072 223.411 373.76 223.723 373.76 224.11V260.909H219.404V186.612C219.404 186.225 219.093 185.913 218.705 185.913H125.871C125.485 185.913 125.172 186.225 125.172 186.612V247.019C125.046 246.843 124.849 246.721 124.615 246.721H40.402C40.0161 246.721 39.7029 247.033 39.7029 247.42C39.7029 247.806 40.0161 248.119 40.402 248.119H124.615C124.849 248.119 125.046 247.996 125.172 247.82V395.387C125.172 395.773 125.485 396.086 125.871 396.086C126.258 396.086 126.57 395.773 126.57 395.387V187.311H218.006V261.608C218.006 261.994 218.319 262.307 218.705 262.307H374.459C374.845 262.307 375.158 261.994 375.158 261.608V224.81H476.85V283.389C476.85 283.776 477.163 284.088 477.549 284.088C477.937 284.088 478.248 283.776 478.248 283.389V131.57H567.049V292.35C567.049 292.736 567.362 293.049 567.748 293.049C568.135 293.049 568.447 292.736 568.447 292.35V231.903H614.677V355.184C614.677 355.572 614.989 355.884 615.377 355.884C615.763 355.884 616.076 355.572 616.076 355.184V231.204C616.076 230.818 615.763 230.505 615.377 230.505Z" fill="#170D42"/>
<path fill-rule="evenodd" clip-rule="evenodd" d="M38.4555 97.135C38.4192 96.3898 38.3982 95.639 38.3982 94.8839C38.3982 70.4781 58.2556 50.6221 82.6621 50.6221C85.994 50.6221 89.354 51.0066 92.6495 51.7673C93.0061 51.8484 93.3696 51.6414 93.4759 51.2877C101.103 26.008 124.883 8.3528 151.306 8.3528C167.524 8.3528 182.748 14.6937 194.176 26.208C194.431 26.4652 194.842 26.4834 195.12 26.2527C200.64 21.6512 207.64 19.1162 214.832 19.1162C231.203 19.1162 244.715 31.9113 245.59 48.2438C245.603 48.4479 245.703 48.6381 245.866 48.7625C246.029 48.887 246.236 48.9345 246.439 48.8884C249.347 48.2522 252.317 47.9292 255.263 47.9292C277.943 47.9292 296.393 66.38 296.393 89.059C296.393 91.7184 296.131 94.4029 295.614 97.0358C295.54 97.4147 295.786 97.7824 296.165 97.8565C296.211 97.8663 296.256 97.8705 296.3 97.8705C296.628 97.8705 296.92 97.6398 296.986 97.3056C297.521 94.5833 297.791 91.8093 297.791 89.059C297.791 65.6096 278.714 46.531 255.263 46.531C252.485 46.531 249.687 46.8092 246.934 47.3573C245.621 30.6711 231.675 17.718 214.832 17.718C207.527 17.718 200.411 20.2194 194.719 24.7748C183.079 13.2773 167.687 6.95459 151.306 6.95459C124.488 6.95459 100.33 24.7287 92.3279 50.2628C89.1344 49.5735 85.885 49.2239 82.6621 49.2239C57.4838 49.2239 37 69.7063 37 94.8839C37 95.6627 37.021 96.4374 37.0587 97.2064C37.0797 97.5923 37.4167 97.8999 37.7928 97.8691C38.1787 97.8495 38.4751 97.521 38.4555 97.135Z" fill="#170D42"/>
<path fill-rule="evenodd" clip-rule="evenodd" d="M151.458 174.098C152.098 170.873 152.356 167.509 152.18 164.059C151.168 144.236 133.48 126.654 113.61 125.713C98.8385 125.015 85.6991 132.2 78.0518 143.414C73.0209 150.791 64.9311 155.442 55.9977 155.838C55.8399 155.846 55.6848 155.854 55.5284 155.862C34.6093 157.026 17.7773 174.208 17.0527 195.104C17.0326 195.661 17.0246 196.216 17.0272 196.768C17.0968 209.413 14.2491 221.97 7.70746 232.8C2.86106 240.823 0.245967 250.341 0.723254 260.496C1.92115 286.034 23.0154 306.617 48.6271 307.281C65.6704 307.724 80.8099 299.519 89.9867 286.756C97.8933 291.965 107.386 294.971 117.592 294.872C144.183 294.611 166.585 271.832 166.369 245.298C166.298 236.597 163.961 228.436 159.918 221.373C151.701 207.015 148.236 190.316 151.458 174.098Z" fill="#409B81"/>
<path fill-rule="evenodd" clip-rule="evenodd" d="M100.71 292.049L96.6821 320.856C96.5952 321.489 96.4307 322.108 96.1954 322.701C93.9427 328.398 86.3916 329.597 82.4744 324.882L80.7444 322.799C79.735 321.581 79.1053 320.094 78.9355 318.522L76.8593 299.29C71.553 302.756 65.5367 305.219 59.074 306.431L70.9687 453.073H91.1832L107.876 293.977C105.418 293.512 103.025 292.866 100.71 292.049Z" fill="#8B4500"/>
<path fill-rule="evenodd" clip-rule="evenodd" d="M117.585 294.204C107.891 294.273 98.4469 291.532 90.3557 286.2C90.0562 286.002 89.6538 286.076 89.4439 286.367C80.0265 299.463 64.7694 307.031 48.6446 306.614C23.331 305.957 2.57497 285.687 1.39045 260.465C0.937224 250.802 3.31963 241.357 8.27967 233.145C14.5125 222.824 17.7693 210.243 17.6957 196.764C17.6931 196.222 17.7011 195.675 17.7211 195.125C18.4311 174.623 35.0559 157.668 55.5645 156.528L56.0271 156.505C65.141 156.1 73.3699 151.464 78.604 143.79C86.1243 132.762 98.3586 126.333 111.629 126.333C112.276 126.333 112.929 126.349 113.58 126.38C133.146 127.306 150.517 144.576 151.513 164.092C151.682 167.421 151.443 170.742 150.803 173.968C147.681 189.679 150.712 206.632 159.336 221.704C163.431 228.86 165.632 237.02 165.7 245.302C165.914 271.554 143.881 293.946 117.585 294.204ZM77.5679 299.627C82.3662 296.444 86.6404 292.42 90.1538 287.66C93.2582 289.65 96.5511 291.271 99.971 292.516L96.0203 320.765C95.9414 321.339 95.7904 321.909 95.5751 322.457C94.6045 324.91 92.4654 326.623 89.8544 327.038C87.254 327.453 84.6777 326.489 82.9892 324.457L81.2605 322.374C80.3313 321.255 79.7564 319.898 79.6 318.451L77.5679 299.627ZM90.5816 452.406H71.5851L59.7879 306.962C65.6651 305.78 71.2548 303.556 76.3085 300.416L78.2711 318.594C78.4543 320.302 79.1334 321.905 80.2324 323.225L81.961 325.307C83.9518 327.704 86.9772 328.847 90.0642 328.355C93.1472 327.865 95.6714 325.843 96.8198 322.945C97.0738 322.298 97.2503 321.625 97.3439 320.947L101.261 292.937C103.19 293.58 105.15 294.123 107.146 294.527L90.5816 452.406ZM160.5 221.043C152.033 206.251 149.054 189.622 152.113 174.226C152.776 170.895 153.023 167.461 152.847 164.024C151.817 143.854 133.865 126.004 113.643 125.047C99.1849 124.368 85.6483 131.087 77.4997 143.038C72.5035 150.363 64.6557 154.786 55.967 155.172L55.491 155.196C34.2965 156.375 17.1195 173.895 16.3842 195.08C16.3642 195.647 16.3561 196.21 16.3588 196.772C16.431 210.005 13.2411 222.344 7.13527 232.455C2.03752 240.894 -0.410432 250.602 0.0561593 260.527C1.27144 286.442 22.5996 307.273 48.6098 307.948C49.0456 307.959 49.4801 307.964 49.916 307.964C52.8078 307.964 55.6675 307.709 58.4684 307.224L70.3029 453.126C70.3297 453.473 70.6198 453.74 70.9688 453.74H91.1833C91.5255 453.74 91.813 453.482 91.8477 453.142L108.467 294.755C111.465 295.278 114.514 295.564 117.598 295.539C144.618 295.274 167.258 272.264 167.037 245.291C166.968 236.782 164.706 228.396 160.5 221.043Z" fill="#170D42"/>
<path fill-rule="evenodd" clip-rule="evenodd" d="M140.805 389.022L123.881 452.831H117.379L130.241 386.016H136.497C138.179 386.016 139.735 386.624 140.463 387.567C140.822 388.034 140.939 388.523 140.805 389.022ZM28.9059 389.022C28.7722 388.523 28.8886 388.034 29.2482 387.567C29.9755 386.624 31.5317 386.016 33.2122 386.016H39.4704L52.3318 452.831H45.8302L28.9059 389.022ZM115.379 386.016H128.878L116.017 452.831H106.519L115.379 386.016ZM100.947 386.016H114.03L105.17 452.831H95.6633L100.947 386.016ZM85.524 386.016H99.6059L94.3224 452.831H85.524V386.016ZM70.1037 386.016H84.187V452.831H75.386L70.1037 386.016ZM63.1917 452.831H53.6941L40.8328 386.016H54.3305L63.1917 452.831ZM55.6795 386.016H68.7641L74.0464 452.831H64.5407L55.6795 386.016ZM141.522 386.753C140.538 385.476 138.611 384.682 136.497 384.682H33.2122C31.0985 384.682 29.1733 385.476 28.1893 386.753C27.581 387.543 27.3751 388.468 27.6131 389.364L44.6698 453.669C44.746 453.962 45.0134 454.165 45.3155 454.165H124.395C124.698 454.165 124.964 453.962 125.041 453.669L142.098 389.364C142.336 388.468 142.13 387.543 141.522 386.753Z" fill="#170D42"/>
<path fill-rule="evenodd" clip-rule="evenodd" d="M500.234 378.378C500.311 380.126 499.914 381.892 499.303 383.651C497.622 382.623 496.12 381.553 495.742 380.249C495.163 378.249 497.147 375.227 498.334 372.508C499.362 374.491 500.15 376.449 500.234 378.378ZM564.009 301.343C564.871 294.685 558.027 288.046 558.178 282.58C558.375 275.476 563.505 270.076 563.923 265.026C564.825 254.117 560.371 251.69 556.515 250.066C552.111 248.212 543.913 249.467 539.704 254.838C535.64 260.026 535.196 268.74 531.133 273.424C526.852 278.358 517.221 279.209 513.945 284.537C510.549 290.059 514.152 299.094 511.71 304.897C509.206 310.853 500.263 314.549 498.629 320.641C496.954 326.889 502.855 334.642 501.95 340.865C501.013 347.309 493.173 353.008 492.901 359.237C492.8 361.573 493.663 363.885 494.824 366.171C492.023 365.594 488.666 365.344 487.389 363.742C485.371 361.211 488.215 353.711 485.528 351.516C483.059 349.499 480.08 351.31 476.981 349.649C474.193 348.154 472.324 339.336 465.837 341.831C465.925 341.797 460.639 346.291 466.336 354.307C467.848 356.435 461.309 359.842 461.46 363.323C461.583 366.139 469.1 368.631 469.475 371.9C469.806 374.783 463.021 378.915 463.615 382.077C464.158 384.97 471.958 386.352 472.772 389.422C473.533 392.293 467.432 397.37 468.469 400.35C469.452 403.167 477.372 403.346 478.636 406.222C479.84 408.961 474.609 414.928 476.098 417.686C477.521 420.322 485.366 419.225 487.075 421.85C488.71 424.362 484.522 431.099 486.441 433.575C488.276 435.944 491.815 432.637 493.93 434.952C498.605 433.139 501.06 432.318 501.868 427.988C502.36 425.351 496.005 422.017 496.647 418.346C496.961 416.549 499.701 414.988 502.002 413.309C502.385 414.149 502.691 414.986 502.858 415.826C505.156 427.365 499.488 436.994 505.567 438.595C508.414 439.346 511.592 425.131 514.608 420.059C517.824 414.649 524.813 410.619 527.618 405.446C530.625 399.896 526.897 391.141 529.462 385.867C532.234 380.169 541.412 377.67 543.705 372.298C546.205 366.443 541.628 358.098 543.61 352.636C545.795 346.615 554.632 343.111 556.256 337.573C558.073 331.37 552.474 323.671 553.683 318.084C555.067 311.68 563.287 306.926 564.009 301.343Z" fill="#DF6FFF"/>
<path fill-rule="evenodd" clip-rule="evenodd" d="M563.556 301.283C563.213 303.932 561.054 306.433 558.768 309.083C556.401 311.825 553.953 314.662 553.235 317.987C552.643 320.726 553.581 323.828 554.574 327.112C555.64 330.639 556.742 334.286 555.817 337.444C555.043 340.084 552.517 342.267 549.843 344.578C547.125 346.927 544.313 349.357 543.18 352.479C542.193 355.198 542.741 358.461 543.32 361.914C543.92 365.486 544.54 369.18 543.285 372.118C542.191 374.681 539.428 376.577 536.504 378.583C533.546 380.612 530.489 382.71 529.05 385.667C527.762 388.317 527.996 391.813 528.223 395.194C528.463 398.769 528.712 402.467 527.215 405.227C525.828 407.787 523.407 410.043 520.844 412.433C518.381 414.73 515.833 417.103 514.215 419.825C513.039 421.802 511.837 425.146 510.676 428.38C509.222 432.427 507.25 437.885 505.905 438.15C507.41 402.661 514.04 369.524 525.678 335.187L544.346 280.109C544.426 279.87 544.298 279.61 544.059 279.529C543.82 279.45 543.561 279.576 543.479 279.815L524.811 334.894C513.168 369.245 506.527 402.407 505.002 437.904C502.759 436.867 502.922 434.076 503.432 429.157C503.82 425.407 504.304 420.741 503.306 415.736C503.154 414.972 502.894 414.215 502.57 413.459C504.179 412.254 505.53 410.963 505.668 409.41C505.832 407.571 504.05 405.801 502.164 403.927C500.506 402.28 498.791 400.578 498.776 399.066C498.761 397.662 500.369 395.973 501.924 394.338C503.745 392.425 505.626 390.448 505.368 388.497C505.114 386.58 502.794 385.202 500.549 383.868C500.317 383.73 500.085 383.592 499.853 383.453C500.413 381.762 500.765 380.059 500.69 378.358C500.606 376.417 499.831 374.444 498.833 372.487C499.525 370.849 499.926 369.285 499.308 368.055C498.653 366.747 497.041 366.173 495.13 365.764C494.052 363.603 493.264 361.42 493.359 359.257C493.493 356.171 495.567 353.217 497.763 350.091C499.813 347.171 501.934 344.151 502.403 340.93C502.845 337.893 501.722 334.505 500.637 331.229C499.448 327.641 498.22 323.933 499.071 320.758C499.896 317.682 502.663 315.246 505.592 312.667C508.204 310.367 510.906 307.988 512.132 305.074C513.302 302.291 513.131 298.791 512.965 295.405C512.779 291.579 512.585 287.621 514.334 284.776C515.998 282.07 519.381 280.568 522.963 278.976C526.129 277.57 529.402 276.116 531.478 273.723C533.605 271.271 534.777 267.722 535.91 264.289C536.994 261.003 538.115 257.607 540.064 255.12C543.041 251.321 547.993 249.738 552.035 249.738C553.686 249.738 555.186 250.002 556.337 250.487C559.542 251.837 564.386 253.877 563.467 264.988C563.289 267.133 562.193 269.417 561.033 271.836C559.533 274.961 557.834 278.502 557.721 282.568C557.649 285.162 559.038 287.92 560.509 290.84C562.229 294.254 564.008 297.785 563.556 301.283ZM494.565 453.446V446.969C494.565 442.77 494.494 438.904 494.343 435.281L494.522 435.213C499.014 433.476 501.488 432.519 502.318 428.071C502.585 426.636 501.275 425.178 499.886 423.634C498.364 421.939 496.789 420.187 497.097 418.424C497.321 417.141 499.184 415.845 500.985 414.591C501.261 414.398 501.539 414.205 501.813 414.011C502.075 414.649 502.284 415.283 502.409 415.914C503.38 420.785 502.904 425.375 502.522 429.063C502.027 433.841 501.641 437.654 504.96 438.874C504.766 443.685 504.667 448.539 504.66 453.446H494.565ZM499.047 382.953C497.663 382.073 496.48 381.15 496.182 380.121C495.79 378.771 496.813 376.699 497.801 374.697C497.986 374.322 498.169 373.945 498.349 373.568C499.139 375.212 499.708 376.817 499.776 378.398C499.842 379.897 499.536 381.423 499.047 382.953ZM501.432 413.156C501.112 413.386 500.787 413.615 500.463 413.84C498.417 415.264 496.486 416.609 496.196 418.267C495.811 420.468 497.615 422.475 499.207 424.246C500.439 425.617 501.602 426.912 501.418 427.904C500.688 431.816 498.546 432.675 494.297 434.32C493.156 409.646 488.188 396.159 476.557 364.627L475.406 361.505C475.318 361.267 475.054 361.144 474.818 361.234C474.581 361.321 474.46 361.585 474.547 361.821L475.698 364.944C487.228 396.2 492.19 409.669 493.363 433.966C492.866 433.72 492.34 433.623 491.804 433.623C491.198 433.623 490.585 433.73 490.004 433.831C488.688 434.062 487.551 434.26 486.803 433.294C485.954 432.199 486.559 429.883 487.146 427.645C487.771 425.251 488.363 422.99 487.458 421.6C486.499 420.126 484.006 419.72 481.595 419.327C479.389 418.968 477.109 418.596 476.501 417.468C475.841 416.248 476.817 414.061 477.76 411.946C478.769 409.688 479.721 407.553 479.055 406.039C478.343 404.419 475.94 403.615 473.616 402.838C471.504 402.131 469.32 401.4 468.901 400.199C468.44 398.874 469.753 396.857 471.021 394.908C472.366 392.842 473.635 390.891 473.214 389.305C472.754 387.567 470.479 386.396 468.279 385.265C466.32 384.256 464.293 383.213 464.064 381.992C463.797 380.566 465.416 378.738 466.982 376.969C468.591 375.15 470.111 373.433 469.929 371.848C469.714 369.971 467.572 368.445 465.499 366.97C463.763 365.733 461.967 364.454 461.917 363.303C461.85 361.767 463.369 360.114 464.708 358.656C466.239 356.99 467.685 355.415 466.708 354.041C461.985 347.394 465.007 343.344 466.097 342.22C470.086 340.75 472.17 343.963 474.008 346.802C474.95 348.258 475.764 349.515 476.765 350.051C478.338 350.894 479.899 350.899 481.276 350.904C482.774 350.909 484.068 350.913 485.238 351.869C486.492 352.894 486.357 355.473 486.227 357.968C486.101 360.406 485.981 362.709 487.031 364.027C488.162 365.445 490.635 365.879 493.027 366.299C493.527 366.387 494.028 366.478 494.519 366.575L495.683 366.837C497.002 367.178 498.083 367.652 498.491 368.464C498.874 369.228 498.689 370.272 498.271 371.422L497.823 372.525C497.563 373.108 497.272 373.701 496.981 374.292C495.866 376.551 494.813 378.684 495.302 380.375C495.699 381.742 497.129 382.831 498.744 383.842L499.54 384.33C499.721 384.438 499.902 384.547 500.082 384.655C502.139 385.877 504.266 387.14 504.461 388.617C504.662 390.134 502.934 391.951 501.262 393.707C499.504 395.556 497.843 397.301 497.861 399.075C497.88 400.962 499.731 402.799 501.519 404.576C503.173 406.219 504.883 407.917 504.757 409.33C504.654 410.487 503.544 411.566 502.179 412.606L501.432 413.156ZM561.326 290.428C559.909 287.614 558.57 284.956 558.636 282.592C558.742 278.721 560.397 275.273 561.858 272.231C563.055 269.735 564.187 267.376 564.379 265.063C565.277 254.2 560.882 251.409 556.692 249.644C551.891 247.622 543.586 249.141 539.344 254.555C537.297 257.168 536.151 260.642 535.042 264.002C533.886 267.504 532.793 270.81 530.787 273.124C528.844 275.363 525.666 276.775 522.591 278.14C519.04 279.718 515.367 281.349 513.555 284.297C511.657 287.384 511.858 291.484 512.051 295.45C512.22 298.885 512.379 302.129 511.289 304.718C510.144 307.439 507.523 309.749 504.987 311.98C502.085 314.535 499.085 317.178 498.188 320.521C497.266 323.96 498.538 327.801 499.769 331.517C500.869 334.838 501.908 337.975 501.498 340.798C501.06 343.805 499.004 346.734 497.014 349.565C494.84 352.662 492.59 355.864 492.445 359.217C492.351 361.363 493.036 363.473 494.011 365.545C493.737 365.495 493.463 365.448 493.185 365.398C490.961 365.008 488.66 364.604 487.747 363.457C486.912 362.41 487.029 360.176 487.141 358.016C487.283 355.293 487.429 352.478 485.817 351.161C484.396 350 482.812 349.995 481.279 349.989C479.947 349.985 478.57 349.98 477.197 349.246C476.404 348.82 475.613 347.598 474.775 346.306C472.938 343.465 470.421 339.578 465.672 341.402C465.592 341.434 465.524 341.486 465.472 341.552L465.472 341.552C464.623 342.416 460.655 347.103 465.963 354.571C466.512 355.342 465.308 356.651 464.034 358.037C462.575 359.626 460.92 361.427 461.003 363.343C461.073 364.94 462.965 366.288 464.968 367.714C466.878 369.074 468.852 370.48 469.021 371.951C469.156 373.132 467.703 374.774 466.297 376.362C464.585 378.296 462.815 380.296 463.165 382.161C463.477 383.821 465.606 384.918 467.86 386.077C469.882 387.119 471.974 388.195 472.329 389.538C472.647 390.733 471.431 392.602 470.255 394.408C468.865 396.544 467.429 398.752 468.037 400.5C468.605 402.124 470.898 402.893 473.326 403.705C475.461 404.419 477.669 405.159 478.217 406.406C478.72 407.551 477.808 409.595 476.925 411.573C475.892 413.891 474.823 416.287 475.696 417.902C476.518 419.426 478.913 419.817 481.449 420.23C483.663 420.591 485.953 420.964 486.692 422.099C487.375 423.15 486.809 425.317 486.26 427.414C485.619 429.866 484.955 432.403 486.08 433.855C487.167 435.257 488.757 434.977 490.162 434.733C491.386 434.518 492.545 434.327 493.417 435.103C493.575 438.777 493.65 442.698 493.65 446.969V453.446H479.511C479.258 453.446 479.054 453.65 479.054 453.904C479.054 454.156 479.258 454.361 479.511 454.361H521.173C521.426 454.361 521.631 454.156 521.631 453.904C521.631 453.65 521.426 453.446 521.173 453.446H505.575C505.581 448.606 505.68 443.815 505.87 439.068C507.853 438.933 509.57 434.165 511.536 428.69C512.684 425.496 513.871 422.194 515.001 420.293C516.552 417.683 519.051 415.354 521.468 413.101C523.972 410.768 526.561 408.354 528.019 405.663C529.642 402.671 529.385 398.838 529.136 395.133C528.908 391.721 528.691 388.498 529.874 386.068C531.206 383.327 534.162 381.299 537.02 379.338C540.058 377.254 542.927 375.285 544.126 372.476C545.486 369.292 544.843 365.464 544.222 361.763C543.663 358.431 543.136 355.285 544.04 352.792C545.091 349.893 547.812 347.542 550.442 345.27C553.22 342.869 555.844 340.6 556.695 337.702C557.697 334.281 556.554 330.501 555.449 326.847C554.491 323.679 553.587 320.688 554.129 318.18C554.799 315.082 557.169 312.336 559.46 309.681C561.839 306.924 564.085 304.32 564.463 301.401C564.951 297.624 563.108 293.965 561.326 290.428Z" fill="#170D42"/>
<path fill-rule="evenodd" clip-rule="evenodd" d="M383.475 416.406C383.47 416.514 383.466 416.621 383.461 416.728C383.466 416.621 383.47 416.514 383.475 416.406ZM383.514 414.973C383.512 415.099 383.509 415.224 383.507 415.35C383.509 415.225 383.512 415.099 383.514 414.973ZM383.394 417.902C383.39 417.961 383.388 418.019 383.383 418.077C383.388 418.019 383.39 417.961 383.394 417.902ZM363.119 377.662C362.889 377.522 362.659 377.38 362.423 377.24C362.659 377.38 362.889 377.522 363.119 377.662ZM364.916 378.807C364.69 378.657 364.462 378.508 364.233 378.358C364.462 378.508 364.69 378.657 364.916 378.807ZM366.594 379.977C366.385 379.825 366.171 379.674 365.957 379.524C366.171 379.674 366.385 379.825 366.594 379.977ZM368.165 381.171C367.991 381.032 367.807 380.894 367.629 380.757C367.807 380.894 367.991 381.032 368.165 381.171ZM369.639 382.392C369.562 382.326 369.48 382.261 369.402 382.195C369.48 382.261 369.562 382.326 369.639 382.392ZM371.408 384.027C371.277 383.899 371.152 383.77 371.019 383.644C371.152 383.77 371.277 383.899 371.408 384.027ZM361.147 376.515C360.937 376.398 360.734 376.281 360.522 376.166C360.734 376.281 360.937 376.398 361.147 376.515ZM373.984 386.766C373.835 386.59 373.683 386.416 373.529 386.241C373.683 386.416 373.835 386.59 373.984 386.766ZM375.09 388.117C374.953 387.94 374.813 387.766 374.672 387.591C374.813 387.766 374.953 387.94 375.09 388.117ZM376.11 389.478C375.993 389.315 375.871 389.153 375.751 388.99C375.871 389.153 375.993 389.315 376.11 389.478ZM377.048 390.853C376.98 390.747 376.904 390.643 376.836 390.537C376.904 390.643 376.98 390.747 377.048 390.853ZM378.1 392.58C378.036 392.47 377.977 392.36 377.913 392.249C377.977 392.36 378.036 392.47 378.1 392.58ZM378.96 394.16C378.875 393.994 378.79 393.826 378.702 393.66C378.79 393.826 378.875 393.994 378.96 394.16ZM379.681 395.634C379.597 395.452 379.513 395.27 379.426 395.09C379.513 395.27 379.597 395.452 379.681 395.634ZM380.317 397.086C380.241 396.904 380.164 396.722 380.085 396.54C380.164 396.722 380.241 396.904 380.317 397.086ZM380.881 398.532C380.821 398.365 380.755 398.198 380.691 398.031C380.755 398.198 380.821 398.364 380.881 398.532ZM381.384 399.978C381.347 399.861 381.304 399.745 381.265 399.627C381.304 399.745 381.347 399.861 381.384 399.978ZM381.868 401.584C381.855 401.54 381.845 401.495 381.832 401.45C381.845 401.495 381.855 401.54 381.868 401.584ZM382.316 403.342C382.282 403.197 382.251 403.052 382.215 402.906C382.251 403.052 382.282 403.197 382.316 403.342ZM382.644 404.867C382.612 404.702 382.58 404.538 382.545 404.372C382.58 404.538 382.612 404.702 382.644 404.867ZM382.908 406.342C382.881 406.177 382.854 406.011 382.826 405.846C382.854 406.011 382.881 406.177 382.908 406.342ZM383.12 407.794C383.101 407.645 383.078 407.496 383.059 407.348C383.078 407.496 383.101 407.645 383.12 407.794ZM383.283 409.232C383.275 409.132 383.262 409.031 383.251 408.932C383.262 409.031 383.275 409.132 383.283 409.232ZM383.489 412.405C383.485 412.316 383.484 412.227 383.48 412.138C383.484 412.227 383.485 412.316 383.489 412.405ZM372.777 385.419C372.623 385.255 372.472 385.09 372.314 384.928C372.472 385.09 372.622 385.255 372.777 385.419ZM383.519 413.926C383.518 413.803 383.518 413.679 383.517 413.555C383.518 413.679 383.518 413.803 383.519 413.926ZM432.333 345.209C432.27 338.886 425.434 334.904 419.966 338.08C409.564 344.125 402.86 352.328 398.699 361.389C398.7 361.388 398.7 361.386 398.7 361.385C399.204 322.683 390.428 275.485 353.062 242.224C343.939 234.102 329.498 240.015 328.761 252.208C327.299 276.377 330.933 317.895 357.998 374.92C358.174 374.986 358.351 375.049 358.522 375.135C354.554 373.185 349.947 376.17 350.2 380.586C350.866 392.208 355.497 414.139 378.306 439.1C378.306 439.1 381.92 431.313 383.13 420.813C384.916 423.702 386.752 426.617 388.652 429.566C388.652 429.566 391.289 421.291 393.865 407.903C395.904 422.418 399.909 433.058 399.909 433.058C428.806 401.436 432.519 364.151 432.333 345.209Z" fill="#409B81"/>
<path fill-rule="evenodd" clip-rule="evenodd" d="M393.251 395.508C392.611 377.023 396.77 352.126 420.212 338.504C421.415 337.806 422.739 337.456 424.064 337.456C425.373 337.456 426.683 337.797 427.88 338.478C430.333 339.874 431.814 342.392 431.841 345.214C432.031 364.228 428.184 400.487 400.686 431.447C401.99 406.685 407.771 382.644 417.922 359.839C418.032 359.592 417.921 359.302 417.673 359.192C417.429 359.082 417.136 359.193 417.026 359.441C406.874 382.248 401.076 406.285 399.73 431.042C398.091 426.101 393.814 411.796 393.251 395.508ZM388.966 426.752C386.664 391.16 379.725 356.089 368.23 322.171L348.222 263.141C348.136 262.886 347.857 262.75 347.601 262.835C347.344 262.922 347.206 263.2 347.293 263.456L367.301 322.485C378.866 356.61 385.816 391.905 388.052 427.722C386.605 425.456 385.105 423.067 383.566 420.568C385.149 405.914 382.083 386.165 358.74 374.695C358.674 374.663 358.608 374.642 358.542 374.614C341.342 338.281 326.717 294.143 329.25 252.237C329.578 246.801 332.902 242.137 337.923 240.063C339.684 239.336 341.521 238.982 343.341 238.982C346.737 238.982 350.073 240.22 352.736 242.59C390.963 276.618 398.572 325.578 398.223 360.66C398.221 360.912 398.215 361.16 398.211 361.41C393.057 372.762 391.91 385.165 392.272 395.567C392.42 399.828 392.822 403.951 393.363 407.814C391.658 416.681 389.931 423.309 388.966 426.752ZM378.746 436.723C377.506 419.357 372.108 402.523 362.942 387.626C362.799 387.395 362.495 387.322 362.267 387.465C362.037 387.607 361.965 387.909 362.107 388.139C371.376 403.201 376.748 420.262 377.83 437.843C367.928 426.8 352.113 405.46 350.689 380.559C350.583 378.681 351.45 376.943 353.013 375.907C353.902 375.316 354.914 375.018 355.935 375.018C356.739 375.018 357.548 375.202 358.307 375.576C374.82 383.688 383.138 396.787 383.03 414.506C382.972 424.307 380.207 432.872 378.746 436.723ZM432.822 345.204C432.79 342.029 431.125 339.197 428.365 337.626C425.648 336.081 422.416 336.091 419.72 337.656C409.896 343.365 403.404 351.006 399.204 359.33C399.351 324.14 391.408 275.701 353.387 241.858C349.015 237.966 342.947 236.929 337.55 239.158C332.178 241.375 328.623 246.364 328.272 252.178C327.041 272.533 330.007 296.217 336.849 320.668C341.69 337.969 348.471 355.842 357.103 374.15C355.512 373.846 353.865 374.164 352.47 375.089C350.615 376.321 349.584 378.385 349.711 380.615C351.19 406.501 367.999 428.538 377.911 439.395C377.99 441.077 378.044 442.763 378.044 444.455V453.303C378.044 453.574 378.264 453.793 378.534 453.793C378.806 453.793 379.025 453.574 379.025 453.303V444.455C379.025 442.641 378.964 440.832 378.873 439.028C379.482 437.617 382.206 430.937 383.377 422.127C384.943 424.65 386.531 427.177 388.164 429.711C388.613 437.518 388.85 445.346 388.85 453.194C388.85 453.464 389.068 453.684 389.34 453.684C389.611 453.684 389.83 453.464 389.83 453.194C389.83 445.323 389.592 437.472 389.142 429.643C389.353 428.965 391.521 421.901 393.798 410.68C395.914 423.715 399.402 433.105 399.45 433.231C399.485 433.322 399.547 433.392 399.623 433.447C399.497 436.384 399.419 439.328 399.419 442.284V453.194C399.419 453.464 399.639 453.684 399.909 453.684C400.18 453.684 400.399 453.464 400.399 453.194V442.284C400.399 439.175 400.483 436.08 400.622 432.992C429.066 401.592 433.014 364.544 432.822 345.204Z" fill="#170D42"/>
<path fill-rule="evenodd" clip-rule="evenodd" d="M211.744 408.78L202.847 441.274H233.281L239.697 408.78H211.744ZM302.458 442.793L300.402 408.78H275.591L279.354 444.701C279.972 450.604 284.949 455.087 290.885 455.087C297.563 455.087 302.861 449.46 302.458 442.793Z" fill="#DCAD7F"/>
<path fill-rule="evenodd" clip-rule="evenodd" d="M232.984 440.912H203.322L212.022 409.142H239.256L232.984 440.912ZM202.847 441.637H233.282C233.456 441.637 233.604 441.514 233.638 441.345L240.053 408.85C240.074 408.743 240.047 408.633 239.978 408.55C239.909 408.465 239.806 408.417 239.698 408.417H211.744C211.581 408.417 211.438 408.526 211.395 408.684L202.497 441.179C202.467 441.288 202.49 441.404 202.559 441.494C202.627 441.584 202.734 441.637 202.847 441.637ZM279.715 444.662L275.994 409.142H300.062L302.096 442.815C302.285 445.938 301.208 448.913 299.063 451.191C296.918 453.47 294.014 454.724 290.885 454.724C285.117 454.724 280.316 450.399 279.715 444.662ZM278.993 444.738C279.633 450.844 284.745 455.45 290.885 455.45C294.216 455.45 297.308 454.114 299.591 451.689C301.874 449.264 303.021 446.096 302.82 442.771L300.765 408.758C300.754 408.566 300.595 408.417 300.403 408.417H275.592C275.489 408.417 275.391 408.46 275.322 408.537C275.253 408.613 275.22 408.715 275.231 408.817L278.993 444.738Z" fill="#170D42"/>
<path fill-rule="evenodd" clip-rule="evenodd" d="M179.362 455.379H233.282V441.274H202.847L202.735 441.375C200.743 443.167 198.288 444.364 195.649 444.828L190.503 445.732C185.438 446.622 181.238 450.16 179.499 455L179.362 455.379ZM299.052 442.954C294.062 442.29 289.006 442.29 284.015 442.954C276.597 443.94 270.184 448.617 266.978 455.378H316.089C312.883 448.617 306.471 443.94 299.052 442.954Z" fill="#4B69FD"/>
<path fill-rule="evenodd" clip-rule="evenodd" d="M232.919 455.016H179.879C181.593 450.364 185.678 446.948 190.566 446.09L195.712 445.185C198.42 444.709 200.933 443.485 202.978 441.644L232.919 441.637V455.016ZM179.362 455.741H233.281C233.482 455.741 233.644 455.579 233.644 455.378V441.274C233.644 441.074 233.482 440.912 233.281 440.912H202.847C202.757 440.912 202.671 440.945 202.604 441.005L202.492 441.105C200.549 442.854 198.161 444.018 195.586 444.47L190.441 445.375C185.259 446.286 180.936 449.926 179.158 454.877L179.021 455.256C178.981 455.367 178.998 455.49 179.066 455.587C179.134 455.684 179.245 455.741 179.362 455.741ZM315.507 455.016H267.559C270.799 448.62 276.927 444.262 284.062 443.314C289.02 442.655 294.047 442.655 299.005 443.314C306.14 444.262 312.267 448.62 315.507 455.016ZM266.978 455.741H316.089C316.214 455.741 316.329 455.677 316.396 455.572C316.462 455.468 316.47 455.336 316.417 455.223C313.144 448.322 306.671 443.601 299.1 442.595C294.079 441.927 288.988 441.927 283.967 442.595C276.395 443.602 269.922 448.322 266.65 455.223C266.597 455.336 266.605 455.468 266.671 455.572C266.737 455.677 266.854 455.741 266.978 455.741Z" fill="#170D42"/>
<path fill-rule="evenodd" clip-rule="evenodd" d="M180.916 452.131H233.282V455.378H179.362L179.499 454.999C179.865 453.98 180.346 453.023 180.916 452.131ZM316.089 455.378C315.545 454.232 314.903 453.15 314.185 452.131H268.882C268.164 453.15 267.522 454.232 266.978 455.378H316.089Z" fill="#EFF2F7"/>
<path fill-rule="evenodd" clip-rule="evenodd" d="M232.919 455.016H179.879C180.197 454.152 180.613 453.306 181.116 452.494H232.919V455.016ZM179.363 455.741H233.281C233.482 455.741 233.644 455.579 233.644 455.378V452.131C233.644 451.931 233.482 451.769 233.281 451.769H180.916C180.792 451.769 180.677 451.832 180.61 451.936C180.009 452.876 179.52 453.866 179.157 454.877L179.021 455.256C178.981 455.367 178.998 455.491 179.066 455.587C179.134 455.684 179.245 455.741 179.363 455.741ZM315.507 455.016H267.561C267.996 454.162 268.503 453.316 269.071 452.494H313.997C314.565 453.316 315.072 454.162 315.507 455.016ZM266.978 455.741H316.09C316.214 455.741 316.329 455.677 316.396 455.572C316.462 455.468 316.47 455.336 316.417 455.223C315.886 454.102 315.234 452.992 314.482 451.922C314.414 451.827 314.303 451.769 314.185 451.769H268.882C268.764 451.769 268.653 451.827 268.586 451.922C267.833 452.992 267.182 454.102 266.65 455.223C266.597 455.336 266.605 455.468 266.671 455.572C266.738 455.677 266.854 455.741 266.978 455.741Z" fill="#170D42"/>
<path fill-rule="evenodd" clip-rule="evenodd" d="M293.26 309.691H236.395L198.673 437.89H237.835L261.447 354.096L273.253 437.89H308.958L293.26 309.691Z" fill="#409B81"/>
<path fill-rule="evenodd" clip-rule="evenodd" d="M308.551 437.527H273.568L261.818 354.132L265.686 340.419C265.741 340.226 265.628 340.025 265.435 339.971C265.242 339.918 265.042 340.029 264.988 340.221L261.116 353.947C261.109 353.963 261.102 353.98 261.097 353.998L237.56 437.527H199.158L236.666 310.053H292.936L308.551 437.527ZM258.048 367.494L238.183 437.989C238.14 438.145 237.997 438.253 237.834 438.253H198.674C198.559 438.253 198.452 438.199 198.383 438.107C198.315 438.016 198.293 437.897 198.325 437.788L236.047 309.588C236.092 309.434 236.234 309.328 236.394 309.328H293.259C293.443 309.328 293.599 309.466 293.62 309.649L309.318 437.848C309.331 437.951 309.298 438.054 309.229 438.132C309.16 438.209 309.061 438.253 308.958 438.253H273.252C273.071 438.253 272.918 438.119 272.893 437.941L261.329 355.863L258.05 367.489C258.049 367.491 258.049 367.492 258.048 367.494Z" fill="#170D42"/>
<path fill-rule="evenodd" clip-rule="evenodd" d="M258.436 258.356C258.436 258.356 261 256.486 260.544 248.765C260.544 248.765 264.599 250.883 269.023 247.302L270.043 258.267C270.043 258.267 266.976 262.155 263.76 261.778C260.544 261.401 258.436 258.356 258.436 258.356Z" fill="#DCAD7F"/>
<path fill-rule="evenodd" clip-rule="evenodd" d="M260.699 248.142C263.274 249.544 265.961 249.06 268.809 246.658C269.035 246.467 269.355 246.632 269.384 246.954L270.404 258.38C270.415 258.496 270.383 258.612 270.316 258.7C268.2 261.495 265.998 262.778 263.722 262.499C261.477 262.225 259.614 260.977 258.149 258.772C258.02 258.578 258.061 258.299 258.237 258.165C259.804 256.975 260.478 253.776 260.182 248.55C260.164 248.231 260.449 248.006 260.699 248.142ZM269.665 258.436L268.725 248.028L268.534 248.172C265.964 250.061 263.458 250.505 261.046 249.483L260.939 249.436L260.956 249.868C261.1 254.315 260.464 257.264 258.999 258.702L258.954 258.744L259.053 258.879C260.286 260.516 261.782 261.467 263.555 261.746L263.798 261.779C265.811 262.022 267.797 260.879 269.771 258.303L269.665 258.436Z" fill="#170D42"/>
<path fill-rule="evenodd" clip-rule="evenodd" d="M263.666 249.409C258.773 249.409 254.805 245.201 254.805 240.012C254.805 234.822 258.773 230.614 263.666 230.614C268.56 230.614 272.527 234.822 272.527 240.012C272.527 245.201 268.56 249.409 263.666 249.409Z" fill="#DCAD7F"/>
<path fill-rule="evenodd" clip-rule="evenodd" d="M255.164 240.012C255.164 244.995 258.978 249.049 263.666 249.049C268.354 249.049 272.168 244.995 272.168 240.012C272.168 235.028 268.354 230.974 263.666 230.974C258.978 230.974 255.164 235.028 255.164 240.012ZM254.446 240.012C254.446 234.632 258.582 230.255 263.666 230.255C268.751 230.255 272.886 234.632 272.886 240.012C272.886 245.391 268.751 249.768 263.666 249.768C258.582 249.768 254.446 245.391 254.446 240.012ZM261.139 243.025L259.658 242.845C259.555 242.832 259.461 242.775 259.402 242.688C259.343 242.602 259.325 242.494 259.352 242.392L259.8 240.687C259.85 240.493 260.051 240.378 260.243 240.428C260.437 240.479 260.552 240.677 260.502 240.871L260.159 242.175L261.228 242.304C261.426 242.328 261.567 242.509 261.543 242.708C261.522 242.892 261.365 243.027 261.184 243.027C261.169 243.027 261.155 243.026 261.139 243.025ZM262.671 239.807C262.671 240.244 262.894 240.598 263.168 240.598C263.443 240.598 263.666 240.244 263.666 239.807C263.666 239.369 263.443 239.015 263.168 239.015C262.894 239.015 262.671 239.369 262.671 239.807ZM258.337 240.598C258.062 240.598 257.839 240.244 257.839 239.807C257.839 239.369 258.062 239.015 258.337 239.015C258.612 239.015 258.834 239.369 258.834 239.807C258.834 240.244 258.612 240.598 258.337 240.598ZM262.682 237.365C262.747 237.366 263.505 237.382 264.173 237.956C264.242 238.015 264.326 238.044 264.41 238.044C264.512 238.044 264.613 238.001 264.685 237.917C264.816 237.765 264.798 237.536 264.646 237.406C263.784 236.666 262.816 236.643 262.678 236.64H262.678C262.67 236.639 262.664 236.639 262.662 236.639C262.462 236.644 262.305 236.81 262.309 237.009C262.313 237.207 262.475 237.365 262.672 237.365H262.677C262.677 237.365 262.677 237.365 262.678 237.365L262.682 237.365ZM256.82 237.917C256.689 237.765 256.707 237.536 256.859 237.406C257.715 236.671 258.682 236.644 258.825 236.64C258.835 236.64 258.841 236.639 258.843 236.639C259.044 236.644 259.202 236.81 259.197 237.011C259.192 237.21 259.018 237.38 258.828 237.365C258.84 237.357 258.023 237.362 257.332 237.956C257.263 238.015 257.179 238.044 257.095 238.044C256.993 238.044 256.892 238.001 256.82 237.917ZM259.401 244.867C259.289 245.033 259.334 245.259 259.5 245.371C259.844 245.602 260.466 245.857 261.186 245.857C261.783 245.857 262.448 245.682 263.078 245.173C263.234 245.047 263.258 244.818 263.133 244.663C263.007 244.507 262.778 244.483 262.622 244.608C261.306 245.672 259.961 244.805 259.903 244.768C259.738 244.658 259.513 244.701 259.401 244.867Z" fill="#170D42"/>
<path fill-rule="evenodd" clip-rule="evenodd" d="M264.966 259.273C264.365 259.273 263.877 258.623 263.877 257.822C263.877 257.02 264.365 256.371 264.966 256.371C265.566 256.371 266.053 257.02 266.053 257.822C266.053 258.623 265.566 259.273 264.966 259.273Z" fill="#FCBD21"/>
<path fill-rule="evenodd" clip-rule="evenodd" d="M265.06 258.648C264.593 258.648 264.212 258.292 264.212 257.856C264.212 257.419 264.593 257.064 265.06 257.064C265.528 257.064 265.909 257.419 265.909 257.856C265.909 258.292 265.528 258.648 265.06 258.648ZM269.787 254.318C265.49 258.361 260.268 255.112 260.048 254.972C259.896 254.875 259.687 254.91 259.583 255.053C259.478 255.196 259.518 255.39 259.669 255.488C259.702 255.508 261.531 256.647 263.955 256.892C263.701 257.145 263.542 257.482 263.542 257.856C263.542 258.637 264.223 259.273 265.06 259.273C265.898 259.273 266.578 258.637 266.578 257.856C266.578 257.457 266.4 257.097 266.114 256.839C267.482 256.622 268.919 256.022 270.262 254.759C270.392 254.636 270.391 254.438 270.26 254.317C270.129 254.195 269.917 254.196 269.787 254.318Z" fill="#170D42"/>
<path fill-rule="evenodd" clip-rule="evenodd" d="M271.557 245.351C271.705 245.128 271.845 244.896 271.976 244.653C271.845 244.896 271.706 245.128 271.557 245.351ZM271.291 245.713C271.225 245.802 271.161 245.894 271.092 245.979C271.161 245.894 271.225 245.802 271.291 245.713ZM270.583 246.535C270.62 246.498 270.655 246.457 270.692 246.418C270.655 246.456 270.621 246.498 270.583 246.535ZM265.323 229.917L265.794 230.083C266.615 230.186 267.334 230.382 267.966 230.651C269.019 231.1 269.832 231.751 270.473 232.51C270.858 232.966 271.182 233.459 271.46 233.97C271.182 233.459 270.858 232.966 270.473 232.51C269.832 231.751 269.019 231.1 267.966 230.651C267.334 230.382 266.615 230.186 265.794 230.083L265.323 229.917C265.323 229.917 256.522 217.847 248.546 226.465C240.57 235.083 254.678 235.243 254.678 235.243L255.398 235.068H264.454C265.33 235.068 266.067 235.724 266.166 236.595L266.622 240.591C267.092 240.503 267.613 240.56 268.238 241.294C268.469 241.565 268.634 241.91 268.631 242.267C268.625 243.197 267.869 243.948 266.937 243.948C266.881 243.948 266.828 243.937 266.772 243.931L266.96 248.087C267.088 248.087 267.208 248.066 267.334 248.056L267.32 248.087L265.884 248.772C266.915 255.37 275.591 254.794 275.591 254.794C275.591 254.794 286.592 251.035 282.375 236.458C278.158 221.882 265.324 229.917 265.323 229.917Z" fill="#4B69FD"/>
<path fill-rule="evenodd" clip-rule="evenodd" d="M271.26 230.267C269.604 225.33 265.401 229.985 265.401 229.985C265.401 229.985 272.916 235.204 271.26 230.267ZM265.401 224.115C260.549 226.006 265.401 229.98 265.401 229.98C265.401 229.98 270.253 222.223 265.401 224.115Z" fill="#FCBD21"/>
<path fill-rule="evenodd" clip-rule="evenodd" d="M275.52 254.434C274.782 254.468 267.574 254.651 266.465 248.911L267.48 248.412C267.481 248.412 267.482 248.411 267.484 248.411C268.219 248.339 268.917 248.116 269.563 247.751C269.568 247.748 269.573 247.746 269.579 247.743C269.784 247.626 269.985 247.497 270.18 247.352C270.2 247.336 270.219 247.32 270.238 247.305C270.417 247.168 270.593 247.023 270.762 246.862C270.804 246.823 270.843 246.779 270.883 246.739C271.029 246.593 271.173 246.446 271.31 246.282C271.385 246.193 271.455 246.093 271.528 245.999C271.627 245.869 271.728 245.745 271.822 245.606C271.988 245.36 272.147 245.101 272.295 244.826C273.614 242.38 273.829 239.332 272.885 236.462C272.453 235.15 271.889 233.824 271.044 232.685C271.18 232.646 271.303 232.59 271.409 232.51C271.939 232.113 272.003 231.341 271.604 230.151C271.334 229.347 270.978 228.74 270.544 228.319C272.232 227.985 274.14 227.929 275.948 228.621C278.771 229.704 280.816 232.374 282.027 236.559C286 250.289 276.378 254.123 275.52 254.434ZM268.994 242.269C268.997 241.855 268.827 241.425 268.514 241.058C267.923 240.365 267.376 240.199 266.943 240.197L266.527 236.554C266.406 235.5 265.515 234.705 264.454 234.705H255.397C255.368 234.705 255.34 234.709 255.312 234.715L254.638 234.879C254.05 234.865 247.816 234.648 246.65 231.938C246.087 230.629 246.814 228.87 248.812 226.712C250.764 224.603 252.929 223.595 255.254 223.738C258.696 223.937 261.78 226.567 263.527 228.391C264.182 229.437 265.108 230.209 265.172 230.261C265.173 230.262 265.175 230.262 265.177 230.264C265.183 230.269 265.187 230.278 265.195 230.283C265.815 230.714 268.401 232.447 270.166 232.707C270.851 233.509 271.35 234.458 271.754 235.464C271.914 235.866 272.06 236.276 272.196 236.688C273.078 239.37 272.881 242.21 271.657 244.481C270.609 246.424 269.065 247.565 267.307 247.695C267.306 247.695 267.306 247.695 267.305 247.695L267.152 244.3C268.179 244.192 268.986 243.322 268.994 242.269ZM263.627 226.22C263.743 225.495 264.384 224.901 265.533 224.453C265.997 224.272 266.382 224.18 266.659 224.18C266.856 224.18 266.998 224.227 267.076 224.32C267.598 224.95 266.4 227.599 265.319 229.418C264.708 228.836 263.431 227.453 263.627 226.22ZM265.967 229.929C266.578 229.348 268.022 228.135 269.242 228.394C269.96 228.544 270.524 229.213 270.916 230.383C271.187 231.19 271.208 231.755 270.974 231.93C270.32 232.421 267.731 231.097 265.967 229.929ZM282.724 236.357C281.446 231.942 279.254 229.112 276.208 227.944C273.953 227.08 271.598 227.265 269.64 227.758C269.557 227.731 269.475 227.701 269.39 227.683C268.454 227.489 267.484 227.907 266.705 228.415C267.512 226.843 268.359 224.733 267.635 223.858C267.212 223.347 266.438 223.321 265.27 223.777C263.863 224.325 263.069 225.109 262.911 226.108C262.877 226.323 262.88 226.538 262.903 226.752C261.023 225.04 258.324 223.19 255.299 223.013C252.747 222.868 250.386 223.943 248.28 226.219C246.069 228.607 245.297 230.628 245.984 232.225C247.387 235.486 254.377 235.602 254.674 235.605C254.709 235.603 254.735 235.602 254.764 235.595L255.441 235.43H264.454C265.146 235.43 265.727 235.949 265.806 236.636L266.262 240.633C266.274 240.733 266.326 240.823 266.407 240.884C266.489 240.944 266.591 240.968 266.69 240.948C267.014 240.886 267.406 240.876 267.962 241.528C268.161 241.763 268.27 242.024 268.269 242.264C268.264 242.993 267.666 243.586 266.937 243.586L266.808 243.571C266.705 243.561 266.599 243.597 266.523 243.669C266.447 243.741 266.406 243.843 266.41 243.948L266.594 248.039L265.9 248.38C265.758 248.45 265.677 248.604 265.702 248.762C266.643 254.788 273.54 255.163 275.237 255.163C275.468 255.163 275.602 255.157 275.612 255.156C275.645 255.154 275.678 255.147 275.708 255.137C275.825 255.097 278.585 254.131 280.847 251.32C282.929 248.733 284.946 244.037 282.724 236.357Z" fill="#170D42"/>
<path fill-rule="evenodd" clip-rule="evenodd" d="M230.805 265.608C236.685 259.872 246.576 263.582 247.18 271.774C247.427 275.12 245.879 278.303 243.19 280.31C229.403 290.599 223.507 323.211 223.09 327.568C222.889 329.668 223.716 330.754 224.777 332.147C226.14 333.936 227.889 336.233 228.34 341.84C229.232 352.913 224.424 353.741 222.434 352.632C220.444 351.523 221.641 342.574 221.641 342.574C219.351 345.695 219.103 349.712 218.889 353.188C218.703 356.21 218.542 358.822 217.085 360.077C214.176 362.587 211.447 360.021 211.447 360.021C206.691 361.508 204.747 357.67 204.747 357.67C199.282 356.869 199.878 351.645 199.878 351.645C196.589 348.006 199.257 342.4 199.257 342.4L203.274 335.372C206.127 330.379 208.096 324.916 208.946 319.23C211.691 300.867 217.495 283.857 223.705 274.273C225.926 270.845 228.372 267.981 230.805 265.608ZM297.599 265.608C291.72 259.872 281.829 263.582 281.225 271.774C280.978 275.12 282.525 278.303 285.215 280.31C299.001 290.599 304.897 323.211 305.315 327.568C305.516 329.668 304.689 330.754 303.628 332.146C302.265 333.936 300.515 336.233 300.064 341.84C299.173 352.913 303.98 353.741 305.971 352.632C307.961 351.523 306.763 342.574 306.763 342.574C309.054 345.695 309.302 349.713 309.516 353.189C309.703 356.211 309.864 358.822 311.319 360.077C314.229 362.587 316.958 360.021 316.958 360.021C321.715 361.508 323.658 357.67 323.658 357.67C329.124 356.869 328.527 351.645 328.527 351.645C331.816 348.006 329.148 342.4 329.148 342.4L325.131 335.372C322.278 330.379 320.309 324.916 319.459 319.23C316.713 300.867 310.911 283.857 304.7 274.273C302.479 270.845 300.032 267.981 297.599 265.608Z" fill="#DCAD7F"/>
<path fill-rule="evenodd" clip-rule="evenodd" d="M210.964 359.783C210.57 358.531 209.868 354.237 213.229 343.502C213.289 343.311 213.491 343.203 213.683 343.264C213.875 343.325 213.982 343.528 213.921 343.719C210.223 355.53 211.55 359.348 211.742 359.799C212.108 360.117 214.395 361.918 216.848 359.803C218.188 358.647 218.345 356.108 218.527 353.166C218.744 349.625 218.991 345.614 221.307 342.417C221.302 340.599 220.733 339.824 220.725 339.814C220.605 339.656 220.633 339.429 220.79 339.306C220.947 339.184 221.172 339.21 221.295 339.366C221.347 339.43 222.549 340.997 221.774 344.828C221.772 344.838 221.77 344.847 221.767 344.857C221.518 348.038 221.577 351.74 222.61 352.316C223.262 352.679 224.409 352.855 225.496 352.158C226.672 351.402 228.557 349.06 227.979 341.869C227.537 336.368 225.846 334.149 224.488 332.367L224.486 332.364C223.428 330.975 222.514 329.774 222.728 327.533C223.166 322.958 229.222 290.283 242.973 280.019C245.615 278.048 247.053 274.975 246.818 271.801C246.551 268.165 244.269 265.106 240.865 263.816C237.443 262.521 233.685 263.305 231.059 265.867C228.398 268.462 226.027 271.357 224.009 274.47C217.591 284.375 211.956 301.547 209.304 319.283C208.462 324.915 206.539 330.388 203.588 335.552L199.571 342.581L199.57 342.583C199.512 342.712 197.346 347.468 199.7 350.841C200.376 348.334 201.799 345.452 204.506 340.395C204.6 340.219 204.819 340.152 204.997 340.246C205.173 340.341 205.24 340.561 205.146 340.737C202.215 346.212 200.808 349.1 200.237 351.699C200.203 352.029 199.858 356.345 204.413 357.244C203.869 354.915 204.255 350.462 208.062 341.988C208.144 341.806 208.357 341.724 208.541 341.806C208.723 341.888 208.805 342.103 208.723 342.286C204.295 352.145 204.7 356.22 205.337 357.772C205.408 357.945 205.484 358.093 205.56 358.22C205.743 358.441 205.981 358.689 206.276 358.929C206.33 358.953 206.376 358.991 206.411 359.035C207.358 359.751 208.839 360.335 210.964 359.783ZM204.52 358.001C204.601 358.131 204.732 358.327 204.916 358.557C205.341 359.282 205.827 359.529 205.976 359.59C207.098 360.444 208.86 361.146 211.364 360.425C211.778 360.752 212.928 361.538 214.384 361.538C215.28 361.538 216.294 361.24 217.322 360.352C218.894 358.997 219.059 356.316 219.251 353.211C219.433 350.237 219.638 346.923 221.103 344.124C220.847 346.852 220.598 352.024 222.257 352.949C223.084 353.41 224.532 353.639 225.888 352.768C227.491 351.737 229.281 349 228.702 341.811C228.242 336.098 226.406 333.687 225.065 331.927C224.019 330.554 223.263 329.561 223.45 327.603C223.885 323.069 229.865 290.707 243.407 280.601C246.248 278.48 247.794 275.17 247.541 271.748C247.253 267.828 244.793 264.528 241.122 263.138C237.432 261.74 233.382 262.588 230.552 265.348C227.854 267.981 225.447 270.917 223.4 274.076C216.929 284.062 211.252 301.343 208.586 319.177C207.758 324.718 205.865 330.107 202.958 335.192L198.929 342.245C198.817 342.48 196.249 347.998 199.505 351.772C199.461 352.698 199.515 357.167 204.52 358.001ZM306.637 344.857C306.634 344.847 306.632 344.838 306.63 344.828C305.856 340.997 307.057 339.43 307.108 339.366C307.233 339.208 307.461 339.183 307.618 339.307C307.774 339.431 307.801 339.657 307.679 339.814C307.667 339.83 307.102 340.606 307.098 342.417C309.412 345.614 309.659 349.624 309.877 353.164V353.166C310.059 356.107 310.216 358.647 311.555 359.803C314.005 361.916 316.289 360.122 316.661 359.801C316.85 359.356 318.185 355.542 314.482 343.719C314.422 343.528 314.528 343.325 314.72 343.264C314.911 343.203 315.114 343.311 315.174 343.502C318.536 354.237 317.833 358.531 317.44 359.783C319.553 360.334 321.026 359.767 321.971 359.06C322.012 358.998 322.073 358.948 322.148 358.921C322.428 358.692 322.654 358.454 322.832 358.24C322.912 358.109 322.992 357.955 323.067 357.772C323.703 356.22 324.109 352.145 319.68 342.286C319.598 342.103 319.68 341.888 319.862 341.806C320.046 341.723 320.26 341.805 320.342 341.988C324.149 350.461 324.535 354.914 323.991 357.244C328.536 356.346 328.203 352.05 328.168 351.701C327.597 349.101 326.189 346.213 323.258 340.737C323.163 340.561 323.23 340.341 323.407 340.246C323.585 340.152 323.803 340.219 323.898 340.395C326.605 345.452 328.028 348.334 328.704 350.842C331.09 347.427 328.845 342.607 328.82 342.556L324.815 335.552C321.864 330.388 319.942 324.914 319.099 319.283C316.448 301.545 310.813 284.374 304.395 274.47C302.376 271.355 300.005 268.462 297.345 265.867C294.719 263.304 290.96 262.519 287.539 263.816C284.135 265.106 281.854 268.165 281.586 271.801C281.352 274.975 282.789 278.048 285.431 280.019C299.182 290.282 305.237 322.958 305.675 327.533C305.89 329.775 304.975 330.976 303.916 332.366L303.915 332.367C302.557 334.151 300.867 336.369 300.425 341.869C299.846 349.059 301.732 351.401 302.907 352.157C303.994 352.855 305.141 352.679 305.794 352.315C306.828 351.739 306.886 348.037 306.637 344.857ZM322.432 359.589C321.31 360.444 319.547 361.149 317.04 360.425C316.626 360.751 315.476 361.538 314.02 361.538C313.123 361.538 312.11 361.239 311.082 360.352C309.51 358.996 309.345 356.315 309.153 353.212V353.211C308.97 350.237 308.765 346.922 307.301 344.123C307.557 346.852 307.806 352.024 306.147 352.948C305.32 353.41 303.872 353.64 302.516 352.767C300.912 351.737 299.123 348.999 299.702 341.81C300.161 336.1 301.996 333.689 303.337 331.929L303.338 331.926L303.341 331.923C304.386 330.552 305.141 329.56 304.953 327.603C304.519 323.069 298.539 290.707 284.998 280.6C282.155 278.48 280.609 275.17 280.862 271.747C281.151 267.828 283.611 264.528 287.282 263.138C290.971 261.74 295.022 262.587 297.852 265.348C300.55 267.98 302.956 270.916 305.003 274.076C311.475 284.061 317.151 301.342 319.817 319.176C320.645 324.718 322.539 330.106 325.446 335.192L329.462 342.22C329.587 342.479 332.155 347.997 328.899 351.772C328.942 352.698 328.888 357.167 323.884 358.001C323.803 358.132 323.671 358.33 323.485 358.561C323.065 359.277 322.585 359.525 322.432 359.589Z" fill="#170D42"/>
<path fill-rule="evenodd" clip-rule="evenodd" d="M291.942 286.509V283.075L297.877 265.018C290.854 260.162 282.43 257.459 273.654 257.459H270.246C270.245 257.46 270.244 257.462 270.243 257.464L270.213 257.459C269.3 259.383 267.037 260.748 264.383 260.754C261.728 260.748 259.465 259.383 258.552 257.459L258.522 257.464C258.521 257.462 258.52 257.46 258.519 257.459H255.111C246.334 257.459 237.91 260.162 230.887 265.018L236.823 283.075V286.509C236.823 292.908 234.969 310.627 234.969 310.627H293.979C293.979 310.627 291.942 292.908 291.942 286.509Z" fill="#DF6FFF"/>
<path fill-rule="evenodd" clip-rule="evenodd" d="M235.372 310.265H293.573C293.271 307.582 291.58 292.318 291.58 286.509V283.075C291.58 283.037 291.586 282.998 291.598 282.962L297.448 265.164C290.406 260.36 282.184 257.822 273.655 257.822H270.438C269.375 259.825 267.028 261.111 264.384 261.117C261.739 261.111 259.392 259.825 258.329 257.822H255.112C246.582 257.822 238.361 260.36 231.318 265.164L237.169 282.962C237.181 282.998 237.186 283.037 237.186 283.075V286.509C237.186 292.319 235.646 307.593 235.372 310.265ZM293.979 310.99H234.97C234.867 310.99 234.769 310.947 234.7 310.87C234.631 310.794 234.599 310.692 234.61 310.59C234.628 310.413 236.461 292.817 236.461 286.509V283.133L230.544 265.132C230.494 264.98 230.55 264.812 230.683 264.721C237.896 259.732 246.344 257.096 255.112 257.096H258.52C258.56 257.096 258.599 257.103 258.636 257.115C258.74 257.143 258.835 257.209 258.88 257.304C259.768 259.174 261.929 260.386 264.384 260.391C266.838 260.386 268.999 259.174 269.887 257.304C269.95 257.171 270.077 257.089 270.231 257.096C270.236 257.096 270.241 257.096 270.247 257.096H273.655C282.423 257.096 290.871 259.732 298.085 264.721C298.217 264.812 298.273 264.98 298.223 265.132L292.305 283.133V286.509C292.305 292.815 294.32 310.409 294.34 310.586C294.352 310.688 294.319 310.792 294.25 310.869C294.181 310.946 294.083 310.99 293.979 310.99Z" fill="#170D42"/>
</svg>
