<svg width="499" height="348" viewBox="0 0 499 348" fill="none" xmlns="http://www.w3.org/2000/svg">
<g clip-path="url(#clip0_319_1982)">
<path d="M422.132 300.619C408.779 308.43 393.472 312.016 379.965 319.744C364.848 328.385 350.884 339.516 332.879 340.718C296.763 343.137 270.816 321.53 246.978 297.694C223.455 274.16 197.277 241.043 197.853 205.641C198.092 190.777 206.624 180.75 215.366 169.683C225.739 156.562 235.438 143.133 247.294 131.271C267.084 111.478 297.627 84.2812 327.411 83.9156C361.777 83.4937 397.795 109.474 420.881 132.544C440.236 151.873 465.936 183.661 466.878 212.313C467.89 243.307 449.126 284.777 422.132 300.619Z" stroke="#170D42" stroke-miterlimit="10"/>
<path d="M437.888 176.658C437.888 218.423 415.399 272.543 378.194 294.473C361.074 304.57 341.354 308.782 324.03 318.759C304.465 330.009 282.77 348.136 259.086 348.002C209.892 347.721 177.978 324.18 144.449 290.627C112.655 258.818 79.1672 214.556 78.6963 167.58C78.4925 147.26 93.0331 131.348 105.016 116.358C118.038 100.045 129.985 83.2969 144.856 68.475C171.175 42.143 212.394 5.46799 251.77 5.30627C297.613 5.11643 345.381 39.0211 376.493 70.1625C390.626 84.3094 401.653 100.059 412.707 116.618C424.725 134.625 437.902 154.179 437.888 176.658Z" fill="#2D2DAA" stroke="#170D42" stroke-miterlimit="10"/>
<path d="M367.069 97.9219L381.019 123.277C399.369 156.619 366.45 171.581 366.45 171.581L364.012 172.882L355.979 177.234L347.939 181.58L340.525 185.602L332.492 189.954C315.674 199.059 293.762 210.935 269.467 224.119L262.108 228.141L254.076 232.5L246.05 236.859L238.017 241.219C212.246 255.225 185.21 269.92 159.615 283.884L152.179 287.906L144.161 292.28L136.142 296.667C133.436 298.137 130.766 299.606 128.123 301.048L120.146 305.484L112.746 309.534L104.685 313.922L96.6736 318.316C93.9397 319.821 91.2621 321.284 88.6689 322.718L85.2042 324.623C80.362 327.295 75.8009 329.623 71.4999 331.655C-6.00287 368.048 0.98982 304.275 0.98982 304.275C56.1371 298.945 126.788 255.893 200.58 206.541C224.798 190.369 249.353 173.494 273.789 157.048C305.386 135.792 336.8 115.289 367.069 97.9219Z" fill="white" stroke="#170D42" stroke-miterlimit="10"/>
<path d="M71.1485 331.831L67.5713 324.588" stroke="#170D42" stroke-miterlimit="10"/>
<path d="M80.088 326.902L76.6162 320.461" stroke="#170D42" stroke-miterlimit="10"/>
<path d="M88.43 323.112L84.9583 316.671" stroke="#170D42" stroke-miterlimit="10"/>
<path d="M96.4346 318.703L92.9629 312.262" stroke="#170D42" stroke-miterlimit="10"/>
<path d="M104.439 314.295L100.968 307.854" stroke="#170D42" stroke-miterlimit="10"/>
<path d="M112.437 309.886L108.972 303.445" stroke="#170D42" stroke-miterlimit="10"/>
<path d="M119.83 305.815L116.358 299.374" stroke="#170D42" stroke-miterlimit="10"/>
<path d="M127.828 301.406L124.363 294.966" stroke="#170D42" stroke-miterlimit="10"/>
<path d="M135.833 296.998L132.368 290.557" stroke="#170D42" stroke-miterlimit="10"/>
<path d="M143.837 292.589L140.365 286.148" stroke="#170D42" stroke-miterlimit="10"/>
<path d="M151.842 288.18L148.37 281.74" stroke="#170D42" stroke-miterlimit="10"/>
<path d="M159.228 284.109L155.756 277.669" stroke="#170D42" stroke-miterlimit="10"/>
<path d="M167.233 279.701L163.761 273.26" stroke="#170D42" stroke-miterlimit="10"/>
<path d="M175.238 275.292L171.766 268.852" stroke="#170D42" stroke-miterlimit="10"/>
<path d="M183.235 270.884L179.771 264.443" stroke="#170D42" stroke-miterlimit="10"/>
<path d="M190.628 266.812L187.157 260.372" stroke="#170D42" stroke-miterlimit="10"/>
<path d="M198.626 262.404L195.161 255.963" stroke="#170D42" stroke-miterlimit="10"/>
<path d="M206.012 258.333L202.548 251.899" stroke="#170D42" stroke-miterlimit="10"/>
<path d="M214.017 253.924L210.552 247.484" stroke="#170D42" stroke-miterlimit="10"/>
<path d="M222.022 249.516L218.55 243.075" stroke="#170D42" stroke-miterlimit="10"/>
<path d="M230.026 245.107L226.555 238.666" stroke="#170D42" stroke-miterlimit="10"/>
<path d="M237.75 241.655L234.285 235.214" stroke="#170D42" stroke-miterlimit="10"/>
<path d="M245.755 237.246L242.283 230.805" stroke="#170D42" stroke-miterlimit="10"/>
<path d="M253.759 232.837L250.288 226.397" stroke="#170D42" stroke-miterlimit="10"/>
<path d="M261.764 228.429L258.292 221.988" stroke="#170D42" stroke-miterlimit="10"/>
<path d="M269.15 224.358L265.678 217.917" stroke="#170D42" stroke-miterlimit="10"/>
<path d="M277.155 219.949L273.683 213.509" stroke="#170D42" stroke-miterlimit="10"/>
<path d="M285.152 215.541L281.688 209.1" stroke="#170D42" stroke-miterlimit="10"/>
<path d="M293.157 211.132L289.693 204.691" stroke="#170D42" stroke-miterlimit="10"/>
<path d="M300.544 207.068L297.079 200.627" stroke="#170D42" stroke-miterlimit="10"/>
<path d="M308.548 202.659L305.083 196.219" stroke="#170D42" stroke-miterlimit="10"/>
<path d="M316.553 198.244L313.081 191.81" stroke="#170D42" stroke-miterlimit="10"/>
<path d="M323.939 194.18L320.474 187.739" stroke="#170D42" stroke-miterlimit="10"/>
<path d="M332.281 190.383L328.816 183.942" stroke="#170D42" stroke-miterlimit="10"/>
<path d="M340.286 185.974L336.814 179.534" stroke="#170D42" stroke-miterlimit="10"/>
<path d="M347.672 181.903L344.207 175.469" stroke="#170D42" stroke-miterlimit="10"/>
<path d="M355.677 177.495L352.205 171.061" stroke="#170D42" stroke-miterlimit="10"/>
<path d="M363.681 173.086L360.21 166.645" stroke="#170D42" stroke-miterlimit="10"/>
<path d="M92.5905 182.641C92.4218 182.473 92.3093 182.381 92.3093 182.381" stroke="#170D42" stroke-miterlimit="10"/>
<path d="M85.8507 192.549L85.408 192.288" stroke="#170D42" stroke-miterlimit="10"/>
<path d="M113.962 148.132L113.871 148.062" stroke="#170D42" stroke-miterlimit="10"/>
<path d="M107.911 158.475L107.785 158.412" stroke="#170D42" stroke-miterlimit="10"/>
<path d="M123 131.58L122.944 131.531" stroke="#170D42" stroke-miterlimit="10"/>
<path d="M117.335 142.127L117.195 142.071" stroke="#170D42" stroke-miterlimit="10"/>
<path d="M130.731 112.434H130.695" stroke="#170D42" stroke-miterlimit="10"/>
<path d="M126.83 123.769L126.689 123.734" stroke="#170D42" stroke-miterlimit="10"/>
<path d="M134.743 92.8031H134.694" stroke="#170D42" stroke-miterlimit="10"/>
<path d="M132.403 104.559C132.361 104.564 132.319 104.564 132.276 104.559" stroke="#170D42" stroke-miterlimit="10"/>
<path d="M104.018 164.859L103.849 164.726" stroke="#170D42" stroke-miterlimit="10"/>
<path d="M200.215 206.745H200.207" stroke="#170D42" stroke-miterlimit="10"/>
<path d="M351.081 66.4219L350.778 66.1758" stroke="#170D42" stroke-miterlimit="10"/>
<path d="M282.335 54.2156C282.292 54.1917 282.252 54.1634 282.215 54.1312" stroke="#170D42" stroke-miterlimit="10"/>
<path d="M200.207 206.745C126.471 256.062 55.7927 299.114 0.673549 304.444C0.673549 304.444 -2.03216 290.775 2.07911 281.241C168.069 229.765 98.6765 200.325 98.6765 200.325C103.744 193.259 110.062 184.308 116.984 174.408C130.78 190.39 164.513 184.652 200.207 206.745Z" fill="#FCBFFF" stroke="#170D42" stroke-miterlimit="10"/>
<path d="M273.423 157.245C248.98 173.67 224.432 190.552 200.207 206.745C164.513 184.652 130.78 190.39 116.935 174.401C133.527 150.684 153.606 121.554 168.329 100.123C181.837 124.985 256.332 128.452 273.423 157.245Z" fill="#DF6FFF" stroke="#170D42" stroke-miterlimit="10"/>
<path d="M350.778 66.1758C318.268 39.9351 305.758 70.9711 282.334 54.2226C288.66 42.8601 293.277 26.6039 295.687 3.69608C295.666 3.68201 304.584 -21.9961 350.778 66.1758Z" fill="#6970FF" stroke="#170D42" stroke-miterlimit="10"/>
<path d="M350.778 66.1758C355.656 75.4992 360.948 86.0953 366.703 98.1187C336.435 115.486 305.02 135.989 273.423 157.245C256.332 128.452 181.837 124.985 168.329 100.102C180.417 82.5234 188.907 70.0781 188.907 70.0781L201.381 73.7625C232.381 79.2399 264.189 86.9953 282.335 54.2156C305.758 70.9711 318.268 39.9352 350.778 66.1758Z" fill="#ADFFE2" stroke="#170D42" stroke-miterlimit="10"/>
<path d="M201.381 73.7625L188.907 70.0781C168.146 54.2226 157.162 70.7109 154.878 75.225C152.594 79.7391 148.932 78.5015 148.932 78.5015L138.067 76.9687C142.284 57.7102 144.723 51.7125 149.452 43.725C166.783 42.8883 193.896 48.4359 201.381 73.7625Z" fill="#6970FF" stroke="#170D42" stroke-miterlimit="10"/>
<path d="M188.907 70.0781C188.907 70.0781 180.417 82.4953 168.329 100.095C153.606 121.533 133.527 150.663 116.935 174.38C110.012 184.273 103.694 193.23 98.6272 200.29C94.1927 206.477 90.7139 211.209 88.6126 213.86C73.8542 232.507 62.7291 224.013 62.3848 223.746C66.4258 218.824 70.4387 213.649 74.3883 208.383C74.3883 208.383 81.3318 212.805 84.6278 208.58C87.9238 204.354 81.7042 198.905 81.4864 198.736C82.9411 196.704 84.3959 194.658 85.8225 192.605V192.57C87.4038 193.441 92.8152 196.085 95.6123 192.499C98.4094 188.913 93.7851 183.851 92.5622 182.655C94.2629 180.115 95.9356 177.572 97.5801 175.027C97.5801 175.027 105.065 179.02 108.009 174.548C110.68 170.484 105.037 165.717 103.989 164.887C105.311 162.736 106.608 160.603 107.883 158.489C108.853 158.939 115.325 161.78 117.961 157.589C120.596 153.398 114.756 148.758 113.934 148.146C115.096 146.126 116.223 144.124 117.314 142.141C118.34 142.598 124.876 145.291 127.364 141.03C129.852 136.77 123.674 132.087 122.972 131.595C123.674 130.287 124.314 128.986 124.96 127.713C125.607 126.441 126.232 125.105 126.802 123.783C127.856 124.05 134.729 125.583 136.514 120.97C138.384 116.154 131.208 112.673 130.702 112.427C131.068 111.021 131.405 109.573 131.679 108.138C131.911 106.915 132.143 105.727 132.382 104.552C133.429 104.672 140.499 105.255 141.645 100.46C142.825 95.468 135.369 93.007 134.722 92.8031C135.966 86.6578 137.055 81.4336 138.046 76.9406L148.96 78.4945C148.96 78.4945 152.615 79.7461 154.906 75.225C157.197 70.7039 168.146 54.2226 188.907 70.0781Z" fill="#ADFFE2" stroke="#170D42" stroke-miterlimit="10"/>
<path d="M2.02991 281.22C3.21772 278.15 5.42002 275.579 8.27061 273.935C24.8141 265.139 43.9157 246.387 62.3848 223.76C62.7292 224.027 73.8683 232.514 88.6126 213.867C90.721 211.216 94.1927 206.484 98.6273 200.304C98.6273 200.304 168.02 229.744 2.02991 281.22Z" fill="#DF6FFF" stroke="#170D42" stroke-miterlimit="10"/>
<path d="M84.6278 208.587C81.3318 212.806 74.3883 208.39 74.3883 208.39C76.7871 205.202 79.1532 201.98 81.4864 198.722C81.7042 198.912 87.8606 204.438 84.6278 208.587Z" fill="white" stroke="#170D42" stroke-miterlimit="10"/>
<path d="M95.6405 192.478C92.8293 196.057 87.432 193.42 85.8507 192.548C88.1348 189.265 90.3907 185.96 92.5904 182.641C93.8132 183.844 98.5219 188.766 95.6405 192.478Z" fill="white" stroke="#170D42" stroke-miterlimit="10"/>
<path d="M108.038 174.534C105.093 179.006 97.6083 175.012 97.6083 175.012C99.7963 171.619 101.933 168.239 104.018 164.873C105.065 165.703 110.708 170.484 108.038 174.534Z" fill="white" stroke="#170D42" stroke-miterlimit="10"/>
<path d="M117.989 157.575C115.353 161.794 108.853 158.925 107.911 158.475C110.005 154.988 112.022 151.54 113.962 148.132C114.784 148.744 120.638 153.356 117.989 157.575Z" fill="white" stroke="#170D42" stroke-miterlimit="10"/>
<path d="M127.392 141.016C124.904 145.277 118.368 142.584 117.342 142.127C119.324 138.532 121.21 135.016 123 131.58C123.702 132.073 129.943 136.664 127.392 141.016Z" fill="white" stroke="#170D42" stroke-miterlimit="10"/>
<path d="M136.542 120.97C134.757 125.569 127.884 124.036 126.83 123.783C128.431 120.113 129.735 116.32 130.73 112.441C131.236 112.673 138.419 116.154 136.542 120.97Z" fill="white" stroke="#170D42" stroke-miterlimit="10"/>
<path d="M141.666 100.46C140.52 105.277 133.45 104.679 132.403 104.552C133.242 100.334 134.019 96.4383 134.736 92.8664C134.736 92.8664 134.736 92.8242 134.736 92.8031C135.39 93.007 142.846 95.468 141.666 100.46Z" fill="white" stroke="#170D42" stroke-miterlimit="10"/>
<path d="M316.925 160.767C316.86 160.767 316.796 160.749 316.741 160.714C316.686 160.679 316.642 160.629 316.614 160.571C316.586 160.512 316.575 160.446 316.583 160.381C316.591 160.316 316.617 160.255 316.658 160.205L316.729 160.12C316.776 160.052 316.845 160.003 316.925 159.981C317.004 159.959 317.089 159.966 317.164 160.001C317.24 160.036 317.301 160.097 317.336 160.173C317.37 160.249 317.377 160.335 317.354 160.416C317.343 160.459 317.324 160.499 317.298 160.535C317.298 160.535 317.256 160.606 317.221 160.641C317.183 160.682 317.138 160.714 317.087 160.736C317.036 160.758 316.981 160.769 316.925 160.767ZM316.715 160.233L316.848 160.275L316.708 160.156C316.705 160.177 316.705 160.198 316.708 160.219L316.715 160.233Z" fill="#170D42"/>
<path d="M311.163 162.68C311.082 162.68 311.005 162.653 310.942 162.603C310.88 162.553 310.836 162.484 310.818 162.405C310.808 162.361 310.806 162.315 310.814 162.27C310.821 162.225 310.838 162.182 310.862 162.144C310.886 162.105 310.917 162.072 310.955 162.046C310.992 162.019 311.034 162.001 311.078 161.991C312.196 161.73 313.327 161.449 313.981 161.288L314.578 161.14C315.138 160.999 315.678 160.792 316.187 160.521C316.351 160.438 316.504 160.337 316.644 160.219C316.713 160.163 316.801 160.135 316.89 160.141C316.979 160.147 317.062 160.187 317.123 160.252C317.183 160.317 317.217 160.403 317.217 160.492C317.217 160.581 317.183 160.667 317.122 160.732C316.265 161.569 313.777 162.138 311.31 162.659H311.233L311.163 162.68Z" fill="#170D42"/>
<path d="M317.08 160.514H316.982C316.894 160.488 316.82 160.428 316.775 160.348C316.73 160.268 316.719 160.174 316.743 160.085C316.746 160.064 316.746 160.043 316.743 160.022C316.743 159.93 316.777 159.842 316.84 159.776C316.903 159.709 316.989 159.669 317.08 159.663C317.172 159.659 317.262 159.692 317.33 159.754C317.399 159.816 317.44 159.902 317.445 159.994C317.463 160.087 317.463 160.182 317.445 160.275C317.42 160.35 317.371 160.415 317.304 160.458C317.238 160.502 317.159 160.521 317.08 160.514Z" fill="#170D42"/>
<path d="M317.031 160.641C316.97 160.641 316.909 160.626 316.855 160.598C316.777 160.554 316.718 160.481 316.692 160.394C316.666 160.308 316.674 160.215 316.715 160.134C316.717 160.109 316.717 160.083 316.715 160.057C316.754 159.981 316.817 159.92 316.895 159.883C316.972 159.846 317.059 159.836 317.143 159.853C317.185 159.862 317.224 159.879 317.258 159.904C317.293 159.929 317.322 159.96 317.345 159.996C317.367 160.032 317.382 160.072 317.388 160.114C317.395 160.156 317.393 160.199 317.382 160.24C317.382 160.252 317.382 160.263 317.382 160.275C317.362 160.344 317.334 160.41 317.298 160.472C317.269 160.519 317.23 160.558 317.184 160.587C317.138 160.616 317.085 160.635 317.031 160.641Z" fill="#170D42"/>
<path d="M317.101 160.352C317.011 160.352 316.925 160.318 316.86 160.257C316.794 160.195 316.755 160.111 316.75 160.022V159.987C316.751 159.975 316.751 159.963 316.75 159.951C316.725 159.865 316.735 159.772 316.777 159.692C316.818 159.612 316.889 159.552 316.975 159.523C317.061 159.495 317.155 159.501 317.238 159.54C317.32 159.58 317.384 159.649 317.417 159.734C317.439 159.797 317.453 159.863 317.46 159.93V160.001C317.46 160.093 317.424 160.181 317.359 160.247C317.295 160.313 317.207 160.35 317.115 160.352H317.101Z" fill="#170D42"/>
<path d="M317.08 160.205C317.003 160.204 316.928 160.179 316.867 160.132C316.806 160.085 316.763 160.019 316.743 159.945C316.717 159.862 316.722 159.773 316.758 159.694C316.794 159.615 316.857 159.552 316.936 159.517C317.016 159.482 317.105 159.478 317.187 159.505C317.27 159.532 317.339 159.588 317.382 159.663C317.385 159.687 317.385 159.71 317.382 159.734C317.387 159.75 317.387 159.767 317.382 159.783C317.399 159.873 317.381 159.966 317.331 160.044C317.282 160.121 317.204 160.176 317.115 160.198L317.08 160.205Z" fill="#170D42"/>
<path d="M317.059 160.156C316.989 160.154 316.921 160.131 316.864 160.091C316.806 160.051 316.762 159.996 316.736 159.931V159.895C316.709 159.858 316.691 159.815 316.681 159.77C316.671 159.725 316.671 159.679 316.679 159.634C316.688 159.588 316.705 159.545 316.73 159.507C316.756 159.469 316.789 159.436 316.827 159.41C316.9 159.361 316.989 159.34 317.076 159.353C317.163 159.366 317.243 159.412 317.298 159.481C317.335 159.538 317.366 159.599 317.389 159.663C317.406 159.706 317.414 159.752 317.413 159.798C317.412 159.844 317.401 159.89 317.382 159.931C317.363 159.973 317.336 160.011 317.302 160.042C317.268 160.074 317.229 160.098 317.185 160.113C317.147 160.138 317.104 160.152 317.059 160.156Z" fill="#170D42"/>
<path d="M306.791 173.065C305.802 173.064 304.823 172.868 303.91 172.488C303.414 172.286 302.943 172.029 302.504 171.722C301.446 170.986 300.6 169.985 300.052 168.818C299.789 168.274 299.57 167.71 299.398 167.131C299.099 166.164 298.968 165.153 299.011 164.142C299.008 164.119 299.008 164.095 299.011 164.072C299.011 164.072 299.011 164.072 299.011 163.973C299.145 160.17 301.738 157.645 306.356 156.766C306.125 156.623 305.947 156.408 305.85 156.154C305.752 155.9 305.74 155.622 305.814 155.36C305.916 155.076 306.102 154.829 306.346 154.652C306.591 154.475 306.883 154.377 307.185 154.369C312.624 154.263 316.862 159.066 317.024 159.291C317.078 159.325 317.123 159.37 317.157 159.424C317.19 159.45 317.219 159.481 317.242 159.516L317.298 159.6C317.345 159.674 317.381 159.754 317.403 159.839C317.467 160.075 317.439 160.326 317.326 160.542L317.284 160.613C317.248 160.673 317.203 160.727 317.15 160.774L317.094 160.83C316.913 160.985 316.715 161.12 316.504 161.231C315.936 161.535 315.334 161.771 314.712 161.934L314.135 162.082C313.468 162.244 312.336 162.525 311.219 162.785L310.938 162.848L310.544 162.933L310.228 163.003H310.129H310.059L309.813 163.059H309.708C309.518 163.095 309.279 163.137 309.005 163.214C308.658 163.296 308.317 163.404 307.986 163.538C306.63 164.065 305.779 164.803 305.456 165.724C305.33 166.166 305.295 166.629 305.353 167.084C305.411 167.54 305.561 167.979 305.793 168.375C305.889 168.529 305.999 168.672 306.124 168.804C306.826 169.563 308.056 170.21 309.876 169.071C310.123 168.924 310.325 168.712 310.459 168.457C310.593 168.203 310.654 167.917 310.635 167.63C310.613 167.4 310.545 167.177 310.435 166.974C310.325 166.772 310.176 166.593 309.996 166.448C309.766 166.237 309.471 166.108 309.159 166.082C308.847 166.057 308.536 166.136 308.274 166.308C308.132 166.388 308.012 166.501 307.921 166.636C307.831 166.772 307.774 166.927 307.754 167.088C307.75 167.252 307.804 167.411 307.905 167.54C308.007 167.668 308.149 167.757 308.309 167.791C308.404 167.812 308.489 167.864 308.55 167.94C308.612 168.015 308.646 168.109 308.647 168.206C308.646 168.303 308.614 168.398 308.554 168.474C308.494 168.55 308.41 168.605 308.316 168.628C307.96 168.726 307.582 168.711 307.235 168.585C306.887 168.459 306.587 168.229 306.377 167.925C306.157 167.533 306.057 167.084 306.09 166.635C306.122 166.187 306.285 165.758 306.559 165.401C306.719 165.205 306.895 165.024 307.086 164.859C307.295 164.688 307.519 164.535 307.754 164.402C308.636 163.923 309.666 163.796 310.638 164.046C311.61 164.296 312.452 164.905 312.993 165.75C313.534 166.596 313.736 167.615 313.556 168.603C313.377 169.59 312.831 170.474 312.027 171.075C311.122 171.806 310.094 172.371 308.991 172.741L308.857 172.784C308.185 172.97 307.49 173.065 306.791 173.065ZM299.707 164.22C299.67 165.149 299.789 166.078 300.059 166.969C300.221 167.514 300.425 168.045 300.67 168.558C301.388 170.063 302.641 171.246 304.184 171.877C305.601 172.459 307.171 172.553 308.647 172.144H308.71C309.755 171.797 310.729 171.264 311.584 170.569C312.243 170.073 312.69 169.347 312.836 168.536C312.982 167.724 312.816 166.888 312.372 166.193C311.927 165.499 311.237 164.998 310.44 164.791C309.642 164.585 308.796 164.687 308.07 165.077C307.715 165.275 307.399 165.534 307.136 165.844C306.953 166.09 306.845 166.382 306.824 166.688C306.803 166.993 306.87 167.298 307.016 167.566C307.069 167.637 307.13 167.701 307.199 167.756C307.089 167.539 307.041 167.296 307.058 167.053C307.09 166.776 307.188 166.51 307.343 166.277C307.498 166.045 307.707 165.853 307.951 165.717C308.335 165.482 308.785 165.376 309.234 165.415C309.683 165.455 310.108 165.637 310.446 165.935C310.698 166.138 310.907 166.389 311.06 166.674C311.213 166.959 311.308 167.272 311.338 167.595C311.376 168.014 311.292 168.436 311.098 168.81C310.904 169.183 310.607 169.494 310.242 169.704C307.831 171.251 306.201 169.95 305.611 169.317C305.457 169.145 305.316 168.962 305.189 168.769C304.911 168.282 304.734 167.744 304.666 167.188C304.598 166.631 304.642 166.067 304.795 165.527C305.189 164.402 306.201 163.53 307.733 162.919C308.097 162.774 308.47 162.654 308.85 162.56C309.16 162.483 309.413 162.434 309.553 162.406H309.645H309.722L309.954 162.349C310 162.343 310.048 162.343 310.094 162.349C310.192 162.315 310.294 162.291 310.397 162.279C310.495 162.279 310.643 162.216 310.797 162.188L311.064 162.131C312.175 161.871 313.306 161.59 313.96 161.428L314.557 161.281C315.117 161.14 315.657 160.932 316.166 160.662C316.33 160.579 316.483 160.477 316.623 160.359L316.7 160.268C316.719 160.211 316.719 160.149 316.7 160.092V160.05L316.609 159.945L316.532 159.874C316.455 159.79 312.315 155.177 307.339 155.177H307.206C307.046 155.179 306.89 155.229 306.758 155.321C306.627 155.412 306.526 155.541 306.468 155.691C306.468 155.782 306.356 156.162 306.981 156.457L307.086 156.492C307.325 156.56 307.56 156.642 307.789 156.738C307.871 156.774 307.937 156.84 307.972 156.922C308.007 157.004 308.01 157.097 307.979 157.181C307.956 157.249 307.912 157.307 307.854 157.349C307.796 157.39 307.727 157.413 307.656 157.413C304.142 157.835 299.869 159.34 299.7 164.128C299.7 164.22 299.7 164.29 299.7 164.332C299.7 164.374 299.714 164.213 299.707 164.22Z" fill="#170D42"/>
<path d="M323.602 152.787L324.305 152.414L330.433 157.498L329.779 157.863L327.875 156.274L324.979 157.863L325.303 160.324L324.642 160.69L323.602 152.787ZM327.313 155.796L324.326 153.286L324.839 157.16L327.313 155.796Z" fill="#170D42"/>
<path d="M336.238 153.377C335.84 154.316 335.123 155.083 334.214 155.543C333.777 155.791 333.295 155.946 332.796 156.001C332.297 156.056 331.792 156.009 331.312 155.862C330.832 155.715 330.387 155.472 330.004 155.148C329.62 154.824 329.307 154.424 329.083 153.975C328.833 153.533 328.675 153.045 328.618 152.54C328.562 152.035 328.608 151.524 328.753 151.037C328.899 150.551 329.142 150.098 329.466 149.708C329.791 149.317 330.192 148.997 330.644 148.765C331.379 148.338 332.228 148.149 333.075 148.223L333.476 148.927C332.616 148.794 331.736 148.957 330.981 149.391C330.615 149.585 330.293 149.851 330.032 150.174C329.772 150.496 329.579 150.867 329.466 151.266C329.352 151.664 329.32 152.082 329.372 152.493C329.423 152.904 329.557 153.3 329.765 153.659C329.946 154.026 330.201 154.352 330.514 154.615C330.827 154.878 331.192 155.073 331.584 155.188C331.977 155.302 332.389 155.333 332.795 155.28C333.2 155.226 333.59 155.088 333.94 154.875C334.578 154.529 335.101 154.004 335.444 153.363L334.495 151.648L332.618 152.681L332.309 152.119L334.811 150.713L336.238 153.377Z" fill="#170D42"/>
<path d="M334.579 146.733L338.494 144.581L338.817 145.158L335.528 146.972L336.821 149.32L339.562 147.809L339.885 148.392L337.137 149.904L338.466 152.316L341.881 150.431L342.204 151.015L338.156 153.237L334.579 146.733Z" fill="#170D42"/>
<path d="M345.739 146.972L341.368 144.602L344.264 149.869L343.638 150.213L340.061 143.716L340.623 143.407L345.543 146.114L345.866 140.524L346.442 140.25L350.012 146.747L349.387 147.091L346.442 141.79L346.105 146.754L345.739 146.972Z" fill="#170D42"/>
<path d="M356.281 138.991C356.639 139.652 356.793 140.405 356.724 141.153C356.655 141.902 356.366 142.613 355.893 143.198C355.42 143.782 354.785 144.213 354.068 144.436C353.35 144.66 352.583 144.665 351.862 144.452C351.141 144.239 350.5 143.818 350.018 143.24C349.537 142.663 349.238 141.956 349.158 141.208C349.078 140.461 349.221 139.706 349.57 139.04C349.918 138.374 350.456 137.826 351.116 137.466C351.553 137.22 352.036 137.064 352.535 137.008C353.034 136.952 353.539 136.996 354.02 137.139C354.501 137.281 354.95 137.518 355.338 137.836C355.726 138.154 356.047 138.547 356.281 138.991ZM350.279 142.296C350.581 142.814 351.029 143.232 351.566 143.497C352.104 143.762 352.707 143.863 353.302 143.786C353.896 143.71 354.455 143.461 354.909 143.069C355.362 142.677 355.69 142.16 355.852 141.582C356.013 141.005 356.001 140.393 355.817 139.822C355.633 139.252 355.285 138.748 354.817 138.374C354.348 138 353.78 137.773 353.183 137.72C352.586 137.667 351.987 137.791 351.46 138.077C351.103 138.275 350.79 138.541 350.538 138.862C350.286 139.182 350.101 139.55 349.994 139.943C349.886 140.337 349.859 140.747 349.913 141.152C349.966 141.556 350.101 141.945 350.307 142.296H350.279Z" fill="#170D42"/>
<path d="M393.191 -0.0374971C393.36 -0.244537 393.592 -0.390227 393.852 -0.45207C394.112 -0.513913 394.385 -0.488464 394.629 -0.379661C394.872 -0.270858 395.074 -0.0847497 395.201 0.149925C395.329 0.3846 395.376 0.65478 395.335 0.918753L393.838 11.093C393.809 11.2993 393.834 11.5095 393.909 11.7038C393.984 11.8981 394.107 12.0702 394.266 12.2039L402.173 18.7781C402.363 18.9508 402.493 19.1792 402.545 19.4305C402.598 19.6818 402.569 19.9432 402.464 20.1773C402.358 20.4114 402.182 20.6062 401.959 20.7338C401.736 20.8613 401.479 20.9151 401.224 20.8875L391.048 19.3969C390.841 19.3664 390.631 19.39 390.436 19.4651C390.242 19.5403 390.07 19.6645 389.937 19.8258L383.373 27.75C383.199 27.9361 382.97 28.0629 382.72 28.1125C382.469 28.1621 382.21 28.1321 381.977 28.0266C381.745 27.9212 381.551 27.7456 381.423 27.5245C381.296 27.3034 381.24 27.0479 381.265 26.7938L382.755 16.6195C382.786 16.4137 382.764 16.2033 382.69 16.0087C382.616 15.8141 382.493 15.6418 382.333 15.5086L374.42 8.93438C374.229 8.76137 374.098 8.53229 374.046 8.28013C373.994 8.02797 374.023 7.76575 374.129 7.53121C374.236 7.29668 374.414 7.10193 374.638 6.97502C374.862 6.84811 375.12 6.79559 375.376 6.82501L385.545 8.31563C385.752 8.34663 385.964 8.32342 386.16 8.24827C386.356 8.17311 386.529 8.04856 386.662 7.88672L393.191 -0.0374971Z" stroke="#170D42" stroke-miterlimit="10"/>
<path d="M488.727 83.55C488.782 83.3924 488.888 83.2573 489.027 83.1656C489.167 83.0739 489.332 83.0307 489.499 83.0427C489.665 83.0547 489.823 83.1212 489.948 83.232C490.073 83.3428 490.157 83.4916 490.189 83.6555L491.482 89.9836C491.51 90.1116 491.569 90.2305 491.655 90.3289C491.741 90.4274 491.851 90.5022 491.974 90.5461L498.039 92.7258C498.197 92.7808 498.332 92.8862 498.424 93.0256C498.515 93.1651 498.558 93.3309 498.546 93.4975C498.534 93.664 498.468 93.8218 498.357 93.9467C498.246 94.0716 498.098 94.1565 497.934 94.1883L491.609 95.4891C491.481 95.5137 491.362 95.5715 491.263 95.6566C491.164 95.7417 491.09 95.8513 491.047 95.9742L488.868 102.042C488.811 102.198 488.704 102.332 488.565 102.422C488.425 102.512 488.26 102.555 488.094 102.543C487.928 102.531 487.77 102.465 487.645 102.356C487.52 102.247 487.433 102.1 487.399 101.937L486.106 95.6086C486.079 95.4807 486.019 95.3618 485.933 95.2633C485.847 95.1648 485.737 95.0901 485.614 95.0461L479.549 92.8664C479.392 92.8115 479.256 92.7061 479.165 92.5666C479.073 92.4271 479.03 92.2613 479.042 92.0948C479.054 91.9283 479.12 91.7704 479.231 91.6455C479.342 91.5206 479.491 91.4357 479.654 91.4039L485.98 90.1031C486.108 90.0777 486.228 90.0197 486.327 89.9348C486.427 89.8499 486.503 89.7408 486.549 89.618L488.727 83.55Z" stroke="#170D42" stroke-miterlimit="10"/>
<path d="M459.499 26.0766C459.554 26.018 459.626 25.9773 459.705 25.9597C459.784 25.9421 459.867 25.9484 459.942 25.9778C460.017 26.0072 460.082 26.0584 460.128 26.1248C460.175 26.1912 460.2 26.2699 460.201 26.3508L459.913 29.8102C459.907 29.8799 459.918 29.9501 459.946 30.0142C459.975 30.0782 460.019 30.1339 460.075 30.1758L462.886 32.2219C462.945 32.2777 462.985 32.3497 463.003 32.4286C463.02 32.5076 463.014 32.5901 462.985 32.6655C462.955 32.7408 462.904 32.8058 462.838 32.852C462.771 32.8982 462.693 32.9236 462.612 32.925L459.161 32.6297C459.091 32.6258 459.021 32.6391 458.958 32.6685C458.894 32.6979 458.838 32.7426 458.796 32.7985L456.744 35.611C456.692 35.6849 456.616 35.7393 456.53 35.7657C456.443 35.7921 456.35 35.789 456.266 35.7567C456.181 35.7245 456.11 35.6651 456.063 35.5877C456.016 35.5104 455.996 35.4197 456.006 35.3297L456.301 31.8774C456.308 31.807 456.296 31.736 456.266 31.6718C456.236 31.6076 456.19 31.5524 456.132 31.5117L453.321 29.4656C453.247 29.4134 453.193 29.3381 453.167 29.2515C453.14 29.1649 453.143 29.072 453.176 28.9874C453.208 28.9028 453.267 28.8314 453.344 28.7843C453.422 28.7372 453.512 28.7172 453.602 28.7274L457.053 29.0156C457.123 29.0223 457.193 29.011 457.257 28.9827C457.321 28.9543 457.376 28.91 457.418 28.8539L459.499 26.0766Z" stroke="#170D42" stroke-miterlimit="10"/>
<path d="M152.58 1.14374C152.547 0.982893 152.566 0.815583 152.635 0.666481C152.704 0.517379 152.819 0.394377 152.963 0.315605C153.107 0.236833 153.272 0.206462 153.435 0.22897C153.598 0.251478 153.749 0.325673 153.866 0.440617L158.385 5.03905C158.475 5.13009 158.587 5.19661 158.71 5.2323C158.833 5.26798 158.963 5.27165 159.088 5.24296L165.364 3.78046C165.524 3.74711 165.692 3.76632 165.841 3.83526C165.99 3.90421 166.113 4.01924 166.191 4.16339C166.27 4.30755 166.3 4.47319 166.278 4.63591C166.255 4.79863 166.181 4.94982 166.066 5.06718L161.47 9.58827C161.379 9.67882 161.313 9.79048 161.276 9.91321C161.239 10.0359 161.233 10.1659 161.259 10.2914L162.728 16.5633C162.761 16.7241 162.742 16.8914 162.673 17.0405C162.604 17.1896 162.489 17.3126 162.345 17.3914C162.201 17.4702 162.036 17.5005 161.873 17.478C161.71 17.4555 161.559 17.3813 161.442 17.2664L156.923 12.675C156.834 12.5827 156.722 12.5149 156.599 12.4779C156.476 12.441 156.346 12.4362 156.22 12.464L149.944 13.9336C149.782 13.9727 149.612 13.9573 149.459 13.8896C149.307 13.822 149.181 13.706 149.101 13.5595C149.021 13.413 148.991 13.2442 149.016 13.0792C149.042 12.9143 149.121 12.7623 149.242 12.6469L153.831 8.12577C153.922 8.03558 153.989 7.92395 154.026 7.8011C154.063 7.67826 154.068 7.54813 154.042 7.42264L152.58 1.14374Z" stroke="#170D42" stroke-miterlimit="10"/>
<path d="M15.1439 166.16C15.0534 165.909 15.0479 165.636 15.1282 165.381C15.2085 165.127 15.3701 164.906 15.5882 164.753C15.8062 164.599 16.0687 164.522 16.335 164.532C16.6014 164.542 16.857 164.64 17.0625 164.81L25.032 171.3C25.194 171.431 25.3869 171.519 25.5923 171.555C25.7978 171.59 26.0089 171.573 26.2056 171.504L35.897 168.073C36.146 167.992 36.4142 167.994 36.6619 168.079C36.9096 168.163 37.1235 168.325 37.2718 168.54C37.4202 168.756 37.4952 169.014 37.4855 169.275C37.4758 169.537 37.3821 169.788 37.2182 169.992L30.7245 177.966C30.5933 178.128 30.5057 178.321 30.4701 178.526C30.4344 178.732 30.4518 178.943 30.5207 179.14L33.9503 188.836C34.0384 189.086 34.0425 189.358 33.9621 189.61C33.8817 189.862 33.7211 190.082 33.5048 190.234C33.2885 190.387 33.0283 190.465 32.7637 190.456C32.4991 190.448 32.2445 190.353 32.0387 190.186L24.0692 183.696C23.9058 183.565 23.7117 183.477 23.5052 183.442C23.2987 183.406 23.0865 183.423 22.8885 183.492L13.2042 186.923C12.9534 187.014 12.6798 187.019 12.4256 186.939C12.1714 186.859 11.9506 186.697 11.7972 186.479C11.6439 186.261 11.5664 185.998 11.5769 185.732C11.5873 185.465 11.6849 185.209 11.8549 185.004L18.3415 177.031C18.4727 176.868 18.5603 176.675 18.596 176.47C18.6317 176.264 18.6142 176.053 18.5453 175.856L15.1439 166.16Z" stroke="#170D42" stroke-miterlimit="10"/>
</g>
<defs>
<clipPath id="clip0_319_1982">
<rect width="499" height="348" fill="white"/>
</clipPath>
</defs>
</svg>
