<svg width="17" height="19" viewBox="0 0 17 19" fill="none" xmlns="http://www.w3.org/2000/svg">
<path d="M16.0959 7.94516L2.81725 0.2437C2.53325 0.0849133 2.21126 0.000896224 1.88332 7.13056e-06C1.55537 -0.000881963 1.2329 0.0813879 0.947983 0.238632C0.663069 0.395876 0.425642 0.622613 0.259327 0.896285C0.0930119 1.16996 0.00360489 1.48102 0 1.79854L0 17.2015C0.00360489 17.519 0.0930119 17.83 0.259327 18.1037C0.425642 18.3774 0.663069 18.6041 0.947983 18.7614C1.2329 18.9186 1.55537 19.0009 1.88332 19C2.21126 18.9991 2.53325 18.9151 2.81725 18.7563L16.0959 11.0548C16.3719 10.8927 16.6001 10.6645 16.7584 10.3922C16.9168 10.1198 17 9.81255 17 9.5C17 9.18745 16.9168 8.88018 16.7584 8.60783C16.6001 8.33549 16.3719 8.10725 16.0959 7.94516Z" fill="#FAF8FF"/>
</svg>
